<svg width="216" height="247" viewBox="0 0 216 247" fill="none" xmlns="http://www.w3.org/2000/svg">
<g id="2">
<path id="Vector" d="M216 138.565C215.996 158.089 210.702 177.248 200.682 194.005C190.661 210.762 176.288 224.492 159.09 233.735C157.8 234.435 156.49 235.105 155.16 235.745C140.401 242.894 124.21 246.594 107.81 246.565C91.4111 246.535 75.2332 242.777 60.5 235.575C57.96 234.335 55.48 232.995 53.06 231.555C50.6 230.115 48.21 228.565 45.89 226.925C30.6332 216.198 18.4138 201.703 10.4213 184.852C2.42879 168.001 -1.06441 149.367 0.281774 130.765C1.62795 112.163 7.76763 94.2271 18.1031 78.7023C28.4386 63.1775 42.6177 50.5933 59.26 42.1747C65.8338 38.8333 72.7377 36.1857 79.8601 34.2747C83.0001 33.4247 86.1934 32.7181 89.44 32.1547C95.5695 31.0917 101.779 30.5598 108 30.5647C109.28 30.5647 110.55 30.5847 111.82 30.6447C112.75 30.6647 113.68 30.7047 114.61 30.7647C124.332 31.3458 133.93 33.2466 143.14 36.4147C143.93 36.6847 144.72 36.9647 145.5 37.2547C148.22 38.2547 150.88 39.3681 153.48 40.5947C172.158 49.2636 187.968 63.0925 199.045 80.4508C210.123 97.8092 216.005 117.973 216 138.565Z" fill="#006D8F"/>
<g id="hair">
<path id="Vector_2" d="M150.155 28.1246C140.329 4.94052 115.316 0.561975 115.316 0.561975C115.316 0.561975 91.2331 -5.86291 71.1204 24.7353C52.3738 53.2554 28.1989 79.9761 58.8575 91.3599L66.956 74.3518L67.9275 93.9253C72.3857 94.8538 76.8914 95.5375 81.4243 95.9735C115.431 99.4282 147.487 105.172 148.081 92.8828C148.87 76.5455 159.609 50.4324 150.155 28.1246Z" fill="#2F2E41"/>
</g>
<path id="Vector_3" d="M62.8201 217.075L62.0201 223.495L60.5001 235.575C57.9601 234.335 55.4801 232.995 53.0601 231.555C50.6001 230.115 48.2101 228.565 45.8901 226.925L46.1301 220.695L46.4001 213.785L57.5001 216.015L62.8201 217.075Z" fill="#FFB8B8"/>
<path id="Vector_4" d="M115.333 75.9313C131.648 75.9313 144.874 62.7054 144.874 46.3906C144.874 30.0757 131.648 16.8499 115.333 16.8499C99.0183 16.8499 85.7925 30.0757 85.7925 46.3906C85.7925 62.7054 99.0183 75.9313 115.333 75.9313Z" fill="#FFB8B8"/>
<path id="Vector_5" d="M95.0921 57.8787C95.0921 57.8787 97.2803 95.0781 90.7157 97.2663C84.1511 99.4545 124.633 97.2663 124.633 97.2663C124.633 97.2663 119.162 74.2902 124.633 67.7256C130.103 61.161 95.0921 57.8787 95.0921 57.8787Z" fill="#FFB8B8"/>
<path id="Vector_6" d="M125.18 91.2487C125.18 91.2487 96.7335 89.0605 91.263 91.2487C85.7925 93.4369 70.4751 104.378 70.4751 104.378L78.1338 173.306L140.498 186.435L150.344 172.212L160.191 151.424L155.815 125.166L154.721 109.848L125.18 91.2487Z" fill="#D0CDE1"/>
<path id="Vector_7" d="M65.0042 108.754C65.0042 108.754 50.7809 112.037 49.6868 122.978C48.5927 133.919 48.5927 161.271 49.6868 165.648C50.7809 170.024 49.6868 172.212 48.5927 173.306C47.4986 174.4 45.3104 172.212 47.4986 175.495C49.6868 178.777 49.6868 178.777 48.5927 182.059C47.4986 185.341 44.2163 180.965 46.4045 186.436C48.5927 191.906 49.6868 193 48.5927 194.094C47.4986 195.188 44.2163 220.353 44.2163 220.353L62.816 223.635L81.4157 159.083L65.0042 108.754Z" fill="#D0CDE1"/>
<g id="r-hand">
<path id="Vector_8" d="M174.55 223.635C169.694 227.436 164.522 230.815 159.09 233.735L153.85 215.585L153.16 213.195L151.44 207.225L153.29 206.935L172.23 203.945L172.84 209.095L174.55 223.635Z" fill="#FFB8B8"/>
<path id="Vector_9" d="M150.344 108.754C152.422 108.87 154.431 109.54 156.162 110.695C157.894 111.849 159.285 113.446 160.191 115.319C163.473 121.884 172.226 164.554 171.132 167.836C170.038 171.118 167.85 166.742 170.038 173.306C172.226 179.871 170.038 178.777 171.132 183.153C172.226 187.53 166.756 183.153 171.132 187.53C175.509 191.906 177.697 193 175.509 195.188C173.32 197.377 170.038 193 173.32 197.377C176.603 201.753 176.603 208.318 176.603 208.318L150.344 213.788L142.686 152.518L150.344 108.754Z" fill="#D0CDE1"/>
</g>
<path id="Vector_10" d="M153.85 215.585L155.16 235.745C140.401 242.894 124.21 246.594 107.81 246.564C91.4111 246.535 75.2332 242.777 60.5001 235.575C57.9601 234.335 55.4801 232.995 53.0601 231.555C53.9001 228.465 54.7501 225.385 55.6201 222.365C56.2401 220.215 56.8667 218.098 57.5001 216.015C62.4101 199.945 67.7001 186.275 72.6601 180.965C72.6601 180.965 72.6601 168.935 74.8501 167.835C75.9027 167.01 76.7058 165.909 77.1701 164.655C77.9853 162.848 78.6736 160.987 79.2301 159.085L75.61 150.665L59.4101 112.945C58.9489 111.866 58.9167 110.651 59.3199 109.55C59.7231 108.448 60.5314 107.541 61.58 107.015L66.9501 104.325C67.4941 104.055 68.0862 103.895 68.6922 103.854C69.2982 103.813 69.9063 103.893 70.4815 104.088C71.0567 104.283 71.5876 104.59 72.0439 104.991C72.5001 105.392 72.8727 105.879 73.1401 106.425L97.83 156.895L125.18 174.405L144.36 165.875L144.87 165.645C144.87 165.645 159.1 143.765 154.72 132.825C152.85 128.155 150.79 121.915 149.02 116.285C147.99 112.965 147.07 109.855 146.35 107.415C146.237 107.027 146.245 106.614 146.375 106.231C146.504 105.849 146.748 105.515 147.073 105.276C147.399 105.037 147.79 104.904 148.194 104.895C148.597 104.885 148.994 105.001 149.33 105.225L153.06 107.715C153.906 108.282 154.574 109.075 154.99 110.005C155.163 110.368 155.29 110.751 155.37 111.145L163.47 150.335L152.53 173.305V195.185L153.29 206.935L153.69 213.085L153.85 215.585Z" fill="#2F2E41"/>
<path id="Vector_11" d="M144.599 19.7018L119.532 6.57178L84.9162 11.9428L77.7542 43.5748L95.5822 42.8898L100.563 31.2678V42.6978L108.789 42.3818L113.564 23.8798L116.548 43.5748L145.793 42.9788L144.599 19.7018Z" fill="#2F2E41"/>
<path id="Vector_12" d="M85.2452 52.1345C87.058 52.1345 88.5275 49.5629 88.5275 46.3905C88.5275 43.2182 87.058 40.6465 85.2452 40.6465C83.4324 40.6465 81.9629 43.2182 81.9629 46.3905C81.9629 49.5629 83.4324 52.1345 85.2452 52.1345Z" fill="#FFB8B8"/>
</g>
</svg>
