<svg width="261" height="247" viewBox="0 0 261 247" fill="none" xmlns="http://www.w3.org/2000/svg">
<g id="1">
<path id="Vector" d="M6.76301e-06 138.091C-0.00194665 143.641 0.419268 149.184 1.26 154.671C5.30166 180.592 18.6295 204.159 38.76 220.981C39.31 221.441 39.87 221.901 40.44 222.351C41.62 223.301 42.82 224.224 44.04 225.121C45.8 226.421 47.6 227.664 49.44 228.851C63.9051 238.171 80.3848 243.905 97.5107 245.578C114.637 247.251 131.915 244.815 147.91 238.471C148.67 238.171 149.43 237.861 150.18 237.541C151.38 237.031 152.56 236.501 153.74 235.941C156.73 234.551 159.647 233.021 162.49 231.351C165.42 229.641 168.253 227.801 170.99 225.831C172.24 224.931 173.45 224.021 174.66 223.071L174.68 223.061C190.68 210.495 202.817 193.676 209.7 174.531V174.521C217.926 151.487 218.101 126.346 210.197 103.2C202.293 80.0544 186.776 60.2715 166.18 47.0808C165.23 46.4808 164.27 45.8808 163.3 45.3208C162.3 44.7008 161.28 44.1208 160.25 43.5608C146.388 35.8684 130.991 31.3497 115.17 30.3308C112.8 30.1708 110.41 30.0908 108 30.0908C107.88 30.0908 107.76 30.0908 107.64 30.1008C104.4 30.1008 101.2 30.2508 98.04 30.5508C71.2354 33.0329 46.3239 45.4359 28.188 65.3292C10.0522 85.2224 -0.000582091 111.171 6.76301e-06 138.091Z" fill="#006D8F"/>
<path id="Vector_2" d="M40.4399 222.351C41.6199 223.301 42.8199 224.224 44.0399 225.121C45.7999 226.421 47.5999 227.664 49.4399 228.851C63.905 238.17 80.3847 243.905 97.5107 245.578C114.637 247.251 131.915 244.815 147.91 238.471C148.67 238.171 149.43 237.861 150.18 237.541C151.38 237.031 152.56 236.501 153.74 235.941L150.97 231.961C148.962 230.081 146.712 228.477 144.28 227.191C125.33 216.901 89.64 217.221 65.49 218.911C62.05 219.151 58.85 219.421 55.97 219.691C54.17 219.851 52.49 220.021 50.96 220.181C50.34 220.251 49.75 220.311 49.19 220.371C43.8 220.971 40.57 221.441 40.57 221.441L40.4399 222.351Z" fill="#2F2E41"/>
<path id="Vector_3" d="M113.118 56.3691L91.0387 79.5003L84.7302 115.248L140.455 124.711L136.25 92.1173C136.25 92.1173 137.301 76.3461 141.507 73.1918C145.712 70.0376 113.118 56.3691 113.118 56.3691Z" fill="#FFB8B8"/>
<path id="Vector_4" d="M47.9299 224.601C49.7733 224.009 51.6457 223.512 53.5399 223.111C58.307 222.075 63.1554 221.456 68.0299 221.261C79.5657 220.653 91.0746 222.882 101.55 227.751C116.87 235.101 135.05 237.101 147.55 237.481C148.46 237.511 149.34 237.531 150.18 237.541C151.38 237.031 152.56 236.501 153.74 235.941C156.73 234.551 159.647 233.021 162.49 231.351L162.45 227.651L161.79 154.451V154.441L161.48 119.451L141.51 96.321L136.38 90.541L133.94 92.731L119.43 105.791L98.2799 86.201L91.0399 79.501L56.3099 196.411L51.8299 211.491L49.1899 220.371L48.7799 221.731V221.741L47.9299 224.601Z" fill="#2F2E41"/>
<path id="Vector_5" d="M128.62 122.701C128.671 127.953 129.112 133.194 129.94 138.381C133.54 161.371 136.63 199.591 144.28 227.191C145.28 230.831 146.37 234.271 147.55 237.481L147.91 238.471C148.67 238.171 149.43 237.861 150.18 237.541C151.38 237.031 152.56 236.501 153.74 235.941C156.73 234.551 159.647 233.021 162.49 231.351C165.42 229.641 168.253 227.801 170.99 225.831L170.67 224.571V224.561L165.69 204.621C165.69 204.621 168.89 187.931 171.45 169.261V169.251C174.39 147.881 176.49 123.941 172 119.451L136.77 87.2207L136.76 87.2307C135.663 88.9788 134.719 90.8191 133.94 92.7307C131.54 98.4207 128.5 108.461 128.62 122.701Z" fill="#D0CDE1"/>
<path id="Vector_6" d="M19.01 199.291C24.5764 207.385 31.221 214.682 38.76 220.981C39.31 221.441 39.87 221.901 40.44 222.351C41.62 223.301 42.82 224.224 44.04 225.121C45.8 226.421 47.6 227.664 49.44 228.851C50.8 226.961 52.17 225.041 53.54 223.111C54.35 221.981 55.16 220.841 55.97 219.691C57.25 217.871 58.5301 216.041 59.79 214.201C59.95 213.981 60.1 213.761 60.25 213.541C61.85 211.231 63.43 208.911 64.97 206.601C76.33 189.631 85.75 173.341 86.83 163.611C88.13 151.961 90.76 133.941 93.43 116.731C95.15 105.551 96.89 94.7107 98.28 86.2007C99.96 75.8607 101.12 68.9407 101.12 68.9407C101.12 68.9407 46.02 63.4307 38.3 68.8407H38.29C38.0684 68.9679 37.8763 69.1406 37.7264 69.3474C37.5764 69.5543 37.472 69.7906 37.42 70.0407C36.58 75.9007 41.08 130.361 42.94 152.361V152.371C43.42 158.011 43.73 161.511 43.73 161.511C43.73 161.511 40.58 165.721 35.96 172.471C31.25 179.361 25 188.891 19.01 199.291Z" fill="#D0CDE1"/>
<g id="r-hand">
<path id="Vector_7" d="M219.312 175.179C219.312 175.179 250.854 142.585 259.265 162.562C267.677 182.539 227.723 193.053 227.723 193.053L219.312 175.179Z" fill="#FFB8B8"/>
<path id="Vector_8" d="M168.843 148.894L174.101 189.899L220.363 169.922L235.083 200.413L159.381 228.802C159.381 228.802 145.712 156.254 168.843 148.894Z" fill="#D0CDE1"/>
</g>
<g id="head">
<path id="Vector_9" d="M133.119 76.5576C149.806 76.5576 163.333 63.0299 163.333 46.3427C163.333 29.6556 149.806 16.1279 133.119 16.1279C116.431 16.1279 102.904 29.6556 102.904 46.3427C102.904 63.0299 116.431 76.5576 133.119 76.5576Z" fill="#FFB8B8"/>
<path id="Vector_10" d="M163.306 51.8716C163.306 51.8716 167.412 47.4379 166.997 41.8872C166.723 38.7298 166.925 35.5491 167.596 32.4517C167.596 32.4517 166.311 23.3668 164.413 18.1009C162.516 12.8349 164.115 11.0023 155.959 8.12736C147.802 5.25247 152.995 -5.14384 128.947 3.14268C128.032 4.06623 126.864 4.69817 125.591 4.95872C124.318 5.21928 122.996 5.09676 121.792 4.60667C117.352 2.98067 114.676 9.08012 114.676 9.08012C114.676 9.08012 111.907 6.80806 110.353 9.17027C108.799 11.5325 101.284 6.14849 98.5277 23.3335C95.7718 40.5186 105.233 55.8435 105.233 55.8435C105.233 55.8435 106.56 28.3434 122.178 27.8448C137.796 27.3463 155.458 21.4304 157.648 33.0108C158.793 39.4968 160.692 45.8266 163.306 51.8716Z" fill="#2F2E41"/>
</g>
<g id="l-hand">
<path id="Vector_11" d="M38.76 220.981C39.31 221.441 39.87 221.901 40.44 222.351C41.62 223.301 42.82 224.224 44.04 225.121C45.8 226.421 47.6 227.664 49.44 228.851C58.3001 234.583 67.9574 238.977 78.1 241.891C80.58 235.531 74.64 227.621 68.0301 221.261C67.1901 220.451 66.3301 219.661 65.4901 218.911C63.4901 217.141 61.5201 215.541 59.7901 214.201C59.7101 214.141 59.6401 214.091 59.5701 214.031C56.3001 211.511 53.9301 209.961 53.9301 209.961L51.8301 211.491L38.76 220.981Z" fill="#FFB8B8"/>
<path id="Vector_12" d="M1.26001 154.671C5.30167 180.592 18.6295 204.159 38.76 220.981C39.31 221.441 39.87 221.901 40.44 222.351C41.62 223.301 42.82 224.224 44.04 225.121L48.78 221.741V221.731L50.96 220.181L59.57 214.031L60.25 213.541L66.86 208.821L64.97 206.601L56.31 196.411L35.96 172.471L31.11 166.771L42.94 152.371V152.361L55.29 137.331L44.78 70.0409C42.7897 68.9988 40.5315 68.5806 38.3 68.8409H38.29C35.91 69.2509 33.48 70.8909 32.16 75.2909C29.77 83.2609 10.47 131.691 1.26001 154.671Z" fill="#D0CDE1"/>
</g>
</g>
</svg>
