<svg width="300" height="298" viewBox="0 0 300 298" fill="none" xmlns="http://www.w3.org/2000/svg">
<g clip-path="url(#clip0)">
<path opacity="0.1" d="M163.249 64.928C145.234 64.0565 128.078 55.9777 111.703 47.1396C95.3281 38.3014 79.0704 28.5086 61.4981 23.8255C50.1893 20.8132 37.2561 20.3901 28.1445 28.8123C19.3765 36.9164 16.5415 50.9077 15.0186 63.8901C13.8731 73.654 13.1963 83.9351 16.3385 93.0806C18.52 99.4272 22.3912 104.765 25.0674 110.844C34.382 132.002 27.7982 158.094 17.7026 178.754C12.9698 188.445 7.4794 197.688 3.83476 208.006C0.190126 218.323 -1.50984 230.141 1.68703 240.664C4.85526 251.097 12.4075 258.93 20.5871 264.441C37.2014 275.633 56.7731 278.837 75.871 280.649C118.131 284.667 160.614 282.927 202.985 281.188C218.668 280.541 234.418 279.89 249.845 276.519C258.413 274.65 267.256 271.681 273.475 264.513C281.371 255.415 283.326 240.009 278.036 228.604C269.149 209.485 244.612 204.715 238.411 184.171C235.009 172.874 238.502 160.303 243.464 149.816C254.107 127.327 271.947 107.596 272.882 81.8919C273.527 64.2373 264.949 46.5537 251.691 38.2002C237.792 29.4452 218.517 30.5482 208.262 45.0421C197.709 59.952 179.155 65.6946 163.249 64.928Z" fill="#9E63FF"/>
<path d="M22.6009 222.43C21.1526 222.107 19.3708 222.719 18.9502 224.102C18.6679 225.019 18.793 226.371 17.8259 226.566C17.5898 226.593 17.3505 226.581 17.1183 226.53C16.2532 226.413 15.3728 226.544 14.585 226.907C14.0948 227.1 13.6913 227.456 13.4457 227.912C13.084 228.703 13.5183 229.635 14.1166 230.267C14.7148 230.9 15.4943 231.408 15.9976 232.11C16.8384 233.267 16.8446 234.894 16.1636 236.146C15.8034 236.762 15.3193 237.302 14.7399 237.732C14.1605 238.162 13.4977 238.474 12.791 238.649C11.5742 238.986 10.0673 239.072 9.40701 240.131C9.08178 240.655 9.06504 241.303 8.86139 241.881C8.3338 243.489 6.66813 244.41 5.32057 245.474C4.07964 246.454 3.03726 247.65 2.24642 249.002C2.02953 249.333 1.88816 249.706 1.83185 250.095C1.73597 251.218 2.84685 252.046 3.83202 252.645C5.21628 252.447 5.84727 250.457 7.256 250.474C7.72122 250.488 8.12957 250.727 8.56445 250.916C10.1681 251.61 12.0597 251.429 13.6757 250.775C15.2917 250.121 16.6802 249.033 17.9926 247.906C18.8049 247.206 19.6243 246.471 20.6433 246.07C21.6622 245.67 22.9212 245.717 23.7102 246.449C24.7727 247.441 24.5016 249.182 23.7787 250.424C23.2464 251.338 22.5105 252.223 22.4846 253.273C22.4551 254.393 23.2864 255.403 24.3068 255.936C25.3272 256.469 26.49 256.634 27.6295 256.787L30.4137 257.154C30.7756 257.223 31.1473 257.225 31.5094 257.16C31.8853 257.047 32.2293 256.853 32.5147 256.59C33.1998 255.993 33.8 255.31 34.2994 254.558C35.0408 253.442 35.6595 252.093 36.9269 251.599C38.7306 250.897 40.704 252.341 42.6435 252.207C43.981 252.119 45.1613 251.266 45.9459 250.21C46.7304 249.154 47.1798 247.903 47.6201 246.673C48.5046 244.188 49.4101 241.633 49.4864 238.988L30.9618 228.101C29.4401 227.208 27.6514 226.358 26.4183 225.109C25.2755 223.956 24.3292 222.817 22.6009 222.43Z" fill="#006D8F"/>
<path d="M35.0838 234.039L35.0479 233.639C33.0461 233.799 31.2638 234.774 29.5414 235.716C28.8493 236.093 28.1338 236.486 27.4177 236.816C26.3511 237.284 25.2599 237.698 24.1484 238.054C23.7195 238.207 23.2657 238.355 22.8258 238.514C15.2785 241.253 8.68421 246.008 3.79791 252.236L4.12674 252.478C8.96451 246.309 15.4947 241.599 22.9691 238.888C23.4023 238.728 23.8536 238.578 24.2876 238.429C25.4123 238.068 26.5166 237.65 27.5961 237.176C28.3232 236.839 29.0441 236.442 29.7487 236.056C31.4272 235.142 33.1712 234.192 35.0838 234.039Z" fill="#001F28"/>
<path d="M41.0591 238.073L40.8862 237.709C38.4901 238.782 36.4291 240.452 34.9108 242.551C34.3272 243.39 33.7891 244.257 33.2988 245.151C32.5469 246.443 31.7882 247.788 30.745 248.878C30.2901 249.336 29.8106 249.77 29.3084 250.178C28.6108 250.74 27.9684 251.364 27.3894 252.042C27.0578 252.469 26.7513 252.914 26.4713 253.374C25.8898 254.291 25.339 255.156 24.4456 255.686L24.6635 256.024C25.6284 255.442 26.2325 254.498 26.8113 253.579C27.0845 253.132 27.382 252.699 27.7025 252.282C28.2667 251.625 28.8921 251.02 29.5708 250.475C30.0797 250.055 30.5661 249.61 31.0277 249.141C32.1034 248.012 32.884 246.653 33.6373 245.335C34.1214 244.455 34.6522 243.6 35.2274 242.773C36.71 240.732 38.7218 239.11 41.0591 238.073Z" fill="#001F28"/>
<path d="M33.9752 235.289L33.9352 234.89C30.1138 235.208 26.2758 234.428 22.896 232.646C20.0099 231.115 17.5623 228.895 15.1927 226.752L14.914 227.044C17.2998 229.206 19.7691 231.441 22.6942 233.01C26.1492 234.827 30.0715 235.619 33.9752 235.289Z" fill="#001F28"/>
<path d="M17.8251 242.71C18.2294 242.015 18.579 241.303 18.9094 240.63L18.5373 240.457C17.7879 241.978 16.9419 243.701 15.5966 244.925C15.4867 245.026 15.3688 245.129 15.2538 245.227C14.7672 245.648 14.2598 246.088 14.0196 246.705L14.4066 246.847C14.6076 246.32 15.0567 245.934 15.5177 245.522C15.6356 245.419 15.7531 245.322 15.8688 245.211C16.6466 244.478 17.306 243.635 17.8251 242.71Z" fill="#001F28"/>
<path d="M28.0218 256.528C27.8807 255.911 28.2713 255.275 28.6158 254.712C29.3975 253.433 30.4682 251.489 30.7209 249.341L30.3145 249.291C30.0582 251.357 29.0254 253.26 28.2523 254.501C27.9018 255.103 27.4346 255.836 27.6086 256.607L28.0218 256.528Z" fill="#001F28"/>
<path d="M39.4027 251.484C39.6075 249.998 40.1605 248.562 40.695 247.176C41.1504 245.867 41.7361 244.604 42.4437 243.406C43.1444 242.225 44.1848 241.27 45.4372 240.659L45.2643 240.296C43.9381 240.939 42.8359 241.947 42.0934 243.195C41.3727 244.415 40.7761 245.7 40.312 247.033C39.7685 248.441 39.2064 249.898 38.9952 251.43L39.4027 251.484Z" fill="#001F28"/>
<path d="M0.231625 201.064C0.231625 206.02 4.94295 224.135 10.8586 229.261C16.7743 234.387 23.9267 233.703 23.9267 233.703C29.2416 238.324 33.261 238.612 35.1455 238.405C35.5479 238.368 35.9439 238.281 36.3234 238.145C36.3234 238.145 37.6425 238.612 39.2179 239.075C41.2114 239.652 43.6347 240.23 44.3032 239.854C45.5222 239.173 47.0917 239.854 47.0917 239.854C47.7956 241.489 48.8915 242.934 50.2865 244.064C51.6814 245.195 53.334 245.979 55.1039 246.349C58.2428 250.45 63.119 250.28 63.119 250.28C69.0435 253.696 71.3109 251.146 71.3109 251.146C75.1388 252.512 81.7641 250.462 81.7641 250.462C90.6509 247.897 99.1872 230.298 99.1872 230.298C99.1872 230.298 101.452 225.343 102.847 223.974C104.243 222.605 106.331 218.848 107.029 216.797C107.726 214.747 108.772 207.57 108.772 207.57C112.255 201.075 111.384 190.483 111.384 190.483C105.815 164.157 83.5132 159.383 83.5132 159.383C83.469 158.895 83.0185 158.45 82.3795 158.06C80.5716 156.96 77.2412 156.307 77.2412 156.307C76.7201 155.441 72.5299 153.232 72.5299 153.232C72.5299 153.232 50.4014 154.257 47.4391 153.232C44.4769 152.206 38.8999 155.452 38.8999 155.452C36.2497 154.626 30.7434 156.995 27.6162 158.528C26.2293 159.21 25.3077 159.726 25.3077 159.726C24.7188 159.919 24.1465 160.127 23.591 160.35C-2.94558 170.542 0.231625 196.212 0.231625 201.064Z" fill="#9E63FF"/>
<path opacity="0.1" d="M99.8502 206.872C99.9591 208.044 100.065 209.246 99.7589 210.383C99.5145 211.281 99.0169 212.174 99.2053 213.084C98.3426 210.458 98.6164 207.628 98.4721 204.876C98.1777 199.184 95.8691 193.518 96.4345 187.791C97.9421 190.171 98.2866 194.174 98.7283 197.001C99.2318 200.273 99.538 203.568 99.8502 206.872Z" fill="black"/>
<path opacity="0.1" d="M16.0005 191.395C15.4764 181.813 29.9372 165.352 32.0279 163.472C34.1185 161.592 37.7786 165.095 37.7786 165.095C37.7786 165.095 30.2876 180.979 30.1227 183.549C29.9578 186.119 31.171 185.429 31.171 185.429C32.8229 171.417 39.1832 165.523 39.1832 165.523C43.3645 164.656 47.9816 165.606 47.9816 165.606L46.2414 168.171L47.8079 167.827L47.1983 172.358H47.6342C47.6342 172.358 48.5175 171.931 49.1064 168.512C49.6954 165.092 54.0739 166.802 54.0739 166.802L55.8024 168.598C57.2747 165.606 60.1722 167.316 60.1722 167.316C60.1722 167.316 60.4313 167.827 62.1745 170.244C63.9177 172.662 64.6126 180.817 64.6126 180.817C65.2221 181.499 66.0849 180.817 66.0849 180.817C66.0849 180.817 63.6468 169.265 62.8635 167.657C62.0803 166.048 68.788 166.632 68.788 166.632C68.788 166.632 72.1831 173.126 72.616 172.783C73.0488 172.439 70.699 166.892 70.699 166.892C71.656 163.729 75.5753 168.003 75.5753 168.003C75.5753 168.003 80.2866 176.803 80.6282 176.632C80.9697 176.462 77.0564 168.855 77.0564 168.855L76.4469 167.576C76.4469 167.576 72.7868 165.866 77.4068 164.157C82.0268 162.447 89.3235 171.46 89.4266 171.59C87.8571 167.232 81.326 163.9 81.326 163.9C81.326 163.9 80.7165 163.559 81.326 162.534C81.9356 161.508 83.5139 159.383 83.5139 159.383C83.4697 158.895 83.0192 158.45 82.3802 158.06C82.0906 158.377 81.8558 158.738 81.6853 159.129C81.2141 160.324 79.4209 162.204 79.4209 162.204L78.2872 161.179L77.5923 161.607L77.6777 163.051C76.2849 162.707 73.7585 164.495 73.7585 164.495L70.6225 162.701L70.2721 163.299L71.6649 164.743C71.6178 164.702 70.9464 164.18 70.2721 165.087C69.5978 165.993 66.8711 163.137 66.8711 163.137L66.347 163.394L67.566 164.931C66.4353 164.847 61.6415 166.129 61.6415 166.129L60.8583 164.76H59.7275V166.129L50.3049 164.76L49.8691 163.394L48.2142 164.931L41.8539 163.565C41.8539 163.565 42.3781 161.173 39.0684 162.967C35.7586 164.76 34.625 160.916 34.1009 161.087C33.5767 161.257 32.0985 161.855 32.0985 161.855C32.0985 161.855 31.5744 160.746 30.8795 160.833C30.1846 160.919 28.4384 159.891 28.4384 159.891L27.6287 158.517C26.2418 159.198 25.3201 159.715 25.3201 159.715C24.7312 159.908 24.159 160.116 23.6034 160.339C23.6802 160.448 23.7797 160.541 23.8954 160.61C24.0111 160.679 24.1404 160.723 24.2748 160.74C25.7471 160.827 30.1993 161.607 30.1993 161.607L30.6351 162.802C18.527 169.638 15.0288 191.41 15.0288 191.41L16.0005 191.395Z" fill="black"/>
<path opacity="0.1" d="M29.5896 213.479C29.6022 215.801 29.9269 218.111 30.5554 220.35C30.8852 221.447 31.3121 222.516 31.6508 223.61C32.7138 227.047 32.911 230.786 34.6807 233.931C35.1607 234.798 35.7702 235.664 35.7496 236.623C35.6959 237.255 35.4889 237.866 35.146 238.405C35.5484 238.368 35.9443 238.281 36.3238 238.145C36.3238 238.145 37.643 238.613 39.2183 239.075C38.662 237.605 37.9243 236.207 37.0217 234.913C36.5339 234.282 36.1005 233.611 35.7261 232.909C35.4988 232.388 35.3166 231.849 35.1813 231.298C33.7404 226.099 32.2996 220.908 30.8587 215.723C30.3208 214.057 30.1207 212.304 30.2698 210.562C30.2933 209.716 30.682 207.963 30.1166 207.305C29.4335 207.79 29.6661 209.326 29.6367 210.077C29.5896 211.212 29.566 212.347 29.5896 213.479Z" fill="black"/>
<path d="M44.863 149.807C44.9888 150.839 45.2065 151.858 45.5137 152.853C46.1674 155.288 45.8788 159.371 48.9059 160.091C53.0283 161.072 57.5099 161.332 61.7501 161.367C62.8926 161.367 64.0616 161.353 65.1305 160.963C64.2239 160.409 63.4426 159.679 62.8349 158.818C62.2271 157.957 61.8058 156.982 61.597 155.955C61.4468 155.184 61.4174 154.398 61.3025 153.624C61.1023 152.339 60.643 151.112 60.322 149.85C59.9798 148.411 59.7388 146.952 59.6006 145.481C59.1208 141.11 58.8937 136.716 58.9204 132.32C58.9204 130.715 58.9881 129.051 59.683 127.596L59.792 127.376C59.9647 127.08 60.0879 126.758 60.1571 126.423C60.1834 126.099 60.1316 125.773 60.0057 125.472C59.8799 125.171 59.6836 124.903 59.4327 124.691C58.9236 124.267 58.3371 123.941 57.7043 123.732C56.1554 123.14 54.4093 122.629 53.5082 121.254C53.2138 120.818 52.9871 120.269 52.4835 120.113C52.3342 120.071 52.1768 120.062 52.0237 120.089C51.8705 120.115 51.7256 120.176 51.6002 120.266C51.276 120.49 50.9991 120.774 50.7845 121.101C48.797 123.953 47.4446 127.183 46.8152 130.582C46.5914 131.801 46.4619 133.031 46.3294 134.261L44.9866 146.968C44.8557 147.908 44.8143 148.859 44.863 149.807Z" fill="#322C35"/>
<path opacity="0.1" d="M51.5974 120.255C51.6445 121.699 52.1863 123.457 52.2953 124.298C52.3186 124.669 52.4251 125.031 52.6074 125.358C53.2611 126.348 54.8364 125.999 55.9142 126.513C56.2557 126.68 56.5472 126.937 56.8947 127.09C57.3377 127.253 57.8089 127.328 58.2816 127.313L59.7863 127.356C59.959 127.059 60.0822 126.738 60.1514 126.403C60.1777 126.079 60.1259 125.753 60 125.452C59.8742 125.151 59.6779 124.883 59.427 124.67C58.9179 124.246 58.3314 123.921 57.6986 123.711C56.1497 123.119 54.4036 122.608 53.5025 121.234C53.2081 120.798 52.9814 120.249 52.4778 120.093C52.3282 120.052 52.1711 120.045 52.0185 120.073C51.8658 120.101 51.7218 120.163 51.5974 120.255Z" fill="black"/>
<path opacity="0.1" d="M56.8213 129.476L56.1705 131.679C55.4579 134.091 54.7424 136.513 54.4332 138.988C54.2174 138.786 54.0594 138.531 53.9747 138.25C53.89 137.969 53.8816 137.671 53.9503 137.386C54.0445 136.808 54.2948 136.277 54.389 135.711C54.5245 134.922 54.3596 134.122 54.4244 133.328C54.5039 132.349 54.9279 131.419 55.349 130.507C55.5816 129.998 56.3295 127.523 56.8831 127.396C57.9638 127.154 56.9126 129.164 56.8213 129.476Z" fill="black"/>
<path opacity="0.1" d="M53.4732 128.976C53.3908 129.383 53.3672 129.799 53.326 130.212C53.1598 131.835 52.7314 133.422 52.0569 134.914C52.0614 133.887 52.153 132.862 52.3307 131.85L52.6635 129.594C52.7459 129.017 52.7901 126.77 53.6646 126.706C54.71 126.646 53.5616 128.531 53.4732 128.976Z" fill="black"/>
<path opacity="0.1" d="M48.5941 137.932C48.3492 139.192 48.1889 140.468 48.1141 141.749C48.011 143.54 48.0905 145.342 47.8815 147.127C47.3426 144.268 46.8038 141.351 47.2926 138.483C47.4438 137.66 47.6404 136.845 47.8815 136.043C48.7079 133.061 49.5972 130.092 50.5493 127.137C50.7878 126.397 51.1617 125.34 52.1187 125.115C52.9874 126.013 52.2777 126.885 51.8773 127.867C51.4267 128.973 50.9939 130.085 50.5699 131.203C49.731 133.391 49.0704 135.641 48.5941 137.932Z" fill="black"/>
<path opacity="0.1" d="M55.0484 156.42C55.0449 157.432 55.1796 158.44 55.4489 159.417C55.7437 160.222 56.1393 160.987 56.6267 161.696C55.9433 161.63 55.2667 161.508 54.6038 161.332C54.4538 161.298 54.3169 161.223 54.2092 161.116C54.1273 161.003 54.0765 160.872 54.062 160.734C53.5261 158.008 53.0471 155.27 52.625 152.521C52.4752 151.727 52.4189 150.919 52.4572 150.113C52.5337 149.229 52.8694 147.978 53.5467 147.34C54.5832 146.364 54.701 147.831 54.7422 148.706C54.8482 151.297 54.9424 153.852 55.0484 156.42Z" fill="black"/>
<path opacity="0.1" d="M50.0601 158.909C49.8658 158.664 49.5419 158.546 49.3416 158.306C49.0472 157.959 49.0913 157.463 49.0678 157.015C49.0501 156.66 47.993 153.116 49.218 153.575C49.8304 153.804 49.9924 158.228 50.0601 158.909Z" fill="black"/>
<path d="M74.9745 134.948L66.7886 137.602C66.0935 137.802 65.4214 138.072 64.7833 138.408C64.2617 138.724 63.7761 139.094 63.3346 139.511C60.5932 141.992 58.4525 145.229 57.8223 148.833C57.1215 152.839 58.3053 156.905 59.4743 160.804C59.5205 161.034 59.6317 161.247 59.7952 161.419C60.0897 161.667 60.5108 161.621 60.8847 161.555C62.3452 161.3 63.792 160.981 65.225 160.596C65.9944 160.409 66.743 160.148 67.46 159.816C68.1717 159.446 68.8359 158.994 69.4387 158.47C73.9086 154.733 76.4615 149.301 78.8113 144.031C79.2186 143.184 79.5449 142.303 79.786 141.397C80.1982 139.609 79.9332 137.747 79.6682 135.93C79.5239 134.96 79.5887 133.426 79.0793 132.603C77.9019 133.669 76.5009 134.47 74.9745 134.948Z" fill="#006D8F"/>
<path d="M59.1563 161.156L62.731 158.083C65.1721 155.987 67.6956 153.818 69.8333 151.34C73.249 147.387 75.6106 142.766 77.6512 138.362C78.5022 136.528 79.2678 134.723 79.2678 132.826H78.9586C78.9586 134.665 78.2077 136.436 77.3715 138.238C75.3397 142.621 72.9899 147.219 69.6007 151.147C67.4777 153.604 64.96 155.767 62.5337 157.858L58.959 160.928L59.1563 161.156Z" fill="#001F28"/>
<path d="M68.8201 152.253L69.9567 148.279C70.098 147.788 70.2512 147.277 70.3454 146.763C70.4853 145.984 70.5543 145.194 70.5515 144.403C70.5749 141.857 70.1883 139.323 69.4061 136.895L69.1116 136.987C69.8853 139.386 70.2669 141.89 70.2423 144.406C70.2471 145.181 70.1801 145.954 70.0421 146.717C69.9449 147.216 69.8006 147.719 69.6623 148.207L68.5227 152.163L68.8201 152.253Z" fill="#001F28"/>
<path d="M90.7779 174.689C92.1118 176.791 93.6489 178.778 94.7355 181.013C95.822 183.248 96.4345 185.819 95.7837 188.21C95.292 190.018 94.1259 191.569 92.9481 193.041C92.0535 194.187 91.0982 195.286 90.086 196.334C88.1367 198.303 85.8399 199.969 84.2321 202.216C82.6244 204.463 81.8294 207.576 83.2398 209.944C80.2275 209.367 77.6922 207.279 75.952 204.795C74.2117 202.312 73.1694 199.438 72.1623 196.591C71.326 194.237 70.4927 191.788 70.7371 189.304C71.0551 186.064 73.1959 183.222 75.793 181.195C78.3901 179.168 81.4466 177.808 84.3882 176.286C85.4954 175.708 86.6143 175.099 87.427 174.169C88.0807 173.421 88.1249 172.026 88.8581 171.489C89.6561 172.263 90.1596 173.715 90.7779 174.689Z" fill="#006D8F"/>
<path d="M82.7125 209.693L82.895 209.45C81.2755 208.269 80.8014 206.132 80.4569 204.044C80.0889 201.823 79.7325 199.568 79.3998 197.344C78.8784 195.017 79.0836 192.59 79.9887 190.379C80.8721 187.598 81.7408 185.12 83.2278 182.954C83.8845 182.036 84.5943 181.156 85.3537 180.317C86.0251 179.546 86.723 178.746 87.3296 177.897C88.4073 176.387 89.5881 174.091 89.0757 171.726L88.7812 171.786C89.27 174.048 88.1276 176.263 87.0822 177.724C86.4933 178.561 85.7925 179.356 85.1241 180.124C84.3583 180.971 83.6416 181.86 82.9775 182.786C81.4699 184.987 80.6012 187.485 79.7031 190.295C78.787 192.55 78.5818 195.023 79.1142 197.393C79.4469 199.62 79.8032 201.875 80.1713 204.096C80.5099 206.242 81.0046 208.445 82.7125 209.693Z" fill="#001F28"/>
<path d="M78.9262 195.262C80.2167 193.113 81.9232 191.231 83.9497 189.723C84.7359 189.146 85.5839 188.606 86.4054 188.089C87.7894 187.222 89.2234 186.313 90.4101 185.146C92.1074 183.475 93.2489 181.34 93.6845 179.021L93.39 178.969C92.9662 181.224 91.8577 183.3 90.2099 184.926C89.032 186.067 87.6274 186.948 86.2553 187.814C85.4308 188.334 84.5769 188.871 83.7818 189.46C81.7116 190.997 79.968 192.916 78.6494 195.109L78.9262 195.262Z" fill="#001F28"/>
<path d="M81.6734 185.775H81.9678C81.9355 184.964 81.4202 184.317 80.9196 183.69C80.5103 183.176 80.0863 182.645 79.9508 182.036C79.8686 181.48 79.9006 180.913 80.045 180.369C80.1658 179.737 80.2894 179.087 80.101 178.455L79.8065 178.538C79.9744 179.116 79.8625 179.694 79.7447 180.314C79.5915 180.897 79.5594 181.504 79.6505 182.099C79.8006 182.778 80.2394 183.335 80.6781 183.878C81.1817 184.479 81.6439 185.062 81.6734 185.775Z" fill="#001F28"/>
<path d="M80.0097 201.012L80.2364 200.81C79.496 200.001 78.6563 199.285 77.7364 198.679C77.5156 198.534 77.2859 198.39 77.0651 198.254C76.2789 197.769 75.4632 197.263 74.9214 196.521C74.5415 195.956 74.2441 195.342 74.038 194.696C74.0027 194.601 73.9644 194.506 73.9291 194.407C73.228 192.556 72.3016 190.794 71.17 189.16L70.9138 189.328C72.0334 190.946 72.949 192.691 73.6405 194.526C73.6788 194.621 73.7141 194.713 73.7495 194.815C73.9631 195.487 74.2724 196.127 74.6682 196.715C75.2571 197.489 76.0845 198.011 76.8943 198.514C77.1151 198.65 77.3419 198.803 77.5598 198.933C78.4602 199.525 79.283 200.223 80.0097 201.012Z" fill="#001F28"/>
<path d="M89.8122 216.815C89.0761 216.584 88.6344 215.862 88.1632 215.267C87.1562 214.022 85.731 213.196 84.3942 212.298C83.0574 211.4 81.7441 210.34 81.1316 208.87L83.4136 207.923C83.8544 209.646 84.92 211.152 86.4112 212.159C87.6273 213.026 89.0613 213.124 90.2951 213.805C91.1785 214.308 91.0077 213.982 90.5896 214.981C90.5219 215.157 89.6915 216.777 89.8122 216.815Z" fill="#8F7345"/>
<path d="M74.4445 144.842C75.9612 144.442 77.2904 143.54 78.2076 142.289C78.4579 141.946 78.6788 141.57 78.8908 141.209C79.3118 140.499 79.7064 139.826 80.3218 139.335L80.1275 139.101C79.4679 139.627 79.0409 140.354 78.6258 141.059C78.4211 141.421 78.198 141.773 77.9573 142.113C77.0827 143.307 75.8149 144.168 74.3679 144.551L74.4445 144.842Z" fill="#001F28"/>
<path d="M67.0063 156.137C67.4999 156.149 67.9921 156.078 68.4609 155.926C68.8582 155.775 69.2374 155.581 69.5916 155.348L73.2312 153.099C73.7965 152.749 74.3796 152.388 74.9802 152.088L74.8419 151.819C74.2264 152.128 73.6375 152.492 73.0751 152.845L69.4356 155.091C69.0998 155.316 68.7405 155.505 68.3638 155.655C67.8963 155.802 67.4056 155.867 66.915 155.845C66.2422 155.836 65.573 155.748 64.9215 155.582L64.845 155.871C65.5183 156.043 66.2104 156.134 66.9062 156.143L67.0063 156.137Z" fill="#001F28"/>
<path d="M43.4115 231.364C45.4079 236.701 48.3289 241.951 53.0638 245.226C53.9825 245.861 54.963 246.416 55.8052 247.146C56.8476 248.056 57.7074 249.252 59.0148 249.746C60.3222 250.239 61.7974 249.913 63.04 250.485C63.9646 250.909 64.6095 251.758 65.4634 252.307C66.1941 252.76 67.0467 252.988 67.9108 252.961C68.7748 252.933 69.6107 252.652 70.3102 252.154C70.6871 251.865 71.0404 251.522 71.5057 251.441C71.9709 251.36 72.4745 251.591 72.9426 251.761C74.4679 252.307 76.1522 252.125 77.7629 251.935C80.787 251.582 83.923 251.189 86.5113 249.624C88.6667 248.31 90.2597 246.28 91.6937 244.227C93.5846 241.518 95.2875 238.687 96.7908 235.754C98.5988 232.225 100.124 228.057 98.5575 224.419C98.2336 223.665 97.7861 222.975 97.4945 222.198C97.1947 221.301 96.9972 220.374 96.9056 219.434C96.2402 214.646 95.1389 209.812 92.5859 205.682C90.033 201.552 85.7928 198.196 80.8989 197.651C77.4096 197.264 73.8496 198.297 70.3897 197.714H70.3603C68.6966 197.425 67.1035 196.776 65.4192 196.62C62.8987 196.386 61.0613 198.081 58.8234 198.887C56.5855 199.692 54.4065 200.804 53.211 202.883C52.9725 203.296 52.7841 203.75 52.5603 204.16C52.4181 204.439 52.2485 204.704 52.0538 204.951C51.5032 205.633 50.7111 206.08 50.0427 206.655C46.9773 209.298 47.1363 213.941 45.7023 217.693C44.6276 220.491 42.5634 222.989 42.322 225.969C42.1806 227.797 42.7607 229.625 43.4115 231.364Z" fill="#9E63FF"/>
<path opacity="0.1" d="M43.5734 231.364C45.5698 236.701 48.4879 241.951 53.2257 245.226C54.1444 245.861 55.125 246.416 55.9642 247.146C57.0095 248.056 57.8693 249.252 59.1767 249.746C60.4841 250.239 61.9594 249.913 63.202 250.485C64.1266 250.909 64.7714 251.758 65.6224 252.307C66.3537 252.76 67.2067 252.988 68.0712 252.96C68.9357 252.933 69.772 252.652 70.4721 252.154C70.8461 251.865 71.2024 251.522 71.65 251.441C72.0976 251.36 72.6217 251.591 73.0899 251.761C74.6152 252.307 76.2965 252.125 77.9102 251.935C80.9342 251.582 84.0702 251.189 86.6556 249.624C88.8139 248.31 90.407 246.28 91.841 244.227C93.7308 241.517 95.4336 238.686 96.938 235.754C98.746 232.225 100.271 228.057 98.7048 224.419C98.3809 223.665 97.9333 222.975 97.6418 222.198C97.3405 221.301 97.143 220.374 97.0529 219.434C96.3874 214.646 95.2861 209.812 92.7332 205.682C90.1802 201.552 85.94 198.196 81.0432 197.651C77.5568 197.264 73.9968 198.297 70.5369 197.714H70.5075C68.8438 197.425 67.2508 196.776 65.5665 196.62C63.0459 196.386 61.2085 198.081 58.9706 198.887C56.7327 199.692 54.5537 200.804 53.3582 202.883C53.1197 203.296 52.9313 203.75 52.7075 204.16C52.5654 204.439 52.3957 204.704 52.201 204.951C51.6504 205.633 50.8583 206.08 50.1899 206.655C47.1246 209.298 47.2836 213.941 45.8466 217.693C44.7748 220.491 42.7106 222.989 42.4662 225.969C42.3425 227.797 42.9226 229.625 43.5734 231.364Z" fill="black"/>
<path opacity="0.1" d="M52.572 204.145C53.0467 204.52 53.577 204.821 54.1444 205.038C55.3864 205.582 56.7668 205.745 58.1049 205.506C60.0366 205.098 61.5412 203.672 63.1873 202.6C64.0272 202.056 64.921 201.597 65.855 201.229C67.3273 200.651 70.3279 199.935 70.4074 197.919C70.4119 197.847 70.4119 197.775 70.4074 197.703H70.3779C68.7142 197.414 67.1212 196.764 65.4369 196.608C62.9164 196.374 61.0789 198.069 58.841 198.875C56.6032 199.681 54.4242 200.793 53.2287 202.872C52.9843 203.279 52.7958 203.718 52.572 204.145Z" fill="black"/>
<path d="M57.9105 193.015C56.8698 191.895 55.5938 191.01 54.1704 190.42C52.747 189.83 51.2101 189.55 49.6657 189.599C49.4009 191.16 49.3268 192.746 49.4448 194.324C51.297 194.699 53.1785 195.083 54.8481 195.949C56.5177 196.816 57.9841 198.26 58.4258 200.053C59.1295 202.941 60.6637 201.722 60.5665 199.351C60.4425 197.004 59.5055 194.769 57.9105 193.015Z" fill="#322C35"/>
<path opacity="0.1" d="M88.4193 208.922C90.6836 212.725 91.8467 217.057 92.7301 221.378C93.0771 222.94 93.3132 224.525 93.4368 226.12C93.7313 231.029 92.206 235.863 90.6984 240.559H89.1407L89.5205 231.029C89.6648 227.425 89.815 223.792 89.1878 220.237C88.0264 213.739 84.4159 207.908 79.0732 203.9C78.5343 203.499 77.9513 203.086 77.701 202.456C76.3465 199.077 82.2886 202.407 83.0277 202.938C85.2238 204.55 87.0589 206.586 88.4193 208.922Z" fill="black"/>
<path d="M79.8566 213.823L86.0107 222.255L81.8324 223.206L79.8566 220.219L78.3548 220.837L77.0769 219.373C77.0769 219.373 79.9714 215.076 79.8566 213.823Z" fill="#322C35"/>
<path d="M73.4667 222.027L77.0679 228.063L72.4214 229.316C72.4214 229.316 72.5392 222.709 73.4667 222.027Z" fill="#322C35"/>
<path d="M63.2463 215.882L66.8446 220.838L65.7992 221.456L64.059 225.299L61.4884 225.672L59.8777 224.765L63.2463 215.882Z" fill="#322C35"/>
<path d="M88.6844 226.697L88.2191 231.482H86.5937L82.2947 242.479H80.3188L78.6934 238.035L74.7448 239.075L73.4668 243.669L65.6843 242.988L63.361 235.185L57.4365 234.442V229.316L64.7567 231.595L65.9169 236.837L71.7236 237.518L74.7448 231.595L80.6692 236.38L83.4578 228.291L88.6844 226.697Z" fill="#322C35"/>
<path d="M130.786 114.265C130.998 116.165 132.782 117.693 134.093 119.307C135.403 120.922 136.21 123.183 134.599 124.624C134.06 125.106 133.321 125.421 132.697 125.834C131.727 126.455 131.019 127.401 130.705 128.494C130.391 129.588 130.492 130.757 130.989 131.783C132.296 134.501 135.965 136.56 135.921 139.456C135.921 140.484 135.403 141.463 134.905 142.416L131.946 148.12C131.127 149.688 130.3 151.297 130.197 152.977C130.126 153.873 130.317 154.77 130.75 155.562C131.182 156.355 131.836 157.009 132.635 157.448C128.248 157.379 123.507 156.218 121.187 153.324C119.915 151.733 119.541 149.818 119.161 147.967C118.637 145.414 117.983 142.749 115.889 140.747C115.065 139.956 114.043 139.303 113.239 138.489C112.222 137.488 111.603 136.164 111.496 134.755C111.278 130.928 115.247 127.549 115.159 123.72C115.103 121.15 113.221 118.831 112.509 116.318C111.658 113.274 112.585 110.078 114.193 107.227C114.427 106.767 114.738 106.348 115.112 105.988C117.394 103.926 124.62 102.318 127.824 103.831C129.484 104.619 131.063 106.41 131.56 107.831C132.367 110.031 130.539 112.062 130.786 114.265Z" fill="#322C35"/>
<path opacity="0.1" d="M132.627 157.442C131.726 157.428 130.826 157.366 129.932 157.257C129.226 156.79 128.658 156.147 128.288 155.394C127.917 154.641 127.757 153.805 127.824 152.972C127.927 151.282 128.754 149.68 129.57 148.114L132.535 142.417C133.033 141.464 133.536 140.485 133.551 139.456C133.595 136.569 129.923 134.498 128.619 131.783C128.122 130.757 128.021 129.588 128.335 128.495C128.649 127.401 129.357 126.456 130.327 125.834C130.951 125.421 131.69 125.106 132.229 124.624C133.84 123.18 133.033 120.922 131.723 119.307C130.412 117.693 128.619 116.165 128.413 114.265C128.166 112.062 129.994 110.032 129.202 107.814C128.693 106.396 127.123 104.602 125.462 103.817C124.759 103.511 124.007 103.326 123.239 103.271C125.006 103.132 126.69 103.271 127.845 103.817C129.505 104.602 131.084 106.396 131.581 107.814C132.373 110.032 130.545 112.062 130.792 114.265C131.004 116.165 132.789 117.693 134.099 119.307C135.409 120.922 136.216 123.183 134.605 124.624C134.066 125.106 133.327 125.421 132.703 125.834C131.733 126.456 131.026 127.401 130.712 128.495C130.398 129.588 130.498 130.757 130.995 131.783C132.303 134.498 135.972 136.56 135.927 139.456C135.927 140.485 135.409 141.464 134.912 142.417L131.946 148.12C131.128 149.685 130.3 151.297 130.197 152.978C130.126 153.871 130.317 154.767 130.748 155.558C131.178 156.349 131.83 157.002 132.627 157.442Z" fill="black"/>
<path d="M93.4251 145.876C95.2394 158.789 98.4656 171.472 103.048 183.708C103.278 184.317 103.507 184.926 103.746 185.536C104.102 185.351 104.458 185.169 104.812 184.981C115.241 179.414 123.712 170.887 129.116 160.518C129.47 159.836 129.817 159.109 129.782 158.343C129.744 157.477 129.219 156.712 128.716 155.998C128.474 155.655 128.233 155.308 127.989 154.967L125.736 151.773C123.952 149.243 122.166 146.713 120.38 144.181C119.064 142.318 117.715 140.357 117.261 138.163C117.202 137.881 117.159 137.597 117.135 137.311C116.946 135.243 117.859 133.475 119.432 132.179C119.764 131.907 120.339 131.913 120.38 131.454C120.409 131.102 119.249 130.362 118.999 130.157C118.006 129.307 116.933 128.552 115.792 127.905C113.919 126.891 111.726 126.305 109.623 126.695C108.942 126.798 108.299 127.074 107.759 127.495C106.846 128.263 106.549 129.496 106.102 130.59C105.059 133.106 103.05 135.117 100.507 136.19C98.4456 137.057 96.0075 137.328 94.5264 138.963C92.898 140.776 93.0776 143.499 93.4251 145.876Z" fill="#F8BDC5"/>
<path d="M250.289 221.742L252.109 224.341L255.115 226.328C255.139 226.328 255.686 226.429 256.502 226.556C259.043 226.948 264.19 227.711 264.19 227.711L268.233 227.318L269.929 227.154L272.285 225.522L275.318 221.747L271.985 217.236C270.801 217.374 269.604 217.349 268.428 217.161C267.14 216.977 265.908 216.524 264.815 215.833C261.752 213.811 255.504 212.18 255.504 212.18L254.621 212.437L250.457 221.412L250.289 221.742Z" fill="#F8BDC5"/>
<path d="M180.876 209.632C180.8 211.365 181.356 213.075 181.91 214.735C184.613 215.42 187.434 214.397 190.208 213.944C191.636 213.71 193.052 213.623 194.439 213.999C196.5 214.562 198.149 216.07 199.778 217.444C205.587 222.371 212.41 226.278 219.872 228.046C228.455 230.067 237.895 229.16 245.855 232.915C246.599 229.163 247.599 225.464 248.846 221.842C248.083 221.68 247.33 221.47 246.594 221.216C245.731 220.919 244.883 220.58 244.055 220.199C240.687 218.672 237.515 216.612 234.044 215.247C231.894 214.397 229.648 213.826 227.424 213.187C220.03 211.071 212.857 208.274 206 204.833C204.336 203.995 202.646 203.1 200.791 202.863C199.171 202.647 197.531 202.935 195.926 203.221C194.88 203.414 193.836 203.606 192.793 203.799C190.379 204.229 187.964 204.665 185.547 205.087L185.102 205.171L184.937 205.205C182.531 205.708 181.006 206.684 180.876 209.632Z" fill="#F8BDC5"/>
<path opacity="0.1" d="M184.949 205.191C185.159 206.11 185.544 206.982 186.085 207.761C186.259 208.047 186.522 208.27 186.836 208.396C187.237 208.471 187.653 208.41 188.014 208.223L193.647 206.04C194.164 205.801 194.725 205.668 195.296 205.65C196.221 205.688 196.995 206.32 197.678 206.932C201.056 209.947 204.286 213.286 208.432 215.169C210.211 215.923 212.052 216.528 213.935 216.976C220.192 218.634 226.538 220.153 233.013 220.442C237.539 220.653 242.23 220.297 246.599 221.21C242.25 219.729 238.372 216.945 234.064 215.241C231.915 214.392 229.668 213.82 227.445 213.182C220.051 211.066 212.877 208.268 206.02 204.827C204.356 203.989 202.666 203.094 200.811 202.857C199.192 202.641 197.552 202.93 195.947 203.216C192.487 203.834 189.03 204.463 185.567 205.067C185.358 205.11 185.155 205.148 184.949 205.191Z" fill="black"/>
<path d="M184.554 200.723C184.589 202.208 184.678 203.753 185.122 205.156C185.338 205.864 185.666 206.535 186.094 207.143C186.267 207.429 186.531 207.652 186.845 207.778C187.246 207.854 187.661 207.792 188.023 207.605L192.183 205.994C192.675 205.803 193.167 205.615 193.656 205.416C194.172 205.176 194.733 205.045 195.304 205.029C196.229 205.064 197.004 205.699 197.687 206.308C201.064 209.323 204.294 212.662 208.44 214.545C210.219 215.299 212.06 215.904 213.944 216.353C220.201 218.013 226.546 219.529 233.022 219.818C236.682 219.989 240.451 219.789 244.07 220.188C246.213 220.389 248.313 220.909 250.297 221.73C252.127 218.592 253.864 215.403 255.509 212.162C251.549 210.923 247.747 209.245 243.961 207.571L235.301 203.753C225.743 199.525 216.055 195.228 208.093 188.551C206.447 187.176 204.871 185.695 203.016 184.6C198.894 182.169 193.732 182.088 189.404 183.947C188.716 184.242 188.052 184.586 187.416 184.976C182.955 187.728 184.433 196.181 184.554 200.723Z" fill="#F8BDC5"/>
<path d="M256.502 226.561C256.486 226.977 256.509 227.394 256.57 227.806L265.975 230.451C269.146 231.344 272.906 232.129 275.447 230.07C275.562 229.975 275.671 229.88 275.771 229.781C277.046 228.566 277.653 226.798 278.198 225.123C278.759 223.39 279.323 221.658 279.888 219.925C280.506 218.019 281.133 216.055 280.986 214.06C280.993 213.615 280.839 213.182 280.55 212.838C280.179 212.477 279.605 212.434 279.078 212.44C275.839 212.497 273.333 214.805 270.4 216.159C269.718 216.45 269.055 216.786 268.419 217.164C267.447 217.811 268.734 217.854 270.503 218.992C271.611 219.706 273.586 221.762 273.127 222.983C272.518 224.615 270.356 224.967 268.584 225.037C266.089 225.133 263.591 225.181 261.09 225.181C259.615 225.181 258.143 225.166 256.673 225.135C256.566 225.603 256.509 226.081 256.502 226.561Z" fill="#322C35"/>
<path opacity="0.1" d="M250.289 221.741L252.109 224.341L255.115 226.327C255.139 226.327 255.686 226.429 256.502 226.556C256.486 226.972 256.509 227.388 256.57 227.8L265.975 230.446C269.146 231.338 272.906 232.123 275.447 230.064C275.562 229.969 275.671 229.874 275.771 229.776C275.071 229.487 274.364 229.218 273.657 228.961C271.89 228.32 270.059 227.806 268.233 227.309C265.833 226.654 263.425 226.024 261.096 225.169L260.984 225.129C257.745 223.93 254.65 222.29 251.249 221.571L250.445 221.404L250.289 221.741Z" fill="black"/>
<path d="M260.987 225.75C265.109 227.283 269.505 228.086 273.648 229.579C277.241 230.876 280.689 232.695 284.473 233.261C286.292 233.533 288.142 233.507 289.979 233.573C290.513 233.562 291.044 233.66 291.537 233.862C291.781 233.965 291.99 234.137 292.136 234.355C292.283 234.573 292.361 234.828 292.361 235.089C292.313 235.4 292.183 235.693 291.984 235.938C290.663 237.823 288.75 239.234 286.537 239.956C284.852 240.501 283.059 240.623 281.29 240.738C275.598 241.116 269.841 241.492 264.211 240.522C263.266 240.367 262.333 240.146 261.42 239.86C257.109 238.465 253.655 235.058 249.264 233.928C248.331 233.689 247.368 233.553 246.47 233.204C245.572 232.854 244.727 232.242 244.388 231.358C243.888 230.041 244.627 228.62 245.207 227.335C245.587 226.493 245.903 225.624 246.155 224.736C246.326 224.127 246.317 222.689 246.679 222.218C247.353 221.352 250.195 221.993 251.231 222.218C254.65 222.917 257.754 224.551 260.987 225.75Z" fill="#F8BDC5"/>
<path d="M270.318 238.852C271.79 238.815 273.298 238.78 274.779 238.61C276.454 238.416 278.118 238.052 279.805 238.018C281.766 237.977 283.754 238.382 285.677 238.018C287.6 237.654 289.522 236.091 289.352 234.177C288.571 234.431 287.391 234.466 287.264 233.674C287.184 233.16 287.673 232.75 288.106 232.456L296.91 226.472C297.499 226.073 298.194 225.652 298.886 225.834C299.519 226.001 299.923 226.645 299.999 227.278C300.029 227.922 299.929 228.566 299.705 229.172L298.577 233.059C297.841 235.589 297.105 238.148 295.727 240.409C295.187 241.36 294.466 242.201 293.604 242.887C291.884 244.169 289.584 244.443 287.42 244.331C285.256 244.218 283.136 243.724 280.974 243.681C277.974 243.62 275.029 244.406 272.141 245.185C271.322 245.405 270.303 245.925 270.474 246.739C270.537 246.956 270.644 247.159 270.789 247.334C271.531 248.371 272.305 249.436 273.404 250.106C274.502 250.776 275.88 250.993 277.138 251.397C278.466 251.827 279.703 252.49 280.789 253.355C281.081 253.556 281.312 253.832 281.454 254.152C281.522 254.313 281.53 254.492 281.476 254.657C281.422 254.823 281.31 254.964 281.16 255.056L261.581 247.64C261.089 247.498 260.639 247.24 260.271 246.889C259.975 246.504 259.774 246.058 259.682 245.584L258.643 241.685C258.448 240.958 258.233 240.195 257.709 239.646C256.319 238.203 253.307 238.748 252.465 236.932C254.179 236.031 256.293 236.083 258.136 236.663C259.888 237.215 261.561 238.901 263.342 239.066C265.595 239.254 268.059 238.904 270.318 238.852Z" fill="#322C35"/>
<path opacity="0.1" d="M117.65 134.143C126.456 134.143 133.595 127.141 133.595 118.505C133.595 109.868 126.456 102.867 117.65 102.867C108.844 102.867 101.705 109.868 101.705 118.505C101.705 127.141 108.844 134.143 117.65 134.143Z" fill="black"/>
<path d="M117.65 133.525C126.456 133.525 133.595 126.523 133.595 117.887C133.595 109.25 126.456 102.249 117.65 102.249C108.844 102.249 101.705 109.25 101.705 117.887C101.705 126.523 108.844 133.525 117.65 133.525Z" fill="#F8BDC5"/>
<path opacity="0.1" d="M103.048 183.705C103.278 184.314 103.507 184.923 103.746 185.533C114.656 179.993 123.527 171.246 129.116 160.515C129.47 159.833 129.817 159.106 129.782 158.34C129.743 157.474 129.219 156.709 128.716 155.995C128.474 155.652 128.233 155.305 127.988 154.964C125.238 156.605 122.141 159.077 120.656 161.942C120.02 163.169 119.797 164.526 119.055 165.728C118.089 167.296 116.749 168.615 115.424 169.901C112.44 172.788 109.453 175.682 106.464 178.582C105.286 179.711 104.108 180.892 103.463 182.373C103.284 182.804 103.145 183.25 103.048 183.705Z" fill="black"/>
<path d="M102.05 202.427C102.05 202.522 102.067 202.618 102.079 202.716C102.085 202.896 102.13 203.073 102.212 203.235C102.293 203.397 102.408 203.54 102.55 203.654C102.823 203.791 103.13 203.845 103.434 203.81C103.793 203.81 104.155 203.79 104.514 203.776C113.686 203.429 122.738 201.611 131.31 198.393C133.136 197.702 134.959 196.949 136.519 195.794C136.384 195.751 136.256 195.686 136.142 195.603C135.533 195.181 135.285 194.309 135.135 193.55C134.558 190.619 134.048 187.678 133.604 184.724C133.369 183.45 133.277 182.154 133.327 180.86C133.416 179.682 133.731 178.504 133.557 177.334C133.457 176.644 133.186 175.991 133.056 175.313C132.467 172.191 134.77 169.326 135.659 166.273C136.136 164.585 136.184 162.807 135.8 161.096C135.416 159.385 134.612 157.791 133.457 156.455C132.641 155.528 131.54 154.702 130.294 154.722C129.482 154.745 128.731 155.132 128.036 155.545C127.177 156.051 126.349 156.605 125.553 157.203C123.584 158.687 121.711 160.538 120.657 162.56C120.021 163.787 119.797 165.144 119.055 166.346C118.089 167.914 116.749 169.234 115.424 170.519L106.59 179.078L106.464 179.2C105.286 180.329 104.108 181.51 103.463 182.992C103.104 183.937 102.874 184.924 102.777 185.928C102.02 191.392 101.641 196.926 102.05 202.427Z" fill="#322C35"/>
<path opacity="0.1" d="M180.876 209.633C180.8 211.365 181.356 213.075 181.91 214.735C184.613 215.42 187.434 214.398 190.208 213.944C190.597 211.256 191.386 208.633 192.175 206.008C192.393 205.275 192.611 204.535 192.814 203.799C193.394 201.815 193.799 199.786 194.024 197.734C194.374 193.905 193.758 190.05 192.231 186.509C191.907 185.758 191.521 184.999 190.859 184.516C190.432 184.21 189.93 184.019 189.404 183.965C188.717 184.26 188.053 184.603 187.416 184.993C182.955 187.736 184.434 196.189 184.554 200.732C184.59 202.216 184.678 203.761 185.123 205.165L184.958 205.2C182.531 205.708 181.006 206.684 180.876 209.633Z" fill="black"/>
<path d="M141.528 197.737C141.884 198.355 142.179 199.132 142.874 199.337C144.293 199.756 145.015 197.434 146.457 197.096C147.12 196.943 147.791 197.246 148.457 197.402C153.757 198.635 157.405 190.535 162.832 191.008C163.795 191.095 164.714 191.456 165.677 191.537C167.599 191.696 169.407 190.725 171.121 189.847C175.696 187.508 180.512 185.654 185.488 184.314C186.96 183.916 188.689 183.604 189.905 184.505C190.567 184.993 190.956 185.752 191.28 186.5C192.806 190.042 193.42 193.897 193.07 197.726C192.522 203.605 189.725 209.11 189.121 214.987C188.786 218.276 189.145 221.629 188.503 224.878C188.042 227.151 187.107 229.306 185.758 231.209C184.409 233.111 182.674 234.72 180.662 235.936C178.07 237.481 175.067 238.33 172.591 240.036C170.114 241.743 168.138 244.775 169.057 247.611C169.534 249.084 170.591 251.013 169.278 251.874C168.872 252.14 168.344 252.163 167.923 252.414C166.916 252.992 166.963 254.435 166.395 255.44C165.367 257.266 162.703 257.234 160.618 256.806C158.533 256.379 156.054 255.903 154.534 257.361C153.451 258.398 153.139 260.22 151.731 260.763C149.964 261.45 148.274 259.498 146.39 259.189C145.492 259.042 144.579 259.278 143.725 259.588C139.991 260.945 136.455 263.758 132.535 263.096C129.055 262.519 126.602 259.342 123.257 258.233C120.354 257.269 117.1 257.988 114.397 259.408C113.163 260.055 111.917 260.87 110.519 260.852C109.12 260.835 107.827 259.94 106.567 259.25C102.445 257 97.4919 256.78 92.7982 257.193C89.1175 257.517 84.4327 257.699 82.8132 254.444C82.5187 253.867 82.3685 253.217 81.9533 252.711C81.0464 251.623 79.3562 251.704 78.0282 251.175C75.225 250.057 74.5212 246.219 75.7933 243.528C77.0653 240.836 79.6654 239.029 82.1182 237.293C88.2577 232.961 94.6121 227.595 95.7369 220.254C96.5496 214.946 94.7181 208.599 98.5814 204.795C100.169 203.23 102.409 202.517 104.574 201.907C109.981 200.374 115.474 199.146 121.025 198.228C123.846 197.76 126.679 197.375 129.523 197.073C130.833 196.931 132.356 197.007 133.625 196.683C134.494 196.464 135.127 195.872 136.001 195.635C138.027 195.086 140.486 195.909 141.528 197.737Z" fill="#322C35"/>
<path opacity="0.1" d="M84.9537 251.187C85.1422 251.718 85.7076 252.01 86.2317 252.235C91.3041 254.387 96.9997 254.665 102.265 253.017C104.939 252.171 107.506 250.782 109.261 248.634C112.739 244.365 112.279 238.335 112.645 232.883C113.337 222.487 117.633 212.457 118.174 202.156C118.23 201.018 118.242 199.874 118.201 198.728C118.201 198.401 118.174 198.078 118.151 197.749C118.001 195.404 117.603 193.065 117.715 190.72C117.833 189.067 118.082 187.425 118.46 185.81C120.474 176.193 122.842 166.656 125.562 157.197C123.584 158.687 121.711 160.538 120.657 162.56C120.021 163.787 119.797 165.144 119.055 166.346C118.089 167.914 116.749 169.234 115.424 170.519L106.591 179.078C105.953 186.679 105.317 194.284 104.685 201.893L104.526 203.784C104.45 204.706 104.37 205.63 104.297 206.548C103.746 213.141 103.192 219.746 103.313 226.359C103.41 231.586 103.699 237.469 100.051 241.284C98.6048 242.797 96.6849 243.785 94.8092 244.749L86.6174 248.908C85.6958 249.387 84.6092 250.219 84.9537 251.187Z" fill="black"/>
<path opacity="0.1" d="M104.812 184.978C110.462 181.966 115.57 178.064 119.929 173.427C121.392 167.362 122.999 161.333 124.752 155.34C125.1 154.153 125.453 152.969 125.736 151.767C123.952 149.238 122.166 146.707 120.38 144.175C119.064 142.312 117.715 140.352 117.261 138.157C113.601 139.153 110.412 143.996 109.182 147.057C107.674 150.812 107.321 154.904 106.988 158.927C106.595 163.699 106.197 168.472 105.792 173.245C105.463 177.157 105.136 181.068 104.812 184.978Z" fill="black"/>
<path d="M126.993 147.346C126.946 150.072 126.148 152.723 125.386 155.343C122.476 165.3 119.959 175.357 117.833 185.513C117.451 187.127 117.201 188.769 117.085 190.422C116.973 192.77 117.379 195.106 117.524 197.451C118.292 209.312 112.812 220.725 112.014 232.585C111.649 238.035 112.108 244.068 108.631 248.333C106.864 250.485 104.308 251.874 101.635 252.72C96.3697 254.369 90.674 254.092 85.6013 251.94C85.0772 251.715 84.5118 251.417 84.3234 250.889C83.9788 249.924 85.0654 249.09 85.99 248.619L94.1789 244.437C96.0575 243.479 97.9744 242.491 99.4232 240.972C103.069 237.157 102.78 231.277 102.686 226.05C102.562 219.434 103.116 212.829 103.666 206.236L106.419 173.245L107.615 158.924C107.951 154.904 108.304 150.812 109.812 147.057C111.128 143.788 114.688 138.472 118.663 138.012C124.084 137.377 127.067 142.783 126.993 147.346Z" fill="#F8BDC5"/>
<path opacity="0.1" d="M148.091 211.342C148.795 213.167 149.131 215.111 149.793 216.947C151.343 221.163 154.532 224.606 158.662 226.524C154.52 225.439 150.877 223.004 148.333 219.619C145.789 216.234 144.495 212.101 144.664 207.9C144.702 206.973 144.77 205.439 145.5 204.812C146.157 205.442 146.219 206.987 146.56 207.856C147.025 209.038 147.635 210.158 148.091 211.342Z" fill="black"/>
<path opacity="0.1" d="M137.361 216.309C139.596 218.134 141.316 220.5 142.723 222.995C146.648 229.983 148.262 237.995 147.34 245.922C144.729 240.854 144.101 235 141.613 229.868C139.62 225.738 136.516 222.235 134.028 218.371C133.572 217.658 130.25 213.895 131.139 213.352C132.397 212.581 136.472 215.582 137.361 216.309Z" fill="black"/>
<path d="M90.0977 114.591C89.2438 115.458 88.2515 116.22 87.6066 117.214C86.6614 118.678 86.5819 120.445 86.526 122.123C86.4553 124.277 86.4052 126.524 87.4447 128.476C88.01 129.528 88.8669 130.443 89.4087 131.503C89.9505 132.563 90.1213 133.903 89.3263 134.833C88.7167 135.546 87.6802 135.861 86.9706 136.49C85.2628 137.998 85.9753 140.533 86.8852 142.52C88.3398 145.697 90.033 148.822 90.6101 152.204C91.1872 155.585 90.454 159.357 87.6655 161.719C87.2386 162.083 86.738 162.45 86.6261 162.967C86.5744 163.356 86.6574 163.752 86.8617 164.09C88.0807 166.574 90.9458 168.347 93.9905 168.503C94.5784 168.56 95.1717 168.48 95.7219 168.269C96.208 168.025 96.6364 167.684 96.9792 167.267C98.2513 165.904 99.4232 164.35 99.6293 162.588C99.9532 159.732 97.7183 157.22 96.4757 154.569C95.9003 153.352 95.5284 152.052 95.3744 150.719C95.186 149.061 95.4392 147.199 96.829 146.075C98.7254 144.545 101.667 145.085 104.19 145.437C106.232 145.722 108.296 145.819 110.356 145.726C111.496 145.674 112.762 145.501 113.463 144.701C114.585 143.421 113.495 141.55 112.206 140.404C110.916 139.257 109.288 138.073 109.285 136.447C109.285 135.119 110.392 134.033 111.119 132.872C111.776 131.82 112.137 130.616 112.167 129.382C112.196 128.149 111.893 126.93 111.287 125.848C110.848 125.075 110.239 124.286 110.368 123.426C110.542 122.285 111.885 121.647 113.018 121.083C115.864 119.677 118.29 117.573 120.062 114.976C121.849 112.307 122.665 108.622 120.392 106.268C118.799 104.614 116.181 104.123 113.752 103.837C109.649 103.349 105.516 103.156 101.384 103.259C98.8196 103.326 94.3527 103.476 93.802 106.208C93.1513 109.373 92.6154 112.064 90.0977 114.591Z" fill="#322C35"/>
<path opacity="0.1" d="M90.192 166.915C90.7808 166.97 91.3748 166.89 91.9263 166.681C92.4102 166.433 92.8379 166.092 93.1837 165.678C94.4528 164.313 95.6247 162.762 95.8338 160.997C96.1547 158.141 93.9198 155.629 92.6772 152.98C92.1024 151.758 91.7325 150.452 91.5818 149.113C91.3963 147.453 91.6466 145.59 93.0364 144.47C94.9327 142.936 97.8773 143.479 100.398 143.831C102.44 144.115 104.504 144.212 106.564 144.12C107.703 144.068 108.97 143.898 109.67 143.098C110.792 141.816 109.706 139.947 108.413 138.798C107.12 137.648 105.495 136.467 105.492 134.844C105.492 133.516 106.599 132.427 107.329 131.266C107.988 130.214 108.351 129.009 108.382 127.775C108.413 126.541 108.111 125.32 107.506 124.237C107.064 123.46 106.455 122.672 106.584 121.811C106.758 120.673 108.101 120.035 109.235 119.469C112.079 118.064 114.505 115.961 116.275 113.364C118.062 110.696 118.881 107.011 116.608 104.657C116.431 104.475 116.241 104.306 116.039 104.152C117.765 104.498 119.405 105.084 120.533 106.254C122.806 108.611 121.99 112.293 120.203 114.961C118.431 117.558 116.005 119.662 113.16 121.069C112.032 121.632 110.692 122.27 110.51 123.411C110.38 124.277 110.99 125.06 111.428 125.834C112.034 126.915 112.338 128.134 112.308 129.368C112.279 130.601 111.917 131.805 111.26 132.857C110.533 134.013 109.42 135.104 109.423 136.433C109.423 138.059 111.054 139.24 112.347 140.389C113.64 141.538 114.726 143.407 113.604 144.686C112.903 145.486 111.637 145.66 110.498 145.711C108.438 145.805 106.373 145.708 104.332 145.423C101.799 145.07 98.8549 144.53 96.9704 146.061C95.5806 147.184 95.3273 149.047 95.5128 150.705C95.6649 152.045 96.0358 153.353 96.6112 154.577C97.8538 157.228 100.089 159.741 99.7648 162.597C99.5646 164.359 98.3956 165.912 97.1147 167.276C96.7712 167.692 96.343 168.033 95.8573 168.278C95.3062 168.489 94.7118 168.569 94.123 168.512C92.3998 168.415 90.7425 167.829 89.3528 166.825C89.6266 166.865 89.9064 166.891 90.192 166.915Z" fill="black"/>
<path d="M101.213 103.069L101.249 103.1C102.159 103.993 103.392 104.498 104.614 104.897C108.174 106.052 111.976 106.575 115.412 108.01C115.813 108.174 116.21 108.354 116.59 108.55C118.266 109.385 119.788 110.479 121.301 111.565C123.31 113.009 125.324 114.453 127.111 116.151C127.865 116.867 128.583 117.624 129.372 118.294C130.927 119.599 132.773 120.526 134.599 121.439L139.575 123.928C140.88 124.584 142.199 125.242 143.615 125.609C144.974 125.961 146.392 126.037 147.781 125.831C149.17 125.625 150.502 125.141 151.693 124.41C152.885 123.68 153.911 122.717 154.708 121.582C155.505 120.447 156.056 119.164 156.327 117.811C156.498 117.021 156.533 116.208 156.433 115.406C156.267 114.489 155.979 113.598 155.576 112.755C154.451 110.138 153.147 107.516 151.045 105.572C150.087 104.729 149.061 103.965 147.976 103.285L142.087 99.3693C141.204 98.7917 140.3 98.1823 139.281 97.8676C137.382 97.29 135.453 97.7867 133.554 97.6452C133.421 97.6452 133.292 97.625 133.162 97.6076C131.49 97.4026 130.294 95.9991 128.607 95.5861C127.046 95.2078 125.418 95.2193 123.81 95.2338L108.172 95.3724C107.286 95.3446 106.4 95.4281 105.536 95.6208C104.232 95.9731 103.127 96.8077 102.064 97.6279C101.935 97.726 101.805 97.8271 101.676 97.934C101.084 98.3523 100.608 98.9093 100.292 99.5541C99.8001 100.758 100.301 102.153 101.213 103.069Z" fill="#9E63FF"/>
<path opacity="0.1" d="M101.299 106.352C101.49 106.751 101.962 106.93 102.394 107.048C106.59 108.203 111.131 107.351 115.412 108.013C116.035 108.11 116.651 108.242 117.259 108.408C118.966 108.891 120.565 109.699 122.264 110.219C125.209 111.112 128.33 111.109 131.393 110.99C131.786 111.005 132.177 110.927 132.532 110.762C132.7 110.669 132.83 110.52 132.897 110.343C132.964 110.165 132.966 109.97 132.9 109.792C133.415 106.517 133.638 103.205 133.566 99.892C133.566 99.1469 133.525 98.3845 133.566 97.6308C133.433 97.6308 133.304 97.6106 133.174 97.5932C131.502 97.3882 130.306 95.9847 128.619 95.5717C127.058 95.1934 125.43 95.2049 123.822 95.2194L108.183 95.358C107.298 95.3302 106.412 95.4137 105.548 95.6064C104.244 95.9587 103.139 96.7933 102.076 97.6134C101.947 97.7116 101.817 97.8127 101.688 97.9196C101.429 98.7723 101.302 99.658 101.311 100.548C101.29 101.391 101.275 102.243 101.258 103.086C101.24 103.929 101.222 104.758 101.208 105.596C101.179 105.851 101.21 106.11 101.299 106.352Z" fill="black"/>
<path d="M132.279 109.177C132.789 105.903 133.009 102.593 132.936 99.2827C132.891 97.3074 132.782 95.179 133.893 93.5329C134.187 93.1084 134.549 92.5943 134.299 92.1525C134.166 91.9704 133.998 91.8155 133.804 91.6962C132.962 91.0262 132.844 89.8306 132.788 88.7678C132.718 87.3903 132.662 85.9492 133.262 84.7017C133.521 84.1703 133.901 83.6534 133.872 83.0671C133.837 82.4318 133.327 81.9119 133.23 81.2824C133.062 80.2283 134.04 79.3879 134.835 78.6602C136.361 77.2293 137.503 75.451 138.16 73.4832C138.817 71.5154 138.968 69.419 138.601 67.38C138.233 65.4509 140.188 63.5333 140.641 61.6186C140.699 61.241 140.803 60.8716 140.951 60.5184C141.557 59.3632 143.286 59.4441 144.34 58.6614C145.017 58.1589 145.518 57.2521 146.366 57.2579C146.692 57.29 147.008 57.3821 147.299 57.5294C148.298 57.9312 149.387 58.0658 150.456 57.9192C150.547 60.2556 150.65 62.6467 151.533 64.8184C152.452 67.0797 154.148 68.9366 155.588 70.9177C157.028 72.8988 158.282 75.2091 158.088 77.6378C158.827 77.8516 159.487 76.9823 159.416 76.2314C159.345 75.4806 158.827 74.851 158.465 74.1926C157.744 72.9335 157.479 71.4779 157.193 70.06C156.31 65.6704 155.111 61.3039 153.088 57.2926C152.355 55.8486 151.51 54.4191 151.104 52.8452C150.889 52.0077 150.571 50.919 149.69 50.8756C149.453 50.8819 149.218 50.9218 148.992 50.994C147.031 51.4734 145.047 50.4858 143.053 50.1768C140.429 49.7725 137.785 50.5493 135.25 51.3319C134.258 51.6207 133.242 51.947 132.438 52.5911C131.181 53.6018 130.671 55.2479 129.602 56.458C128.689 57.5034 127.409 58.1907 126.525 59.2621C125.601 60.3768 125.174 61.8179 124.293 62.9673C122.526 65.2776 119.155 66.1151 117.635 68.5987C116.116 71.0823 114.626 73.5312 113.333 76.1073C112.041 78.6833 109.759 80.7886 109.364 83.5985C109.202 84.7536 109.252 86.1745 108.228 86.7607C107.818 86.9947 107.3 87.0495 106.947 87.3383C106.473 87.7571 106.484 88.4704 106.47 89.0971C106.425 90.8975 105.866 92.6496 104.856 94.1538C104.638 94.516 104.342 94.8266 103.987 95.0635C103.531 95.3349 102.974 95.3869 102.492 95.6064C100.963 96.3024 100.725 98.2921 100.684 99.9383L100.58 104.989C100.555 105.24 100.59 105.493 100.681 105.728C100.872 106.127 101.343 106.306 101.776 106.424C106.582 107.756 111.841 106.424 116.637 107.788C118.348 108.27 119.947 109.078 121.643 109.595C124.588 110.488 127.709 110.485 130.771 110.366C131.165 110.382 131.557 110.304 131.914 110.138C132.08 110.045 132.208 109.898 132.274 109.722C132.341 109.547 132.343 109.354 132.279 109.177Z" fill="#9E63FF"/>
<path opacity="0.1" d="M117.812 81.7964C117.129 82.0563 116.522 82.5011 115.818 82.6974C115.365 82.8245 114.885 82.8447 114.426 82.9573C113.397 83.2611 112.508 83.9063 111.911 84.7825C111.324 85.6553 110.842 86.5925 110.477 87.5751C111.66 87.0934 112.919 86.8178 114.199 86.7607C114.899 86.7702 115.598 86.7229 116.29 86.6192C117.139 86.396 117.938 86.0189 118.645 85.5074C119.429 84.9962 121.931 83.7053 121.743 82.6397C121.528 81.2708 118.695 81.4585 117.812 81.7964Z" fill="black"/>
<path opacity="0.1" d="M112.962 91.5633C112.285 91.6505 111.626 91.8456 111.013 92.1409C109.77 92.8109 109.067 94.1249 108.431 95.3696C110.81 93.9134 113.482 92.9767 116.263 92.6232C118.198 92.3777 120.68 92.6232 122.447 91.7251C121.69 90.1656 114.514 91.289 112.962 91.5633Z" fill="black"/>
<path opacity="0.1" d="M132.241 56.25C133.477 56.4088 134.337 57.5466 134.817 58.6758C135.297 59.805 135.568 61.0526 136.348 62.0085C136.679 61.0452 136.672 60.0013 136.328 59.0426C136.256 58.8953 136.225 58.7317 136.239 58.569C136.28 58.4254 136.364 58.2975 136.481 58.2022C137.164 57.5495 141.016 56.198 138.519 56.0565C136.446 55.9352 134.399 56.5243 132.241 56.25Z" fill="black"/>
<path d="M85.1655 104.83C86.4287 102.231 88.8138 100.296 91.4345 99.0026C94.0552 97.7088 96.9261 97.0042 99.7706 96.3024C100.515 96.0858 101.285 95.9654 102.061 95.9443C103.345 95.9646 104.556 96.5219 105.654 97.1775C107.021 98.026 108.335 98.9527 109.591 99.9528L113.124 102.65C116.587 105.295 120.121 108.019 122.447 111.669C119.767 111.828 117.273 110.447 114.667 109.803C112.061 109.159 109.411 109.252 106.761 109.341L100.283 109.558C98.872 109.566 97.4643 109.691 96.0752 109.933C95.1176 110.149 94.1737 110.419 93.2484 110.742L88.4634 112.31C86.4994 112.954 84.9299 113.465 84.3999 111.132C83.9429 109.006 84.212 106.792 85.1655 104.83Z" fill="#9E63FF"/>
<path opacity="0.1" d="M85.1655 104.83C86.4287 102.231 88.8138 100.296 91.4345 99.0026C94.0552 97.7088 96.9261 97.0042 99.7706 96.3024C100.515 96.0858 101.285 95.9654 102.061 95.9443C103.345 95.9646 104.556 96.5219 105.654 97.1775C107.021 98.026 108.335 98.9527 109.591 99.9528L113.124 102.65C116.587 105.295 120.121 108.019 122.447 111.669C119.767 111.828 117.273 110.447 114.667 109.803C112.061 109.159 109.411 109.252 106.761 109.341L100.283 109.558C98.872 109.566 97.4643 109.691 96.0752 109.933C95.1176 110.149 94.1737 110.419 93.2484 110.742L88.4634 112.31C86.4994 112.954 84.9299 113.465 84.3999 111.132C83.9429 109.006 84.212 106.792 85.1655 104.83Z" fill="black"/>
</g>
<defs>
<clipPath id="clip0">
<rect width="300" height="298" fill="white"/>
</clipPath>
</defs>
</svg>
