<svg width="300" height="300" viewBox="0 0 300 300" fill="none" xmlns="http://www.w3.org/2000/svg">
<g clip-path="url(#clip0)">
<path opacity="0.1" d="M288.772 193.696C286.022 202.524 280.269 210.498 274.094 218.049C268.665 224.689 262.859 231.105 256.673 237.297C254.959 239.016 253.218 240.714 251.449 242.39L250.22 243.547C249.131 244.576 248.023 245.596 246.896 246.605L246.761 246.728C245.668 247.721 244.566 248.704 243.454 249.677C239.815 252.868 235.97 256.036 231.718 258.66C230.27 259.556 228.776 260.39 227.228 261.138C226.391 261.544 225.537 261.925 224.664 262.279C223.235 262.859 221.767 263.365 220.234 263.781C219.978 263.852 219.72 263.92 219.462 263.984C217.893 264.377 216.304 264.664 214.699 264.861C208.815 265.58 202.739 265.054 196.846 263.823C193.901 263.207 191.001 262.415 188.196 261.512C187.851 261.402 187.508 261.29 187.163 261.19C177.61 257.999 168.641 253.667 159.021 250.621C155.706 249.571 152.326 248.679 148.882 247.946C147.201 247.59 145.511 247.267 143.812 246.979C139.812 246.315 135.761 245.871 131.693 245.645C126.208 245.323 120.544 245.461 115.325 246.741C114.63 246.911 113.943 247.102 113.266 247.315C112.406 247.583 111.563 247.889 110.736 248.233C108.506 249.195 106.335 250.388 104.244 251.801C103.831 252.072 103.423 252.346 103.015 252.623C101.736 253.493 100.473 254.383 99.1912 255.246C96.884 256.859 94.483 258.219 92.0115 259.314C90.6578 259.885 89.2812 260.354 87.8881 260.719C84.2017 261.705 80.2787 262.095 76.3388 262.121C74.4389 262.121 72.5365 262.066 70.6559 261.934H70.598C69.9558 261.889 69.3112 261.838 68.6666 261.773C65.731 261.506 62.8051 261.093 59.9226 260.529C50.0463 258.595 40.6794 254.94 33.1448 249.364C22.9112 241.797 16.4123 230.513 17.3877 219.239C18.0878 211.117 22.4356 203.575 26.5614 196.191C34.236 182.441 41.4254 168.379 45.2083 153.556C48.2767 141.524 49.1917 128.803 56.2531 117.99C58.5151 114.528 61.4073 111.37 64.775 108.601C67.2923 106.543 69.9309 104.763 72.6645 103.277C75.754 101.587 78.9324 100.203 82.1738 99.1349C84.9831 98.2045 87.83 97.4899 90.7006 96.9948C92.2601 96.7241 93.839 96.5146 95.4275 96.3728C96.6507 96.2589 97.8795 96.1869 99.1139 96.1568H99.3046C100.059 96.1375 100.814 96.1375 101.569 96.1568C107.073 96.2706 112.562 96.9592 117.985 98.2164C121.38 98.9738 124.745 99.902 128.04 100.924C130.007 101.532 131.956 102.169 133.887 102.835C134.476 103.038 135.065 103.244 135.647 103.454C149.389 108.369 161.479 115.157 174.718 120.726C174.785 120.755 174.851 120.784 174.918 120.807C177.636 121.922 180.395 122.848 183.184 123.579C185.234 124.126 187.329 124.6 189.461 125.016C192.725 125.661 196.059 126.17 199.417 126.608L200.158 126.705C205.086 127.349 210.056 127.83 214.885 128.391C216.599 128.59 218.298 128.797 219.974 129.035C221.036 129.177 222.088 129.327 223.131 129.486C223.88 129.602 224.63 129.718 225.381 129.841C226.132 129.963 226.926 130.092 227.699 130.224C228.201 130.308 228.701 130.395 229.203 130.489C232.245 131.027 235.279 131.63 238.28 132.319C240.105 132.738 241.921 133.19 243.714 133.676C245.013 134.029 246.301 134.4 247.577 134.792C248.523 135.077 249.462 135.378 250.392 135.694C257.951 138.231 265.024 141.557 271.12 146.046C286.949 157.678 294.033 176.814 288.772 193.696Z" fill="#9E63FF"/>
<path opacity="0.1" d="M47.4243 64.2355C51.4002 64.2355 54.6234 61.1092 54.6234 57.2528C54.6234 53.3964 51.4002 50.2701 47.4243 50.2701C43.4484 50.2701 40.2252 53.3964 40.2252 57.2528C40.2252 61.1092 43.4484 64.2355 47.4243 64.2355Z" fill="#9E63FF"/>
<path opacity="0.1" d="M194.571 49.0175C198.547 49.0175 201.77 45.8912 201.77 42.0348C201.77 38.1784 198.547 35.0521 194.571 35.0521C190.595 35.0521 187.372 38.1784 187.372 42.0348C187.372 45.8912 190.595 49.0175 194.571 49.0175Z" fill="#9E63FF"/>
<path opacity="0.1" d="M281.822 64.655C285.798 64.655 289.021 61.5288 289.021 57.6724C289.021 53.8159 285.798 50.6897 281.822 50.6897C277.846 50.6897 274.623 53.8159 274.623 57.6724C274.623 61.5288 277.846 64.655 281.822 64.655Z" fill="#9E63FF"/>
<path opacity="0.1" d="M-11.816 143.634C-5.15264 143.634 0.249052 138.395 0.249052 131.931C0.249052 125.468 -5.15264 120.229 -11.816 120.229C-18.4793 120.229 -23.881 125.468 -23.881 131.931C-23.881 138.395 -18.4793 143.634 -11.816 143.634Z" fill="#9E63FF"/>
<path opacity="0.1" d="M311.999 122.363C318.663 122.363 324.064 117.124 324.064 110.661C324.064 104.198 318.663 98.9584 311.999 98.9584C305.336 98.9584 299.934 104.198 299.934 110.661C299.934 117.124 305.336 122.363 311.999 122.363Z" fill="#9E63FF"/>
<path d="M82.4909 112.32C82.5507 113.303 82.4915 114.289 82.3145 115.258C81.6489 118.257 78.8331 120.316 76.1073 121.879C73.3814 123.441 70.386 124.92 68.7651 127.557C66.8114 130.744 67.4338 135.028 69.727 138.004C72.0202 140.98 75.6546 142.753 79.3956 143.492C86.2186 144.857 93.6906 142.94 98.8062 138.356C103.922 133.772 106.488 126.608 105.233 119.955C102.457 120.333 99.9844 117.957 99.0857 115.38C98.1871 112.804 98.3735 110.012 98.024 107.31C97.9985 106.853 97.8567 106.409 97.6113 106.019C97.2219 105.496 96.5329 105.283 95.8906 105.111C92.6821 104.256 87.2836 102.384 83.9587 103.1C80.9632 103.765 82.441 109.88 82.4909 112.32Z" fill="#BE6F72"/>
<path opacity="0.1" d="M82.4909 112.32C82.5507 113.303 82.4915 114.289 82.3145 115.258C81.6489 118.257 78.8331 120.316 76.1073 121.879C73.3814 123.441 70.386 124.92 68.7651 127.557C66.8114 130.744 67.4338 135.028 69.727 138.004C72.0202 140.98 75.6546 142.753 79.3956 143.492C86.2186 144.857 93.6906 142.94 98.8062 138.356C103.922 133.772 106.488 126.608 105.233 119.955C102.457 120.333 99.9844 117.957 99.0857 115.38C98.1871 112.804 98.3735 110.012 98.024 107.31C97.9985 106.853 97.8567 106.409 97.6113 106.019C97.2219 105.496 96.5329 105.283 95.8906 105.111C92.6821 104.256 87.2836 102.384 83.9587 103.1C80.9632 103.765 82.441 109.88 82.4909 112.32Z" fill="black"/>
<path d="M78.6136 255.237C75.4329 256.852 72.1226 258.215 68.7153 259.311C66.849 259.883 64.9511 260.353 63.0306 260.719C62.8947 258.237 63.0342 255.747 63.4466 253.294C63.7062 251.883 64.089 250.485 64.1888 249.055C64.3301 246.991 63.8748 244.929 62.8741 243.102C66.5819 242.612 70.1032 241.811 73.8275 242.047L74.0638 242.063C74.5067 242.074 74.9449 242.153 75.3619 242.298C75.9349 242.567 76.4216 242.983 76.7697 243.499C76.9615 243.753 77.1382 244.017 77.2989 244.29C78.3507 246.053 78.7501 248.087 78.8333 250.182C78.8724 251.87 78.799 253.559 78.6136 255.237Z" fill="#BE6F72"/>
<path d="M98.0207 247.289C96.8358 247.558 95.6731 247.865 94.5326 248.209C91.4581 249.173 88.4657 250.368 85.5829 251.783C85.3956 250.904 85.3041 250.008 85.31 249.11C87.0087 247.974 88.9257 247.18 90.9469 246.777C92.9681 246.374 95.0523 246.369 97.0754 246.763C97.3459 246.795 97.603 246.895 97.821 247.054C97.9 247.121 97.9674 247.201 98.0207 247.289Z" fill="#BE6F72"/>
<path d="M103.742 230.993C103.516 233.104 103.183 235.222 102.411 237.208C101.575 239.338 100.217 241.404 100.39 243.68C100.467 244.668 100.813 245.74 100.863 246.718C99.9045 246.888 98.9582 247.08 98.0241 247.293C96.8392 247.562 95.6765 247.868 94.536 248.213C91.4615 249.176 88.4691 250.371 85.5863 251.786C85.0171 252.057 84.4547 252.332 83.8922 252.609C83.6592 252.58 83.4296 252.545 83.1966 252.503C81.5324 252.209 79.7818 251.486 78.8399 250.195C78.6243 249.898 78.455 249.571 78.3373 249.226C77.7948 247.654 78.3606 245.695 77.2323 244.448L77.179 244.494L77.1391 244.52C76.5211 245.063 75.8423 245.537 75.1155 245.933C73.4612 246.842 71.6285 247.402 69.7363 247.579C67.8442 247.756 65.9349 247.545 64.1322 246.96C63.418 246.724 62.7282 246.424 62.072 246.063C60.5476 245.22 59.0765 243.803 59.1963 242.111C59.2629 241.169 59.8187 240.265 59.669 239.332C59.5591 238.663 59.1065 238.108 58.767 237.517C56.5404 233.644 59.1963 228.662 57.7985 224.453C57.7652 224.353 57.7286 224.253 57.692 224.156C57.5888 223.881 57.4723 223.617 57.3591 223.352C57.0729 222.735 56.7534 222.128 56.5004 221.496C56.2898 220.964 56.1229 220.417 56.0012 219.859C55.687 218.24 55.5752 216.59 55.6684 214.946C55.6684 210.61 56.4672 206.171 57.6054 201.994C57.8085 201.251 58.0348 200.202 58.3343 199.059C58.6263 197.855 59.0204 196.676 59.5125 195.534C60.1782 194.049 61.0835 192.865 62.3216 192.584C64.1854 192.161 67.0345 193.055 68.9249 193.275L76.3969 194.14L91.3375 195.873C93.917 196.173 96.6262 196.519 98.753 197.926C98.8927 198.02 99.0292 198.117 99.1657 198.22C99.7275 198.649 100.231 199.146 100.663 199.699C100.816 199.889 100.963 200.089 101.103 200.293C101.587 201.012 102 201.776 102.334 202.572C104.188 206.891 104.231 211.711 104.245 216.389C104.245 221.27 104.261 226.148 103.742 230.993Z" fill="#3F3D56"/>
<path opacity="0.1" d="M75.0988 245.953C74.6495 244.274 73.7009 241.843 73.5612 241.182C73.0922 238.961 72.7522 236.717 72.5427 234.46C72.1733 230.438 71.5076 224.776 72.9721 220.95C74.3466 221.66 75.5548 223.672 76.1905 225.044C78.4937 230.018 75.9009 236.126 78.0643 241.159C78.2261 241.46 78.3267 241.789 78.3605 242.127C78.323 242.557 78.164 242.968 77.9012 243.315L77.1724 244.49L75.0988 245.953Z" fill="black"/>
<path d="M123.033 92.3727C125.482 88.4988 128.837 84.6895 128.628 80.1603C128.551 78.5462 128.005 76.9676 127.589 75.3857C126.397 70.8076 126.318 66.0233 127.359 61.4107C131.475 60.7693 135.688 61.6845 139.128 63.9675C140.217 64.697 141.248 65.6042 141.728 66.8019C142.17 67.9059 142.097 69.1359 142.017 70.3174C141.834 73.0323 141.585 75.9281 139.861 78.0652C139.325 78.7334 138.666 79.2984 138.143 79.9731C137.381 80.9415 136.935 82.1231 136.499 83.2755L130.841 98.2061C127.985 105.731 124.89 113.602 118.599 118.809C118.446 118.935 113.94 112.727 113.567 112.104C112.059 109.55 112.718 108.472 114.542 106.335C118.14 102.109 120.094 97.0117 123.033 92.3727Z" fill="#BE6F72"/>
<path d="M58.1913 219.633C58.172 220.748 58.0752 221.86 57.9017 222.961C57.8418 223.368 57.7719 223.772 57.6887 224.175C56.5537 229.921 53.728 235.387 51.751 240.985C49.145 248.374 48.0001 254.785 47.0914 262.123C44.4721 262.123 41.8494 262.068 39.2567 261.936H39.1768C38.2915 261.891 37.4028 261.839 36.5142 261.774C37.3163 254.931 35.8485 247.751 37.283 240.901C37.8621 238.144 38.8506 235.468 39.4464 232.724C39.63 231.916 39.7689 231.099 39.8624 230.277C39.9456 229.495 39.9889 228.685 40.3517 227.981C40.3848 227.913 40.4226 227.847 40.4648 227.784C40.7835 227.297 41.1788 226.862 41.6364 226.493C45.6917 223.044 50.6519 220.75 55.968 219.865C56.7235 219.765 57.459 219.681 58.1913 219.633Z" fill="#FBBEBE"/>
<path opacity="0.1" d="M58.1913 219.633C58.172 220.748 58.0752 221.86 57.9017 222.961C57.8418 223.368 57.7719 223.772 57.6887 224.175C56.5537 229.921 53.728 235.387 51.751 240.985C49.145 248.374 48.0001 254.785 47.0914 262.123C44.4721 262.123 41.8494 262.068 39.2567 261.936H39.1768C38.2915 261.891 37.4028 261.839 36.5142 261.774C37.3163 254.931 35.8485 247.751 37.283 240.901C37.8621 238.144 38.8506 235.468 39.4464 232.724C39.63 231.916 39.7689 231.099 39.8624 230.277C39.9456 229.495 39.9889 228.685 40.3517 227.981C40.3848 227.913 40.4226 227.847 40.4648 227.784C40.7835 227.297 41.1788 226.862 41.6364 226.493C45.6917 223.044 50.6519 220.75 55.968 219.865C56.7235 219.765 57.459 219.681 58.1913 219.633Z" fill="black"/>
<path d="M41.3168 234.344C41.263 236.138 41.1108 237.928 40.8608 239.706C39.9722 246.973 39.8058 254.556 39.1967 261.933C38.3114 261.887 37.4227 261.836 36.5341 261.771C32.4869 261.503 28.453 261.09 24.479 260.525C24.7852 258.864 25.0937 257.202 25.4043 255.541C25.7837 253.504 26.1632 251.447 26.0533 249.381C25.9501 247.428 25.411 245.527 24.9816 243.612C24.0663 239.513 23.5538 235.09 22.0461 231.222C21.2598 229.053 20.0047 227.072 18.365 225.412C24.6022 223.036 30.5964 222.9 37.2963 223.152C37.7719 223.126 38.2446 223.239 38.6542 223.475C38.9717 223.741 39.2077 224.088 39.3365 224.475C40.3433 226.824 40.9751 229.309 41.2103 231.842C41.2904 232.674 41.3259 233.509 41.3168 234.344Z" fill="#FBBEBE"/>
<path d="M91.5571 110.654C98.7259 110.654 104.537 105.017 104.537 98.064C104.537 91.1107 98.7259 85.4739 91.5571 85.4739C84.3883 85.4739 78.5768 91.1107 78.5768 98.064C78.5768 105.017 84.3883 110.654 91.5571 110.654Z" fill="#BE6F72"/>
<path d="M94.2565 127.49C95.9206 124.736 97.3784 121.298 100.58 120.533C102.387 120.097 104.268 120.691 106.029 121.275C106.539 121.392 107.002 121.653 107.36 122.024C107.62 122.424 107.76 122.887 107.763 123.361C108.32 129.052 108.301 134.783 107.706 140.47C107.283 144.496 106.571 148.502 106.445 152.547C106.268 158.155 107.22 163.762 106.907 169.363C106.671 173.608 105.712 177.779 104.761 181.927L100.767 199.295C100.695 199.833 100.473 200.341 100.124 200.764C99.7874 201.064 99.3844 201.284 98.946 201.41C93.165 203.392 87.0196 204.176 80.9066 203.712C74.7937 203.248 68.8491 201.545 63.4566 198.714C62.0154 197.946 60.5776 197.058 59.639 195.747C58.3077 193.888 58.1846 191.428 58.6173 189.2C59.0499 186.973 59.9852 184.871 60.6142 182.686C61.5861 179.296 61.8157 175.758 62.0354 172.246C62.3283 167.623 62.6212 162.971 62.112 158.364C61.7625 155.191 61.0336 152.066 60.4844 148.919C59.6756 144.175 59.2063 139.382 59.0799 134.575C58.9967 131.706 59.1331 128.519 61.18 126.45C62.1785 125.443 63.5098 124.836 64.8644 124.345C67.1377 123.532 69.6771 123.054 71.9737 123.796C74.2702 124.539 76.1207 126.876 75.5782 129.165C75.3286 130.227 74.6196 131.157 74.4466 132.235C74.2169 133.662 74.9957 135.098 76.1107 136.064C82.1083 141.319 91.2644 132.474 94.2565 127.49Z" fill="#E3E8F4"/>
<path d="M94.7324 114.625C96.5538 113.974 98.5333 113.862 100.42 114.302C101.622 114.58 102.92 115.071 104.028 114.551C104.431 114.364 104.764 114.057 105.17 113.883C106.268 113.414 107.693 113.989 108.665 113.308C109.277 112.879 109.477 112.097 109.683 111.387C110.683 107.997 112.731 104.986 115.551 102.761C115.201 105.237 114.948 108.056 116.636 109.947C117.405 110.806 118.483 111.345 119.575 111.765C121.142 112.368 122.863 112.769 124.517 112.439C126.171 112.11 127.719 110.896 127.982 109.279C127.925 111.71 125.539 113.408 124.87 115.755C124.617 116.633 124.64 117.566 124.464 118.463C124.015 120.755 122.327 122.596 120.853 124.442C116.144 130.381 113.135 137.422 112.133 144.851C112.064 145.733 111.874 146.601 111.567 147.434C111.241 148.072 110.872 148.689 110.462 149.28C108.022 153.277 108.774 158.319 109.603 162.884C110.898 170.034 112.189 177.04 114.286 184.009C114.646 185.201 115.052 186.444 115.967 187.312C115.677 190.13 112.745 191.415 110.109 192.632C107.506 193.836 105.105 195.413 102.987 197.31C102.228 197.988 101.479 198.75 101.203 199.715C100.943 200.622 101.129 201.62 100.797 202.501C100.464 203.382 99.1324 204.015 98.5466 203.272C97.8144 200.616 99.0658 197.836 99.0093 195.086C98.9693 193.229 98.3436 191.425 98.2537 189.569C98.1672 187.467 98.8062 185.404 99.4852 183.409C101.376 177.853 103.659 172.349 104.315 166.535C104.97 160.721 103.745 154.371 99.4919 150.223C94.4429 145.277 91.6404 138.572 86.2287 134.03C85.37 133.31 84.3981 132.416 84.5412 131.325C84.64 130.844 84.8583 130.394 85.1769 130.014C87.0341 127.47 89.5037 125.394 91.5007 122.96C93.4976 120.526 95.0952 117.724 94.7324 114.625Z" fill="#3F3D56"/>
<path d="M76.9627 119.832C76.6299 120.155 76.4003 120.6 76.0142 120.878C75.5633 121.148 75.049 121.302 74.5198 121.327C72.561 121.615 70.5858 121.787 68.6054 121.84C66.9413 121.84 65.2139 121.698 63.613 122.14C61.3797 122.754 59.5958 124.465 58.4775 126.434C57.3591 128.403 56.83 130.631 56.4006 132.848C55.4542 137.735 54.9475 142.691 54.8862 147.663C57.6296 145.541 60.0745 143.079 62.1585 140.341C63.7561 138.239 65.2039 135.915 67.4838 134.511C68.5322 133.865 69.7104 133.439 70.7655 132.81C72.9655 131.496 74.4898 129.372 75.9543 127.322C77.0326 125.801 80.1512 122.831 80.3975 121.01C80.6072 119.27 78.1276 118.421 76.9627 119.832Z" fill="#3F3D56"/>
<path d="M88.5584 89.4447C88.9694 89.6842 89.3631 89.9506 89.7366 90.2421C91.9965 91.7723 95.022 91.4882 97.7545 91.1395C98.5932 91.0362 99.4552 90.92 100.174 90.4939C101.329 89.803 101.872 88.3826 101.758 87.0687C101.645 85.7548 100.963 84.5443 100.131 83.5177C99.0285 82.1592 97.6534 81.0318 96.0887 80.2039C94.524 79.376 92.8024 78.8648 91.028 78.7011C90.1093 78.5843 89.1751 78.6806 88.3022 78.982C87.2271 79.4114 86.4183 80.2959 85.4265 80.8867C82.5009 82.6299 77.9945 81.8551 76.1073 84.6379C74.7261 86.691 75.7113 89.4802 75.0589 91.8401C74.573 93.6027 73.1718 95.2071 73.4414 97.0052C73.5911 97.9737 74.2169 98.8195 74.7161 99.6847C75.8626 101.674 76.393 103.941 76.2438 106.215C77.5252 107.093 79.3125 105.728 79.6686 104.249C80.0247 102.771 79.6153 101.195 79.9182 99.704C80.4541 97.0859 82.8371 95.1651 83.9121 92.7633C84.6843 91.0427 85.9424 88.1373 88.5584 89.4447Z" fill="#3F3D56"/>
<path d="M57.0861 118.102C56.9863 118.689 56.923 119.338 57.2592 119.835C57.9248 120.804 59.4492 120.455 60.6474 120.6C62.5145 120.823 63.8924 122.537 64.2552 124.339C64.618 126.14 64.1853 127.974 63.7127 129.743C62.6432 133.752 61.3696 137.705 59.8918 141.6C55.9179 141.145 51.7342 139.663 49.6241 136.373C47.707 133.381 47.9034 129.568 46.6852 126.25C45.8299 123.912 44.2955 121.879 42.7778 119.884C45.2175 120.181 46.9615 117.475 47.1046 115.093C47.2477 112.711 46.4756 110.293 47.0014 107.965C47.1246 107.413 56.74 109.153 57.6752 109.783C60.3778 111.6 57.5121 115.577 57.0861 118.102Z" fill="#FBBEBE"/>
<path opacity="0.1" d="M57.0861 118.102C56.9863 118.689 56.923 119.338 57.2592 119.835C57.9248 120.804 59.4492 120.455 60.6474 120.6C62.5145 120.823 63.8924 122.537 64.2552 124.339C64.618 126.14 64.1853 127.974 63.7127 129.743C62.6432 133.752 61.3696 137.705 59.8918 141.6C55.9179 141.145 51.7342 139.663 49.6241 136.373C47.707 133.381 47.9034 129.568 46.6852 126.25C45.8299 123.912 44.2955 121.879 42.7778 119.884C45.2175 120.181 46.9615 117.475 47.1046 115.093C47.2477 112.711 46.4756 110.293 47.0014 107.965C47.1246 107.413 56.74 109.153 57.6752 109.783C60.3778 111.6 57.5121 115.577 57.0861 118.102Z" fill="black"/>
<path d="M54.9461 114.205C62.1149 114.205 67.9264 108.568 67.9264 101.615C67.9264 94.6618 62.1149 89.025 54.9461 89.025C47.7773 89.025 41.9658 94.6618 41.9658 101.615C41.9658 108.568 47.7773 114.205 54.9461 114.205Z" fill="#FBBEBE"/>
<path d="M50.9488 116.294C51.4215 115.577 50.616 114.577 50.9855 113.805C51.2051 113.34 51.761 113.14 52.1903 112.837C52.7288 112.412 53.1583 111.871 53.4451 111.258C55.466 107.491 56.0776 103.162 55.1758 99.0068C54.8696 97.6122 54.5966 95.7592 55.9113 95.1329C56.2757 94.9752 56.6751 94.9086 57.0729 94.9392C59.4426 95.0135 61.7325 96.5534 64.0323 96.0078C64.8173 95.8008 65.5184 95.3662 66.0418 94.7622C66.5652 94.1581 66.886 93.4135 66.9612 92.6278C67.111 90.5424 65.5001 88.7539 63.9158 87.3497C61.0635 84.8058 56.7168 84.2409 52.8426 84.1795L45.6369 84.0633C43.3304 84.0246 40.7443 84.0956 39.1401 85.7C36.8303 88.0082 37.9918 91.7853 37.659 94.9844C37.3761 97.5378 36.0592 99.8776 33.9979 101.489C32.5035 102.645 30.4466 103.749 30.4733 105.596C30.4733 106.241 30.7595 106.829 30.9425 107.439C31.6781 109.854 30.9758 112.523 29.5646 114.638C28.1534 116.752 26.0899 118.379 23.9498 119.803C22.8049 120.562 21.62 121.291 20.7147 122.321C19.7222 123.511 19.1329 124.968 19.0273 126.495C18.8849 127.662 19.1322 128.842 19.7329 129.862C21.1408 132.045 24.519 132.364 26.8321 131.099C29.1453 129.833 30.5565 127.438 31.4917 125.03C32.0509 123.6 32.62 121.963 34.0512 121.32C35.8617 120.504 37.9785 121.795 39.1567 123.361C40.335 124.926 41.0605 126.837 42.5682 128.109C44.9313 130.104 48.9519 129.782 50.9488 127.438C52.3767 125.756 52.6929 123.428 52.613 121.249C52.5733 119.475 51.9944 117.751 50.9488 116.294Z" fill="#3F3D56"/>
<path d="M55.6091 132.703C54.128 133.01 52.5804 132.332 51.4787 131.318C50.3771 130.304 49.6349 128.997 48.8627 127.732C46.905 124.54 44.6608 121.521 42.1562 118.712C39.9729 116.268 36.9341 113.786 33.6924 114.541C32.607 114.845 31.5999 115.367 30.7369 116.074C27.8786 118.269 25.6413 121.132 24.2343 124.394C22.8274 127.657 22.2969 131.212 22.6924 134.727C22.9454 136.784 23.5212 138.795 23.7608 140.861C23.9222 142.564 23.9689 144.275 23.9006 145.984C23.8107 151.188 23.6277 156.692 20.7354 161.076C16.2522 167.855 13.8525 175.952 10.5608 183.351C8.78353 187.351 7.71849 191.609 6.67341 195.844C6.05434 198.358 5.43639 200.87 4.81955 203.382L0.792333 219.814C0.376298 221.509 -0.0397403 223.284 0.399593 224.979C1.06525 227.51 3.51819 229.279 6.10427 229.999C8.69034 230.719 11.4295 230.596 14.1154 230.619C19.2543 230.667 24.4331 231.287 29.2558 233.017C30.6337 233.511 32.0083 234.102 33.4761 234.218C34.9438 234.334 36.4049 233.963 37.7795 233.447C41.5305 232.039 44.7456 229.573 48.2004 227.581C50.3583 226.32 52.6311 225.253 54.9901 224.395C56.1749 223.965 57.4463 223.559 58.2618 222.619C58.8775 221.912 59.1537 220.989 59.3568 220.085C60.4817 214.997 59.7262 209.726 59.3568 204.535C58.9873 199.344 55.7888 193.859 58.4348 189.333C58.9674 188.419 59.6031 187.541 59.876 186.527C60.2354 185.204 59.9326 183.78 60.2354 182.444C60.4584 181.456 60.9943 180.568 61.3604 179.622C61.9994 177.956 62.086 176.142 62.0793 174.363C62.0643 170.458 61.6405 166.564 60.8146 162.742C59.7662 157.899 63.2342 153.112 65.2212 148.538C65.9335 146.901 66.9419 145.354 67.2381 143.602C67.5044 142.02 67.1616 140.409 66.9053 138.824C66.5228 136.367 66.3669 133.882 66.4394 131.399C66.5026 129.171 66.7456 126.902 66.1964 124.736C65.6472 122.57 64.0796 120.468 61.8264 120.023C61.5737 119.951 61.3078 119.934 61.0477 119.974C60.7876 120.013 60.5398 120.108 60.322 120.252C60.0619 120.499 59.8785 120.812 59.7928 121.156C59.0606 123.331 59.2037 125.675 58.7943 127.935C58.3849 130.195 57.9056 132.225 55.6091 132.703Z" fill="#006D8F"/>
<path d="M24.1994 146.568C24.3359 145.674 23.9065 144.486 22.9746 144.518C22.1159 144.551 21.7332 145.593 21.7365 146.43C21.7398 147.266 21.8563 148.224 21.2472 148.812C20.7081 149.332 19.8161 149.316 19.1904 149.739C18.9695 149.891 18.7898 150.093 18.6665 150.328C18.5431 150.562 18.4796 150.822 18.4814 151.085C18.4814 151.533 18.6911 151.963 18.7044 152.412C18.7178 152.86 18.4082 153.38 17.9489 153.351C17.713 153.735 17.6148 154.184 17.6696 154.628C17.7244 155.072 17.9291 155.485 18.2518 155.804C18.4914 156.03 18.8043 156.224 18.8842 156.54C18.9095 156.762 18.8914 156.987 18.8309 157.202C18.6911 158.09 19.3235 159.084 20.2454 159.181C19.7296 159.539 19.8327 160.379 20.3053 160.795C20.778 161.212 21.4569 161.292 22.0926 161.292C23.5354 161.285 24.9622 160.998 26.2896 160.45C26.7441 160.304 27.1461 160.035 27.4478 159.675C27.5878 159.489 27.655 159.261 27.6373 159.032C27.6196 158.802 27.5182 158.586 27.3513 158.423C27.997 158.526 28.7725 158.584 29.1952 158.1C29.7843 157.422 29.1519 156.418 28.5295 155.762C28.7876 155.725 29.0288 155.615 29.223 155.446C29.4172 155.277 29.556 155.056 29.6219 154.812C29.6879 154.567 29.6782 154.308 29.594 154.069C29.5099 153.829 29.355 153.619 29.1486 153.464C28.9356 153.312 28.646 153.18 28.6161 152.925C28.5861 152.67 28.8091 152.505 28.9023 152.279C29.1153 151.772 28.6294 151.256 28.1601 150.949C27.0484 150.232 25.4109 150.245 24.4224 149.522C23.4339 148.799 24.0563 147.537 24.1994 146.568Z" fill="#BE6F72"/>
<path d="M92.8619 97.583C92.0558 97.6618 91.2446 97.6801 90.4356 97.6379C90.2977 97.6233 90.1593 97.6618 90.0504 97.7451C89.9415 97.8284 89.8706 97.9499 89.8531 98.0834L88.3055 109.343C88.1864 110.161 87.8414 110.932 87.307 111.574C86.8664 112.085 86.5389 112.679 86.3448 113.318C86.1507 113.958 86.0942 114.629 86.1787 115.29V134.417C86.1787 134.417 86.0788 136.968 88.0991 136.968C90.517 137.262 92.9635 137.262 95.3814 136.968C95.3814 136.968 96.9989 136.671 96.9989 134.317V115.484C97.1223 114.826 97.0969 114.151 96.9245 113.505C96.7521 112.858 96.4368 112.255 96.0005 111.739C95.484 111.094 95.1501 110.329 95.0319 109.521L93.4244 98.0253C93.4061 97.896 93.3378 97.7784 93.2333 97.6962C93.1288 97.6141 92.996 97.5736 92.8619 97.583Z" fill="#3F3D56"/>
<path opacity="0.1" d="M92.8619 97.583C92.0558 97.6618 91.2446 97.6801 90.4356 97.6379C90.2977 97.6233 90.1593 97.6618 90.0504 97.7451C89.9415 97.8284 89.8706 97.9499 89.8531 98.0834L88.3055 109.343C88.1864 110.161 87.8414 110.932 87.307 111.574C86.8664 112.085 86.5389 112.679 86.3448 113.318C86.1507 113.958 86.0942 114.629 86.1787 115.29V134.417C86.1787 134.417 86.0788 136.968 88.0991 136.968C90.517 137.262 92.9635 137.262 95.3814 136.968C95.3814 136.968 96.9989 136.671 96.9989 134.317V115.484C97.1223 114.826 97.0969 114.151 96.9245 113.505C96.7521 112.858 96.4368 112.255 96.0005 111.739C95.484 111.094 95.1501 110.329 95.0319 109.521L93.4244 98.0253C93.4061 97.896 93.3378 97.7784 93.2333 97.6962C93.1288 97.6141 92.996 97.5736 92.8619 97.583Z" fill="black"/>
<path d="M92.8718 115.632H90.4188C88.3877 115.632 86.7411 117.229 86.7411 119.199V128.151C86.7411 130.121 88.3877 131.718 90.4188 131.718H92.8718C94.903 131.718 96.5495 130.121 96.5495 128.151V119.199C96.5495 117.229 94.903 115.632 92.8718 115.632Z" fill="#9E63FF"/>
<path d="M125.835 48.9272C125.124 49.3064 124.383 49.6302 123.619 49.8957C123.486 49.934 123.374 50.0207 123.307 50.1376C123.239 50.2545 123.221 50.3923 123.256 50.5219L126.298 61.4979C126.515 62.2946 126.506 63.1336 126.271 63.9256C126.066 64.5618 125.999 65.2323 126.073 65.895C126.148 66.5577 126.362 67.1984 126.704 67.7769L134.299 85.4289C134.299 85.4289 135.218 87.8178 137.085 87.0624C139.435 86.4299 141.694 85.5123 143.808 84.3313C143.808 84.3313 145.183 83.4532 144.251 81.2838L136.772 63.903C136.625 63.2504 136.333 62.6365 135.918 62.1037C135.503 61.5709 134.973 61.1319 134.366 60.8168C133.634 60.4151 133.022 59.8354 132.592 59.1349L126.544 49.1273C126.476 49.0116 126.363 48.9261 126.231 48.8887C126.099 48.8514 125.957 48.8652 125.835 48.9272Z" fill="#3F3D56"/>
<path d="M133.016 65.5838L130.753 66.5C128.878 67.2587 127.992 69.3477 128.775 71.1659L132.329 79.4273C133.111 81.2455 135.265 82.1044 137.139 81.3457L139.403 80.4295C141.278 79.6708 142.163 77.5818 141.381 75.7636L137.827 67.5022C137.044 65.684 134.891 64.8251 133.016 65.5838Z" fill="#9E63FF"/>
<path d="M32.4337 116.627C28.8558 118.057 27.4413 122.505 28.28 126.166C29.1187 129.827 31.6449 132.877 34.1078 135.78L41.0107 143.947C42.9178 146.207 45.0046 148.586 47.9135 149.374C52.1671 150.526 56.4206 147.898 60.0984 145.522C71.0763 138.427 82.8108 132.5 95.0986 127.845C96.3001 127.393 97.5316 126.934 98.5201 126.127C100.57 124.455 101.146 121.372 100.004 119.025C98.8629 116.678 96.2036 115.151 93.5243 115.132C90.845 115.112 88.239 116.488 86.6281 118.567C85.8593 119.558 85.2968 120.691 84.5546 121.698C82.6774 124.229 79.7486 125.795 76.8829 127.209C69.9733 130.628 62.8605 133.646 55.5819 136.248C54.2506 136.719 52.7495 137.168 51.4948 136.545C50.726 136.161 50.2067 135.434 49.7408 134.724C47.6175 131.482 45.9286 127.991 44.7151 124.336C43.8064 121.592 43.0709 118.602 40.8875 116.652C37.7922 113.889 32.1874 114.551 29.8676 117.944C29.8676 117.944 27.1484 121.801 28.8125 123.415C30.4767 125.03 32.4337 116.627 32.4337 116.627Z" fill="#FBBEBE"/>
<path d="M219.097 103.268C219.583 104.524 219.596 105.899 219.526 107.239C219.44 108.872 219.017 110.79 217.453 111.413C216.434 111.81 215.176 111.51 214.271 112.11C213.173 112.833 213.226 114.389 213.396 115.661C213.865 119.157 214.394 122.783 216.358 125.74C217.413 127.325 218.841 128.645 220.288 129.907C223.174 132.432 226.339 134.898 230.13 135.741C230.748 135.91 231.397 135.936 232.027 135.818C232.648 135.632 233.212 135.299 233.668 134.85C235.865 132.894 236.996 130.101 238.461 127.57C239.496 125.759 240.731 124.019 241.313 122.024C241.793 120.281 241.761 118.442 241.221 116.716C240.681 114.989 239.655 113.443 238.258 112.252C237.609 111.713 236.89 111.261 236.261 110.703C234.617 109.256 233.658 107.181 233.265 105.063C232.873 102.945 232.933 100.766 233.122 98.6065C229.794 98.3579 226.489 98.7486 223.241 99.3781C221.796 99.6589 219.763 99.788 218.455 100.456C216.983 101.215 218.694 102.187 219.097 103.268Z" fill="#FBBEBE"/>
<path opacity="0.1" d="M219.097 103.268C219.583 104.524 219.596 105.899 219.526 107.239C219.44 108.872 219.017 110.79 217.453 111.413C216.434 111.81 215.176 111.51 214.271 112.11C213.173 112.833 213.226 114.389 213.396 115.661C213.865 119.157 214.394 122.783 216.358 125.74C217.413 127.325 218.841 128.645 220.288 129.907C223.174 132.432 226.339 134.898 230.13 135.741C230.748 135.91 231.397 135.936 232.027 135.818C232.648 135.632 233.212 135.299 233.668 134.85C235.865 132.894 236.996 130.101 238.461 127.57C239.496 125.759 240.731 124.019 241.313 122.024C241.793 120.281 241.761 118.442 241.221 116.716C240.681 114.989 239.655 113.443 238.258 112.252C237.609 111.713 236.89 111.261 236.261 110.703C234.617 109.256 233.658 107.181 233.265 105.063C232.873 102.945 232.933 100.766 233.122 98.6065C229.794 98.3579 226.489 98.7486 223.241 99.3781C221.796 99.6589 219.763 99.788 218.455 100.456C216.983 101.215 218.694 102.187 219.097 103.268Z" fill="black"/>
<path d="M200.525 112.769C195.12 110.971 192.537 103.946 186.879 103.158C185.987 103.032 185.072 103.081 184.197 102.881C180.938 102.132 179.537 98.4774 178.595 95.3621C175.42 84.9769 171.273 74.8144 165.382 65.6075C162.896 61.7336 158.965 58.5505 157.171 54.3086C156.758 53.3402 156.549 52.2361 155.806 51.471C155.064 50.7059 153.477 50.5962 153.074 51.5711C152.962 51.9164 152.936 52.2829 153.001 52.6396L153.39 56.6588L146.62 56.068C145.994 55.9644 145.351 56.0087 144.746 56.1971C144.093 56.5142 143.573 57.0397 143.272 57.6854C140.982 61.8595 143.422 67.3281 147.462 69.9688C152.182 73.0518 158.922 73.5199 162.057 78.1201C163.921 80.8577 163.957 84.3797 165.185 87.4368C165.771 88.8992 166.627 90.2421 167.309 91.6593C168.61 94.3614 169.276 97.2991 170.284 100.114C171.729 104.14 173.869 107.891 176.002 111.62C177.647 114.499 179.331 117.43 181.86 119.632C183.524 121.078 185.481 122.15 187.438 123.183C192.251 125.733 197.926 128.187 203.025 126.231C203.318 121.821 202.176 116.904 200.525 112.769Z" fill="#FBBEBE"/>
<path d="M216.937 251.738C216.527 255.951 213.891 259.767 213.276 263.821C209.215 263.205 205.218 262.411 201.35 261.507C200.874 261.397 200.402 261.284 199.926 261.184C202.116 255.373 200.209 248.865 200.788 242.676C200.845 242.082 200.924 241.488 201.031 240.901C206.047 239.241 210.576 237.027 215.835 237.673C215.938 238.706 216.045 239.742 216.148 240.775C216.359 242.839 216.567 244.901 216.774 246.96C216.985 248.544 217.039 250.144 216.937 251.738Z" fill="#FBBEBE"/>
<path d="M251.624 262.275C249.654 262.856 247.63 263.363 245.517 263.779C245.164 263.85 244.808 263.918 244.452 263.983C242.288 264.377 240.098 264.664 237.885 264.861C237.659 260.374 234.557 256.248 234.104 251.641C234.011 250.496 234.024 249.346 234.141 248.203C234.181 247.751 234.227 247.299 234.271 246.847L235.209 237.56C235.956 237.468 236.71 237.433 237.462 237.453C241.789 237.553 245.726 239.371 250.013 240.788C250.333 242.747 250.444 244.733 250.346 246.715C250.183 251.757 249.348 256.861 251.278 261.487C251.388 261.749 251.508 262.01 251.624 262.275Z" fill="#FBBEBE"/>
<path d="M195.443 191.467C196.025 195.87 193.706 200.086 192.7 204.415C192.035 207.279 191.945 210.226 191.855 213.164L191.329 230.761C191.276 232.52 191.229 234.312 191.782 236C192.893 239.383 196.318 241.669 199.883 242.483C203.447 243.296 207.175 242.883 210.806 242.418C212.587 242.189 214.444 241.921 215.918 240.923C217.945 239.551 218.831 237.108 219.596 234.828L221.756 228.395C224.242 233.824 223.191 239.761 224.682 245.524C224.778 246.056 225.006 246.558 225.347 246.986C225.976 247.664 227.012 247.77 227.953 247.835C234.477 248.28 241.09 248.723 247.507 247.512C249.271 247.189 251.112 246.666 252.33 245.382C253.748 243.887 253.994 241.688 253.977 239.658C253.887 232.682 251.288 225.951 250.709 218.997C250.459 216.017 250.582 213.022 250.473 210.032C250.386 207.784 250.17 205.542 249.824 203.318C249.714 202.299 249.426 201.305 248.972 200.38C247.973 198.572 245.9 197.591 243.936 196.829C228.679 190.818 211.898 190.876 195.443 191.467Z" fill="#006D8F"/>
<path d="M223.69 104.843C231.594 104.843 238.002 98.6285 238.002 90.962C238.002 83.2955 231.594 77.0806 223.69 77.0806C215.786 77.0806 209.378 83.2955 209.378 90.962C209.378 98.6285 215.786 104.843 223.69 104.843Z" fill="#FBBEBE"/>
<path d="M236.164 115.413C235.103 117.672 233.432 119.932 230.946 120.507C228.659 121.039 226.236 119.971 224.552 118.379C222.868 116.788 221.766 114.722 220.598 112.743C219.746 111.297 218.797 109.837 217.356 108.927C215.386 107.687 212.843 107.72 210.52 108.085C208.197 108.449 205.89 109.101 203.531 108.953C200.592 108.762 197.596 107.339 194.824 108.288C195.722 112.188 195.4 116.475 195.296 120.471C195.314 121.088 195.224 121.704 195.03 122.292C194.788 122.84 194.462 123.35 194.062 123.803L191.399 127.131C194.255 129.204 196.724 131.909 197.723 135.231C198.285 137.123 198.112 139.13 198.092 141.1C198.029 146.881 199.324 152.641 198.914 158.41C198.435 165.166 195.652 171.552 194.218 178.179C192.989 183.869 192.758 189.718 193.532 195.483C208.45 200.49 223.82 203.053 239.589 203.892C242.375 204.041 245.384 204.063 247.67 202.51C249.571 201.219 250.636 199.008 250.998 196.78C251.361 194.553 251.112 192.287 250.859 190.046C250.173 183.988 249.489 177.93 248.805 171.871C248.416 168.424 248.026 164.956 248.279 161.499C248.469 158.916 249.015 156.382 249.557 153.854L252.886 138.34C253.362 136.135 253.841 133.914 254.783 131.857C255.555 130.179 256.623 128.629 257.475 126.996C258.491 125.037 259.191 122.939 259.552 120.775C259.697 120.147 259.688 119.494 259.526 118.87C259.169 117.811 258.081 117.175 257.066 116.655C250.876 113.5 244.242 111.243 237.376 109.957C236.91 111.858 237 113.64 236.164 115.413Z" fill="#E3E8F4"/>
<path d="M234.783 106.115C236.447 103.023 239.559 100.853 241.367 97.8315C242.365 96.1185 242.924 94.1971 242.994 92.2303C243.065 90.2634 242.646 88.309 241.773 86.5327C241.137 85.2737 240.275 84.118 239.776 82.8008C239.22 81.3029 239.167 79.6533 238.524 78.1877C237.642 76.1797 235.732 74.7335 233.652 73.9006C231.571 73.0677 229.325 72.7675 227.085 72.4769L219.523 71.4891C218.428 71.347 217.293 71.205 216.228 71.4891C215.163 71.7732 214.171 72.6157 214.085 73.6875C213.981 74.9562 215.13 76.1378 214.863 77.3839C214.767 77.8229 214.501 78.2684 214.654 78.6945C214.79 78.9792 215.026 79.2079 215.319 79.3402C217.113 80.3086 219.257 80.3958 221.2 81.0285C223.144 81.6613 225.095 83.2496 224.898 85.2252C224.792 86.2873 224.086 87.3914 224.565 88.3437C225.025 89.225 226.229 89.3864 227.191 89.6608C230.303 90.5357 232.487 93.8091 232.034 96.9244C231.894 97.8929 231.535 98.8194 231.462 99.7911C231.219 103.194 231.771 104.165 234.637 106.144L234.783 106.115Z" fill="#3F3D56"/>
<path d="M254.224 120.83C254.239 121.474 254.118 122.115 253.867 122.712C252.829 124.859 249.651 124.723 247.544 125.94C244.921 127.457 244.342 130.844 244.102 133.794C243.829 137.136 243.643 140.525 244.349 143.802C245.054 147.078 246.752 150.274 249.587 152.195C253.039 154.523 257.732 154.604 261.672 153.186C265.613 151.769 268.905 149.028 271.76 146.033C274.469 143.192 276.896 140.025 278.35 136.419C278.607 135.773 278.833 135.089 278.626 134.443C278.317 133.475 277.229 133.036 276.343 132.506C274.276 131.296 272.899 129.184 272.183 126.954C271.467 124.723 271.348 122.35 271.324 120.01C271.298 117.579 271.291 114.922 269.693 113.046C268.096 111.171 265.327 110.645 262.804 110.664C260.74 110.664 255.029 110.854 253.621 112.601C252.466 114.054 254.307 118.751 254.224 120.83Z" fill="#BE6F72"/>
<path opacity="0.1" d="M254.224 120.83C254.239 121.474 254.118 122.115 253.867 122.712C252.829 124.859 249.651 124.723 247.544 125.94C244.921 127.457 244.342 130.844 244.102 133.794C243.829 137.136 243.643 140.525 244.349 143.802C245.054 147.078 246.752 150.274 249.587 152.195C253.039 154.523 257.732 154.604 261.672 153.186C265.613 151.769 268.905 149.028 271.76 146.033C274.469 143.192 276.896 140.025 278.35 136.419C278.607 135.773 278.833 135.089 278.626 134.443C278.317 133.475 277.229 133.036 276.343 132.506C274.276 131.296 272.899 129.184 272.183 126.954C271.467 124.723 271.348 122.35 271.324 120.01C271.298 117.579 271.291 114.922 269.693 113.046C268.096 111.171 265.327 110.645 262.804 110.664C260.74 110.664 255.029 110.854 253.621 112.601C252.466 114.054 254.307 118.751 254.224 120.83Z" fill="black"/>
<path d="M236.477 207.404C236.58 207.896 236.82 208.352 237.17 208.722C237.498 208.973 237.882 209.149 238.291 209.235C249.215 212.344 260.884 211.104 272.193 209.835C270.645 205.264 269.088 200.641 268.658 195.847C268.302 191.893 268.702 187.777 267.257 184.068C266.831 182.97 242.002 188.022 239.553 188.432C238.298 188.642 236.853 188.571 235.965 189.536C234.893 190.705 234.803 193.488 234.69 194.943C234.37 199.15 235.266 203.385 236.477 207.404Z" fill="#BE6F72"/>
<path d="M261.349 258.649C259.352 259.547 257.292 260.383 255.159 261.132C254.005 261.539 252.827 261.92 251.624 262.275C249.654 262.856 247.63 263.363 245.517 263.779C244.312 260.816 243.106 257.851 241.899 254.885C241.01 252.703 240.122 250.511 239.379 248.28C238.863 246.757 238.439 245.206 238.108 243.635C237.018 238.295 237.302 232.777 238.933 227.568C243.546 228.411 248.056 228.959 252.599 229.599C255.026 229.921 257.459 230.302 259.922 230.751C260.115 232.307 260.29 233.863 260.447 235.419C260.687 237.821 260.883 240.223 261.037 242.624C261.376 247.962 261.48 253.303 261.349 258.649Z" fill="#BE6F72"/>
<path opacity="0.1" d="M261.349 258.649C259.352 259.547 257.292 260.383 255.159 261.132C254.005 261.539 252.827 261.92 251.624 262.275C249.654 262.856 247.63 263.363 245.517 263.779C244.312 260.816 243.106 257.851 241.899 254.885C241.01 252.703 240.122 250.511 239.379 248.28C238.863 246.757 238.439 245.206 238.108 243.635C237.018 238.295 237.302 232.777 238.933 227.568C243.546 228.411 248.056 228.959 252.599 229.599C255.026 229.921 257.459 230.302 259.922 230.751C260.115 232.307 260.29 233.863 260.447 235.419C260.687 237.821 260.883 240.223 261.037 242.624C261.376 247.962 261.48 253.303 261.349 258.649Z" fill="black"/>
<path d="M286.944 244.662C286.971 246.521 286.425 248.419 285.919 250.243C285.882 250.372 285.849 250.498 285.816 250.627C284.612 250.264 283.574 249.509 282.877 248.49C282.517 247.938 282.25 247.333 282.088 246.699C280.581 247.693 279.062 248.677 277.528 249.652C272.513 252.848 267.211 256.022 261.349 258.649C259.353 259.547 257.292 260.383 255.159 261.132C254.715 259.625 254.294 258.109 253.894 256.583C253.458 255.012 253.115 253.418 252.869 251.809C252.381 248.153 252.759 244.438 253.974 240.946L254.124 240.526C254.689 238.973 255.42 237.481 256.304 236.074C257.133 234.783 258.773 234.999 260.448 235.429C261.206 235.619 261.975 235.848 262.674 235.99C267.024 236.875 271.541 235.961 275.987 236.204C278.106 236.306 280.183 236.819 282.095 237.711C284.235 238.754 285.959 240.349 286.634 242.553C286.73 242.871 286.804 243.195 286.854 243.522C286.91 243.899 286.94 244.28 286.944 244.662Z" fill="#BE6F72"/>
<path d="M206.872 95.985C199.999 89.5285 192.188 84.0567 184.197 78.9399C182.117 77.675 180.117 76.292 178.206 74.7981C176.209 73.184 174.468 71.289 172.348 69.8363C170.228 68.3836 167.605 67.3861 165.059 67.8638C162.513 68.3416 160.25 70.7047 160.622 73.1775C160.955 75.3533 162.972 76.8448 164.836 78.0941C168.364 80.4604 171.909 82.8332 175.746 84.6894C177.079 85.2755 178.372 85.9441 179.617 86.6909C182.007 88.2534 183.747 90.5648 185.555 92.7374C192.376 100.956 200.731 107.855 210.184 113.075C210.297 113.14 214.234 104.898 214.068 103.83C213.702 101.373 208.683 97.6895 206.872 95.985Z" fill="#BE6F72"/>
<path d="M265.656 200.309C260.351 200.632 255.262 202.368 250.073 203.476C244.884 204.583 239.246 205.012 234.43 202.83L237.359 222.229C237.522 223.307 237.692 224.411 237.449 225.473C237.226 226.487 236.647 227.442 236.697 228.478C236.773 230.118 238.361 231.271 239.855 232.029C244.197 234.253 249.061 235.34 253.967 235.183C253.604 236.604 253.152 238.008 252.786 239.429C255.232 241.976 259.233 242.147 262.724 242.954C265.387 243.564 267.883 244.623 270.492 245.369C273.648 246.272 276.924 246.715 280.214 246.682C282.434 246.66 284.787 246.36 286.511 245.017C288.631 243.361 289.29 240.546 289.75 237.944C290.006 236.491 290.242 235.019 290.082 233.553C289.909 231.868 289.237 230.273 288.571 228.711L284.012 217.977C283.183 216.04 282.347 214.074 281.349 212.205C278.087 206.158 272.675 199.886 265.656 200.309Z" fill="#3F3D56"/>
<path d="M269.717 133.284C270.111 132.28 270.838 131.431 271.784 130.872C272.73 130.313 273.841 130.074 274.942 130.195C276.273 130.376 277.462 131.083 278.603 131.773L284.96 135.621C286.014 136.229 287.024 136.905 287.986 137.642C292.369 141.168 294.06 146.962 294.542 152.466C295.025 157.971 294.542 163.568 295.671 168.982C292.988 171.138 290.012 172.962 287.33 175.116C285.925 176.242 284.504 177.375 283.439 178.825C282.594 179.964 281.991 181.269 281.109 182.376C279.665 184.126 277.57 185.255 275.275 185.52C276.729 186.34 277.545 187.932 277.938 189.517C278.33 191.102 278.437 192.745 278.873 194.33C279.472 196.483 280.713 198.449 281.123 200.645C281.409 202.159 281.282 203.711 281.386 205.248C281.905 213.199 288.338 220.15 287.922 228.104C284.886 227.034 282.013 225.569 279.382 223.749C278.197 222.926 277.052 222.035 275.931 221.147L267.453 214.481C263.33 211.253 259.166 207.953 255.888 203.899C253.831 201.355 252.153 198.54 250.09 196.002C248.026 193.465 245.487 191.16 242.335 190.095C241.872 190.769 241.05 191.237 240.588 191.912C240.506 192.019 240.441 192.136 240.395 192.261C240.338 192.562 240.377 192.872 240.504 193.152C240.876 194.458 241.099 195.799 241.17 197.152L241.38 199.579C241.458 200.223 241.458 200.873 241.38 201.516C241.063 203.592 239.08 205.203 236.94 205.526C236.63 205.591 236.309 205.581 236.005 205.497C235.409 205.303 235.079 204.693 234.9 204.112C234.057 201.355 235.349 198.446 235.452 195.576C235.466 194.848 235.441 194.12 235.375 193.394L235.176 190.531C233.242 190.14 232.13 188.125 231.618 186.276C230.233 181.282 228.839 176.113 229.641 171C229.854 169.631 230.227 168.243 229.974 166.874C229.641 165.044 228.283 163.559 227.567 161.835C225.238 156.214 230.187 150.113 229.727 144.079C229.534 141.545 227.877 139.344 226.878 136.993C226.362 135.624 225.692 134.313 224.881 133.084C223.863 131.673 222.488 130.543 221.154 129.407C217.032 125.899 213.122 122.163 209.445 118.218C207.556 118.028 205.784 117.241 204.402 115.978C203.524 115.171 202.802 114.105 202.778 112.933C202.755 111.762 203.647 110.532 204.855 110.47C205.561 110.435 206.22 110.774 206.909 110.922C209.065 111.381 211.235 109.841 212.197 107.907C213.159 105.973 213.159 103.749 213.143 101.605C214.197 101.424 215.281 101.509 216.291 101.852C217.302 102.195 218.204 102.785 218.91 103.565C220.398 105.134 221.367 107.09 222.538 108.892C223.015 109.692 223.627 110.409 224.349 111.013C225.95 112.246 228.256 112.478 229.654 113.918C230.363 114.654 230.756 115.629 231.405 116.417C233.229 118.634 236.567 118.906 239.06 120.365C241.553 121.824 243.287 124.49 246.049 125.356C247.048 125.678 248.136 125.72 249.125 126.079C251.408 126.902 252.802 129.255 253.119 131.596C253.435 133.936 252.896 136.303 252.35 138.608L251.068 144.002C250.785 145.196 250.569 146.633 251.478 147.485C251.907 147.83 252.411 148.076 252.952 148.205C255.282 148.941 257.878 149.664 260.068 148.622C261.103 148.124 261.915 147.285 262.657 146.426C265.906 142.714 268.066 137.852 269.717 133.284Z" fill="#9E63FF"/>
<path d="M295.987 243.06C295.527 246.014 293.85 248.92 291.104 250.272C289.458 251.06 287.558 251.187 285.816 250.627C284.612 250.264 283.574 249.509 282.877 248.49C282.517 247.938 282.25 247.333 282.088 246.699C282.088 246.666 282.071 246.631 282.065 246.599C281.814 245.456 281.71 244.289 281.755 243.122C281.754 241.31 281.865 239.5 282.088 237.702C282.274 236.187 282.581 234.689 283.006 233.221C283.626 231.126 284.518 229.108 285.336 227.087C285.762 226.022 286.172 224.953 286.508 223.859C286.711 223.213 286.884 222.548 287.024 221.877L287.074 221.635C287.1 221.499 287.124 221.363 287.147 221.228C287.48 219.388 287.576 217.483 288.432 215.821C290.429 211.918 294.316 212.915 294.908 216.515C294.953 216.794 294.979 217.075 294.985 217.357C295.075 221.912 293.211 226.364 294.063 230.935C294.303 232.05 294.606 233.151 294.968 234.234C295.268 235.232 295.537 236.242 295.744 237.266C296.162 239.17 296.244 241.129 295.987 243.06Z" fill="#BE6F72"/>
<path d="M297.817 192.409C297.907 194.275 297.817 196.164 298.203 197.994C299.105 202.32 302.53 206.149 302.151 210.546C302.058 211.617 301.648 212.77 300.683 213.299C299.718 213.829 298.12 213.787 297.804 214.852C297.714 215.149 297.761 215.472 297.661 215.766C297.451 216.392 296.662 216.66 295.997 216.644C295.331 216.628 294.665 216.415 293.977 216.469C291.564 216.666 290.678 219.798 288.528 220.873C287.08 221.596 285.2 221.196 284.005 220.127C282.81 219.058 282.288 217.393 282.381 215.814C282.451 214.623 282.84 213.474 283.046 212.298C283.423 210.203 283.226 208.057 283.03 205.939C282.74 202.837 282.441 199.695 281.389 196.755C280.893 195.366 280.234 194.04 279.805 192.632C279.192 190.64 279.052 188.545 278.989 186.469C278.859 182.102 279.169 177.43 281.858 173.918C283.879 171.284 286.774 169.143 289.061 166.706C290.492 165.179 290.905 164.701 292.485 165.996C293.787 167.058 295.148 168.524 295.295 169.963C295.694 173.653 295.295 177.282 296.007 181.039C296.719 184.797 297.631 188.552 297.817 192.409Z" fill="#9E63FF"/>
<path d="M263.296 121.307C272.671 121.307 280.271 113.936 280.271 104.843C280.271 95.7506 272.671 88.3794 263.296 88.3794C253.922 88.3794 246.322 95.7506 246.322 104.843C246.322 113.936 253.922 121.307 263.296 121.307Z" fill="#BE6F72"/>
<path d="M278.839 136.338C279.212 135.831 279.655 135.286 280.287 135.179C280.765 135.144 281.243 135.242 281.665 135.46L286.135 137.271C287.343 135.336 288.055 133.149 288.212 130.892C288.305 129.507 288.192 128.103 288.465 126.74C288.871 124.72 290.106 122.909 290.392 120.868C290.618 119.222 290.209 117.566 289.963 115.923C289.204 110.848 290.019 105.67 289.583 100.559C289.147 95.4492 287.034 89.9741 282.334 87.6272C281.003 86.9815 279.568 86.5941 278.184 86.0841C275.098 84.9445 272.333 83.1206 269.284 81.8874C266.235 80.6542 262.654 80.0892 259.699 81.5064C256.743 82.9236 255.022 86.9105 256.943 89.5125C257.575 90.368 258.5 90.9749 259.386 91.5915C261.186 92.8408 263.023 94.3839 263.44 96.4951C264.185 100.295 260.111 103.274 258.963 106.99C258.539 108.441 258.501 109.973 258.853 111.442C259.349 113.644 260.561 115.723 260.517 117.976C260.484 120.445 258.96 122.683 258.673 125.139C258.57 126.04 258.634 126.954 258.517 127.851C258.312 129.035 257.951 130.188 257.442 131.283C254.779 137.739 252.08 144.263 248.123 150.068C252.36 150.137 256.548 149.188 260.314 147.304C259.773 149.793 258.736 152.155 257.262 154.258C260.649 153.878 263.906 152.775 266.801 151.03C266.099 153.47 265.081 155.814 263.772 158.006C263.886 157.819 265.979 157.36 266.365 157.147C267.159 156.71 267.797 156.049 268.196 155.252C269.327 153.29 270.033 150.923 271.081 148.883C273.323 144.51 275.917 140.315 278.839 136.338Z" fill="#3F3D56"/>
<path d="M150.108 37.5378C149.302 37.6166 148.491 37.635 147.682 37.5927C147.544 37.5781 147.406 37.6166 147.297 37.6999C147.188 37.7832 147.117 37.9047 147.099 38.0382L145.552 49.2983C145.433 50.1157 145.088 50.8865 144.553 51.529C144.113 52.0403 143.785 52.634 143.591 53.2732C143.397 53.9124 143.341 54.5834 143.425 55.2447V74.372C143.425 74.372 143.325 76.9223 145.345 76.9223C147.763 77.217 150.21 77.217 152.628 76.9223C152.628 76.9223 154.245 76.6253 154.245 74.2719V55.4384C154.369 54.7813 154.343 54.1061 154.171 53.4595C153.998 52.8128 153.683 52.2103 153.247 51.6937C152.73 51.0488 152.396 50.2843 152.278 49.4759L150.671 37.9801C150.652 37.8509 150.584 37.7332 150.48 37.6511C150.375 37.5689 150.242 37.5284 150.108 37.5378Z" fill="#3F3D56"/>
<path d="M150.118 55.5869H147.665C145.634 55.5869 143.988 57.184 143.988 59.1541V68.106C143.988 70.0761 145.634 71.6732 147.665 71.6732H150.118C152.15 71.6732 153.796 70.0761 153.796 68.106V59.1541C153.796 57.184 152.15 55.5869 150.118 55.5869Z" fill="#9E63FF"/>
<path d="M173.073 54.0018C172.267 54.0806 171.456 54.0989 170.647 54.0567C170.509 54.0421 170.371 54.0806 170.262 54.1639C170.153 54.2472 170.082 54.3687 170.065 54.5022L168.517 65.7623C168.398 66.5797 168.053 67.3505 167.519 67.993C167.078 68.5043 166.75 69.098 166.556 69.7372C166.362 70.3764 166.306 71.0474 166.39 71.7087V90.836C166.39 90.836 166.29 93.3863 168.311 93.3863C170.729 93.681 173.175 93.681 175.593 93.3863C175.593 93.3863 177.211 93.0893 177.211 90.7359V71.9024C177.334 71.2453 177.309 70.5701 177.136 69.9235C176.964 69.2768 176.648 68.6743 176.212 68.1576C175.696 67.5128 175.362 66.7483 175.243 65.9398L173.636 54.4441C173.618 54.3149 173.549 54.1972 173.445 54.115C173.34 54.0329 173.208 53.9924 173.073 54.0018Z" fill="#3F3D56"/>
<path d="M173.083 72.0508H170.63C168.599 72.0508 166.953 73.6479 166.953 75.618V84.5699C166.953 86.54 168.599 88.1371 170.63 88.1371H173.083C175.115 88.1371 176.761 86.54 176.761 84.5699V75.618C176.761 73.6479 175.115 72.0508 173.083 72.0508Z" fill="#9E63FF"/>
<g opacity="0.2">
<path opacity="0.2" d="M147.259 246.899C147.249 247.247 147.207 247.594 147.136 247.935C144.82 247.578 142.49 247.255 140.147 246.967C140.147 246.876 140.147 246.783 140.147 246.689C140.168 245.721 140.456 244.776 140.979 243.951C141.664 242.899 142.706 242.24 143.854 242.276C145.003 242.311 145.998 243.031 146.614 244.119C147.079 244.974 147.302 245.933 147.259 246.899Z" fill="#3F3D56"/>
<path opacity="0.2" d="M147.446 241.386C147.527 238.89 146 236.817 144.034 236.757C142.068 236.696 140.408 238.671 140.327 241.168C140.246 243.665 141.773 245.737 143.739 245.798C145.705 245.858 147.365 243.883 147.446 241.386Z" fill="#3F3D56"/>
<path opacity="0.2" d="M147.628 235.859C147.709 233.363 146.181 231.29 144.215 231.23C142.25 231.169 140.59 233.144 140.509 235.641C140.427 238.138 141.955 240.21 143.921 240.271C145.887 240.331 147.546 238.356 147.628 235.859Z" fill="#3F3D56"/>
<path opacity="0.2" d="M147.806 230.332C147.887 227.836 146.359 225.763 144.394 225.703C142.428 225.643 140.768 227.618 140.687 230.114C140.605 232.611 142.133 234.683 144.099 234.744C146.065 234.804 147.724 232.829 147.806 230.332Z" fill="#3F3D56"/>
<path opacity="0.2" d="M147.987 224.805C148.069 222.309 146.541 220.236 144.575 220.176C142.609 220.116 140.95 222.091 140.868 224.587C140.787 227.084 142.315 229.157 144.281 229.217C146.246 229.277 147.906 227.302 147.987 224.805Z" fill="#3F3D56"/>
<path opacity="0.2" d="M132.315 186.453C131.847 185.838 131.424 185.19 131.05 184.516L140.456 183.312L130.332 183.077C129.428 180.998 128.971 178.762 128.989 176.506C129.007 174.251 129.499 172.022 130.435 169.957L143.788 177.204L131.556 167.894C132.79 165.958 134.422 164.29 136.351 162.994C138.279 161.697 140.463 160.801 142.764 160.359C145.066 159.918 147.437 159.942 149.729 160.43C152.021 160.917 154.184 161.858 156.085 163.193C157.985 164.528 159.581 166.228 160.773 168.188C161.965 170.149 162.728 172.326 163.014 174.585C163.299 176.844 163.102 179.136 162.433 181.317C161.764 183.498 160.639 185.523 159.128 187.264C159.857 188.221 160.476 189.253 160.975 190.34L148.63 196.086L161.721 192.267C162.545 194.906 162.678 197.702 162.107 200.402C161.536 203.103 160.28 205.623 158.452 207.734C160.353 210.235 161.489 213.204 161.732 216.302C161.974 219.4 161.313 222.502 159.824 225.253C158.334 228.003 156.077 230.292 153.31 231.857C150.542 233.422 147.377 234.2 144.175 234.102C140.974 234.004 137.865 233.034 135.205 231.303C132.545 229.572 130.441 227.15 129.133 224.314C127.825 221.478 127.367 218.342 127.81 215.265C128.253 212.188 129.58 209.294 131.64 206.914C129.369 203.925 128.2 200.283 128.321 196.572C128.442 192.861 129.845 189.297 132.305 186.453H132.315Z" fill="#9E63FF"/>
<path opacity="0.1" d="M162.446 197.616C162.33 201.329 160.922 204.895 158.452 207.734C160.353 210.235 161.489 213.204 161.732 216.302C161.974 219.4 161.313 222.502 159.824 225.253C158.334 228.003 156.077 230.292 153.31 231.857C150.543 233.422 147.377 234.2 144.175 234.102C140.974 234.004 137.865 233.034 135.205 231.303C132.545 229.572 130.441 227.15 129.133 224.314C127.825 221.478 127.367 218.342 127.81 215.265C128.253 212.188 129.58 209.294 131.64 206.914C129.453 204.031 162.506 195.76 162.446 197.616Z" fill="black"/>
</g>
</g>
<defs>
<clipPath id="clip0">
<rect width="300" height="300" fill="white"/>
</clipPath>
</defs>
</svg>
