<svg width="300" height="300" viewBox="0 0 300 300" fill="none" xmlns="http://www.w3.org/2000/svg">
<g clip-path="url(#clip0)">
<path opacity="0.1" d="M24.052 89.2482C30.9195 105.82 22.1592 124.902 11.8473 139.271C8.39596 144.089 4.58575 149.141 4.10727 155.185C3.53029 162.578 8.21653 169.373 13.7753 173.816C23.9147 181.912 37.7624 184.415 49.8298 180.329C60.2578 176.8 69.0251 168.828 79.5445 165.615C97.1356 160.232 115.782 169.155 130.847 180.273C141.511 188.132 152.931 197.709 165.786 196.025C174.832 194.841 182.508 188.057 187.719 180.07C190.234 176.214 192.423 171.891 196.085 169.29C198.263 167.742 200.82 166.923 203.378 166.336C226.736 161.003 251.525 174.019 274.573 167.325C290.141 162.814 302.553 149.66 310.272 134.524C317.991 119.388 321.593 102.298 324.594 85.3656C326.726 73.3382 328.496 60.3449 323.595 49.2834C318.409 37.5718 306.405 30.4719 294.341 29.1413C282.277 27.8108 270.178 31.4829 259.064 36.6622C245.178 43.1495 231.566 52.2302 216.41 52.2602C206.087 52.2828 196.243 48.0506 186.375 44.822C169.874 39.4285 152.716 36.7486 135.618 34.2755C119.247 31.9076 102.715 29.7051 86.2467 31.1033C74.5944 32.0918 64.3037 36.8501 52.9962 39.0526C45.6256 40.4884 38.2197 39.4285 30.9863 41.834C22.0782 44.8108 12.9168 51.7077 12.4243 62.57C11.9599 72.9097 20.4106 80.4569 24.052 89.2482Z" fill="#9E63FF"/>
<path opacity="0.1" d="M154.463 293.88C237.561 293.88 304.926 286.968 304.926 278.44C304.926 269.913 237.561 263 154.463 263C71.3646 263 4 269.913 4 278.44C4 286.968 71.3646 293.88 154.463 293.88Z" fill="#9E63FF"/>
<path opacity="0.6" d="M199.577 86.4254L79.7717 23.0411L30.2773 129.812L150.083 193.196L199.577 86.4254Z" fill="#CFCCE0"/>
<path opacity="0.6" d="M194.3 68.3843L74.4944 5L24.9999 111.771L144.805 175.155L194.3 68.3843Z" fill="#006D8F"/>
<path opacity="0.6" d="M142.958 92.8882L142.673 92.3583L109.925 112.469V92.0313L140.025 74.6246L139.754 74.0871L109.925 91.3367V71.4336L127.073 54.3945L126.683 53.9469L109.925 70.5988V47.0969H109.353V70.6244L91.0655 53.4226L90.6877 53.8815L109.353 71.4389V91.3329L77.8698 72.8573L77.5943 73.3926L109.353 92.0301V112.462L74.6746 95.4662L74.436 96.0221L109.353 113.134V136.602H109.925V113.174L142.958 92.8882Z" fill="#CFCCE0"/>
<path opacity="0.6" d="M115.179 138.84H115.173L115.153 138.761L114.853 137.517C115.085 137.465 115.316 137.404 115.542 137.34C112.09 136.231 108.675 136.521 105.864 137.215H105.858C105.143 137.389 104.471 137.594 103.844 137.808C104.208 137.875 104.571 137.939 104.94 137.991L104.766 138.761H104.743L103.312 144.478L107.72 144.459L116.532 144.42L115.179 138.84Z" fill="#3F3D56"/>
<path opacity="0.6" d="M182.152 144.691H47.5977V24.7766H182.152V144.691ZM48.3013 143.94H181.449V25.5283H48.3013V143.94Z" fill="#3F3D56"/>
<path opacity="0.6" d="M188.665 28.5135C188.665 28.7244 188.659 28.9321 188.642 29.1369C188.555 30.4057 188.205 31.638 187.616 32.7439C187.027 33.8497 186.215 34.8014 185.238 35.5295C184.262 36.2577 183.146 36.7439 181.971 36.9529C180.796 37.1619 179.593 37.0883 178.448 36.7375C177.303 36.3868 176.246 35.7676 175.354 34.9253C174.461 34.0829 173.756 33.0384 173.289 31.868C172.822 30.6976 172.606 29.4307 172.655 28.1596C172.705 26.8884 173.019 25.6451 173.575 24.5201C173.747 24.1675 173.944 23.8294 174.164 23.5087C175.122 22.0897 176.464 21.0185 178.009 20.4398C179.554 19.861 181.229 19.8025 182.806 20.2721C184.384 20.7417 185.788 21.7168 186.831 23.0659C187.873 24.415 188.503 26.0732 188.636 27.8169C188.656 28.046 188.665 28.2783 188.665 28.5135Z" fill="#CFCCE0"/>
<path opacity="0.6" d="M191.216 24.4009C191.216 24.6117 191.21 24.8195 191.193 25.0242C191.106 26.293 190.756 27.5253 190.167 28.6312C189.578 29.737 188.766 30.6887 187.79 31.4168C186.813 32.145 185.697 32.6312 184.522 32.8402C183.347 33.0492 182.144 32.9756 180.999 32.6248C179.854 32.2741 178.797 31.655 177.905 30.8126C177.012 29.9702 176.307 28.9257 175.84 27.7553C175.374 26.5849 175.157 25.318 175.206 24.0469C175.256 22.7757 175.57 21.5324 176.126 20.4074C176.298 20.0548 176.495 19.7167 176.715 19.396C177.673 17.977 179.015 16.9059 180.56 16.3271C182.106 15.7484 183.78 15.6899 185.357 16.1594C186.935 16.629 188.339 17.6041 189.382 18.9532C190.424 20.3023 191.054 21.9605 191.187 23.7042C191.207 23.9334 191.216 24.1656 191.216 24.4009Z" fill="#006D8F"/>
<path opacity="0.6" d="M191.216 24.4008C191.216 24.6116 191.21 24.8194 191.193 25.0241L179.204 23.4841L191.187 23.7041C191.207 23.9333 191.216 24.1655 191.216 24.4008Z" fill="#3F3D56"/>
<path opacity="0.6" d="M188.356 28.712L177.265 30.1389C176.95 29.764 176.666 29.3601 176.418 28.932L188.356 28.712Z" fill="#3F3D56"/>
<path opacity="0.6" d="M185.21 19.2401L176.126 20.4073C176.298 20.0548 176.495 19.7167 176.715 19.3959L185.21 19.2401Z" fill="#3F3D56"/>
<path opacity="0.6" d="M159.381 149.815C162.225 149.815 164.53 147.353 164.53 144.316C164.53 141.278 162.225 138.816 159.381 138.816C156.538 138.816 154.233 141.278 154.233 144.316C154.233 147.353 156.538 149.815 159.381 149.815Z" fill="#3F3D56"/>
<path opacity="0.6" d="M114.957 31.2634C117.8 31.2634 120.105 28.8011 120.105 25.7636C120.105 22.7261 117.8 20.2638 114.957 20.2638C112.114 20.2638 109.809 22.7261 109.809 25.7636C109.809 28.8011 112.114 31.2634 114.957 31.2634Z" fill="#3F3D56"/>
<path opacity="0.6" d="M48.0317 68.5236C50.8749 68.5236 53.1798 66.0612 53.1798 63.0238C53.1798 59.9863 50.8749 57.5239 48.0317 57.5239C45.1884 57.5239 42.8835 59.9863 42.8835 63.0238C42.8835 66.0612 45.1884 68.5236 48.0317 68.5236Z" fill="#3F3D56"/>
<path d="M19.2816 55.1343C11.6282 54.0088 7.01924 52.957 6.91851 52.9335L7.09947 52.2067C7.32246 52.2586 29.7468 57.3728 58.3153 57.0901C84.6512 56.8294 121.749 51.7964 148.924 29.3003L149.179 29.0896L149.486 29.2772C149.777 29.454 178.923 47.146 213.891 62.0079C234.414 70.7301 252.894 76.7848 268.82 80.0036C288.669 84.0161 304.56 83.6056 316.058 78.7867L316.491 79.4677C304.809 84.3632 288.715 84.7893 268.663 80.7358C252.666 77.5021 234.116 71.4253 213.526 62.6739C180.424 48.6042 152.532 32.0051 149.309 30.0666C137.262 39.9697 122.322 47.3401 104.899 51.9737C90.8718 55.7043 75.2131 57.6792 58.3578 57.8443C45.3392 57.9452 32.2601 57.0382 19.2816 55.1343Z" fill="#2F2E41"/>
<path d="M8.00903 53.1515L25.1058 56.0148L13.0374 69.6522L8.00903 53.1515Z" fill="#9E63FF"/>
<path d="M213.866 62.8378L230.11 69.2117L215.782 80.0697L213.866 62.8378Z" fill="#9E63FF"/>
<path d="M46.4866 57.436L48.8421 69.5766L59.2983 57.7506L46.4866 57.436Z" fill="#9E63FF"/>
<path d="M71.1946 57.2519L84.8794 67.9906L85.323 55.6157L71.1946 57.2519Z" fill="#9E63FF"/>
<path d="M157.616 34.4496L163.317 51.5364L170.176 41.5525L157.616 34.4496Z" fill="#9E63FF"/>
<path d="M276.242 81.9L282.344 94.2761L286.925 82.9887L276.242 81.9Z" fill="#9E63FF"/>
<path d="M101.158 52.924L109.398 66.4597L113.076 49.4261L101.158 52.924Z" fill="#9E63FF"/>
<path d="M126.841 43.9824L137.39 55.546L137.894 38.0736L126.841 43.9824Z" fill="#9E63FF"/>
<path d="M186.655 49.9683L185.177 66.4372L198.907 55.9269L186.655 49.9683Z" fill="#9E63FF"/>
<path d="M258.267 78.3519L247.845 91.9977L246.505 74.7004L258.267 78.3519Z" fill="#9E63FF"/>
<path d="M157.541 104.692C157.541 104.643 157.541 104.598 157.541 104.553C157.541 104.508 157.541 104.455 157.52 104.41H157.463C157.463 104.309 157.463 104.207 157.463 104.098C157.323 100.614 152.812 93.1985 151.004 95.3634C149.421 97.2652 151.81 102.076 153.027 104.241L153.136 104.437L153.076 104.395C153.076 104.395 148.042 120.437 147.447 121.061C146.852 121.685 142.708 134.298 137.244 135.719C136.164 135.993 135.267 136.241 134.514 136.471L134.574 136.257C134.926 135.027 135.358 133.866 135.534 132.498C135.71 131.13 135.534 129.472 134.887 128.807C134.57 128.476 134.183 128.431 133.923 127.905C133.754 127.444 133.663 126.953 133.656 126.458L133.191 120.377L133.515 120.271C135.471 119.602 137.367 118.016 137.589 115.881C137.521 115.909 137.452 115.933 137.381 115.953C137.407 115.829 137.427 115.703 137.441 115.577C135.798 116.269 134.275 114.449 132.692 113.634C130.085 112.269 127.105 113.555 124.413 113.867C121.363 114.224 118.468 112.871 115.35 113.115C113.655 113.254 111.769 114.483 111.86 116.269C111.913 117.249 112.564 118.08 112.831 119.02C113.507 121.294 112.005 123.575 110.689 125.515C109.823 126.789 108.993 128.341 108.845 129.837C105.816 126.454 102.541 122.545 102.161 121.076L93.3968 105.034C93.3968 105.034 93.1892 105.271 92.855 105.621C92.8022 105.448 92.7389 105.245 92.6686 105.042C91.5498 101.693 88.3834 93.5781 84.3691 95.0665C80.3548 96.5549 86.0332 104.873 88.503 108.188L88.8548 108.646C88.6477 108.701 88.4303 108.69 88.2286 108.616L98.0021 126.526C98.0021 126.526 99.7788 129.953 101.408 130.886C101.408 130.886 113.549 147.239 113.697 150.509C113.845 153.779 119.157 162.503 119.157 162.503C119.157 162.503 120.934 176.676 117.824 179.168H117.862H117.887H117.926H117.961H118.031H118.077H118.123H118.183H118.232H118.302H118.337C118.19 179.322 118.038 179.491 117.884 179.675C115.579 182.404 112.634 188.252 116.659 198.198C122.58 212.856 123.47 218.599 123.47 218.599C123.47 218.599 112.212 219.223 109.996 219.689C108.033 220.102 100.402 220.392 98.6565 220.441C98.0338 219.666 96.1938 217.953 93.7099 220.441C90.5998 223.557 88.3799 233.972 88.3799 233.972C88.3799 233.972 87.1942 242.383 91.1944 240.199C91.1944 240.199 95.9334 233.19 97.2633 232.878C97.9248 232.724 98.6249 231.683 99.1596 230.679L99.1878 230.698C99.2194 230.698 99.3496 230.623 99.5607 230.533C100.546 230.115 103.258 229.112 105.397 229.612C106.569 229.886 111.593 229.95 116.86 229.935C115.671 232.979 113.539 240.835 113.539 240.835C113.539 240.835 112.648 248.16 115.604 247.859C117.715 247.638 120.951 241.876 122.64 238.587C123.864 237.629 127.372 234.193 129.965 234.453L147.436 227.289C147.436 227.289 151.581 224.797 149.361 216.543C147.602 209.981 142.595 196.548 140.618 191.312L140.558 191.177C140.08 189.91 139.791 189.158 139.791 189.158C138.979 186.768 138.446 184.28 138.205 181.75C138.187 181.551 138.173 181.348 138.159 181.149C138.404 181.039 138.634 180.896 138.845 180.724C138.845 180.724 137.216 163.126 138.845 161.255L138.873 161.221V161.198L138.901 161.161L138.965 161.074L139.042 160.969C139.13 160.845 139.235 160.691 139.355 160.503C140.287 159.045 142.025 155.715 141.526 151.783C141.505 151.613 141.479 151.441 141.448 151.268C141.257 150.202 140.915 149.173 140.435 148.216C140.365 147.818 140.321 147.415 140.305 147.01C140.305 146.78 140.305 146.529 140.305 146.258V146.213C140.305 146.14 140.305 146.068 140.305 145.995V145.942C140.305 145.766 140.333 145.566 140.358 145.401V145.333C140.358 145.266 140.368 145.197 140.389 145.127V145.04C140.389 144.973 140.418 144.905 140.432 144.837V144.766C140.453 144.676 140.474 144.585 140.502 144.495V144.45C140.523 144.375 140.547 144.301 140.572 144.228L140.604 144.142L140.674 143.962L140.71 143.871C140.738 143.804 140.769 143.736 140.801 143.668L140.826 143.612C140.868 143.529 140.912 143.448 140.959 143.368L140.998 143.304L141.114 143.127L141.17 143.048L141.294 142.89L141.35 142.823C141.413 142.751 141.477 142.68 141.547 142.612C143.471 140.733 152.059 126.883 152.059 126.883C152.059 126.883 154.132 123.767 154.132 121.745C154.248 121.7 157.91 108.657 157.541 104.692ZM134.486 221.114C134.275 218.979 134.064 216.333 133.87 213.596L137.22 219.174C137.22 219.174 136.903 220.873 134.486 221.114Z" fill="url(#paint0_linear)"/>
<path d="M99.5642 219.933C99.5642 219.933 97.5588 216.551 94.5472 219.629C91.5356 222.707 89.3896 232.946 89.3896 232.946C89.3896 232.946 88.2426 241.214 92.1126 239.068C92.1126 239.068 96.6863 232.179 97.988 231.874C99.2898 231.57 100.711 227.74 100.711 227.74L99.5642 219.933Z" fill="#493545"/>
<path d="M121.057 228.198C121.057 228.198 118.334 226.819 117.475 227.894C116.617 228.969 113.75 239.681 113.75 239.681C113.75 239.681 112.891 246.724 115.755 246.416C118.619 246.108 123.636 235.08 123.636 235.08L121.057 228.198Z" fill="#493545"/>
<path opacity="0.05" d="M121.057 228.198C121.057 228.198 118.334 226.819 117.475 227.894C116.617 228.969 113.75 239.681 113.75 239.681C113.75 239.681 112.891 246.724 115.755 246.416C118.619 246.108 123.636 235.08 123.636 235.08L121.057 228.198Z" fill="black"/>
<path d="M130.514 207.38L136.674 217.637C136.674 217.637 136.245 219.933 132.519 219.475L119.766 228.048C119.766 228.048 118.657 238.486 122.2 237.538C122.774 237.384 126.774 232.945 129.652 233.254L146.564 226.21C146.564 226.21 150.575 223.76 148.425 215.649C146.275 207.538 139.169 188.73 139.169 188.73L127.935 195.443L130.514 207.38Z" fill="#2F2E41"/>
<path opacity="0.05" d="M130.514 207.38L136.674 217.637C136.674 217.637 136.245 219.933 132.519 219.475L119.766 228.048C119.766 228.048 118.657 238.486 122.2 237.538C122.774 237.384 126.774 232.945 129.652 233.254L146.564 226.21C146.564 226.21 150.575 223.76 148.425 215.649C146.275 207.538 139.169 188.73 139.169 188.73L127.935 195.443L130.514 207.38Z" fill="#2F2E41"/>
<path d="M134.384 222.534C135.242 228.352 130.373 228.811 130.373 228.811C130.373 228.811 108.448 229.27 105.869 228.657C103.29 228.044 99.8492 229.728 99.8492 229.728C95.4057 226.819 98.9908 219.625 98.9908 219.625C98.9908 219.625 108.163 219.321 110.312 218.873C112.462 218.426 123.351 217.791 123.351 217.791C123.351 217.791 122.492 212.127 116.758 197.739C112.863 187.967 115.702 182.216 117.943 179.536C118.515 178.825 119.177 178.203 119.91 177.687L137.536 178.604C137.517 179.554 137.55 180.504 137.635 181.449C137.936 184.696 138.726 187.869 139.974 190.846C138.972 190.846 132.523 197.277 132.523 197.277C132.523 197.277 133.522 216.72 134.384 222.534Z" fill="#2F2E41"/>
<path opacity="0.1" d="M100.278 220.238C100.278 220.238 109.45 219.933 111.6 219.486C113.75 219.039 124.638 218.415 124.638 218.415C124.638 218.415 123.78 212.751 118.045 198.363C114.151 188.591 116.99 182.84 119.231 180.16C119.803 179.449 120.465 178.827 121.198 178.311L137.529 179.16C137.529 178.98 137.529 178.785 137.529 178.615L119.903 177.698C119.17 178.214 118.508 178.836 117.936 179.548C115.706 182.231 112.856 187.978 116.751 197.75C122.499 212.127 123.351 217.791 123.351 217.791C123.351 217.791 112.444 218.404 110.312 218.862C108.18 219.321 98.9907 219.614 98.9907 219.614C98.9907 219.614 95.4092 226.811 99.8491 229.732C99.8491 229.732 99.9828 229.664 100.201 229.567C97.2492 226.323 100.278 220.238 100.278 220.238Z" fill="black"/>
<path d="M126.5 121.5H117.616V145.533H126.5V121.5Z" fill="#493545"/>
<path opacity="0.1" d="M126.5 121.5H117.616V145.533H126.5V121.5Z" fill="black"/>
<path d="M131.58 117.975C131.886 118.065 132.231 118.076 132.438 118.527C132.567 118.888 132.637 119.269 132.646 119.655L133.205 127.082C133.213 127.568 133.301 128.049 133.466 128.503C133.701 129.006 134.092 129.066 134.398 129.39C135.014 130.044 135.193 131.682 135.024 133.017C134.855 134.351 134.43 135.494 134.095 136.7C133.617 138.429 133.3 140.372 132.628 141.83C131.956 143.289 130.736 144.086 129.947 142.86C129.159 141.635 129.265 139.162 129.117 137.136C128.871 133.753 127.636 130.837 127.552 127.431C127.481 124.676 128.174 122.106 128.607 119.493C128.917 117.7 128.934 115.524 129.385 113.912C129.761 115.829 130.479 117.652 131.58 117.975Z" fill="#493545"/>
<path opacity="0.1" d="M131.58 117.975C131.886 118.065 132.231 118.076 132.438 118.527C132.567 118.888 132.637 119.269 132.646 119.655L133.205 127.082C133.213 127.568 133.301 128.049 133.466 128.503C133.701 129.006 134.092 129.066 134.398 129.39C135.014 130.044 135.193 131.682 135.024 133.017C134.855 134.351 134.43 135.494 134.095 136.7C133.617 138.429 133.3 140.372 132.628 141.83C131.956 143.289 130.736 144.086 129.947 142.86C129.159 141.635 129.265 139.162 129.117 137.136C128.871 133.753 127.636 130.837 127.552 127.431C127.481 124.676 128.174 122.106 128.607 119.493C128.917 117.7 128.934 115.524 129.385 113.912C129.761 115.829 130.479 117.652 131.58 117.975Z" fill="black"/>
<path d="M93.9737 107.417L90.5364 110.48C90.5364 110.48 90.1283 109.969 89.5197 109.142C87.1308 105.884 81.6389 97.7088 85.5195 96.2467C89.4001 94.7847 92.4679 102.757 93.5515 106.049C93.8259 106.883 93.9737 107.417 93.9737 107.417Z" fill="#C77485"/>
<path d="M156.021 106.346C154.589 108.642 152.583 106.346 152.583 106.346C152.583 106.346 152.327 105.936 151.964 105.275C150.786 103.144 148.474 98.4191 150.005 96.5474C151.764 94.4087 156.123 101.708 156.256 105.132C156.298 105.553 156.215 105.977 156.021 106.346Z" fill="#C77485"/>
<path d="M120.769 131.145C120.769 131.145 123.636 140.943 122.774 143.849C121.912 146.754 128.938 150.137 128.938 150.137H136.963C136.963 150.137 139.83 143.86 139.112 142.022C138.395 140.184 132.234 138.809 132.234 138.809C132.234 138.809 128.653 138.809 128.797 128.552L120.769 131.145Z" fill="#C77485"/>
<path opacity="0.1" d="M93.9738 107.417L90.5365 110.48C90.5365 110.48 90.1284 109.969 89.5198 109.142C90.7687 108.905 92.7073 106.959 93.5552 106.049C93.8261 106.883 93.9738 107.417 93.9738 107.417Z" fill="black"/>
<path opacity="0.1" d="M156.021 106.346C154.589 108.642 152.584 106.346 152.584 106.346C152.584 106.346 152.327 105.936 151.964 105.275L152.01 105.121C152.939 105.831 155.827 105.226 156.257 105.121C156.3 105.545 156.218 105.974 156.021 106.346Z" fill="black"/>
<path opacity="0.1" d="M137.628 181.446C133.195 183.607 118.791 179.758 117.926 179.529C118.498 178.818 119.16 178.195 119.892 177.68L137.519 178.597C137.503 179.548 137.539 180.499 137.628 181.446Z" fill="black"/>
<path d="M122.633 139.564C122.633 139.564 119.196 140.789 114.323 136.042C114.323 136.042 103.417 124.56 102.713 121.805L94.2694 106.019C94.2694 106.019 90.6879 110.153 89.2524 109.541L98.7094 127.146C98.7094 127.146 100.43 130.528 102.006 131.431C102.006 131.431 113.757 147.506 113.897 150.719C114.038 153.933 119.192 162.54 119.192 162.54C119.192 162.54 120.913 176.469 117.901 178.92C117.901 178.92 134.665 183.513 138.247 180.45C138.247 180.45 136.671 163.16 138.247 161.315C138.247 161.315 143.12 155.192 139.823 148.457C139.823 148.457 139.119 144.785 140.97 142.947C142.821 141.109 151.145 127.484 151.145 127.484C151.145 127.484 153.15 124.421 153.15 122.433C153.15 122.433 156.876 108.962 156.316 105.44C156.316 105.44 153.02 106.192 152.017 105.44C152.017 105.44 147.144 121.226 146.571 121.82C145.998 122.414 141.997 134.832 136.685 136.211C131.372 137.591 130.524 138.2 130.524 138.2C130.524 138.2 140.84 145.089 135.826 148.149C130.813 151.208 122.633 139.564 122.633 139.564Z" fill="#DADADA"/>
<path opacity="0.1" d="M129.145 133.501C128.975 132.059 128.906 130.606 128.938 129.153L120.913 131.754C121.124 132.325 121.292 132.913 121.416 133.513C122.334 133.945 123.572 134.967 124.638 134.967C126.251 135.024 127.836 134.508 129.145 133.501Z" fill="black"/>
<path d="M124.494 134.513C128.61 134.513 131.946 130.948 131.946 126.552C131.946 122.155 128.61 118.591 124.494 118.591C120.379 118.591 117.043 122.155 117.043 126.552C117.043 130.948 120.379 134.513 124.494 134.513Z" fill="#C77485"/>
<path opacity="0.1" d="M115.628 114.288C113.989 114.423 112.159 115.633 112.251 117.389C112.3 118.355 112.919 119.17 113.19 120.095C113.841 122.331 112.392 124.575 111.118 126.484C109.844 128.394 108.655 130.923 109.746 132.945C110.057 133.432 110.393 133.9 110.752 134.347C112.1 136.29 112.082 138.914 112.68 141.248C113.444 144.234 115.249 146.794 117.725 148.402C120.201 150.01 123.16 150.543 125.993 149.893C124.926 148.438 124.395 146.618 124.498 144.773C124.579 143.435 124.983 142.037 124.498 140.801C123.871 139.211 122.035 138.583 121.089 137.192C120.142 135.802 120.205 133.874 120.663 132.216C121.12 130.559 121.912 129.021 122.292 127.33C122.386 126.837 122.503 126.349 122.644 125.868C123.305 123.861 125.282 122.696 127.217 122.196C129.152 121.696 131.186 121.666 133.075 121.008C134.964 120.35 136.801 118.809 137.019 116.693C135.429 117.374 133.955 115.6 132.421 114.784C129.895 113.446 127.013 114.705 124.41 115.013C121.444 115.366 118.629 114.055 115.628 114.288Z" fill="black"/>
<path d="M115.484 113.983C113.844 114.119 112.015 115.329 112.107 117.084C112.156 118.05 112.775 118.866 113.046 119.79C113.697 122.027 112.247 124.271 110.974 126.18C109.7 128.089 108.511 130.619 109.602 132.641C109.912 133.128 110.248 133.596 110.608 134.043C111.955 135.986 111.938 138.609 112.536 140.943C113.3 143.93 115.105 146.49 117.581 148.097C120.057 149.705 123.016 150.239 125.849 149.588C124.782 148.134 124.25 146.313 124.353 144.469C124.434 143.131 124.839 141.733 124.353 140.496C123.727 138.906 121.891 138.279 120.944 136.888C119.998 135.497 120.061 133.569 120.519 131.912C120.976 130.254 121.767 128.717 122.147 127.026C122.241 126.532 122.359 126.044 122.499 125.563C123.161 123.556 125.138 122.391 127.073 121.891C129.008 121.391 131.041 121.361 132.931 120.704C134.82 120.046 136.656 118.505 136.875 116.389C135.284 117.069 133.81 115.295 132.276 114.479C129.75 113.141 126.869 114.401 124.265 114.709C121.307 115.058 118.503 113.732 115.484 113.983Z" fill="#493545"/>
<path opacity="0.1" d="M131.875 144.236C131.875 144.236 134.859 147.081 135.446 148.337L131.875 144.236Z" fill="black"/>
<path opacity="0.1" d="M138.331 161.228C138.331 161.228 134.606 161.228 132.885 161.687C131.165 162.145 127.01 161.687 127.01 161.687" fill="black"/>
<g opacity="0.1">
<path opacity="0.1" d="M135.816 148.137C135.494 148.334 135.147 148.476 134.785 148.558C135.719 148.78 136.697 148.63 137.536 148.137C142.553 145.074 132.234 138.188 132.234 138.188H130.514C130.514 138.188 140.833 145.078 135.816 148.137Z" fill="black"/>
<path opacity="0.1" d="M156.341 105.707C156.341 105.609 156.32 105.515 156.306 105.429C155.716 105.559 155.121 105.656 154.522 105.718C155.127 105.789 155.737 105.786 156.341 105.707Z" fill="black"/>
<path opacity="0.1" d="M119.625 178.909C122.633 176.458 120.916 162.529 120.916 162.529C120.916 162.529 115.758 153.956 115.614 150.742C115.47 147.528 103.723 131.453 103.723 131.453C102.147 130.536 100.426 127.168 100.426 127.168C100.426 127.168 90.6807 110.176 89.2488 109.563L98.7057 127.168C98.7057 127.168 100.426 130.551 102.002 131.453C102.002 131.453 113.753 147.528 113.894 150.742C114.035 153.956 119.192 162.54 119.192 162.54C119.192 162.54 120.913 176.469 117.901 178.92C117.901 178.92 128.206 181.743 134.384 181.487C128.192 181.254 119.625 178.909 119.625 178.909Z" fill="black"/>
<path opacity="0.1" d="M122.717 139.684L122.633 139.568C122.535 139.599 122.435 139.623 122.334 139.639C122.468 139.658 122.594 139.673 122.717 139.684Z" fill="black"/>
</g>
<g opacity="0.1">
<path opacity="0.1" d="M156.306 105.41L156.218 105.429C156.067 110.131 153.013 121.177 153.013 121.177C153.013 123.165 151.007 126.229 151.007 126.229C151.007 126.229 142.697 139.853 140.833 141.691C138.968 143.529 139.686 147.201 139.686 147.201L139.703 147.239C139.647 146.002 139.788 144.086 140.974 142.913C142.835 141.075 151.148 127.45 151.148 127.45C151.148 127.45 153.154 124.387 153.154 122.399C153.154 122.421 156.879 108.951 156.306 105.41Z" fill="black"/>
<path opacity="0.1" d="M138.11 160.078C138.324 161.379 138.18 160.003 138.254 161.304C138.254 161.304 141.772 156.895 140.812 151.445C141.1 156.316 138.11 160.078 138.11 160.078Z" fill="black"/>
</g>
<path d="M156.923 174.944C156.923 174.944 154.633 185.468 156.596 185.468C158.559 185.468 162.485 180.556 162.485 180.556V177.75L156.923 174.944Z" fill="#A0616A"/>
<path d="M161.782 165.547L155.801 175.319H160.12L161.782 165.547Z" fill="#FAFAFA"/>
<path d="M166.004 251.242H158.264V258.008H166.004V251.242Z" fill="#A0616A"/>
<path d="M183.595 250.028L185.178 258.008L193.094 255.926L191.194 248.987L183.595 250.028Z" fill="#A0616A"/>
<path d="M158.802 177.381C158.802 177.381 156.181 178.781 155.853 185.083C155.526 191.385 156.836 207.84 156.836 207.84C156.836 207.84 155.526 215.193 156.836 221.845C158.147 228.497 155.526 252.655 157.164 252.655C158.802 252.655 167.322 253.705 167.649 252.655C167.977 251.605 168.305 235.849 168.305 235.849C168.305 235.849 170.926 227.797 168.305 222.895C168.305 222.895 174.202 228.147 174.202 229.547C174.202 230.948 180.428 252.655 183.377 253.005C186.326 253.355 194.518 252.655 192.879 249.504C191.241 246.353 187.309 231.998 187.309 231.998C187.309 231.998 184.36 221.495 179.117 216.943L181.739 194.536C181.739 194.536 187.309 179.481 184.032 177.381C180.756 175.28 158.802 177.381 158.802 177.381Z" fill="#2F2E41"/>
<path d="M168.642 120.444C173.403 120.444 177.262 116.322 177.262 111.236C177.262 106.15 173.403 102.027 168.642 102.027C163.882 102.027 160.023 106.15 160.023 111.236C160.023 116.322 163.882 120.444 168.642 120.444Z" fill="#A0616A"/>
<path d="M164.245 116.859C164.245 116.859 167.582 128.308 166.581 129.696C165.58 131.083 177.262 122.063 177.262 122.063C177.262 122.063 172.923 118.941 174.592 114.431L164.245 116.859Z" fill="#A0616A"/>
<path d="M178.202 121.196C178.202 121.196 174.281 122.593 172.321 125.037C170.36 127.481 165.786 127.83 165.786 127.83C165.786 127.83 161.743 130.263 160.232 134.463C158.622 138.94 159.558 145.242 160.232 146.683C161.539 149.476 161.539 156.459 161.539 156.459L159.905 172.519C159.905 172.519 154.024 178.454 158.598 179.153C163.172 179.851 171.34 178.804 176.241 179.153C181.142 179.502 186.696 180.2 185.063 176.709C183.429 173.217 181.469 170.773 183.429 163.791C184.963 158.327 184.897 137.897 184.795 129.269C184.781 128.085 184.484 126.923 183.931 125.896C183.379 124.868 182.589 124.009 181.638 123.4L178.202 121.196Z" fill="#FAFAFA"/>
<path d="M165.305 174.568C165.305 174.568 163.799 178.162 163.65 180.308C162.492 196.991 170.929 180.308 170.929 180.308V177.438L165.305 174.568Z" fill="#A0616A"/>
<path d="M188.34 255.189C188.34 255.189 183.473 251.284 183.473 253.414C183.473 255.544 177.957 264.063 177.957 264.063C177.957 264.063 168.872 271.163 176.335 271.163C183.798 271.163 187.042 269.743 187.042 269.743L194.83 264.063C194.83 264.063 196.777 261.578 196.128 258.739C195.479 255.899 193.207 251.994 193.207 251.994C193.207 251.994 190.612 255.899 188.34 255.189Z" fill="#2F2E41"/>
<path d="M159.569 256.487C159.569 256.487 158.911 252.991 156.606 254.739C154.302 256.487 148.047 261.731 148.047 261.731C148.047 261.731 136.524 264.528 143.767 268.024C151.01 271.521 167.47 266.626 167.47 266.626C167.47 266.626 168.129 255.438 167.47 255.788C166.812 256.137 159.898 257.186 159.569 256.487Z" fill="#2F2E41"/>
<path opacity="0.1" d="M173.454 132.096L174.447 153.517L164.822 174.192L163.189 173.533L173.123 154.219L173.454 132.096Z" fill="black"/>
<path d="M181.165 125.483L183.647 124.955C183.647 124.955 191.094 130.767 188.777 142.393C186.46 154.018 176.201 171.633 176.201 171.633C176.201 171.633 173.885 174.803 173.223 175.508C172.561 176.213 171.237 175.508 171.899 176.565C172.561 177.622 170.906 178.326 170.906 178.326C170.906 178.326 163.625 178.326 164.287 175.508C164.949 172.69 176.201 152.609 176.201 152.609L174.546 133.938C174.546 133.938 173.223 124.779 181.165 125.483Z" fill="#FAFAFA"/>
<path opacity="0.1" d="M184.298 158.218V155.775L173.04 175.319L184.298 158.218Z" fill="black"/>
<path d="M162.725 102.829L161.331 102.23C161.331 102.23 164.246 98.7885 168.303 99.0878L167.162 97.7411C167.162 97.7411 169.95 96.544 172.486 99.6863C173.818 101.338 175.36 103.28 176.322 105.467H177.815L177.192 106.939L179.373 108.41L177.134 108.146C177.346 109.416 177.273 110.722 176.922 111.956L176.982 113.119C176.982 113.119 174.387 108.814 174.387 108.216V109.712C174.387 109.712 172.993 108.365 172.993 107.467L172.232 108.515L171.852 106.869L167.162 108.515L167.922 107.168L165.007 107.617L166.148 105.971C166.148 105.971 162.852 107.916 162.725 109.562C162.598 111.208 160.951 113.303 160.951 113.303L160.19 111.807C160.19 111.807 159.049 105.073 162.725 102.829Z" fill="#2F2E41"/>
<path d="M230.387 171.678L234.279 186.559C234.279 186.559 233.477 199.739 237.221 197.16C241.051 194.522 239.627 183.407 239.627 183.407L237.383 170.057L230.387 171.678Z" fill="#FFB9B9"/>
<path d="M232.382 130.217L235.573 133.637V149.936C235.573 149.936 237.45 152.954 237.075 153.759C236.7 154.564 236.324 154.564 236.7 155.167C237.075 155.771 237.45 156.173 237.075 156.576C236.7 156.978 236.7 157.984 237.075 158.387C237.45 158.789 238.201 159.393 237.638 159.997C237.075 160.6 236.324 160.198 237.075 162.411C237.826 164.625 239.14 165.228 238.764 166.033C238.389 166.838 238.389 168.85 238.389 168.85L230.317 170.057L228.628 147.32L232.382 130.217Z" fill="#006D8F"/>
<path d="M238.83 168.93L229.331 169.322L229.711 173.44L238.071 171.872L238.83 168.93Z" fill="#3F3D56"/>
<path d="M212.856 109.169L211.74 121.261L223.084 123.075L223.921 116.122L224.758 109.169H212.856Z" fill="#FFB9B9"/>
<path opacity="0.1" d="M212.856 109.169L211.74 121.261L223.084 123.075L223.921 116.122L224.758 109.169H212.856Z" fill="black"/>
<path d="M187.816 166.675L194.244 181.407C194.244 181.407 195.378 188.269 197.079 188.47C198.781 188.672 200.482 181.407 200.482 181.407L198.213 177.573L195.567 166.675H187.816Z" fill="#FFB9B9"/>
<path d="M201.386 179.981L196.103 188.846C196.103 188.846 191.008 273.267 191.763 272.663C192.518 272.058 194.971 271.857 195.914 270.245C196.858 268.633 202.707 270.245 202.707 270.245L206.104 266.417V263.395C206.104 262.79 212.897 216.651 212.897 216.651V228.337C212.897 228.337 210.821 271.253 214.218 270.85C217.614 270.447 224.596 268.029 224.596 268.029C224.596 268.029 234.597 187.839 231.578 184.816C228.559 181.794 227.238 174.944 227.238 174.944L201.386 179.981Z" fill="#2F2E41"/>
<path d="M219.129 113.303C224.18 113.303 228.276 108.928 228.276 103.531C228.276 98.1339 224.18 93.7587 219.129 93.7587C214.077 93.7587 209.981 98.1339 209.981 103.531C209.981 108.928 214.077 113.303 219.129 113.303Z" fill="#FFB9B9"/>
<path d="M198.898 123.129L197.589 122.324C197.589 122.324 191.792 126.551 189.922 136.011C188.052 145.472 186.743 147.887 186.743 147.887C186.743 147.887 184.873 148.29 186.182 149.699C187.491 151.108 187.491 150.907 186.369 151.712C185.247 152.517 184.5 150.907 185.247 152.517C185.995 154.127 186.93 153.725 186.182 154.731C185.434 155.738 184.126 155.738 184.873 156.543C185.621 157.348 184.126 159.159 185.06 159.965C185.995 160.77 186.369 160.971 186.369 162.38C186.364 163.202 186.49 164.02 186.743 164.795H196.467C196.467 164.795 194.597 160.971 195.158 160.166C195.719 159.361 195.906 158.556 195.532 158.153C195.158 157.75 194.036 158.556 195.158 157.549C196.28 156.543 196.654 157.147 196.28 155.939C195.906 154.731 195.158 155.335 195.906 154.731C196.654 154.127 197.215 154.329 196.841 153.725C196.467 153.121 195.719 153.121 196.467 152.718C197.215 152.316 197.776 152.718 197.589 151.712C197.402 150.705 197.215 151.108 197.589 150.705C197.963 150.303 201.889 136.615 201.889 136.213C201.889 135.81 198.898 123.129 198.898 123.129Z" fill="#006D8F"/>
<path d="M196.964 164.044L185.354 164.871L188.303 167.972L196.411 168.178L196.964 164.044Z" fill="#3F3D56"/>
<path d="M200.469 179.078L198.019 183.98C198.019 183.98 205.37 185.002 208.008 186.023C210.647 187.044 217.432 188.474 217.432 188.474L219.128 181.325L200.469 179.078Z" fill="#3F3D56"/>
<path d="M221.943 181.587L224.054 188.099L232.498 186.323L231.538 180.206L221.943 181.587Z" fill="#3F3D56"/>
<path d="M225.456 116.305C225.456 116.305 224.889 115.903 223.566 116.708C222.242 117.513 217.895 117.915 215.815 115.5C213.736 113.085 212.223 111.073 211.656 111.475C211.089 111.878 210.711 116.507 210.711 116.507L208.821 118.116L197.667 122.342L198.613 149.51L200.314 155.748C200.314 155.748 198.991 160.578 200.692 163.396C202.393 166.213 199.747 167.219 199.747 167.219C199.747 167.219 199.18 168.024 199.558 170.036C199.936 172.049 199.18 179.495 199.18 179.495C199.18 179.495 215.248 187.142 232.072 180.501L230.182 172.854L229.237 155.748C229.237 155.748 230.182 152.931 229.993 151.724C229.804 150.516 235.664 133.612 235.664 133.612C235.664 133.612 234.719 125.16 229.804 123.349C224.889 121.538 224.133 119.726 224.133 119.726C224.133 119.726 226.401 117.11 225.456 116.305Z" fill="#006D8F"/>
<path d="M209.945 104.7C209.945 104.7 208.996 103.205 209.361 101.596C209.579 100.682 209.665 99.7386 209.617 98.7977C209.617 98.7977 210.383 96.1914 211.149 94.735C211.916 93.2785 211.551 92.6653 213.96 92.2053C216.369 91.7454 215.383 88.4492 221.734 92.0137C221.948 92.3278 222.246 92.5683 222.59 92.7047C222.935 92.8412 223.31 92.8674 223.668 92.7803C224.982 92.512 225.456 94.4284 225.456 94.4284C225.456 94.4284 226.332 93.8918 226.661 94.6583C226.989 95.4249 229.331 94.1982 229.331 99.3725C229.331 104.547 226.666 109.169 226.666 109.169C226.666 109.169 226.862 100.465 222.518 99.5835C218.175 98.7019 213.504 96.1339 212.372 99.4302C211.761 101.28 210.947 103.049 209.945 104.7Z" fill="#2F2E41"/>
<path d="M226.693 106.914C227.178 106.914 227.572 106.325 227.572 105.598C227.572 104.872 227.178 104.283 226.693 104.283C226.207 104.283 225.813 104.872 225.813 105.598C225.813 106.325 226.207 106.914 226.693 106.914Z" fill="#FFB9B9"/>
<path d="M221.957 267.404L223.289 271.634C223.289 271.634 223.289 275.864 224.621 277.98C225.954 280.095 227.286 284.677 221.957 285.03C216.627 285.382 214.295 283.267 214.295 283.267C214.295 283.267 215.295 280.447 214.295 279.39C213.296 278.332 214.295 276.217 214.295 276.217L215.295 267.757L221.957 267.404Z" fill="#2F2E41"/>
<path d="M196.133 267.404L194.84 271.634C194.84 271.634 194.84 275.864 193.547 277.98C192.254 280.095 190.96 284.677 196.133 285.03C201.306 285.382 203.569 283.267 203.569 283.267C203.569 283.267 202.599 280.447 203.569 279.39C204.539 278.332 203.569 276.217 203.569 276.217L202.599 267.757L196.133 267.404Z" fill="#2F2E41"/>
<path d="M17.4651 251.156L17.1836 261.014H21.6869L25.6273 257.131L23.3756 249.363L17.4651 251.156Z" fill="#A0616A"/>
<path d="M33.7192 259.511V276.8L42.8666 275.31L42.2949 259.511H33.7192Z" fill="#A0616A"/>
<path d="M11.9065 184.473L14.1497 219.565C14.1497 219.565 13.0281 223.729 13.8693 224.918C14.7105 226.108 14.7105 226.108 14.1497 227.297C13.5889 228.487 12.4673 228.784 13.3085 229.677C13.7481 230.112 14.1259 230.613 14.4301 231.164L17.2341 254.063C17.2341 254.063 15.5517 258.821 25.0852 251.684L25.646 232.353C25.646 232.353 24.5244 228.487 25.646 227.892C26.7676 227.297 27.3284 227.297 27.048 226.108C26.7676 224.918 27.048 224.918 27.048 224.026C27.048 223.134 27.6088 222.837 27.6088 221.944C27.6088 221.052 27.048 218.97 27.048 218.97L30.9736 199.64L34.0579 221.35C34.0579 221.35 32.656 226.108 34.0579 227.892L32.9364 261.795C32.9364 261.795 40.7875 265.959 44.1523 261.795L46.3955 234.732C46.3955 234.732 47.2367 229.677 46.9563 227.892C46.6759 226.108 45.8347 226.405 46.3955 225.216C46.9563 224.026 46.9563 220.457 46.9563 220.457L49.1994 199.64L48.919 169.306H13.3085L11.9065 184.473Z" fill="#2F2E41"/>
<path d="M21.8958 258.098L16.8916 256.311C16.8916 256.311 11.6095 267.03 11.0534 267.328C10.4974 267.626 6.3273 275.963 12.1655 275.665C18.0036 275.367 22.7298 267.328 22.7298 267.328C22.7298 267.328 28.846 259.884 28.0119 257.502C27.1779 255.12 24.7229 253.497 24.7229 253.497C24.7229 253.497 23.8418 259.884 21.8958 258.098Z" fill="#2F2E41"/>
<path d="M34.8877 273.633C34.8877 273.633 33.7742 269.984 33.2175 270.592C32.6607 271.2 29.3202 281.235 31.8256 281.539C34.331 281.843 42.9606 283.668 44.0741 284.884C45.1876 286.1 56.3226 285.492 55.4875 281.539C54.6524 277.586 47.9714 275.457 47.9714 275.457L42.4665 268.907C42.4665 268.907 36.2796 269.68 36.8364 271.504C36.8364 271.504 36.8364 273.937 34.8877 273.633Z" fill="#2F2E41"/>
<path d="M37.0615 114.055C42.0163 114.055 46.0329 109.848 46.0329 104.658C46.0329 99.4689 42.0163 95.262 37.0615 95.262C32.1067 95.262 28.0901 99.4689 28.0901 104.658C28.0901 109.848 32.1067 114.055 37.0615 114.055Z" fill="#A0616A"/>
<path d="M30.6406 109.169C30.6406 109.169 30.3579 118.698 27.8134 121.081C25.269 123.463 34.5987 131.206 42.5147 126.441C42.5147 126.441 38.8394 118.103 42.5147 111.253L30.6406 109.169Z" fill="#A0616A"/>
<path d="M42.8779 123.416H41.3741C41.3741 123.416 32.1585 126.764 28.7596 119.693L23.6924 119.818L15.0728 173.492C15.0728 173.492 27.029 171.993 30.3656 173.492C33.7022 174.992 49.5511 170.794 49.5511 170.794L42.8779 123.416Z" fill="#FAFAFA"/>
<path d="M26.507 159.909C26.9928 159.909 27.3865 159.573 27.3865 159.157C27.3865 158.742 26.9928 158.406 26.507 158.406C26.0212 158.406 25.6274 158.742 25.6274 159.157C25.6274 159.573 26.0212 159.909 26.507 159.909Z" stroke="#3F3D56" stroke-miterlimit="10"/>
<path d="M23.8682 171.561C24.2568 171.561 24.5718 171.14 24.5718 170.621C24.5718 170.102 24.2568 169.682 23.8682 169.682C23.4796 169.682 23.1646 170.102 23.1646 170.621C23.1646 171.14 23.4796 171.561 23.8682 171.561Z" stroke="#3F3D56" stroke-miterlimit="10"/>
<path d="M30.6373 95.5644L29.1415 94.9373C29.1415 94.9373 32.269 91.3318 36.6203 91.6454L35.3965 90.2345C35.3965 90.2345 38.388 88.9804 41.1076 92.2724C42.5372 94.0029 44.1913 96.037 45.2224 98.3285H46.8243L46.1557 99.87L48.4957 101.411L46.094 101.135C46.3214 102.465 46.2436 103.834 45.8668 105.127L45.9312 106.345C45.9312 106.345 43.1472 101.835 43.1472 101.208V102.775C43.1472 102.775 41.6515 101.365 41.6515 100.424L40.8356 101.521L40.4277 99.7969L35.3965 101.521L36.2124 100.11L33.0849 100.581L34.3087 98.8564C34.3087 98.8564 30.7733 100.894 30.6373 102.619C30.5013 104.343 28.7337 106.538 28.7337 106.538L27.9178 104.97C27.9178 104.97 26.694 97.9158 30.6373 95.5644Z" fill="#2F2E41"/>
<path d="M29.8953 115.934L24.766 118.859L14.4911 120.047C14.4911 120.047 17.2681 156.582 12.5472 161.334C12.5472 161.334 -3.55934 181.235 2.27235 184.502C8.10404 187.77 18.6566 194.304 21.989 189.255C25.3214 184.205 32.8031 123.702 29.8953 115.934Z" fill="#3F3D56"/>
<path d="M40.79 120.068C40.79 120.068 53.4816 126.913 53.7604 127.508C54.0392 128.103 49.5782 153.993 49.5782 153.993C49.5782 153.993 51.2511 192.381 49.0205 192.976C46.79 193.571 44.0019 162.92 44.0019 162.92C44.0019 162.92 40.3662 122.152 40.79 120.068Z" fill="#3F3D56"/>
<path d="M3.53866 182.671C3.53866 182.671 1.0972 199.092 7.87902 198.212C14.6608 197.333 8.96411 182.085 8.96411 182.085L3.53866 182.671Z" fill="#A0616A"/>
<path d="M53.1706 169.824C53.1706 169.824 47.3555 166.467 45.2474 170.668C43.1393 174.869 54.0066 181.694 56.2358 174.275C56.2358 174.275 55.3998 169.23 53.1706 169.824Z" fill="#A0616A"/>
<path d="M51.5394 127.21H53.7996C53.7996 127.21 54.6472 127.508 55.2122 131.085C55.7772 134.662 58.3199 155.529 58.3199 155.529C58.3199 155.529 60.5801 157.913 60.015 159.106C59.45 160.298 58.885 159.702 59.1675 160.894C59.3345 161.577 59.4293 162.276 59.45 162.981L54.9297 179.078C54.9297 179.078 57.4724 171.029 51.5394 169.539C51.5394 169.539 50.4093 168.048 50.9744 167.452C51.5394 166.856 51.2569 166.558 51.2569 166.26C51.2569 165.962 50.9744 165.962 51.2569 164.769C51.4321 163.988 51.5268 163.188 51.5394 162.385C51.5394 162.385 50.4093 161.788 50.6919 161.192C50.9744 160.596 50.6919 155.529 50.6919 155.529L46.7366 148.076L51.5394 127.21Z" fill="#3F3D56"/>
<path d="M16.0461 120.962L14.6322 120.068C14.6322 120.068 9.54235 123.046 8.1285 134.66C6.71465 146.274 3.32141 157.888 3.32141 157.888L1.70361 184.34L9.54235 183.498L13.7839 154.613L18.591 140.021L16.0461 120.962Z" fill="#3F3D56"/>
<path d="M95.6236 132.313C91.9326 125.665 84.6303 125.356 84.6303 125.356C84.6303 125.356 77.5146 124.386 72.9499 134.51C68.6952 143.946 62.8233 153.058 72.0046 155.267L73.663 149.765L74.69 155.676C75.9972 155.776 77.3086 155.8 78.6183 155.748C88.4507 155.409 97.8145 155.847 97.513 152.086C97.1122 147.087 99.175 138.709 95.6236 132.313Z" fill="#2F2E41"/>
<path d="M76.5429 195.015L73.6169 192.083L67.6221 183.964L63.2722 186.117L70.334 195.692L73.394 199.954L73.4028 199.977C73.4028 199.977 78.3984 206.292 81.8239 203.586C85.2495 200.879 76.5429 195.015 76.5429 195.015Z" fill="#FFB9B9"/>
<path d="M101.51 184.981L98.5775 182.085L95.2878 185.649L98.3541 189.858L98.3629 189.882C98.3629 189.882 103.369 196.119 106.802 193.446C110.234 190.773 101.51 184.981 101.51 184.981Z" fill="#FFB9B9"/>
<path d="M95.5895 177.95L100.565 182.804L97.3864 184.716L92.8252 178.833L95.5895 177.95Z" fill="#CFCCE0"/>
<path d="M95.6396 154.536C95.6396 154.536 97.4856 152.715 98.2767 158.633C99.0678 164.55 96.9582 166.675 96.9582 166.675L95.6396 154.536Z" fill="#CFCCE0"/>
<path d="M84.0296 148.258C88.11 148.258 91.4178 144.64 91.4178 140.177C91.4178 135.714 88.11 132.096 84.0296 132.096C79.9492 132.096 76.6414 135.714 76.6414 140.177C76.6414 144.64 79.9492 148.258 84.0296 148.258Z" fill="#FFB9B9"/>
<path d="M79.354 144.875C79.354 144.875 78.3667 150.006 74.4178 150.609C70.4688 151.213 64.2633 153.326 65.1095 157.4C65.9558 161.475 89.6495 161.022 89.6495 161.022L93.8805 154.08C93.8805 154.08 85.1364 151.666 85.9826 146.233L79.354 144.875Z" fill="#FFB9B9"/>
<path d="M91.0166 152.826C91.0166 152.826 85.4485 157.263 72.3388 156.962C72.3388 156.962 64.9305 158.236 66.0268 154.14C66.0268 154.14 65.1496 152.751 64.3038 157.113C63.458 161.475 57.1146 176.366 57.6785 176.967L59.793 179.224L64.4448 188.85L69.3785 185.842L67.687 181.931C67.687 181.931 70.9291 184.789 72.4798 180.577C72.4798 180.577 73.7484 184.639 76.4268 184.789C79.1051 184.939 96.4437 179.675 96.4437 179.675C96.4437 179.675 95.457 175.463 96.4437 173.658C97.4305 171.853 98.9811 168.243 98.2763 165.536L97.0076 154.706C97.0076 154.706 91.7214 152.375 91.0166 152.826Z" fill="#9E63FF"/>
<path d="M76.7562 184.413L77.248 188.696C77.248 188.696 72.7514 192.303 73.454 205.227L59.4023 267.894C59.4023 267.894 62.0722 271.651 69.098 271.351C76.1238 271.05 89.754 211.238 89.754 211.238C89.754 211.238 85.96 269.848 90.5971 271.351C95.2341 272.854 101.838 272.102 101.838 272.102L106.194 193.655C106.194 193.655 101.838 185.841 99.3091 184.338C96.7798 182.835 95.7962 179.078 95.7962 179.078L76.7562 184.413Z" fill="#2F2E41"/>
<path d="M59.9262 267.028L59.2347 272.672C59.2347 272.672 52.8727 287.772 58.6815 287.314C64.4902 286.857 64.6285 277.552 64.6285 277.552L65.735 269.621L59.9262 267.028Z" fill="#2F2E41"/>
<path d="M96.8747 267.028L97.5662 272.672C97.5662 272.672 103.928 287.772 98.1194 287.314C92.3107 286.857 92.1724 277.552 92.1724 277.552L91.0659 269.621L96.8747 267.028Z" fill="#2F2E41"/>
<path d="M93.893 131.962L86.7639 127.961L76.9193 129.598L74.8823 139.237L79.9526 139.028L81.3691 135.487V138.97L83.7087 138.873L85.0666 133.235L85.9153 139.237L94.2325 139.055L93.893 131.962Z" fill="#2F2E41"/>
<path d="M287.445 125.399H267.039V152.461H287.445V125.399Z" fill="#2F2E41"/>
<path d="M296.468 195.684C296.468 195.684 303.258 206.247 299.863 208.888C296.468 211.528 293.074 197.335 293.074 197.335L296.468 195.684Z" fill="#FFB8B8"/>
<path d="M297.648 197.145L292.501 199.443L284.63 173.842L284.763 172.676L287.657 147.584C287.657 147.584 289.695 147.384 290.727 148.867C291.055 149.356 291.25 149.935 291.29 150.538C291.593 153.82 290.079 171.872 290.079 171.872C290.079 171.872 290.382 173.842 290.685 174.498C290.987 175.154 291.593 174.826 291.29 175.811C290.987 176.796 290.382 176.796 290.685 177.124C290.924 177.423 291.127 177.754 291.29 178.108L297.648 197.145Z" fill="#CFCCE0"/>
<path d="M253.533 208.839L244.627 231.22C244.627 231.22 239.406 243.069 236.642 258.209L233.264 268.412L239.099 269.728L240.635 267.095L241.863 260.842C241.863 260.842 251.997 244.385 252.612 236.157L269.502 211.472L253.533 208.839Z" fill="#FFB8B8"/>
<path d="M276.833 211.147V235.539C276.833 235.539 274.996 250.372 275.608 257.295V270.48H280.201C280.201 270.48 280.201 264.876 281.119 262.898C282.038 260.921 287.243 240.484 285.712 233.232L290.611 208.839L276.833 211.147Z" fill="#FFB8B8"/>
<path d="M277.066 137.427C281.632 137.427 285.334 133.388 285.334 128.406C285.334 123.424 281.632 119.386 277.066 119.386C272.5 119.386 268.798 123.424 268.798 128.406C268.798 133.388 272.5 137.427 277.066 137.427Z" fill="#FFB8B8"/>
<path d="M270.881 131.413C270.881 131.413 271.193 141.511 270.256 142.814C269.318 144.117 281.816 146.071 281.816 146.071C281.816 146.071 277.754 137.602 280.566 134.67L270.881 131.413Z" fill="#FFB8B8"/>
<path opacity="0.1" d="M286.622 165.948C286.622 165.948 286.319 168.938 287.23 170.266C288.141 171.595 286.167 172.757 286.167 172.757C285.544 172.644 285.893 172.754 284.63 172.741L287.533 147.348C287.533 147.348 288.168 146.678 289.204 148.179C289.222 150.64 287.837 156.98 287.837 156.98C289.963 162.959 286.622 165.948 286.622 165.948Z" fill="black"/>
<path d="M280.86 140.516C280.86 140.516 270.927 137.877 270.306 138.207C269.685 138.537 269.375 142.166 269.375 142.166C269.375 142.166 259.131 141.176 260.063 144.805C260.994 148.435 265.34 173.509 265.34 173.509C265.34 173.509 283.033 172.189 286.758 172.849C286.933 172.42 286.996 171.949 286.942 171.484C286.887 171.02 286.717 170.58 286.448 170.21C285.517 168.89 285.827 165.921 285.827 165.921C285.827 165.921 289.242 162.951 287.069 157.013C287.069 157.013 291.104 148.765 289.552 147.775C288 146.785 282.102 144.805 282.102 144.805C282.102 144.805 282.102 140.187 280.86 140.516Z" fill="#CFCCE0"/>
<path d="M265.808 172.613L260.567 193.275C260.567 193.275 247.003 207.705 251.935 210C256.868 212.296 275.981 216.231 279.372 213.608C282.763 210.984 280.605 210.328 284.921 210.984C289.237 211.64 296.944 210.984 296.944 208.361C296.944 205.737 286.154 171.63 286.154 171.63L265.808 172.613Z" fill="#2F2E41"/>
<path d="M238.077 266.573C238.077 266.573 234.014 264.617 233.076 265.921C232.139 267.225 223.075 283.199 228.075 284.177C233.076 285.155 238.077 282.547 238.702 279.613C239.327 276.679 243.078 271.463 243.078 271.463C243.078 271.463 247.128 266.552 241.665 261.835C241.665 261.835 240.577 266.573 238.077 266.573Z" fill="#2F2E41"/>
<path d="M273.553 269.736C273.553 269.736 277.581 265.49 280.679 269.736C280.679 269.736 285.325 285.084 278.2 284.757C271.075 284.431 272.004 281.492 272.004 281.492L273.553 269.736Z" fill="#2F2E41"/>
<path d="M251.363 194.933C251.363 194.933 245.86 208.135 249.834 208.457C253.808 208.779 254.725 196.221 254.725 196.221L251.363 194.933Z" fill="#FFB8B8"/>
<path d="M262.806 142.313C262.806 142.313 258.384 142.807 258.08 145.444C257.775 148.081 255.64 168.185 255.64 168.185L250.152 195.87L255.945 197.188C255.945 197.188 259.909 179.72 262.043 177.083L263.873 158.957L262.806 142.313Z" fill="#CFCCE0"/>
<path d="M278.413 114.277C278.413 114.277 270.417 113.751 268.572 119.034C266.727 124.317 263.498 127.091 263.498 127.091C263.498 127.091 258.412 130.848 260.955 137.555C260.955 137.555 253.043 143.206 258.271 148.225C258.271 148.225 257.963 153.244 261.038 156.679C261.038 156.679 263.498 157.999 262.576 158.792C261.653 159.584 268.726 159.056 268.111 151.923C267.496 144.791 271.648 139.766 271.648 139.766C271.648 139.766 267.65 130.519 269.495 127.349C270.615 125.424 271.096 123.989 272.026 123.158C272.544 122.706 273.024 122.208 273.462 121.669C273.875 121.114 274.437 120.703 275.074 120.493C275.71 120.282 276.392 120.28 277.029 120.487C279.797 121.279 280.412 123.657 280.412 123.657C280.412 123.657 282.411 129.337 285.793 131.978C289.176 134.62 283.179 139.243 283.179 139.243C283.179 139.243 284.222 144.686 286.929 147.909C289.637 151.131 286.149 153.94 285.947 154.301C285.486 155.125 283.644 160.331 291.253 160.354C291.253 160.354 293.02 156.414 295.48 154.037C297.94 151.659 296.095 144.791 296.095 144.791C296.095 144.791 299.785 142.413 295.787 136.601C295.787 136.601 297.017 131.318 293.635 127.884C293.635 127.884 288.868 112.428 278.413 114.277Z" fill="#2F2E41"/>
<path d="M269.502 128.03C269.891 128.03 270.206 127.441 270.206 126.715C270.206 125.988 269.891 125.399 269.502 125.399C269.113 125.399 268.798 125.988 268.798 126.715C268.798 127.441 269.113 128.03 269.502 128.03Z" fill="#FFB8B8"/>
</g>
<defs>
<linearGradient id="paint0_linear" x1="63685.2" y1="92190.3" x2="63685.2" y2="29926.4" gradientUnits="userSpaceOnUse">
<stop stop-color="#808080" stop-opacity="0.25"/>
<stop offset="0.54" stop-color="#808080" stop-opacity="0.12"/>
<stop offset="1" stop-color="#808080" stop-opacity="0.1"/>
</linearGradient>
<clipPath id="clip0">
<rect width="300" height="300" fill="white"/>
</clipPath>
</defs>
</svg>
