<svg width="292" height="292" fill="none" xmlns="http://www.w3.org/2000/svg"><g clip-path="url(#clip0)"><path opacity=".1" d="M176.276 202.756c5.618-.515 12.588-6.653 18.008-9.361a615.574 615.574 0 0119.319-9.247c22.5-10.302 45.245-19.086 68.237-26.349 2.145-.677 4.294-1.34 6.446-1.989-3.354-11.658-8.547-21.698-15.064-29.119.167-2.551.252-5.115.255-7.68 0-40.563-20.141-73.446-44.993-73.446-7.652-.013-15.175 3.164-21.836 9.222-17.591-18.624-40.55-29.897-65.67-29.897-35.694 0-67.03 22.766-84.785 57.036l83.463 22.691 51.181 13.911c-58.346 2.803-116.873 5.589-175.052-.99-7.68 11.961-12.54 27.843-13.751 44.933-1.211 17.089 1.303 34.326 7.112 48.763 0 1.469.038 2.921.107 4.365 1.482.688 2.913 1.346 4.196 1.784 20.61 7.005 41.35 12.869 62.223 17.594-15.381 15.265-34.113 17.421-51.856 23.886 8.591 11.415 20.26 18.436 33.117 18.436h191.434c20.73 0 37.532-23.231 37.532-51.888 3.111-8.255 5.184-17.414 6.101-26.955-38.358 5.945-77.195.769-115.724 4.3z" fill="#9E63FF"/><path opacity=".1" d="M297.864 186.039c.021-11.811-1.761-23.456-5.196-33.953-3.436-10.498-8.423-19.54-14.542-26.363.17-2.552.256-5.115.26-7.68 0-40.566-20.579-73.445-45.967-73.445-7.819-.017-15.506 3.159-22.314 9.218-17.969-18.624-41.427-29.896-67.091-29.896-41.758 0-77.677 29.843-93.612 72.643a29.053 29.053 0 00-2.675-.127c-25.384 0-45.968 32.879-45.968 73.442-.018 14.327 2.61 28.354 7.563 40.37 0 36.495 21.864 66.08 48.824 66.08h195.592c21.176 0 38.342-23.227 38.342-51.883 4.453-11.581 6.799-24.867 6.784-38.406z" fill="#9E63FF"/><path d="M274.396 276.801c9.815 0 17.772-1.361 17.772-3.041 0-1.679-7.957-3.04-17.772-3.04-9.815 0-17.772 1.361-17.772 3.04 0 1.68 7.957 3.041 17.772 3.041z" fill="#9E63FF"/><path d="M281.746 268.779a5.215 5.215 0 001.693-2.589c.221-1.024-.212-2.258-1.185-2.634-1.087-.42-2.249.345-3.129 1.114-.879.769-1.892 1.645-3.041 1.484a4.702 4.702 0 001.286-2.002 4.74 4.74 0 00.146-2.384 1.856 1.856 0 00-.398-.895c-.605-.652-1.697-.375-2.422.139-2.298 1.637-2.939 4.794-2.952 7.637-.23-1.024-.035-2.092-.04-3.13-.004-1.037-.291-2.235-1.171-2.785a3.453 3.453 0 00-1.768-.421c-1.03-.04-2.183.063-2.886.828-.884.952-.65 2.544.111 3.577.76 1.033 1.922 1.703 2.992 2.423a6.66 6.66 0 012.134 2.062c.067.117.12.242.16.371h6.479a17.994 17.994 0 003.991-2.795zm-51.636-30.57c9.815 0 17.772-1.362 17.772-3.041 0-1.679-7.957-3.041-17.772-3.041-9.815 0-17.772 1.362-17.772 3.041 0 1.679 7.957 3.041 17.772 3.041z" fill="#9E63FF"/><path d="M237.46 230.196a5.209 5.209 0 001.693-2.589c.221-1.029-.212-2.258-1.184-2.634-1.088-.42-2.25.34-3.13 1.113-.879.774-1.891 1.646-3.04 1.485a4.7 4.7 0 001.286-2.003c.251-.769.301-1.59.146-2.384a1.839 1.839 0 00-.398-.894c-.606-.653-1.697-.376-2.422.139-2.298 1.636-2.939 4.793-2.953 7.637-.229-1.024-.035-2.093-.039-3.13-.005-1.037-.292-2.236-1.172-2.786a3.461 3.461 0 00-1.767-.42c-1.03-.04-2.184.062-2.887.827-.884.952-.649 2.544.111 3.577s1.922 1.699 2.992 2.424a6.67 6.67 0 012.135 2.061c.066.118.119.242.159.371h6.479a18.113 18.113 0 003.991-2.794zM56.944 282.878c9.815 0 17.771-1.361 17.771-3.041 0-1.679-7.956-3.04-17.772-3.04-9.815 0-17.771 1.361-17.771 3.04 0 1.68 7.956 3.041 17.772 3.041z" fill="#9E63FF"/><path d="M64.293 274.865a5.21 5.21 0 001.693-2.589c.221-1.024-.212-2.258-1.184-2.634-1.088-.42-2.25.344-3.13 1.113-.88.77-1.891 1.65-3.04 1.485a4.697 4.697 0 001.286-2.003c.25-.768.3-1.59.146-2.384a1.85 1.85 0 00-.398-.894c-.606-.653-1.697-.375-2.422.139-2.298 1.636-2.94 4.798-2.953 7.637-.23-1.024-.035-2.093-.04-3.13-.004-1.037-.291-2.236-1.17-2.786a3.464 3.464 0 00-1.769-.42c-1.03-.04-2.183.067-2.886.832-.884.948-.65 2.539.11 3.577.761 1.037 1.923 1.703 2.993 2.423a6.67 6.67 0 012.135 2.062c.066.117.12.242.159.371h6.48a18.029 18.029 0 003.99-2.799z" fill="#9E63FF"/><path d="M225.664 272.973a1.2 1.2 0 000-.12 3.62 3.62 0 00-.314-1.659c-.716-1.467-2.44-1.708-3.903-1.963a19.11 19.11 0 01-6.802-2.589c-1.383-.854-2.802-2.111-2.974-3.877 0-.362.026-.724 0-1.055v-.707c0-.943-.053-1.811-.747-1.981-4.146-1.037-7.731-4.61-9.158-9.14-.305-.965-.517-1.971-.911-2.897-1.25-2.933-4.035-4.525-6.139-6.743-2.766-2.92-4.371-6.98-5.533-11.054-1.163-4.073-1.967-8.29-3.492-12.212-2.541-6.541-4.835-13.508-9.144-18.735a55.176 55.176 0 00-2.122-2.419c-3.832-5.661-6.435-12.355-9.754-18.463a18.493 18.493 0 00-2.303-3.501c-1.149-1.288-2.572-2.209-3.898-3.26-6.387-5.044-10.471-12.968-15.973-19.197-.959-1.086-2.453-2.615-3.16-3.926-.004-.764.061-1.527.194-2.28.354-1.856 1.304-3.617 1.14-5.509a7.82 7.82 0 01-.092-1.113c.045-.43.158-.85.336-1.243.284-.853.661-1.672 1.122-2.442a10.46 10.46 0 001.547-4.118c1.101-1.055 1.578-2.987 2.952-3.475.765-.268 1.768-.084 2.21-.849.128-.262.199-.549.208-.841.139-1.51.012-3.033-.376-4.498.112-.774.141-1.558.089-2.339a14.196 14.196 0 00-1.613-5.558c-.562-1.082-1.326-2.164-2.418-2.414-.239-.054-.482-.068-.712-.139-1.405-.416-1.891-2.611-3.16-3.291 1.631.894 3.297 1.905 4.831 1.154 1.927-.953 2.086-3.922 1.94-6.292l-.512-8.777c-.274-4.472-.619-9.216-2.895-12.9-2.051-3.328-5.41-5.326-8.84-6.574-2.316-.845-4.862-1.386-7.155-.523.137-.099.269-.197.402-.286-.282.085-.559.19-.827.313a15.395 15.395 0 00-3.323 2.307c.556-1.424.841-2.94.839-4.472a11.984 11.984 0 00-1.847-6.465l2.59-2.205-.606-.997 1.141-1.1a.792.792 0 00-.681-.385.96.96 0 00-.159 0 2.4 2.4 0 00-.08-.979l-.079.076a2.989 2.989 0 00-.318-.778h.092a2.784 2.784 0 00-.181-.29v.138a6.433 6.433 0 00-1.352-1.462c-1.98-1.646-4.248-3.01-6.701-3.193-1.193-.09-2.391.103-3.584 0-1.609-.111-3.169-.729-4.782-.796-1.613-.067-3.43.6-4.097 2.236-.288.715-.327 1.52-.544 2.258-.482 1.646-1.768 2.786-2.86 4.002-1.091 1.217-2.103 2.849-1.803 4.548.12.54.307 1.063.557 1.556l5.6 12.234c.023.895-.004 1.79-.08 2.683-.035.384-.084.773-.145 1.167a7.407 7.407 0 01-.098.505 2.79 2.79 0 00-1.688.984c-.16.204-.261.448-.292.707.032.41.103.815.212 1.211a3.156 3.156 0 01-.358 1.516c-.561 1.32-1.158 2.66-2.112 3.649-.389.407-.831.747-1.224 1.149a12.303 12.303 0 00-1.225 1.552c-.817 1.162-1.662 2.379-1.962 3.827-.495 2.37-1.494 4.624-2.21 6.936a2.36 2.36 0 01-.376.509c-.442.421-1.007.6-1.44 1.011-.973.93-.885 2.629-.646 4.047.858 5.267 2.36 10.396 2.957 15.708.239 2.084.336 4.203.795 6.238.17.879.492 1.72.95 2.486-.066 1.999.138 4.024-.565 5.867-.327.831-.782 1.592-1.18 2.388a35.246 35.246 0 00-1.463 3.523l-2.4 6.394c-.442 1.212-.91 2.433-1.255 3.694-.995 3.671-.999 7.601-.858 11.425a.494.494 0 01-.07.339c-.071.09-.239.063-.243-.058-.031.224-.155.604-.182.823 1.07.528 2.272.358 3.466.228v.353a7.613 7.613 0 00.11 1.172v.027c.03.183.07.362.11.541 0 .049 0 .094.036.143.04.161.084.326.132.483l.076.241c.026.081.066.197.101.291.036.094.04.121.062.179.292.769.641 1.511.972 2.262.57 1.162.95 2.41 1.127 3.694.027.295.036.59.05.894v.309c.008.318.034.636.079.952.08.51.23.997.349 1.498.07.295.124.599.177.894.053.296.101.685.146 1.024.332 2.528.579 5.062.738 7.602.04.613.075 1.23.106 1.842.207 4.472.154 8.943.101 13.442a27.247 27.247 0 01-.442 4.373c-.738 4.234-2.263 8.348-3.27 12.551-.106.448-.204.895-.296 1.342a18.19 18.19 0 00-.442 2.884c-.007 1.296.108 2.59.344 3.863a72.56 72.56 0 01.504 4.664 13.168 13.168 0 00-1.564 4.713c-.535 4.977-4.703 8.711-5.269 13.688-.037.316-.05.634-.04.952a4.776 4.776 0 000 .617 4.07 4.07 0 00.133 1.574 3.12 3.12 0 001.016 1.348c.454.346.994.559 1.56.615 1.084.139 2.166-.139 3.245-.322.486-.085.972-.138 1.458-.188.014.17.014.34 0 .51a8.847 8.847 0 00-.583 1.297 4.62 4.62 0 00-.5 1.686 3.779 3.779 0 00.5 1.985c1.087 2.008 3.257 2.951 5.335 3.13 2.077.179 4.141-.282 6.218-.393h.354c.071.197.159.389.261.572 1.082 2.008 3.257 2.951 5.33 3.13 2.073.179 4.146-.277 6.223-.389.619-.031 1.242-.031 1.861-.076 1.27-.097 2.526-.33 3.748-.693a21.922 21.922 0 003.009 3.483c3.642 3.13 8.676 2.951 13.229 2.339 4.552-.613 9.683-1.749 13.834.447 3.182-.353 5.078 4.758 8.273 4.887 1.468.058 2.785-.983 3.846-2.128a3.9 3.9 0 011.37-1.136 2.667 2.667 0 011.365-.045 10.231 10.231 0 016.25 3.819c.804 1.02 1.626 2.303 2.833 2.33 1.083 0 2.042-1.033 3.116-.895.729.099 1.326.729 1.958 1.118 1.98 1.185 4.42.09 6.32-1.216 1.901-1.306 3.934-2.884 6.161-2.647 1.446.152 2.732 1.064 4.08 1.659 4.154 1.833 9.25.447 12.229-3.291.473-.599.959-1.293 1.658-1.449a2.57 2.57 0 011.37.206c2.497.84 5.122 1.614 7.677 1.042 2.555-.573 4.985-2.911 5.038-5.854a4.171 4.171 0 00-.022-.536c0-.112.022-.228.022-.345.025-.103.042-.207.054-.313zM125.335 104.969c-.178.471-.484.88-.884 1.181a59.46 59.46 0 00-.645-3.063 9.418 9.418 0 001.878.939c-.128.313-.234.648-.362.943h.013zm-6.479-20.184v.094c0 1.573.539 2.472 1.325 2.986a12.187 12.187 0 00-1.325 5.572c-.301-.237-.624-.447-.884-.71a6.024 6.024 0 01-1.163-1.731.585.585 0 00.371-.058c.226-.157.217-.524.186-.819a17.757 17.757 0 011.092-8.277 8.84 8.84 0 001.489-.693 7.482 7.482 0 00-1.083 3.578s-.022.035-.022.058h.014zm21.63 22.442a11.453 11.453 0 00-.376 2.656 6.717 6.717 0 00-3.363-2.683 4.694 4.694 0 00-.495-.12c.103-.104.214-.2.331-.286 1.269-.895 2.696-.269 4.155.514a2.074 2.074 0 00-.265-.081h.013z" fill="url(#paint0_linear)"/><path d="M87.975 269.49a3.547 3.547 0 00.57 2.021c1.233 2.044 3.708 3.001 6.064 3.18 2.355.179 4.716-.286 7.071-.398.707-.032 1.415-.036 2.117-.076 3.66-.224 7.156-1.534 10.608-2.831.565-.21 1.224-.55 1.255-1.153a1.42 1.42 0 00-.583-1.056 5.982 5.982 0 00-1.508-.974c-1.918-.855-4.216-.631-6.037-1.682-.402-.232-.769-.519-1.189-.711-.491-.2-1.01-.32-1.538-.358a23.223 23.223 0 00-6.842.229c-1.72.317-3.412.831-5.158.956a6.525 6.525 0 01-1.975-.129c-.442-.103-1.004-.505-1.424-.237-.42.268-.654 1.122-.853 1.502a4.403 4.403 0 00-.578 1.717z" fill="#3F3D56"/><path opacity=".05" d="M87.975 269.49a3.547 3.547 0 00.57 2.021c1.233 2.044 3.708 3.001 6.064 3.18 2.355.179 4.716-.286 7.071-.398.707-.032 1.415-.036 2.117-.076 3.66-.224 7.156-1.534 10.608-2.831.565-.21 1.224-.55 1.255-1.153a1.42 1.42 0 00-.583-1.056 5.982 5.982 0 00-1.508-.974c-1.918-.855-4.216-.631-6.037-1.682-.402-.232-.769-.519-1.189-.711-.491-.2-1.01-.32-1.538-.358a23.223 23.223 0 00-6.842.229c-1.72.317-3.412.831-5.158.956a6.525 6.525 0 01-1.975-.129c-.442-.103-1.004-.505-1.424-.237-.42.268-.654 1.122-.853 1.502a4.403 4.403 0 00-.578 1.717z" fill="#000"/><path d="M101.817 272.844c-.02.717.179 1.422.57 2.021 1.233 2.043 3.704 3 6.064 3.179 2.36.179 4.716-.286 7.072-.398.707-.031 1.41-.036 2.117-.076 3.659-.223 7.155-1.534 10.607-2.83.566-.215 1.224-.55 1.255-1.159a1.412 1.412 0 00-.583-1.05 5.847 5.847 0 00-1.507-.975c-1.918-.854-4.217-.635-6.038-1.686-.402-.228-.769-.519-1.188-.706a5.143 5.143 0 00-1.539-.363 23.252 23.252 0 00-6.841.233c-1.72.317-3.412.832-5.158.952a6.34 6.34 0 01-1.976-.125c-.442-.103-1.003-.505-1.423-.237-.42.268-.659 1.122-.853 1.503a4.32 4.32 0 00-.579 1.717z" fill="#3F3D56"/><path d="M94.587 105.457a2.342 2.342 0 00-.84-1.118c-.924-.519-2.016.447-2.418 1.417-.402.971-.535 2.16-1.326 2.862-.481.447-1.144.608-1.64 1.028-1.104.944-.994 2.683-.733 4.114.977 5.366 2.687 10.58 3.368 15.986.27 2.124.38 4.279.884 6.35.309 1.225.8 2.468 1.768 3.264.968.796 2.514.988 3.425.121a40.164 40.164 0 01-2.427-14.108c.027-3.13.442-6.26.526-9.426.093-2.764-.044-5.531-.18-8.295a5.208 5.208 0 00-.39-2.07 1.778 1.778 0 00-.674-.786 1.753 1.753 0 00-.992-.274" fill="#FBBEBE"/><path d="M114.431 84.41c6.144 0 11.125-5.04 11.125-11.256 0-6.215-4.981-11.254-11.125-11.254s-11.124 5.039-11.124 11.254c0 6.216 4.98 11.255 11.124 11.255z" fill="#CB8C8E"/><path d="M129.423 106.99c6.164 0 11.16-5.055 11.16-11.29 0-6.236-4.996-11.29-11.16-11.29-6.163 0-11.16 5.054-11.16 11.29 0 6.235 4.997 11.29 11.16 11.29z" fill="#FBBEBE"/><path d="M134.016 106.633c.097.894.441 1.936 1.286 2.164.391.047.785.069 1.18.067a2.026 2.026 0 011.454 1.136c.266.591.372 1.244.305 1.891a6.01 6.01 0 01-.911 2.764 7.847 7.847 0 01-4.092 3.031c-1.647.514-3.346.83-5.065.944-.763.124-1.541.1-2.294-.072a4.852 4.852 0 01-1.326-.679 13.17 13.17 0 01-3.258-3.157 7.964 7.964 0 01-1.401-2.902 4.41 4.41 0 01.411-3.13c.16-.317.422-.568.743-.711.946-.345 1.803.84 2.806.867.796 0 1.424-.689 1.768-1.413.345-.724.526-1.543 1.039-2.155.597-.72 1.534-1.038 2.431-1.279 1.476-.394 3.412-.988 4.95-.823.844.085.292.595.097 1.212a5.502 5.502 0 00-.123 2.245z" fill="#FBBEBE"/><path d="M123.496 118.415c1.357-.617 2.109-2.106 3.32-2.987 1.016-.738 2.285-1.002 3.447-1.471a10.033 10.033 0 003.182-2.057c.84-.8 1.587-1.789 2.652-2.182a4.08 4.08 0 012.502 0c2.294.644 4.057 2.576 5.082 4.744 1.026 2.169 1.419 4.584 1.804 6.958l.574 3.577c.427 2.185.633 4.409.615 6.636-.093 2.236-.668 4.471-2.007 6.26a12.263 12.263 0 00-1.277 2.482 3.826 3.826 0 00-.376 1.27c.003.379.037.757.102 1.131.185 1.923-.884 3.716-1.3 5.603a16.337 16.337 0 00-.194 3.832.95.95 0 00.097.483c.095.134.225.24.376.304.291.156.592.304.884.447a32.758 32.758 0 01-7.43.796c-4.38-.103-8.654-1.342-13.007-1.856-.164-2.021.384-3.97.508-5.992a24.525 24.525 0 00-.243-3.943c-.364-3.57-.33-7.17.102-10.732.15-1.252.353-2.5.411-3.761.066-1.493-.067-2.991.039-4.471.102-1.418.442-2.822.478-4.244a.731.731 0 00-.341-.827z" fill="#F4F6FB"/><path d="M128.429 150.19c4.579.027 8.614.161 13.179.478.805 1.342-1.122 4.959-.031 6.068 6.259 6.345 7.651 14.872 14.917 20.01 1.507 1.064 5.746 1.927 7.072 3.242 1.038 1.042-.548.3.221 1.565 4.42 7.298 14.386 14.501 20.163 20.775 4.897 5.316 7.513 12.408 10.404 19.066 1.732 3.985 2.652 8.282 3.978 12.427s3.151 8.272 6.298 11.241c2.395 2.263 5.564 3.882 6.983 6.864.399.964.746 1.949 1.039 2.951a14.77 14.77 0 004.046 5.985 14.535 14.535 0 006.376 3.312c1.286.286.698 2.454.83 3.782.182 1.816 1.804 3.104 3.386 3.976a23.509 23.509 0 007.73 2.633c1.662.255 3.624.506 4.42 1.995.264.522.387 1.104.358 1.69-.058 2.996-2.829 5.366-5.746 5.956-2.917.59-5.896-.206-8.733-1.06a3.248 3.248 0 00-1.56-.21c-.796.157-1.326.863-1.888 1.476a12.848 12.848 0 01-6.453 3.805 12.741 12.741 0 01-7.456-.456c-1.538-.608-2.996-1.534-4.64-1.69-2.537-.242-4.831 1.368-7.015 2.683-2.183 1.314-4.941 2.441-7.191 1.234-.742-.394-1.396-1.033-2.209-1.136-1.225-.143-2.316.93-3.536.894-1.37-.027-2.312-1.341-3.227-2.37a11.915 11.915 0 00-7.115-3.841 3.311 3.311 0 00-1.552.045 4.37 4.37 0 00-1.56 1.154c-1.207 1.167-2.705 2.235-4.371 2.164-3.638-.13-5.799-5.33-9.419-4.972-4.72-2.236-10.563-1.083-15.738-.448-5.176.635-10.908.819-15.054-2.378-2.183-1.691-3.664-4.146-5.702-6.019-3.217-2.96-7.557-4.253-11.743-5.46-6.63-1.914-13.516-3.845-20.33-2.804-1.23.188-2.463.448-3.696.327s-2.497-.823-2.93-1.994a3.951 3.951 0 01-.124-1.861c.641-5.061 5.383-8.862 5.989-13.928.305-2.513 1.64-4.713 3.063-6.793a58.746 58.746 0 003.31-5.772c2.356-4.472 4.72-8.943 6.497-13.665 1.87-4.968 3.068-10.164 4.261-15.342 1.149-4.995 1.697-10.11 2.524-15.172.601-3.68 1.542-7.293 2.484-10.902 2.784-10.66 5.586-21.383 10.165-31.381 2.979.85 6.263 1.838 9.326 1.856z" fill="#E3E8F4"/><path d="M128.429 151.531c4.579.027 8.614-.286 13.179.032.805 1.341 2.506 2.888 3.598 3.993 6.259 6.354 10.908 14.402 18.17 19.536 1.507 1.068 3.125 2.008 4.42 3.318a18.6 18.6 0 012.62 3.577c4.42 7.302 7.739 15.427 13.516 21.7 4.897 5.317 7.514 12.409 10.404 19.067 1.733 3.984 2.652 8.281 3.978 12.426s3.151 8.273 6.298 11.242c2.396 2.262 5.565 3.881 6.983 6.863.4.964.746 1.949 1.039 2.952a14.77 14.77 0 004.046 5.984 14.53 14.53 0 006.376 3.312c1.286.286.698 2.455.831 3.783.181 1.815 1.803 3.103 3.385 3.975a23.542 23.542 0 007.73 2.634c1.662.255 3.625.505 4.42 1.994.264.522.388 1.105.358 1.69-.057 2.996-2.828 5.366-5.745 5.956-2.918.591-5.896-.205-8.734-1.059a3.247 3.247 0 00-1.56-.211c-.796.157-1.326.863-1.887 1.476a12.857 12.857 0 01-6.454 3.806 12.738 12.738 0 01-7.455-.457c-1.538-.608-2.997-1.534-4.641-1.69-2.537-.241-4.831 1.368-7.014 2.683-2.184 1.315-4.942 2.441-7.191 1.234-.743-.393-1.397-1.033-2.21-1.136-1.224-.143-2.316.93-3.536.895-1.37-.027-2.311-1.342-3.226-2.37a11.917 11.917 0 00-7.098-3.859 3.311 3.311 0 00-1.552.044 4.361 4.361 0 00-1.56 1.154c-1.207 1.167-2.705 2.236-4.371 2.164-3.638-.129-5.799-5.33-9.419-4.972-4.72-2.236-10.563-1.082-15.738-.447-5.176.635-10.908.818-15.054-2.379-2.184-1.69-3.664-4.145-5.702-6.019-3.217-2.96-7.557-4.252-11.743-5.459-6.63-1.914-13.516-3.846-20.33-2.804-1.23.188-2.463.447-3.696.326-1.233-.12-2.497-.822-2.93-1.994a3.947 3.947 0 01-.124-1.86c.641-5.062 5.383-8.863 5.989-13.929.305-2.513 1.64-4.713 3.063-6.792a58.762 58.762 0 003.31-5.773c2.356-4.471 4.72-8.943 6.497-13.665 1.87-4.968 3.068-10.164 4.261-15.342 1.149-4.994 1.697-10.11 2.524-15.172.601-3.68 1.542-7.293 2.484-10.901 2.784-10.66 5.586-21.383 10.165-31.381 2.979.849 6.263 1.837 9.326 1.855z" fill="#E3E8F4"/><path d="M128.429 150.637c4.579.027 8.614-.286 13.179.031.805 1.342 2.506 2.889 3.598 3.993 6.259 6.354 10.908 14.403 18.17 19.536 1.507 1.069 3.125 2.008 4.42 3.318a18.576 18.576 0 012.62 3.578c4.42 7.302 7.739 15.426 13.516 21.7 4.897 5.316 7.514 12.408 10.404 19.066 1.733 3.985 2.652 8.282 3.978 12.427s3.151 8.272 6.298 11.241c2.396 2.263 5.565 3.881 6.983 6.864.4.964.746 1.949 1.039 2.951a14.78 14.78 0 004.046 5.985 14.528 14.528 0 006.376 3.311c1.286.287.698 2.455.831 3.783.181 1.816 1.803 3.104 3.385 3.976a23.54 23.54 0 007.73 2.633c1.662.255 3.625.506 4.42 1.995a3.36 3.36 0 01.358 1.69c-.057 2.996-2.828 5.366-5.745 5.956-2.918.59-5.896-.206-8.734-1.06a3.247 3.247 0 00-1.56-.21c-.796.157-1.326.863-1.887 1.476a12.856 12.856 0 01-6.454 3.805 12.746 12.746 0 01-7.455-.456c-1.538-.608-2.997-1.534-4.641-1.69-2.537-.242-4.831 1.368-7.014 2.682-2.184 1.315-4.942 2.442-7.191 1.235-.743-.394-1.397-1.033-2.21-1.136-1.224-.143-2.316.93-3.536.894-1.37-.027-2.311-1.341-3.226-2.37a11.922 11.922 0 00-7.098-3.859 3.311 3.311 0 00-1.552.045 4.361 4.361 0 00-1.56 1.154c-1.207 1.167-2.705 2.235-4.371 2.164-3.638-.13-5.799-5.33-9.419-4.972-4.72-2.236-10.563-1.083-15.738-.448-5.176.635-10.908.819-15.054-2.378-2.184-1.691-3.664-4.146-5.702-6.019-3.217-2.96-7.557-4.253-11.743-5.46-6.63-1.914-13.516-3.845-20.33-2.803-1.23.187-2.463.447-3.696.326s-2.497-.823-2.93-1.994a3.95 3.95 0 01-.124-1.861c.641-5.061 5.383-8.862 5.989-13.928.305-2.513 1.64-4.713 3.063-6.793a58.746 58.746 0 003.31-5.772c2.356-4.472 4.72-8.943 6.497-13.665 1.87-4.968 3.068-10.164 4.261-15.342 1.149-4.995 1.697-10.11 2.524-15.172.601-3.68 1.542-7.293 2.484-10.902 2.784-10.66 5.586-21.382 10.165-31.381 2.979.85 6.263 1.838 9.326 1.856z" fill="#F4F6FB"/><path d="M88.567 171.157c-1.459 1.614-1.127 4.181-.274 6.188.853 2.008 2.148 3.891 2.387 6.064.08.724.035 1.457.159 2.177.093.519.265 1.015.398 1.525.16.645.285 1.299.37 1.959.47 3.183.787 6.394.955 9.613.243 4.552.182 9.118.12 13.679-.089 6.381-3.094 12.355-4.557 18.561-.257.96-.426 1.942-.504 2.933a19.3 19.3 0 00.385 3.931 65.255 65.255 0 01-.774 24.495c1.326 1.055 2.25 2.826 1.932 4.498 2.85.506 5.834 1.002 8.578.085 1.658-.55 3.147-1.596 4.862-1.922 1.326-.246 2.86-.121 3.797-1.096a4.1 4.1 0 00.813-1.565c3.235-9.524 2.329-19.894 2.148-29.959-.097-5.411 0-10.826-.203-16.232a127.08 127.08 0 00-4.456-28.492c-1.237-4.472-2.43-8.944-4.861-12.91a6.714 6.714 0 00-2.025-2.307c-.923-.572-2.041-.711-3.12-.836-2.254-.246-3.876-.13-6.13-.389z" fill="#3F3D56"/><path opacity=".05" d="M107.214 262.287a4.114 4.114 0 01-.813 1.56c-.937.979-2.475.85-3.797 1.1a6.345 6.345 0 00-.499.116c-1.507.407-2.869 1.306-4.358 1.789-2.75.894-5.746.42-8.583-.085.318-1.672-.606-3.447-1.932-4.503a65.231 65.231 0 00.778-24.49 18.991 18.991 0 01-.389-3.931c.08-.991.248-1.973.504-2.933 1.454-6.211 4.468-12.185 4.557-18.566.062-4.561.123-9.126-.115-13.678-.174-3.22-.494-6.424-.96-9.614a18.433 18.433 0 00-.366-1.959c-.137-.505-.31-1.006-.398-1.524-.128-.716-.084-1.454-.163-2.178-.24-2.173-1.53-4.051-2.387-6.059a9.053 9.053 0 01-.69-2.602 4.523 4.523 0 01.964-3.578c1.516.17 2.74.166 4.066.224.65.027 1.326.071 2.064.156 1.079.121 2.21.26 3.125.837.841.6 1.533 1.39 2.02 2.307.238.389.464.782.68 1.18 1.985 3.654 3.068 7.678 4.182 11.725a127.135 127.135 0 014.455 28.492c.225 5.406.106 10.821.203 16.236.186 10.088 1.087 20.449-2.148 29.978z" fill="#000"/><path d="M123.51 174.662v2.353c-.021 7.553-.04 15.106-.058 22.657 0 3.107 0 6.224-.318 9.314-.782 8.049-3.691 15.843-3.381 23.9.221 5.853.442 11.774-.721 17.515-.442 2.2-1.087 4.364-1.405 6.587-.318 2.222-.283 4.565.588 6.636.627 1.48 1.684 2.879 1.626 4.471a4.42 4.42 0 01-.651 1.924 4.363 4.363 0 01-1.439 1.421 9.853 9.853 0 01-3.828 1.292 29.098 29.098 0 01-5.096.398c-2.444-.027-5.228-.568-6.493-2.683-.848-1.422-.782-3.228-.375-4.843.048-.187.097-.371.15-.554.416-1.409 1.008-2.763 1.326-4.194.511-2.259.346-4.62-.473-6.784-.15-.402-.623-1.162-1.047-1.113-.677-1.766-.778-3.698-.884-5.594l-.624-12.833c-.132-2.795-.265-5.625.301-8.362.442-2.236 1.383-4.364 1.649-6.631a22.196 22.196 0 00-.023-4.092 183.55 183.55 0 00-2.687-20.895 2.521 2.521 0 00-.34-.993c-.292-.411-.8-.603-1.158-.961-.751-.742-.68-1.954-.858-3.005-.318-1.896-1.56-3.47-2.519-5.124a18.95 18.95 0 01-2.488-8.751 18.572 18.572 0 01.473-4.919 114.291 114.291 0 0128.79 1.789c.694.129 1.472.331 1.795.966.141.351.198.731.168 1.108z" fill="#3F3D56"/><path d="M177.775 209.858c4.756 8.469 9.529 16.956 13.312 25.912 3.072 7.267 5.592 15.007 10.745 20.945 4.826 5.558 11.491 9.028 18.037 12.368l-5.861-5.222c-5.882-5.254-11.889-10.656-15.623-17.636-2.034-3.801-3.324-7.955-4.862-12.002a110.423 110.423 0 00-16.19-28.904 81.232 81.232 0 00-6.099-7.19c1.498 4.025 4.428 7.973 6.541 11.729zm-24.26 58.027c1.432 2.978 2.891 6.001 5.074 8.469.186-1.476-.813-2.799-1.604-4.051-1.432-2.276-2.303-4.838-3.174-7.374-.804-2.347-1.551-5.585-3.261-7.44-.876 3.183 1.639 7.659 2.965 10.396zm-16.578-55.778c.415 2.236.658 4.472 1.215 6.658a47.83 47.83 0 002.011 5.768l9.317 23.494c-.08-3.193-1.768-6.081-2.842-9.077-1.326-3.68-1.803-7.602-2.886-11.385-.884-3.067-2.166-5.996-3.094-9.05-1.291-4.306-1.834-8.805-2.846-13.187a97.133 97.133 0 00-3.417-11.179c-.619-1.726-1.326-3.519-2.691-4.713-1.366-1.194-3.656-1.533-4.946-.241-1.817 1.82.937 2.96 1.843 4.145a44.724 44.724 0 018.327 18.78l.009-.013zm12.503-48.534a8.564 8.564 0 011.282 1.681c.5.93.698 2.017 1.326 2.88a27.982 27.982 0 00-3.766-4.328c-.848-.738-1.768-1.373-2.621-2.111-.649-.563-3.496-3.005-2.93-3.836 2.493 1.283 4.813 3.644 6.709 5.714z" fill="#E3E8F4"/><path d="M119.863 79.562c-.101.926-.663 1.726-1.144 2.522a16.28 16.28 0 00-2.171 10.222c.036.3.045.675-.212.832a.734.734 0 01-.442.058c-.3-.027-.592-.063-.884-.112-4.724-.765-8.861-4.024-13.617-4.847.294-.14.554-.343.763-.593.21-.251.364-.544.453-.86.127-.36.223-.732.287-1.11.07-.397.124-.795.163-1.184.301-2.88-.132-5.527-.291-8.451-.182-3.408 3.977-2.285 6.417-2.33 1.958-.036 3.951-.067 5.843.47 1.892.536 3.691 1.72 4.504 3.527.272.578.387 1.219.331 1.856z" fill="#CB8C8E"/><path d="M116.336 93.138a.734.734 0 01-.442.058c-.3-.027-.592-.063-.884-.112a20.03 20.03 0 01-1.175-1.207c-.884-.993-1.68-2.084-2.705-2.93a9.32 9.32 0 00-5.525-1.993 17.98 17.98 0 01-2.997-.17c.128-.36.224-.732.288-1.11.07-.397.123-.795.163-1.184a14.655 14.655 0 011.671-.121 7.939 7.939 0 011.98-.04c1.092.165 2.055.782 3.036 1.297 1.357.71 2.811 1.247 4.071 2.128.389.277.76.581 1.131.894.504.416 1.004.837 1.508 1.248-.027.808.009 1.617.106 2.419.022.286.031.666-.226.823z" fill="#E3E8F4"/><path opacity=".1" d="M123.51 174.662v2.352c-1.839.054-3.717.327-5.547.448-1.72.125-3.443.129-5.167.107a14.844 14.844 0 01-4.004-.447c-.942-.277-1.826-.734-2.763-1.02-1.768-.55-3.633-.483-5.502-.259-1.52.179-3.054.447-4.57.586a6.082 6.082 0 01-2.917-.304 5.426 5.426 0 01-.752-.421 10.352 10.352 0 00-1.166-.684c-1.088-.492-2.299-.411-3.514-.295a4.52 4.52 0 01.963-3.577c1.516.17 2.74.165 4.067.223.035-.192.079-.384.123-.576a114.253 114.253 0 0128.791 1.788c.693.13 1.471.331 1.794.966.14.353.196.734.164 1.113z" fill="#000"/><path d="M103.452 86.082c-.959.116-1.984.362-2.603 1.108-.18.201-.295.452-.331.72.036.419.116.833.238 1.234a2.913 2.913 0 01-.406 1.539c-.641 1.341-1.326 2.71-2.405 3.715-.442.416-.945.76-1.392 1.168a12.409 12.409 0 00-1.392 1.582c-.933 1.181-1.892 2.42-2.232 3.891-.597 2.553-1.839 4.963-2.652 7.458-.813 2.495-1.326 5.151-.884 7.736.208 1.225.628 2.401.92 3.609.468 1.936.6 3.939 1.096 5.866.313 1.203.764 2.366 1.104 3.577a19.71 19.71 0 01.588 8c-.331 2.446.226 5.048-.751 7.306a27.69 27.69 0 01-1.326 2.433 34.177 34.177 0 00-1.666 3.577l-2.727 6.511a38.039 38.039 0 00-1.428 3.756c-1.136 3.738-1.14 7.722-.981 11.626a.498.498 0 01-.075.349c-.084.089-.274.062-.279-.059-.035.224-.176.613-.207.837 2.32 1.019 5.175-.524 7.487.518.672.304 1.242.81 1.918 1.105a6.01 6.01 0 002.917.308c3.372-.281 6.833-1.341 10.068-.331.942.291 1.821.747 2.763 1.024 1.31.331 2.658.481 4.008.447 1.724.027 3.448.023 5.167-.107 3.699-.273 7.584-1.091 10.992.394 1.1-.819 1.184-2.089 1.229-3.466l.247-7.776.915-28.595c.129-1.97.057-3.948-.217-5.903-.623-3.541-2.537-6.707-4.419-9.743l-8.791-14.309c-.584-.948 0-2.008.402-3.05a19.908 19.908 0 001.131-4.64c.142-1.168.133-2.483-.649-3.35-.442-.488-1.065-.76-1.569-1.18-.734-.609-1.176-1.472-1.618-2.286a14.68 14.68 0 00-5.167-5.446c-2.17-1.274-4.53-1.453-7.023-1.153z" fill="#3F3D56"/><path opacity=".1" d="M112.522 99.058c-3.125.872-5.061 4.083-5.918 7.244-1.202 4.422-.91 9.149.15 13.602 1.061 4.454 2.873 8.688 4.707 12.878a31.07 31.07 0 001.45 2.996 14.249 14.249 0 006.488 5.961 11.857 11.857 0 008.694.389 5.096 5.096 0 001.458-.751c1.565-1.217 1.808-3.47 1.923-5.465l.393-6.989a3.56 3.56 0 00-.053-1.104 4.032 4.032 0 00-.8-1.342 16.8 16.8 0 01-2.828-5.687c-.402-1.445-.615-2.952-1.233-4.315-.372-.823-.884-1.574-1.287-2.384-.883-1.744-1.197-3.698-1.613-5.603a59.836 59.836 0 00-1.299-4.941 8.391 8.391 0 00-1.127-2.535c-1.216-1.663-3.372-2.263-5.37-2.683a6.118 6.118 0 00-2.908-.143c-1.088.3-1.932 1.15-2.719 1.963" fill="#000"/><path d="M112.964 98.61c-3.125.873-5.061 4.083-5.918 7.245-1.202 4.422-.911 9.149.15 13.602 1.061 4.454 2.873 8.688 4.707 12.878.43 1.024.914 2.025 1.45 2.996a14.244 14.244 0 006.488 5.961 11.862 11.862 0 008.694.389 5.074 5.074 0 001.458-.752c1.565-1.216 1.808-3.469 1.923-5.464l.393-6.989a3.56 3.56 0 00-.053-1.104 4.032 4.032 0 00-.8-1.342 16.8 16.8 0 01-2.828-5.687c-.403-1.445-.615-2.952-1.233-4.316-.372-.822-.884-1.573-1.287-2.383-.884-1.744-1.197-3.698-1.613-5.603a59.836 59.836 0 00-1.299-4.941 8.391 8.391 0 00-1.127-2.535c-1.216-1.663-3.373-2.263-5.37-2.683a6.123 6.123 0 00-2.909-.143c-1.087.3-1.931 1.15-2.718 1.963" fill="#3F3D56"/><path d="M143.452 117.275a10.646 10.646 0 01-.584-7.561c1.733.447 2.21 3.031 3.978 3.492.261.067.539.08.804.139 1.238.254 2.113 1.341 2.754 2.459a13.34 13.34 0 011.839 5.652 9.565 9.565 0 01-1.326 5.746c.044-.067-3.094-3.323-3.359-3.658a61.862 61.862 0 01-1.618-1.999 14.362 14.362 0 01-1.49-2.025c-.15-.286-.181-.617-.313-.921-.208-.452-.469-.881-.685-1.324z" fill="#CB8C8E"/><path d="M135.394 143.576a19.63 19.63 0 01-5.493 11.345c-.677.675-1.521 1.341-2.467 1.247-1.021-.107-1.723-1.046-2.453-1.788-1.326-1.342-3.093-2.142-4.565-3.314a23.386 23.386 0 01-2.157-2.043c-2.166-2.236-4.345-4.472-6.073-7.079-.977-1.466-1.812-3.04-2.97-4.364-.915-1.051-2.015-1.918-2.979-2.92-.963-1.001-1.812-2.2-2.042-3.577-.243-1.458-1.768-2.406-2.727-3.524a12.47 12.47 0 01-2.499-4.875 12.557 12.557 0 01-.175-5.49c.155-.778.478-1.65 1.22-1.918.295-.091.607-.111.911-.058 1.865.264 3.248 1.829 4.455 3.296a27.66 27.66 0 012.276 3.04c1.472 2.419 2.148 5.236 2.802 8 .385 1.614 1.976 2.808 3.12 3.997l2.873 2.983c.685.711 1.37 1.426 2.122 2.066 2.055 1.761 4.521 2.942 6.983 4.024a9 9 0 01.972-2.289c.219-.351.509-.652.85-.883a2.916 2.916 0 011.13-.459c1.141-.147 2.184.617 3.094 1.342l3.381 2.683c.19.156.438.326.411.558z" fill="#FBBEBE"/><path opacity=".1" d="M140.773 116.89c.415.451.743.975.968 1.548a10.264 10.264 0 01.986 5.048 15.292 15.292 0 01-.61 2.759l-1.052 3.662c-1.636 5.679-3.275 11.371-5.485 16.849-1.817-2.384-4.994-3.103-7.576-4.592a2.148 2.148 0 01-.667-.524 1.929 1.929 0 01-.331-1.144c.027-1.1.264-2.184.698-3.193 1.609-4.369 3.841-8.635 4.101-13.285.011-.865.065-1.729.164-2.589a7.39 7.39 0 011.174-2.852 7.266 7.266 0 012.229-2.111c1.485-.975 4.084-.881 5.401.424z" fill="#000"/><path d="M140.331 115.853c.414.451.742.975.968 1.547a10.266 10.266 0 01.986 5.048c-.115.95-.32 1.885-.61 2.795l-1.052 3.662c-1.636 5.679-3.275 11.371-5.485 16.849-1.817-2.379-4.995-3.103-7.576-4.592a2.132 2.132 0 01-.667-.519 1.969 1.969 0 01-.332-1.145 8.662 8.662 0 01.699-3.197c1.609-4.368 3.841-8.63 4.101-13.285.01-.864.065-1.726.164-2.584a7.393 7.393 0 011.172-2.855 7.29 7.29 0 012.231-2.113c1.485-.997 4.084-.903 5.401.389z" fill="#F4F6FB"/><path d="M130.09 92.087c.884.952 1.132 2.33 1.278 3.63.38 3.363.389 6.833-.646 10.053-1.034 3.219-3.226 6.166-6.298 7.503 4.279.702 9.361 1.14 12.261-2.124.565-.635 1.025-1.4 1.746-1.86 3.071-1.959 6.97 3.206 10.302 1.739 2.21-.966 2.369-3.989 2.21-6.403l-.606-8.943c-.309-4.566-.702-9.39-3.288-13.129-2.334-3.385-6.157-5.42-10.042-6.707-2.793-.894-5.904-1.48-8.623-.349-3.469 1.44-10.165 7.19-10.125 11.443.075 6.318 8.914 2.026 11.831 5.147zm2.635 34.909c.496.02.992-.045 1.467-.192.752-.282 1.326-.989 2.135-1.105.407-.058.928 0 1.105-.389.053-.181.072-.371.057-.559.062-1.086 1.41-1.462 2.321-2.043a6.853 6.853 0 001.507-1.467l3.138-3.752c.288-.429.707-.75 1.193-.916a2.113 2.113 0 011.552.447 12.217 12.217 0 014.232 4.939 12.388 12.388 0 011.124 6.436 1.937 1.937 0 01-.23.872c-.49.778-1.644.591-2.514.868-1.667.528-2.175 2.714-3.603 3.729-.64.447-1.432.64-2.055 1.105-.623.465-1.1 1.278-1.666 1.909-.884 1.011-2.144 1.632-3.355 2.236l-3.699 1.824a14.5 14.5 0 01-2.267.957 14.13 14.13 0 01-4.119.353l-2.71-.035a1.59 1.59 0 01-.884-.179 1.495 1.495 0 01-.393-.448c-1.392-2.115-1.675-4.847-1.18-7.337.411-2.066 1.379-4.919 2.833-6.488 1.264-1.351 4.261-.729 6.011-.765zm-10.82-57.938a2.063 2.063 0 01.159-1.255c.184-.391.486-.712.862-.918l3.359-2.553-.689-1.015 1.295-1.122a.93.93 0 00-.955-.376c.203-1.382-.963-2.549-2.073-3.371-2.258-1.673-4.862-3.063-7.628-3.251-1.357-.09-2.718.107-4.075 0-1.83-.117-3.607-.743-5.441-.814-1.834-.072-3.894.657-4.663 2.325-.327.724-.371 1.543-.619 2.298-.552 1.673-2.01 2.83-3.253 4.07-1.242 1.238-2.395 2.897-2.05 4.623.135.557.348 1.091.632 1.587l6.85 13.384c.229-.434.558-.807.959-1.086.4-.28.861-.458 1.344-.52 1.127-.134 2.21.376 3.35.52a5.245 5.245 0 002.494-.333 5.305 5.305 0 002.063-1.457c1.511-1.761 1.878-6.26 4.504-6.707.928-.16 2.413 1.024 3.222.555.95-.528.371-3.59.353-4.584z" fill="#3F3D56"/><path opacity=".1" d="M127.076 111.905c3.072-1.342 5.26-4.293 6.298-7.508 1.039-3.215 1.026-6.707.646-10.052-.146-1.297-.389-2.683-1.278-3.631-2.917-3.13-11.756 1.171-11.836-5.115-.048-3.627 4.827-8.34 8.398-10.544a8.08 8.08 0 00-.942.317c-3.469 1.44-10.165 7.195-10.125 11.443.079 6.287 8.919 1.999 11.836 5.12.884.948 1.131 2.33 1.277 3.63.38 3.359.389 6.833-.645 10.048s-3.227 6.171-6.298 7.508c3.774.617 8.172 1.028 11.146-1.123-2.612.694-5.71.358-8.477-.093zm14.007-3.989a3.972 3.972 0 00-.854.778c2.71.179 5.79 3.372 8.504 2.178.475-.211.888-.54 1.202-.957-2.97-.117-6.214-3.68-8.852-1.999zm-15.465-47.827a7.265 7.265 0 00-.208-.291 2.659 2.659 0 01-.022.309.978.978 0 01.23-.018zm1.387 2.105a.942.942 0 00-.954-.376 2.187 2.187 0 00-.089-1.006l-.915.792.69 1.01-3.359 2.558a2.048 2.048 0 00-1.021 2.173c0 .993.597 4.056-.358 4.606-.805.47-2.294-.716-3.218-.555-2.625.447-2.992 4.919-4.503 6.707a5.313 5.313 0 01-2.063 1.458 5.246 5.246 0 01-2.494.331c-1.127-.138-2.21-.648-3.35-.514a3.043 3.043 0 00-1.346.52c-.401.28-.731.651-.962 1.085l-6.832-13.356v.098a6.3 6.3 0 00.636 1.588l6.842 13.356c.23-.434.56-.806.961-1.085.402-.28.863-.458 1.346-.52 1.127-.134 2.21.375 3.35.518a5.246 5.246 0 002.494-.331 5.305 5.305 0 002.063-1.457c1.511-1.762 1.878-6.26 4.504-6.707.923-.162 2.413 1.023 3.217.554.955-.55.376-3.613.358-4.606a2.748 2.748 0 01.195-1.341c.209-.34.492-.63.826-.845l3.359-2.553-.689-1.016 1.312-1.086zm-38.739 97.082c-.442 1.909-.72 3.859-1.326 5.723-.265.841-.592 1.659-.853 2.5-.234.765-.411 1.538-.592 2.316l-.72 3.13a1.402 1.402 0 001.096-.626c.242-.368.425-.772.543-1.198l1.207-3.631.884-2.683c1.255-3.778 2.514-7.566 3.47-11.438.238-.957.441-1.914.649-2.88.08-.371.659-2.441.066-2.267-.42.121-1.131 2.008-1.326 2.419-.442.823-.804 1.664-1.162 2.518a37.553 37.553 0 00-1.936 6.117z" fill="#000"/><path d="M111.32 109.204s-1.998-.729-2.489.138c0 0 3.633 1.342 4.367 3.274 0 0 .937-.975-.345-2.214l-.238-1.815-1.295.617z" fill="#00A66C"/><path d="M114.635 106.463s.11-.921-.35-1.02c-.459-.098-3.571.085-3.071 3.577.499 3.493 4.097 2.183 4.097 2.183l1.578-1.861s.336-2.463-1.874-3.058l-.38.179z" fill="#9E63FF"/><path opacity=".1" d="M112.128 104.567s-2.713 1.386-1.396 4.869l1.021-.599s1.277-3.023.375-4.27z" fill="#000"/><path d="M112.031 104.495s-2.709 1.387-1.392 4.87l.791.469s1.507-4.091.601-5.339z" fill="#9E63FF"/><path opacity=".1" d="M116.46 108.072c.142.485.433.911.831 1.217.636.447-.632 1.48-.632 1.48s-1.715 1.972-3.337 1.01c-.968-1.65-.239-1.878-.239-1.878s2.025-2.249 3.377-1.829z" fill="#000"/><path d="M116.526 108.166c.143.485.434.911.831 1.217.632.447-.636 1.48-.636 1.48s-1.711 1.972-3.337 1.01c-1.627-.961-.239-1.873-.239-1.873s2.007-2.254 3.381-1.834z" fill="#9E63FF"/><path d="M110.374 104.54s-2.007.706-1.848 1.695c0 0 3.66-1.27 5.432-.237 0 0 .12-1.342-1.644-1.503l-1.326-1.261-.614 1.306z" fill="#5F3839"/><path d="M111.222 100.288s-.486-.787-.884-.573c-.397.215-2.718 2.339-.168 4.727 2.551 2.387 4.544-.895 4.544-.895l.044-2.45s-1.273-2.128-3.359-1.18l-.177.371z" fill="#9E63FF"/><path opacity=".1" d="M108.129 100.422s-1.247 2.803 1.949 4.672l.42-1.113s-.902-3.161-2.369-3.559z" fill="#000"/><path d="M107.996 100.426s-1.242 2.804 1.949 4.673l.906-.139s-1.374-4.14-2.855-4.534z" fill="#9E63FF"/><path opacity=".1" d="M113.662 100.386c.413.287.905.434 1.406.42.778-.049.442 1.552.442 1.552s-.106 2.625-1.967 2.911c-1.768-.666-1.353-1.306-1.353-1.306s.16-3.04 1.472-3.577z" fill="#000"/><path d="M113.76 100.431c.412.287.904.435 1.405.42.778-.049.442 1.552.442 1.552s-.102 2.624-1.962 2.911c-1.861.286-1.353-1.306-1.353-1.306s.155-3.041 1.468-3.577z" fill="#9E63FF"/><path d="M103.554 105.376s.637-.563.986.179l-.296 1.663-1.826 16.474-1.167 2.159 2.303-20.475z" fill="#00A66C"/><path d="M108.964 101.544l-7.646 25.13.694.389 7.584-25.353-.632-.166z" fill="#00A66C"/><path d="M106.873 112.938s-1.714 6.559-3.606 9.175c-1.892 2.616-1.534 4.785-1.534 4.785l.619.192 5.083-13.696-.562-.456z" fill="#00A66C"/><path d="M113.123 107.165l-10.908 19.218.522.287 11.248-19.367-.862-.138z" fill="#00A66C"/><path d="M115.532 112.24l-13.587 14.327.407.532 13.759-14.537-.579-.322z" fill="#00A66C"/><path d="M116.403 113.304s-.181-.805-.791-.653c-.61.152-12.619 13.643-12.619 13.643l.508.402 12.902-13.392zm-13.437-8.795s-2.051.563-1.953 1.56c0 0 3.734-1.01 5.432.143 0 0 .212-1.341-1.539-1.614l-1.228-1.341-.712 1.252z" fill="#00A66C"/><path d="M104.115 100.323s-.442-.818-.861-.63c-.42.188-2.873 2.142-.495 4.7 2.377 2.557 4.596-.591 4.596-.591l.234-2.441s-1.122-2.21-3.27-1.413l-.204.375z" fill="#9E63FF"/><path opacity=".1" d="M101 100.243s-1.437 2.71 1.622 4.798l.495-1.082s-.672-3.22-2.117-3.716z" fill="#000"/><path d="M100.88 100.238s-1.436 2.71 1.622 4.798l.915-.071s-1.087-4.23-2.537-4.727z" fill="#9E63FF"/><path opacity=".1" d="M106.533 100.596c.394.31.875.485 1.374.501.778 0 .319 1.578.319 1.578s-.283 2.612-2.157 2.768c-1.728-.787-1.26-1.399-1.26-1.399s.38-3.005 1.724-3.448z" fill="#000"/><path d="M106.626 100.65a2.37 2.37 0 001.375.518c.777 0 .318 1.579.318 1.579s-.283 2.607-2.157 2.763c-1.874.157-1.26-1.395-1.26-1.395s.38-3.018 1.724-3.465z" fill="#9E63FF"/><path d="M108.195 100.65s-2.051.563-1.958 1.56c0 0 3.735-1.01 5.432.139 0 0 .216-1.341-1.538-1.61l-1.229-1.341-.707 1.252z" fill="#00A66C"/><path d="M109.34 96.473s-.442-.818-.862-.63c-.42.188-2.873 2.142-.495 4.699 2.378 2.558 4.596-.59 4.596-.59l.235-2.441s-1.123-2.21-3.271-1.413l-.203.375z" fill="#9E63FF"/><path opacity=".1" d="M106.224 96.393s-1.436 2.71 1.622 4.798l.495-1.082s-.654-3.22-2.117-3.716z" fill="#000"/><path d="M106.104 96.388s-1.432 2.71 1.622 4.798l.915-.076s-1.087-4.225-2.537-4.722z" fill="#9E63FF"/><path opacity=".1" d="M111.762 96.746c.391.315.871.495 1.37.514.778 0 .318 1.579.318 1.579s-.283 2.611-2.157 2.768c-1.723-.792-1.259-1.4-1.259-1.4s.38-3.018 1.728-3.46z" fill="#000"/><path d="M111.855 96.795a2.33 2.33 0 001.37.515c.778 0 .318 1.578.318 1.578s-.283 2.611-2.157 2.768c-1.874.156-1.259-1.4-1.259-1.4s.38-3.018 1.728-3.46z" fill="#9E63FF"/><path d="M112.61 106.016s-1.997-.729-2.488.138c0 0 3.633 1.342 4.371 3.273 0 0 .937-.974-.345-2.213l-.238-1.815-1.3.617z" fill="#00A66C"/><path d="M115.925 103.261s.11-.921-.349-1.019c-.46-.099-3.567.085-3.094 3.577.473 3.492 4.101 2.182 4.101 2.182l1.578-1.86s.332-2.464-1.878-3.059l-.358.179z" fill="#9E63FF"/><path opacity=".1" d="M113.432 101.383s-2.713 1.386-1.392 4.87l1.017-.6s1.259-3.022.375-4.27z" fill="#000"/><path d="M113.326 101.312s-2.714 1.386-1.396 4.869l.791.47s1.507-4.092.605-5.339z" fill="#9E63FF"/><path opacity=".1" d="M117.751 104.889c.144.483.435.908.83 1.216.637.447-.632 1.48-.632 1.48s-1.714 1.972-3.336 1.011c-.964-1.646-.239-1.878-.239-1.878s2.024-2.25 3.377-1.829z" fill="#000"/><path d="M117.799 104.983c.143.485.434.912.831 1.22.636.448-.632 1.476-.632 1.476s-1.715 1.972-3.337 1.015c-1.622-.957-.239-1.878-.239-1.878s2.025-2.254 3.377-1.833z" fill="#9E63FF"/><path d="M115.815 111.493s-1.998-.729-2.484.143c0 0 3.628 1.342 4.367 3.273 0 0 .937-.979-.345-2.213l-.239-1.82-1.299.617z" fill="#00A66C"/><path d="M119.13 108.734s.11-.921-.35-1.015c-.459-.094-3.566.081-3.067 3.578.5 3.496 4.097 2.186 4.097 2.186l1.578-1.865s.332-2.459-1.878-3.054l-.38.17z" fill="#9E63FF"/><path opacity=".1" d="M116.623 106.856s-2.713 1.386-1.392 4.874l1.017-.599s1.281-3.027.375-4.275z" fill="#000"/><path d="M116.526 106.785s-2.714 1.386-1.397 4.869l.792.47s1.511-4.092.605-5.339z" fill="#9E63FF"/><path opacity=".1" d="M120.946 110.362c.142.484.431.912.826 1.221.637.447-.632 1.475-.632 1.475s-1.714 1.972-3.337 1.015c-.963-1.65-.238-1.878-.238-1.878s2.055-2.253 3.381-1.833z" fill="#000"/><path d="M121.004 110.46c.142.485.433.911.831 1.217.636.447-.632 1.48-.632 1.48s-1.715 1.972-3.337 1.01c-1.622-.961-.239-1.878-.239-1.878s2.024-2.249 3.377-1.829z" fill="#9E63FF"/><path d="M116.221 113.331s-1.997-.729-2.488.143c0 0 3.633 1.342 4.367 3.273 0 0 .941-.979-.34-2.213l-.244-1.82-1.295.617z" fill="#00A66C"/><path d="M119.536 110.572s.111-.917-.349-1.015c-.46-.098-3.567.08-3.072 3.577.495 3.497 4.097 2.187 4.097 2.187l1.578-1.86s.336-2.464-1.874-3.059l-.38.17z" fill="#9E63FF"/><path opacity=".1" d="M117.03 108.698s-2.714 1.382-1.388 4.87l1.021-.599s1.269-3.027.367-4.271z" fill="#000"/><path d="M116.933 108.623s-2.71 1.386-1.392 4.869l.791.474s1.52-4.096.601-5.343z" fill="#9E63FF"/><path opacity=".1" d="M121.362 112.2c.142.485.433.912.831 1.22.636.448-.632 1.476-.632 1.476s-1.715 1.976-3.337 1.015c-.968-1.65-.239-1.878-.239-1.878s2.024-2.254 3.377-1.833z" fill="#000"/><path d="M121.41 112.298c.142.484.433.91.831 1.216.636.447-.637 1.48-.637 1.48s-1.71 1.972-3.332 1.011c-1.622-.961-.243-1.878-.243-1.878s2.033-2.249 3.381-1.829z" fill="#9E63FF"/><path d="M106.489 112.133s-1.998-.734-2.488.138c0 0 3.633 1.342 4.366 3.273 0 0 .937-.974-.344-2.213l-.239-1.82-1.295.622z" fill="#00A66C"/><path d="M109.804 109.369s.11-.916-.349-1.015c-.46-.098-3.571.085-3.072 3.577.499 3.493 4.097 2.187 4.097 2.187l1.578-1.86s.336-2.464-1.874-3.059l-.38.17z" fill="#9E63FF"/><path opacity=".1" d="M107.298 107.496s-2.705 1.386-1.379 4.869l1.021-.599s1.259-3.023.358-4.27z" fill="#000"/><path d="M107.201 107.424s-2.71 1.382-1.393 4.87l.792.447s1.529-4.069.601-5.317z" fill="#9E63FF"/><path opacity=".1" d="M111.629 110.997c.142.486.433.913.831 1.221.637.447-.632 1.48-.632 1.48s-1.715 1.972-3.337 1.01c-.968-1.65-.238-1.878-.238-1.878s2.024-2.253 3.376-1.833z" fill="#000"/><path d="M111.664 111.095c.143.485.434.911.831 1.216.632.448-.636 1.481-.636 1.481s-1.711 1.972-3.337 1.01c-1.627-.961-.239-1.878-.239-1.878s2.055-2.249 3.381-1.829z" fill="#9E63FF"/><path d="M107.581 106.109s-2.003-.733-2.489.139c0 0 3.633 1.342 4.367 3.273 0 0 .937-.975-.345-2.213l-.238-1.82-1.295.621z" fill="#00A66C"/><path d="M110.895 103.333s.111-.895-.349-1.015c-.459-.121-3.571.085-3.094 3.577.478 3.492 4.098 2.186 4.098 2.186l1.577-1.86s.332-2.464-1.878-3.058l-.354.17z" fill="#9E63FF"/><path opacity=".1" d="M108.385 101.472s-2.709 1.382-1.392 4.87l1.021-.599s1.277-3.023.371-4.271z" fill="#000"/><path d="M108.292 101.401s-2.714 1.382-1.392 4.87l.787.469s1.511-4.091.605-5.339z" fill="#9E63FF"/><path opacity=".1" d="M112.721 104.974c.143.485.433.912.831 1.22.636.448-.632 1.481-.632 1.481s-1.715 1.972-3.337 1.01c-.968-1.65-.239-1.878-.239-1.878s2.02-2.254 3.377-1.833z" fill="#000"/><path d="M112.765 105.072c.142.484.433.91.831 1.216.636.447-.632 1.48-.632 1.48s-1.715 1.972-3.337 1.011c-1.622-.961-.239-1.878-.239-1.878s2.024-2.227 3.377-1.829z" fill="#9E63FF"/><path d="M100.924 115.218s5.476.612 8.451 10.249c2.974 9.636-6.382 2.428-6.382 2.428s-2.467.5-2.851-4.53c-.385-5.03.782-8.147.782-8.147z" fill="#FBBEBE"/><path d="M101.532 122.291l-1.309.588a.308.308 0 00-.156.405.303.303 0 00.401.155l1.309-.588a.308.308 0 00.156-.405.301.301 0 00-.401-.155z" fill="#E3E8F4"/><path opacity=".1" d="M78.38 86.573l-.884-.813c-3.174-2.952-5.273-4.866-5.273-7.253a3.426 3.426 0 01.976-2.452 3.32 3.32 0 012.418-1 3.61 3.61 0 011.532.35c.479.227.903.558 1.244.969.34-.411.764-.743 1.243-.97a3.598 3.598 0 011.532-.35 3.32 3.32 0 012.416 1.002 3.428 3.428 0 01.974 2.45c0 2.388-2.095 4.302-5.273 7.254l-.906.813zM66.044 35.84l-.884-.819c-3.178-2.947-5.277-4.865-5.277-7.248a3.43 3.43 0 01.975-2.452 3.321 3.321 0 012.419-1c.53.003 1.052.122 1.531.35.48.228.904.558 1.245.969a3.608 3.608 0 012.776-1.32 3.322 3.322 0 012.415 1.003 3.428 3.428 0 01.974 2.45c0 2.383-2.095 4.301-5.273 7.248l-.901.819zm92.567 24.32l-.884-.818c-3.177-2.947-5.272-4.865-5.272-7.249a3.41 3.41 0 01.974-2.45 3.323 3.323 0 012.416-1.002 3.604 3.604 0 011.531.35c.48.228.904.559 1.244.97.34-.411.765-.742 1.244-.97a3.612 3.612 0 011.532-.35 3.34 3.34 0 012.418 1 3.397 3.397 0 01.976 2.452c0 2.384-2.099 4.302-5.273 7.249l-.906.818z" fill="#9E63FF"/><g opacity=".6" fill="#9E63FF"><path opacity=".5" d="M189.22 39.95a1.304 1.304 0 00-1.79-.248 1.344 1.344 0 00-.35 1.794c.244.373.514.74.77 1.086 3.088 4.217 4.688 9.327 6.07 14.41.336 1.246.659 2.572.277 3.804a23.992 23.992 0 00-.658-9.927 62.04 62.04 0 00-3.47-9.367 8.157 8.157 0 00-.849-1.552z"/><path opacity=".6" d="M169.166 48.83c-2.087-.066-2.35 3.132-.276 3.332.546.04 1.092.053 1.619.066 6.386.18 12.417 2.525 18.217 5.037 1.429.62 2.923 1.332 3.753 2.665a27.36 27.36 0 00-9.718-6.969 70.65 70.65 0 00-11.468-3.744 9.341 9.341 0 00-2.127-.386z"/><path opacity=".2" d="M169.745 56.692c-1.316.053-1.02 1.946.31 1.959h1.02c4.03-.167 8.151.96 12.154 2.192a6.305 6.305 0 012.732 1.392 21.963 21.963 0 00-7.104-3.69 54.554 54.554 0 00-7.716-1.746 7.36 7.36 0 00-1.396-.107z"/><path opacity=".5" d="M196.685 91.888c.376 1.28 2.114.52 1.798-.779-.086-.346-.185-.666-.283-1-1.152-3.903-1.1-8.227-.909-12.458a6.342 6.342 0 01.659-3.018 22.425 22.425 0 00-1.791 7.875 55.874 55.874 0 00.27 7.995c.041.469.127.933.256 1.385z"/><path opacity=".2" d="M172.148 38.178c-.796-.14-.856 1.026-.065 1.206.21.046.414.08.612.113 2.429.42 4.747 1.619 6.985 2.871a3.754 3.754 0 011.455 1.186 13.386 13.386 0 00-3.779-3.118 32.334 32.334 0 00-4.398-1.998 3.909 3.909 0 00-.81-.26z"/><path opacity=".6" d="M159.91 69.137c-2.008 1.046-.31 3.918 1.757 2.965.54-.247 1.067-.526 1.567-.793 6.149-3.224 13.286-4.41 20.304-5.33 1.725-.22 3.562-.42 5.155.273a34.364 34.364 0 00-13.444-.819 86.94 86.94 0 00-13.121 2.858 11.2 11.2 0 00-2.218.846z"/><path opacity=".5" d="M165.657 80.323c-1.448 1.366.81 2.978 2.324 1.666.395-.34.777-.707 1.132-1.047 4.405-4.183 10.225-7.161 16.018-9.906 1.422-.666 7.242-1.333 8.842-1.333-4.082.367-12.423 1.66-16.13 3.365a89.034 89.034 0 00-10.533 5.996c-.588.367-1.142.789-1.653 1.259z"/><path opacity=".6" d="M175.96 98.184c-.421 1.952 2.338 1.999 2.851 0a37.08 37.08 0 00.349-1.519c1.271-5.996 4.385-11.772 7.611-17.361.79-1.366 5.22-5.33 6.531-6.17-3.154 2.665-9.29 8.508-11.377 12.046a90.52 90.52 0 00-5.267 10.959c-.292.66-.526 1.344-.698 2.045zm20.752-68.574c-.988-1.998-3.799-.36-2.903 1.726.23.546.493 1.08.744 1.585 3.028 6.203 4.075 13.378 4.852 20.433.191 1.733.355 3.571-.343 5.164a35.727 35.727 0 001.001-13.471 90.324 90.324 0 00-2.587-13.205 12.016 12.016 0 00-.764-2.232zm-15.695 3.458a.37.37 0 00.164.053.305.305 0 00.231-.213c.25-.54.105-1.24.487-1.699.383.469.692.995.915 1.56l1.495-.454a2.223 2.223 0 01-.277 1.679c.247.112.47.27.658.466a.76.76 0 01.172.773c-.334.08-.678.114-1.021.1a6.713 6.713 0 01-.105 1.919.365.365 0 01-.125.246.339.339 0 01-.349-.06 3.313 3.313 0 01-1.192-1.272l-.533 1.332a.545.545 0 01-.244.32.369.369 0 01-.447-.153 1.133 1.133 0 01-.158-.493l-.205-1.24a.28.28 0 00-.065-.172.294.294 0 00-.211-.06h-1.527c-.093-.274.177-.533.441-.667.263-.133.566-.2.698-.46.269-.519-.422-1.245-.126-1.698.297-.453.896-.027 1.324.193z"/><path opacity=".5" d="M208.905 39.95a1.306 1.306 0 011.837-.313 1.344 1.344 0 01.309 1.859c-.25.373-.513.74-.77 1.086-3.088 4.217-4.694 9.327-6.07 14.41-.343 1.246-.659 2.572-.283 3.804a23.992 23.992 0 01.658-9.927 61.209 61.209 0 013.47-9.367 8.151 8.151 0 01.849-1.552z"/><path opacity=".6" d="M228.959 48.83c2.08-.066 2.35 3.132.269 3.332-.539.04-1.092.053-1.612.066-6.387.18-12.424 2.525-18.224 5.037-1.422.62-2.916 1.332-3.746 2.665a27.365 27.365 0 019.717-6.969 70.82 70.82 0 0111.462-3.744c.695-.21 1.41-.34 2.134-.386z"/><path opacity=".5" d="M228.419 56.692c1.316.053 1.013 1.946-.31 1.959h-1.02c-4.03-.167-8.151.96-12.154 2.192a6.262 6.262 0 00-2.732 1.392 21.9 21.9 0 017.104-3.69 54.54 54.54 0 017.729-1.72 7.357 7.357 0 011.383-.133z"/><path opacity=".2" d="M225.983 38.178c.796-.14.856 1.026.066 1.206-.211.046-.415.08-.619.113-2.423.42-4.747 1.619-6.979 2.871a3.754 3.754 0 00-1.455 1.186 13.365 13.365 0 013.772-3.118 32.828 32.828 0 014.405-1.998 3.77 3.77 0 01.81-.26zm-20.607 56.136c-.178.792-1.264.4-1.119-.407 0-.213.085-.42.131-.62.553-2.424.349-5.056.073-7.628a3.885 3.885 0 00-.52-1.812 13.6 13.6 0 011.382 4.73c.166 1.623.216 3.255.152 4.884a4.217 4.217 0 01-.099.853z"/><path opacity=".5" d="M225.476 89.037c.619 1.06-.902.986-1.567-.073-.178-.28-.336-.56-.494-.826-1.883-3.245-4.753-6.456-7.644-9.554a10.61 10.61 0 00-2.363-2.072 37.578 37.578 0 016.208 5.377c1.857 1.958 3.49 3.997 5.096 6.049.277.35.532.717.764 1.1z"/><path opacity=".2" d="M170.41 89.037c-.618 1.06.902.986 1.574-.073.171-.28.336-.56.487-.826 1.883-3.245 4.753-6.456 7.644-9.554a10.637 10.637 0 012.37-2.072 37.652 37.652 0 00-6.215 5.377c-1.85 1.958-3.49 3.997-5.096 6.049-.277.35-.532.717-.764 1.1zm20.14 5.277c.177.792 1.264.4 1.125-.407-.039-.213-.085-.42-.131-.62-.553-2.424-.356-5.056-.073-7.628a3.807 3.807 0 01.514-1.812 13.6 13.6 0 00-1.383 4.73 33.741 33.741 0 00-.144 4.884c.004.286.035.572.092.853zm29.093-48.168c.79-.14.849 1.032.059 1.206-.204.046-.415.08-.612.12-2.43.413-4.747 1.618-6.986 2.871a3.85 3.85 0 00-1.455 1.18 13.387 13.387 0 013.779-3.112 32.482 32.482 0 014.398-1.999c.263-.116.536-.205.817-.266zm-7.407-15.65c.658-.426 1.172.667.507 1.093l-.527.34c-2.093 1.332-3.805 3.33-5.418 5.33a3.813 3.813 0 00-.909 1.645 13.485 13.485 0 012.351-4.317 33.02 33.02 0 013.331-3.538c.203-.206.425-.392.665-.553z"/><path opacity=".6" d="M238.222 69.137c2.008 1.046.309 3.918-1.758 2.965-.54-.247-1.067-.526-1.574-.793-6.142-3.224-13.279-4.41-20.297-5.33-1.725-.22-3.562-.42-5.155.273a34.336 34.336 0 0113.437-.819 86.83 86.83 0 0113.128 2.858 11.57 11.57 0 012.219.846z"/><path opacity=".5" d="M232.474 80.323c1.448 1.366-.81 2.978-2.324 1.666-.395-.34-.777-.707-1.139-1.047-4.404-4.183-10.218-7.161-16.018-9.906-1.415-.666-7.275-1.333-8.835-1.333 4.082.367 12.417 1.66 16.123 3.365a88.646 88.646 0 0110.534 5.996c.59.367 1.146.788 1.659 1.259z"/><path opacity=".6" d="M215.449 100.416c.178 1.999-2.568 1.666-2.831-.333-.066-.52-.112-1.046-.158-1.546-.52-6.089-2.897-12.238-5.405-18.187-.613-1.466-4.523-5.93-5.708-6.956 2.798 3.032 8.157 9.62 9.796 13.391a91.575 91.575 0 013.898 11.553c.201.678.338 1.374.408 2.078zm1.646-67.348a.401.401 0 01-.172.053c-.105 0-.184-.113-.23-.213-.244-.54-.105-1.24-.481-1.699a5.88 5.88 0 00-.921 1.56l-1.442-.454a2.17 2.17 0 00.276 1.679c-.246.112-.47.27-.658.466a.768.768 0 00-.178.773c.334.08.678.114 1.021.1a6.938 6.938 0 00.112 1.919.35.35 0 00.125.246.335.335 0 00.349-.06 3.31 3.31 0 001.191-1.272l.534 1.332a.565.565 0 00.237.32.382.382 0 00.454-.153c.09-.15.144-.319.158-.493l.204-1.24a.282.282 0 01.066-.172.292.292 0 01.21-.06h1.528c.092-.274-.184-.533-.441-.667-.257-.133-.573-.2-.705-.46-.263-.519.428-1.245.132-1.698-.296-.453-.922-.027-1.369.193z"/><path opacity=".2" d="M221.453 93.248a.398.398 0 01-.171.053c-.112 0-.184-.113-.231-.213-.243-.54-.105-1.24-.48-1.7a5.84 5.84 0 00-.922 1.56l-1.442-.453a2.221 2.221 0 00.27 1.679 2.28 2.28 0 00-.658.466.77.77 0 00-.178.773c.334.08.678.113 1.021.1a6.986 6.986 0 00.105 1.925.35.35 0 00.125.24c.105.067.244 0 .356-.06a3.37 3.37 0 001.185-1.272l.539 1.299a.58.58 0 00.237.326.38.38 0 00.448-.16 1.15 1.15 0 00.165-.493l.197-1.232a.4.4 0 01.066-.18.3.3 0 01.217-.06h1.528c.085-.273-.185-.533-.441-.666-.257-.134-.573-.2-.705-.46-.263-.52.422-1.246.132-1.699-.29-.453-.915.007-1.363.227z"/><path opacity=".6" d="M233.685 52.908a.42.42 0 01-.171.053c-.112 0-.184-.113-.23-.213-.25-.54-.105-1.24-.487-1.699a5.95 5.95 0 00-.915 1.56l-1.449-.454a2.205 2.205 0 00.277 1.679c-.247.111-.471.27-.659.466a.76.76 0 00-.177.773c.334.08.677.114 1.02.1a6.986 6.986 0 00.105 1.925.367.367 0 00.125.24.34.34 0 00.349-.06 3.312 3.312 0 001.192-1.272l.54 1.332a.57.57 0 00.237.327.377.377 0 00.448-.16c.092-.149.146-.318.158-.493l.204-1.233c0-.066.024-.129.065-.18a.296.296 0 01.211-.06h1.534c.086-.273-.184-.532-.448-.666-.263-.133-.566-.2-.697-.46-.27-.52.421-1.245.131-1.698-.289-.453-.915-.027-1.363.193zm-48.922 46.376a.433.433 0 01-.237.073c-.152 0-.257-.153-.323-.293-.342-.76-.145-1.732-.658-2.365a8.07 8.07 0 00-1.277 2.172l-2.015-.667a3.058 3.058 0 00.382 2.332 3.14 3.14 0 00-.948.666 1.074 1.074 0 00-.25 1.08c.465.112.944.159 1.422.139a9.84 9.84 0 00.151 2.665.509.509 0 00.178.34c.145.093.336 0 .487-.08a4.761 4.761 0 001.646-1.745l.744 1.805a.788.788 0 00.336.453.519.519 0 00.658-.22c.125-.201.202-.429.224-.666l.276-1.719a.48.48 0 01.099-.246.451.451 0 01.296-.087h2.127c.125-.38-.257-.733-.619-.899-.362-.167-.79-.28-.974-.633-.369-.733.586-1.746.177-2.372-.506-.746-1.277-.047-1.902.267zm-20.357-45.17a.496.496 0 01-.237.073c-.151 0-.257-.16-.322-.3-.343-.752-.145-1.725-.659-2.365a8.204 8.204 0 00-1.277 2.172l-2.015-.626a3.058 3.058 0 00.382 2.332 3.033 3.033 0 00-.948.666 1.05 1.05 0 00-.243 1.072c.462.119.939.168 1.415.147a9.803 9.803 0 00.152 2.665.51.51 0 00.177.346c.145.094.336 0 .487-.086a4.794 4.794 0 001.66-1.772l.743 1.805a.826.826 0 00.336.453.521.521 0 00.626-.22c.125-.201.201-.43.224-.666l.276-1.719a.473.473 0 01.099-.246.45.45 0 01.296-.087h2.127c.125-.38-.251-.74-.619-.9-.369-.16-.79-.28-.975-.666-.368-.726.586-1.738.185-2.365-.494-.752-1.264-.026-1.89.287z"/><path opacity=".2" d="M226.174 82.088a.208.208 0 01-.125 0c-.079 0-.139-.08-.172-.153-.177-.4-.072-.92-.355-1.259a4.43 4.43 0 00-.659 1.153l-1.073-.333a1.644 1.644 0 00.204 1.239 1.569 1.569 0 00-.5.346.562.562 0 00-.132.573c.246.06.498.087.751.08-.041.475-.012.953.086 1.419.006.07.039.134.092.18.072.053.177 0 .256-.047.372-.228.677-.552.883-.94l.395.96a.41.41 0 00.178.24.292.292 0 00.335-.113c.063-.113.103-.238.119-.367l.145-.912a.24.24 0 01.052-.134.25.25 0 01.158-.046h1.126c.066-.207-.132-.393-.322-.48-.191-.087-.428-.146-.521-.34-.197-.386.31-.926.093-1.259-.218-.333-.679.027-1.014.193zM198.522 98.27a.208.208 0 01-.125 0c-.079 0-.138-.079-.171-.152-.178-.4-.072-.92-.356-1.26a4.399 4.399 0 00-.658 1.153l-1.073-.333a1.644 1.644 0 00.204 1.24c-.187.08-.357.198-.5.346a.553.553 0 00-.146.267.557.557 0 00.014.305c.245.061.498.086.751.074-.041.477-.012.957.085 1.426a.284.284 0 00.086.179.259.259 0 00.263-.046c.372-.228.676-.552.882-.94l.395.96c.03.098.093.183.178.24a.303.303 0 00.336-.114.873.873 0 00.112-.366l.151-.913a.24.24 0 01.053-.133.214.214 0 01.158-.047h1.126c.066-.206-.132-.393-.323-.48-.191-.086-.428-.153-.52-.34-.198-.385.309-.925.092-1.258-.217-.333-.685 0-1.014.193z"/><path opacity=".5" d="M171.8 41.696a.308.308 0 01-.125.04.214.214 0 01-.109-.055.226.226 0 01-.063-.105c-.184-.4-.079-.92-.362-1.253a4.318 4.318 0 00-.658 1.153l-1.067-.333a1.623 1.623 0 00.198 1.239c-.188.08-.358.198-.501.346a.57.57 0 00-.131.573c.247.061.502.086.757.073-.04.475-.013.953.079 1.42a.262.262 0 00.092.186c.079.047.178 0 .257-.047a2.47 2.47 0 00.882-.946l.395.96a.434.434 0 00.178.246.286.286 0 00.336-.12.863.863 0 00.118-.366l.145-.913a.179.179 0 01.211-.173h1.132c.059-.2-.138-.393-.329-.473-.191-.08-.421-.153-.52-.34-.198-.386.309-.926.098-1.259-.21-.333-.717-.02-1.013.147zm14.207 31.864a.275.275 0 01-.125.04c-.079 0-.138-.086-.171-.16-.185-.399-.079-.918-.356-1.252a4.176 4.176 0 00-.658 1.153l-1.067-.333a1.627 1.627 0 00.204 1.239 1.56 1.56 0 00-.506.346.564.564 0 00-.132.567c.247.063.502.09.757.08-.04.474-.013.952.079 1.419a.253.253 0 00.092.18c.079.053.184 0 .263-.04a2.5 2.5 0 00.876-.946l.402.959a.39.39 0 00.177.24.267.267 0 00.33-.114.806.806 0 00.118-.366l.152-.913a.208.208 0 01.046-.126.222.222 0 01.158-.047h1.132c.066-.2-.138-.393-.329-.48-.191-.086-.422-.146-.52-.34-.191-.386.316-.919.099-1.252-.218-.333-.692-.02-1.021.147zm-10.336-12.418a.208.208 0 01-.125 0c-.08 0-.139-.08-.172-.153-.184-.4-.079-.92-.355-1.259-.278.347-.5.736-.659 1.153l-1.066-.334a1.61 1.61 0 00.204 1.24c-.189.083-.36.2-.507.346a.574.574 0 00-.132.573c.248.062.503.086.758.073-.04.477-.014.957.079 1.426a.196.196 0 00.031.122.197.197 0 00.222.084.195.195 0 00.102-.073c.368-.23.67-.554.876-.939l.401.96c.03.098.093.183.178.24a.28.28 0 00.329-.12.835.835 0 00.119-.36l.151-.92a.168.168 0 01.127-.174.163.163 0 01.077 0h1.133c.065-.199-.139-.386-.33-.472-.191-.087-.421-.153-.52-.34-.197-.386.316-.926.099-1.26-.217-.332-.691.008-1.02.188zm44.4 2.925a.223.223 0 01-.125.034c-.086 0-.139-.08-.172-.154-.184-.4-.079-.92-.362-1.259a4.399 4.399 0 00-.658 1.153l-1.067-.333a1.606 1.606 0 00.198 1.239c-.187.083-.356.2-.501.346a.57.57 0 00-.131.573c.247.062.502.086.757.073-.04.477-.013.957.079 1.426.006.07.039.135.092.18a.248.248 0 00.257-.047c.37-.23.674-.553.882-.939l.395.96c.03.098.093.183.178.24a.286.286 0 00.336-.12.834.834 0 00.118-.36l.145-.92a.237.237 0 01.053-.127.214.214 0 01.158-.046h1.132c.059-.2-.138-.386-.329-.473-.191-.087-.422-.153-.52-.34-.198-.386.309-.926.098-1.26-.21-.332-.684-.012-1.013.154z"/><path opacity=".2" d="M198.522 61.629a.208.208 0 01-.125 0c-.079 0-.138-.08-.171-.153-.178-.4-.072-.92-.356-1.26a4.399 4.399 0 00-.658 1.153l-1.073-.333a1.644 1.644 0 00.204 1.239c-.187.082-.357.2-.5.346a.553.553 0 00-.146.268.557.557 0 00.014.305c.246.06.498.087.751.08-.041.475-.012.953.085 1.42a.286.286 0 00.086.18c.079.053.184 0 .263-.047a2.45 2.45 0 00.882-.94l.395.96c.028.1.091.185.178.24a.3.3 0 00.336-.114.876.876 0 00.112-.366l.151-.913a.241.241 0 01.053-.133.25.25 0 01.158-.047h1.126c.066-.206-.132-.393-.323-.48-.191-.086-.428-.146-.52-.34-.198-.386.309-.925.092-1.258-.217-.334-.685.02-1.014.193z"/><path opacity=".3" d="M191.768 64.594a.256.256 0 01-.132.04c-.079 0-.132-.08-.171-.154-.178-.4-.073-.92-.356-1.259a4.398 4.398 0 00-.658 1.153l-1.073-.334a1.626 1.626 0 00.204 1.24 1.63 1.63 0 00-.5.346.564.564 0 00-.132.573c.245.06.498.085.75.073-.037.477-.008.957.086 1.426.006.07.039.135.092.18a.25.25 0 00.257-.047c.37-.23.674-.553.882-.94l.395.96a.44.44 0 00.178.24c.061.02.127.02.188-.001a.291.291 0 00.148-.119.933.933 0 00.118-.36l.145-.919a.179.179 0 01.211-.173h1.132c.059-.2-.138-.387-.329-.473-.191-.087-.422-.153-.52-.34-.198-.386.309-.926.092-1.26-.217-.332-.678-.012-1.007.148z"/><path opacity=".2" d="M185.461 46.586a.275.275 0 01-.126.04c-.079 0-.138-.087-.171-.16-.178-.4-.072-.92-.355-1.253a4.216 4.216 0 00-.659 1.153l-1.073-.34a1.644 1.644 0 00.204 1.24 1.688 1.688 0 00-.5.346.575.575 0 00-.132.573c.246.06.498.086.751.08-.041.474-.012.952.085 1.419a.279.279 0 00.086.18c.079.053.184 0 .263-.04a2.52 2.52 0 00.883-.947l.395.96c.027.1.09.185.177.24a.28.28 0 00.336-.114.876.876 0 00.112-.366l.151-.913a.248.248 0 01.053-.133.215.215 0 01.158-.04h1.126c.066-.207-.132-.393-.323-.48-.191-.086-.428-.146-.52-.34-.197-.386.31-.919.092-1.252-.217-.333-.684-.02-1.013.147z"/><path opacity=".3" d="M197.877 70.09a.22.22 0 01-.125.033c-.085 0-.138-.08-.171-.153-.184-.4-.079-.92-.362-1.26-.278.35-.5.741-.658 1.16l-1.067-.34a1.623 1.623 0 00.197 1.24 1.732 1.732 0 00-.5.346.562.562 0 00-.132.573 2.9 2.9 0 00.758.08c-.04.474-.013.952.079 1.419.006.07.039.134.092.18.079.053.177 0 .257-.04.37-.233.674-.559.882-.946l.395.959c.027.1.091.185.177.24a.295.295 0 00.336-.114.881.881 0 00.119-.366l.145-.913a.292.292 0 01.052-.133.25.25 0 01.158-.047h1.133c.065-.206-.139-.393-.33-.48-.19-.086-.421-.146-.52-.339-.197-.386.316-.926.099-1.26-.217-.332-.685-.006-1.014.16z"/></g></g><defs><linearGradient id="paint0_linear" x1="155.778" y1="286.227" x2="155.778" y2="52.871" gradientUnits="userSpaceOnUse"><stop stop-color="gray" stop-opacity=".25"/><stop offset=".54" stop-color="gray" stop-opacity=".12"/><stop offset="1" stop-color="gray" stop-opacity=".1"/></linearGradient><clipPath id="clip0"><path fill="#fff" d="M.759.62H292v291.241H.759z"/></clipPath></defs></svg>