<svg width="300" height="300" fill="none" xmlns="http://www.w3.org/2000/svg"><g clip-path="url(#clip0)"><path opacity=".1" d="M24.052 89.248c6.867 16.572-1.893 35.654-12.205 50.023-3.451 4.818-7.261 9.87-7.74 15.914-.577 7.393 4.11 14.188 9.668 18.631 10.14 8.096 23.987 10.599 36.055 6.513 10.428-3.529 19.195-11.501 29.715-14.714 17.59-5.383 36.237 3.54 51.302 14.658 10.664 7.859 22.084 17.436 34.939 15.752 9.046-1.184 16.722-7.968 21.933-15.955 2.515-3.856 4.704-8.179 8.366-10.78 2.178-1.548 4.735-2.367 7.293-2.954 23.358-5.333 48.147 7.683 71.195.989 15.568-4.511 27.98-17.665 35.699-32.801 7.719-15.136 11.321-32.226 14.322-49.158 2.132-12.028 3.902-25.021-.999-36.083-5.186-11.711-17.19-18.811-29.254-20.142-12.064-1.33-24.163 2.342-35.277 7.521-13.886 6.488-27.498 15.568-42.654 15.598-10.323.023-20.167-4.21-30.035-7.438-16.501-5.394-33.659-8.073-50.757-10.547-16.371-2.367-32.903-4.57-49.371-3.172-11.653.989-21.943 5.747-33.25 7.95-7.371 1.435-14.777.376-22.01 2.781-8.909 2.977-18.07 9.874-18.563 20.736-.464 10.34 7.987 17.887 11.628 26.678zM154.463 293.88c83.098 0 150.463-6.912 150.463-15.44 0-8.527-67.365-15.44-150.463-15.44S4 269.913 4 278.44c0 8.528 67.365 15.44 150.463 15.44z" fill="#9E63FF"/><path opacity=".6" d="M199.577 86.425L79.772 23.041 30.277 129.812l119.806 63.384 49.494-106.77z" fill="#CFCCE0"/><path opacity=".6" d="M194.3 68.384L74.494 5 25 111.771l119.805 63.384L194.3 68.385z" fill="#006D8F"/><path opacity=".6" d="M142.958 92.888l-.285-.53-32.748 20.111V92.031l30.1-17.406-.271-.538-29.829 17.25V71.434l17.148-17.04-.39-.447-16.758 16.652V47.097h-.572v23.527L91.066 53.423l-.378.459 18.665 17.557v19.894L77.87 72.857l-.276.536 31.759 18.637v20.432L74.675 95.466l-.239.556 34.917 17.112v23.468h.572v-23.428l33.033-20.286z" fill="#CFCCE0"/><path opacity=".6" d="M115.179 138.84h-.006l-.02-.079-.3-1.244c.232-.052.463-.113.689-.177-3.452-1.109-6.867-.819-9.678-.125h-.006c-.715.174-1.387.379-2.014.593.364.067.727.131 1.096.183l-.174.77h-.023l-1.431 5.717 4.408-.019 8.812-.039-1.353-5.58z" fill="#3F3D56"/><path opacity=".6" d="M182.152 144.691H47.598V24.777h134.554V144.69zm-133.85-.751h133.147V25.528H48.301V143.94z" fill="#3F3D56"/><path opacity=".6" d="M188.665 28.514c0 .21-.006.418-.023.623a8.987 8.987 0 01-1.026 3.607 8.376 8.376 0 01-2.378 2.785 7.725 7.725 0 01-3.267 1.424 7.513 7.513 0 01-3.523-.216 7.866 7.866 0 01-3.094-1.812 8.555 8.555 0 01-2.065-3.057 9.075 9.075 0 01.286-7.348c.172-.352.369-.69.589-1.011.958-1.42 2.3-2.49 3.845-3.07a7.519 7.519 0 014.797-.167c1.578.47 2.982 1.445 4.025 2.794a8.883 8.883 0 011.805 4.75c.02.23.029.462.029.698z" fill="#CFCCE0"/><path opacity=".6" d="M191.216 24.4c0 .212-.006.42-.023.624a8.987 8.987 0 01-1.026 3.607 8.385 8.385 0 01-2.377 2.786 7.734 7.734 0 01-3.268 1.423 7.513 7.513 0 01-3.523-.215 7.865 7.865 0 01-3.094-1.812 8.555 8.555 0 01-2.065-3.058 9.092 9.092 0 01.286-7.348c.172-.352.369-.69.589-1.011.958-1.419 2.3-2.49 3.845-3.069a7.52 7.52 0 014.797-.168c1.578.47 2.982 1.445 4.025 2.794a8.883 8.883 0 011.805 4.751c.02.23.029.462.029.697z" fill="#006D8F"/><path opacity=".6" d="M191.216 24.4c0 .212-.006.42-.023.624l-11.989-1.54 11.983.22c.02.23.029.462.029.697zm-2.86 4.312l-11.091 1.427a8.501 8.501 0 01-.847-1.207l11.938-.22zm-3.146-9.472l-9.084 1.167c.172-.352.369-.69.589-1.011l8.495-.156zm-25.829 130.575c2.844 0 5.149-2.462 5.149-5.499 0-3.038-2.305-5.5-5.149-5.5-2.843 0-5.148 2.462-5.148 5.5 0 3.037 2.305 5.499 5.148 5.499zM114.957 31.263c2.843 0 5.148-2.462 5.148-5.5 0-3.037-2.305-5.5-5.148-5.5-2.843 0-5.148 2.463-5.148 5.5 0 3.038 2.305 5.5 5.148 5.5zM48.032 68.524c2.843 0 5.148-2.463 5.148-5.5 0-3.038-2.305-5.5-5.148-5.5-2.844 0-5.148 2.462-5.148 5.5 0 3.037 2.304 5.5 5.148 5.5z" fill="#3F3D56"/><path d="M19.282 55.134c-7.654-1.125-12.263-2.177-12.363-2.2l.18-.727c.223.052 22.648 5.166 51.216 4.883 26.336-.26 63.434-5.294 90.609-27.79l.255-.21.307.187c.291.177 29.437 17.869 64.405 32.73 20.523 8.723 39.003 14.778 54.929 17.997 19.849 4.012 35.74 3.602 47.238-1.217l.433.68c-11.682 4.896-27.776 5.322-47.828 1.269-15.997-3.234-34.547-9.31-55.137-18.062-33.102-14.07-60.994-30.669-64.217-32.607-12.047 9.903-26.987 17.273-44.41 21.907-14.027 3.73-29.686 5.705-46.541 5.87a255.7 255.7 0 01-39.076-2.71z" fill="#2F2E41"/><path d="M8.009 53.151l17.097 2.864-12.069 13.637-5.028-16.5zm205.857 9.687l16.244 6.374-14.328 10.858-1.916-17.232zM46.487 57.436l2.355 12.14 10.456-11.825-12.811-.315zm24.708-.184L84.879 67.99l.444-12.375-14.128 1.636zm86.421-22.802l5.701 17.086 6.859-9.983-12.56-7.103zM276.242 81.9l6.102 12.376 4.581-11.287-10.683-1.089zM101.158 52.924l8.24 13.536 3.678-17.034-11.918 3.498zm25.683-8.942l10.549 11.564.504-17.472-11.053 5.908zm59.814 5.986l-1.478 16.47 13.73-10.511-12.252-5.959zm71.612 28.384l-10.422 13.646-1.34-17.298 11.762 3.652z" fill="#9E63FF"/><path d="M157.541 104.692v-.139c0-.045 0-.098-.021-.143h-.057v-.312c-.14-3.484-4.651-10.9-6.459-8.735-1.583 1.902.806 6.713 2.023 8.878l.109.196-.06-.042s-5.034 16.042-5.629 16.666c-.595.624-4.739 13.237-10.203 14.658-1.08.274-1.977.522-2.73.752l.06-.214c.352-1.23.784-2.391.96-3.759.176-1.368 0-3.026-.647-3.691-.317-.331-.704-.376-.964-.902a4.392 4.392 0 01-.267-1.447l-.465-6.081.324-.106c1.956-.669 3.852-2.255 4.074-4.39a1.892 1.892 0 01-.208.072c.026-.124.046-.25.06-.376-1.643.692-3.166-1.128-4.749-1.943-2.607-1.365-5.587-.079-8.279.233-3.05.357-5.945-.996-9.063-.752-1.695.139-3.581 1.368-3.49 3.154.053.98.704 1.811.971 2.751.676 2.274-.826 4.555-2.142 6.495-.866 1.274-1.696 2.826-1.844 4.322-3.029-3.383-6.304-7.292-6.684-8.761l-8.764-16.042s-.208.237-.542.587a16.494 16.494 0 00-.186-.579c-1.12-3.349-4.286-11.464-8.3-9.975-4.014 1.488 1.664 9.806 4.134 13.121l.352.458a1.039 1.039 0 01-.626-.03l9.773 17.91s1.777 3.427 3.406 4.36c0 0 12.141 16.353 12.289 19.623.148 3.27 5.46 11.994 5.46 11.994s1.777 14.173-1.333 16.665h.513c-.147.154-.299.323-.453.507-2.305 2.729-5.25 8.577-1.225 18.523 5.921 14.658 6.811 20.401 6.811 20.401s-11.258.624-13.474 1.09c-1.963.413-9.594.703-11.34.752-.622-.775-2.462-2.488-4.946 0-3.11 3.116-5.33 13.531-5.33 13.531s-1.186 8.411 2.814 6.227c0 0 4.74-7.009 6.07-7.321.66-.154 1.36-1.195 1.896-2.199l.028.019c.031 0 .162-.075.373-.165.985-.418 3.697-1.421 5.836-.921 1.172.274 6.196.338 11.463.323-1.189 3.044-3.321 10.9-3.321 10.9s-.891 7.325 2.065 7.024c2.111-.221 5.347-5.983 7.036-9.272 1.224-.958 4.732-4.394 7.325-4.134l17.471-7.164s4.145-2.492 1.925-10.746c-1.759-6.562-6.766-19.995-8.743-25.231l-.06-.135c-.478-1.267-.767-2.019-.767-2.019a32.665 32.665 0 01-1.586-7.408c-.018-.199-.032-.402-.046-.601.245-.11.475-.253.686-.425 0 0-1.629-17.598 0-19.469l.028-.034v-.023l.028-.037.064-.087.077-.105c.088-.124.193-.278.313-.466.932-1.458 2.67-4.788 2.171-8.72a11.227 11.227 0 00-1.091-3.567 9.02 9.02 0 01-.13-1.206v-1.068a3.8 3.8 0 01.053-.541v-.068c0-.067.01-.136.031-.206v-.087c0-.067.029-.135.043-.203v-.071c.021-.09.042-.181.07-.271v-.045a4.09 4.09 0 01.07-.222l.032-.086.07-.18.036-.091a5.09 5.09 0 01.091-.203l.025-.056a4.42 4.42 0 01.133-.244l.039-.064.116-.177.056-.079.124-.158.056-.067c.063-.072.127-.143.197-.211 1.924-1.879 10.512-15.729 10.512-15.729s2.073-3.116 2.073-5.138c.116-.045 3.778-13.088 3.409-17.053zm-23.055 116.422a285.915 285.915 0 01-.616-7.518l3.35 5.578s-.317 1.699-2.734 1.94z" fill="url(#paint0_linear)"/><path d="M99.564 219.933s-2.005-3.382-5.017-.304c-3.011 3.078-5.157 13.317-5.157 13.317s-1.147 8.268 2.723 6.122c0 0 4.573-6.889 5.875-7.194 1.302-.304 2.723-4.134 2.723-4.134l-1.147-7.807zm21.493 8.265s-2.723-1.379-3.582-.304c-.858 1.075-3.725 11.787-3.725 11.787s-.859 7.043 2.005 6.735c2.864-.308 7.881-11.336 7.881-11.336l-2.579-6.882z" fill="#493545"/><path opacity=".05" d="M121.057 228.198s-2.723-1.379-3.582-.304c-.858 1.075-3.725 11.787-3.725 11.787s-.859 7.043 2.005 6.735c2.864-.308 7.881-11.336 7.881-11.336l-2.579-6.882z" fill="#000"/><path d="M130.514 207.38l6.16 10.257s-.429 2.296-4.155 1.838l-12.753 8.573s-1.109 10.438 2.434 9.49c.574-.154 4.574-4.593 7.452-4.284l16.912-7.044s4.011-2.45 1.861-10.561c-2.15-8.111-9.256-26.919-9.256-26.919l-11.234 6.713 2.579 11.937z" fill="#2F2E41"/><path opacity=".05" d="M130.514 207.38l6.16 10.257s-.429 2.296-4.155 1.838l-12.753 8.573s-1.109 10.438 2.434 9.49c.574-.154 4.574-4.593 7.452-4.284l16.912-7.044s4.011-2.45 1.861-10.561c-2.15-8.111-9.256-26.919-9.256-26.919l-11.234 6.713 2.579 11.937z" fill="#2F2E41"/><path d="M134.384 222.534c.858 5.818-4.011 6.277-4.011 6.277s-21.925.459-24.504-.154c-2.579-.613-6.02 1.071-6.02 1.071-4.443-2.909-.858-10.103-.858-10.103s9.172-.304 11.321-.752c2.15-.447 13.039-1.082 13.039-1.082s-.859-5.664-6.593-20.052c-3.895-9.772-1.056-15.523 1.185-18.203a9.674 9.674 0 011.967-1.849l17.626.917c-.019.95.014 1.9.099 2.845a31.945 31.945 0 002.339 9.397c-1.002 0-7.451 6.431-7.451 6.431s.999 19.443 1.861 25.257z" fill="#2F2E41"/><path opacity=".1" d="M100.278 220.238s9.172-.305 11.322-.752c2.15-.447 13.038-1.071 13.038-1.071s-.858-5.664-6.593-20.052c-3.894-9.772-1.055-15.523 1.186-18.203a9.674 9.674 0 011.967-1.849l16.331.849v-.545l-17.626-.917a9.651 9.651 0 00-1.967 1.85c-2.23 2.683-5.08 8.43-1.185 18.202 5.748 14.377 6.6 20.041 6.6 20.041s-10.907.613-13.039 1.071c-2.132.459-11.321.752-11.321.752s-3.582 7.197.858 10.118c0 0 .134-.068.352-.165-2.952-3.244.077-9.329.077-9.329z" fill="#000"/><path d="M126.5 121.5h-8.884v24.033h8.884V121.5z" fill="#493545"/><path opacity=".1" d="M126.5 121.5h-8.884v24.033h8.884V121.5z" fill="#000"/><path d="M131.58 117.975c.306.09.651.101.858.552.129.361.199.742.208 1.128l.559 7.427c.008.486.096.967.261 1.421.235.503.626.563.932.887.616.654.795 2.292.626 3.627-.169 1.334-.594 2.477-.929 3.683-.478 1.729-.795 3.672-1.467 5.13-.672 1.459-1.892 2.256-2.681 1.03-.788-1.225-.682-3.698-.83-5.724-.246-3.383-1.481-6.299-1.565-9.705-.071-2.755.622-5.325 1.055-7.938.31-1.793.327-3.969.778-5.581.376 1.917 1.094 3.74 2.195 4.063z" fill="#493545"/><path opacity=".1" d="M131.58 117.975c.306.09.651.101.858.552.129.361.199.742.208 1.128l.559 7.427c.008.486.096.967.261 1.421.235.503.626.563.932.887.616.654.795 2.292.626 3.627-.169 1.334-.594 2.477-.929 3.683-.478 1.729-.795 3.672-1.467 5.13-.672 1.459-1.892 2.256-2.681 1.03-.788-1.225-.682-3.698-.83-5.724-.246-3.383-1.481-6.299-1.565-9.705-.071-2.755.622-5.325 1.055-7.938.31-1.793.327-3.969.778-5.581.376 1.917 1.094 3.74 2.195 4.063z" fill="#000"/><path d="M93.974 107.417l-3.438 3.063s-.408-.511-1.016-1.338c-2.39-3.258-7.881-11.433-4-12.895 3.88-1.462 6.948 6.51 8.032 9.802.274.834.422 1.368.422 1.368zm62.047-1.071c-1.432 2.296-3.438 0-3.438 0s-.256-.41-.619-1.071c-1.178-2.131-3.49-6.856-1.959-8.728 1.759-2.138 6.118 5.161 6.251 8.585.042.421-.041.845-.235 1.214zm-35.252 24.799s2.867 9.798 2.005 12.704c-.862 2.905 6.164 6.288 6.164 6.288h8.025s2.867-6.277 2.149-8.115c-.717-1.838-6.878-3.213-6.878-3.213s-3.581 0-3.437-10.257l-8.028 2.593z" fill="#C77485"/><path opacity=".1" d="M93.974 107.417l-3.438 3.063s-.408-.511-1.016-1.338c1.249-.237 3.187-2.183 4.035-3.093.271.834.419 1.368.419 1.368zm62.047-1.071c-1.432 2.296-3.437 0-3.437 0s-.257-.41-.62-1.071l.046-.154c.929.71 3.817.105 4.247 0a2.16 2.16 0 01-.236 1.225zm-18.393 75.1c-4.433 2.161-18.837-1.688-19.702-1.917a9.667 9.667 0 011.966-1.849l17.627.917c-.016.951.02 1.902.109 2.849z" fill="#000"/><path d="M122.633 139.564s-3.437 1.225-8.31-3.522c0 0-10.906-11.482-11.61-14.237l-8.444-15.786s-3.581 4.134-5.017 3.522l9.457 17.605s1.721 3.382 3.297 4.285c0 0 11.751 16.075 11.891 19.288.141 3.214 5.295 11.821 5.295 11.821s1.721 13.929-1.291 16.38c0 0 16.764 4.593 20.346 1.53 0 0-1.576-17.29 0-19.135 0 0 4.873-6.123 1.576-12.858 0 0-.704-3.672 1.147-5.51 1.851-1.838 10.175-15.463 10.175-15.463s2.005-3.063 2.005-5.051c0 0 3.726-13.471 3.166-16.993 0 0-3.296.752-4.299 0 0 0-4.873 15.786-5.446 16.38-.573.594-4.574 13.012-9.886 14.391-5.313 1.38-6.161 1.989-6.161 1.989s10.316 6.889 5.302 9.949c-5.013 3.059-13.193-8.585-13.193-8.585z" fill="#DADADA"/><path opacity=".1" d="M129.145 133.501a31.26 31.26 0 01-.207-4.348l-8.025 2.601c.211.571.379 1.159.503 1.759.918.432 2.156 1.454 3.222 1.454a6.978 6.978 0 004.507-1.466z" fill="#000"/><path d="M124.494 134.513c4.116 0 7.452-3.565 7.452-7.961 0-4.397-3.336-7.961-7.452-7.961-4.115 0-7.451 3.564-7.451 7.961 0 4.396 3.336 7.961 7.451 7.961z" fill="#C77485"/><path opacity=".1" d="M115.628 114.288c-1.639.135-3.469 1.345-3.377 3.101.049.966.668 1.781.939 2.706.651 2.236-.798 4.48-2.072 6.389-1.274 1.91-2.463 4.439-1.372 6.461.311.487.647.955 1.006 1.402 1.348 1.943 1.33 4.567 1.928 6.901.764 2.986 2.569 5.546 5.045 7.154 2.476 1.608 5.435 2.141 8.268 1.491-1.067-1.455-1.598-3.275-1.495-5.12.081-1.338.485-2.736 0-3.972-.627-1.59-2.463-2.218-3.409-3.609-.947-1.39-.884-3.318-.426-4.976.457-1.657 1.249-3.195 1.629-4.886.094-.493.211-.981.352-1.462.661-2.007 2.638-3.172 4.573-3.672 1.935-.5 3.969-.53 5.858-1.188 1.889-.658 3.726-2.199 3.944-4.315-1.59.681-3.064-1.093-4.598-1.909-2.526-1.338-5.408-.079-8.011.229-2.966.353-5.781-.958-8.782-.725z" fill="#000"/><path d="M115.484 113.983c-1.64.136-3.469 1.346-3.377 3.101.049.966.668 1.782.939 2.706.651 2.237-.799 4.481-2.072 6.39-1.274 1.909-2.463 4.439-1.372 6.461.31.487.646.955 1.006 1.402 1.347 1.943 1.33 4.566 1.928 6.9.764 2.987 2.569 5.547 5.045 7.154 2.476 1.608 5.435 2.142 8.268 1.491-1.067-1.454-1.599-3.275-1.496-5.119.081-1.338.486-2.736 0-3.973-.626-1.59-2.462-2.217-3.409-3.608-.946-1.391-.883-3.319-.425-4.976.457-1.658 1.248-3.195 1.628-4.886.094-.494.212-.982.352-1.463.662-2.007 2.639-3.172 4.574-3.672s3.968-.53 5.858-1.187c1.889-.658 3.725-2.199 3.944-4.315-1.591.68-3.065-1.094-4.599-1.91-2.526-1.338-5.407-.078-8.011.23-2.958.349-5.762-.977-8.781-.726z" fill="#493545"/><path opacity=".1" d="M131.875 144.236s2.984 2.845 3.571 4.101l-3.571-4.101zm6.456 16.992s-3.725 0-5.446.459c-1.72.458-5.875 0-5.875 0" fill="#000"/><path opacity=".1" d="M135.816 148.137a3.423 3.423 0 01-1.031.421 3.715 3.715 0 002.751-.421c5.017-3.063-5.302-9.949-5.302-9.949h-1.72s10.319 6.89 5.302 9.949zm20.525-42.43c0-.098-.021-.192-.035-.278-.59.13-1.185.227-1.784.289a7.381 7.381 0 001.819-.011zm-36.716 73.202c3.008-2.451 1.291-16.38 1.291-16.38s-5.158-8.573-5.302-11.787c-.144-3.214-11.891-19.289-11.891-19.289-1.576-.917-3.297-4.285-3.297-4.285s-9.745-16.992-11.177-17.605l9.457 17.605s1.72 3.383 3.296 4.285c0 0 11.751 16.075 11.892 19.289.141 3.214 5.298 11.798 5.298 11.798s1.721 13.929-1.291 16.38c0 0 10.305 2.823 16.483 2.567-6.192-.233-14.759-2.578-14.759-2.578zm3.092-39.225l-.084-.116a2.062 2.062 0 01-.299.071c.134.019.26.034.383.045z" fill="#000"/><path opacity=".1" d="M156.306 105.41l-.088.019c-.151 4.702-3.205 15.748-3.205 15.748 0 1.988-2.006 5.052-2.006 5.052s-8.31 13.624-10.174 15.462c-1.865 1.838-1.147 5.51-1.147 5.51l.017.038c-.056-1.237.085-3.153 1.271-4.326 1.861-1.838 10.174-15.463 10.174-15.463s2.006-3.063 2.006-5.051c0 .022 3.725-13.448 3.152-16.989zm-18.196 54.668c.214 1.301.07-.075.144 1.226 0 0 3.518-4.409 2.558-9.859.288 4.871-2.702 8.633-2.702 8.633z" fill="#000"/><path d="M156.923 174.944s-2.29 10.524-.327 10.524 5.889-4.912 5.889-4.912v-2.806l-5.562-2.806z" fill="#A0616A"/><path d="M161.782 165.547l-5.981 9.772h4.319l1.662-9.772z" fill="#FAFAFA"/><path d="M166.004 251.242h-7.74v6.766h7.74v-6.766zm17.591-1.214l1.583 7.98 7.916-2.082-1.9-6.939-7.599 1.041z" fill="#A0616A"/><path d="M158.802 177.381s-2.621 1.4-2.949 7.702c-.327 6.302.983 22.757.983 22.757s-1.31 7.353 0 14.005c1.311 6.652-1.31 30.81.328 30.81 1.638 0 10.158 1.05 10.485 0 .328-1.05.656-16.806.656-16.806s2.621-8.052 0-12.954c0 0 5.897 5.252 5.897 6.652 0 1.401 6.226 23.108 9.175 23.458 2.949.35 11.141-.35 9.502-3.501-1.638-3.151-5.57-17.506-5.57-17.506s-2.949-10.503-8.192-15.055l2.622-22.407s5.57-15.055 2.293-17.155c-3.276-2.101-25.23 0-25.23 0z" fill="#2F2E41"/><path d="M168.642 120.444c4.761 0 8.62-4.122 8.62-9.208s-3.859-9.209-8.62-9.209c-4.76 0-8.619 4.123-8.619 9.209 0 5.086 3.859 9.208 8.619 9.208z" fill="#A0616A"/><path d="M164.245 116.859s3.337 11.449 2.336 12.837c-1.001 1.387 10.681-7.633 10.681-7.633s-4.339-3.122-2.67-7.632l-10.347 2.428z" fill="#A0616A"/><path d="M178.202 121.196s-3.921 1.397-5.881 3.841c-1.961 2.444-6.535 2.793-6.535 2.793s-4.043 2.433-5.554 6.633c-1.61 4.477-.674 10.779 0 12.22 1.307 2.793 1.307 9.776 1.307 9.776l-1.634 16.06s-5.881 5.935-1.307 6.634c4.574.698 12.742-.349 17.643 0s10.455 1.047 8.822-2.444c-1.634-3.492-3.594-5.936-1.634-12.918 1.534-5.464 1.468-25.894 1.366-34.522a7.307 7.307 0 00-.864-3.373 6.74 6.74 0 00-2.293-2.496l-3.436-2.204z" fill="#FAFAFA"/><path d="M165.305 174.568s-1.506 3.594-1.655 5.74c-1.158 16.683 7.279 0 7.279 0v-2.87l-5.624-2.87z" fill="#A0616A"/><path d="M188.34 255.189s-4.867-3.905-4.867-1.775-5.516 10.649-5.516 10.649-9.085 7.1-1.622 7.1c7.463 0 10.707-1.42 10.707-1.42l7.788-5.68s1.947-2.485 1.298-5.324c-.649-2.84-2.921-6.745-2.921-6.745s-2.595 3.905-4.867 3.195zm-28.771 1.298s-.658-3.496-2.963-1.748c-2.304 1.748-8.559 6.992-8.559 6.992s-11.523 2.797-4.28 6.293c7.243 3.497 23.703-1.398 23.703-1.398s.659-11.188 0-10.838c-.658.349-7.572 1.398-7.901.699z" fill="#2F2E41"/><path opacity=".1" d="M173.454 132.096l.993 21.421-9.625 20.675-1.633-.659 9.934-19.314.331-22.123z" fill="#000"/><path d="M181.165 125.483l2.482-.528s7.447 5.812 5.13 17.438c-2.317 11.625-12.576 29.24-12.576 29.24s-2.316 3.17-2.978 3.875c-.662.705-1.986 0-1.324 1.057.662 1.057-.993 1.761-.993 1.761s-7.281 0-6.619-2.818c.662-2.818 11.914-22.899 11.914-22.899l-1.655-18.671s-1.323-9.159 6.619-8.455z" fill="#FAFAFA"/><path opacity=".1" d="M184.298 158.218v-2.443l-11.258 19.544 11.258-17.101z" fill="#000"/><path d="M162.725 102.829l-1.394-.599s2.915-3.442 6.972-3.142l-1.141-1.347s2.788-1.197 5.324 1.945c1.332 1.652 2.874 3.594 3.836 5.781h1.493l-.623 1.472 2.181 1.471-2.239-.264a8.71 8.71 0 01-.212 3.81l.06 1.163s-2.595-4.305-2.595-4.903v1.496s-1.394-1.347-1.394-2.245l-.761 1.048-.38-1.646-4.69 1.646.76-1.347-2.915.449 1.141-1.646s-3.296 1.945-3.423 3.591c-.127 1.646-1.774 3.741-1.774 3.741l-.761-1.496s-1.141-6.734 2.535-8.978z" fill="#2F2E41"/><path d="M230.387 171.678l3.892 14.881s-.802 13.18 2.942 10.601c3.83-2.638 2.406-13.753 2.406-13.753l-2.244-13.35-6.996 1.621z" fill="#FFB9B9"/><path d="M232.382 130.217l3.191 3.42v16.299s1.877 3.018 1.502 3.823c-.375.805-.751.805-.375 1.408.375.604.75 1.006.375 1.409-.375.402-.375 1.408 0 1.811.375.402 1.126 1.006.563 1.61-.563.603-1.314.201-.563 2.414.751 2.214 2.065 2.817 1.689 3.622-.375.805-.375 2.817-.375 2.817l-8.072 1.207-1.689-22.737 3.754-17.103z" fill="#006D8F"/><path d="M238.83 168.93l-9.499.392.38 4.118 8.36-1.568.759-2.942z" fill="#3F3D56"/><path d="M212.856 109.169l-1.116 12.092 11.344 1.814.837-6.953.837-6.953h-11.902z" fill="#FFB9B9"/><path opacity=".1" d="M212.856 109.169l-1.116 12.092 11.344 1.814.837-6.953.837-6.953h-11.902z" fill="#000"/><path d="M187.816 166.675l6.428 14.732s1.134 6.862 2.835 7.063c1.702.202 3.403-7.063 3.403-7.063l-2.269-3.834-2.646-10.898h-7.751z" fill="#FFB9B9"/><path d="M201.386 179.981l-5.283 8.865s-5.095 84.421-4.34 83.817c.755-.605 3.208-.806 4.151-2.418.944-1.612 6.793 0 6.793 0l3.397-3.828v-3.022c0-.605 6.793-46.744 6.793-46.744v11.686s-2.076 42.916 1.321 42.513c3.396-.403 10.378-2.821 10.378-2.821s10.001-80.19 6.982-83.213c-3.019-3.022-4.34-9.872-4.34-9.872l-25.852 5.037z" fill="#2F2E41"/><path d="M219.129 113.303c5.051 0 9.147-4.375 9.147-9.772s-4.096-9.772-9.147-9.772c-5.052 0-9.148 4.375-9.148 9.772s4.096 9.772 9.148 9.772z" fill="#FFB9B9"/><path d="M198.898 123.129l-1.309-.805s-5.797 4.227-7.667 13.687c-1.87 9.461-3.179 11.876-3.179 11.876s-1.87.403-.561 1.812c1.309 1.409 1.309 1.208.187 2.013-1.122.805-1.869-.805-1.122.805.748 1.61 1.683 1.208.935 2.214-.748 1.007-2.056 1.007-1.309 1.812.748.805-.747 2.616.187 3.422.935.805 1.309 1.006 1.309 2.415-.005.822.121 1.64.374 2.415h9.724s-1.87-3.824-1.309-4.629c.561-.805.748-1.61.374-2.013-.374-.403-1.496.403-.374-.604 1.122-1.006 1.496-.402 1.122-1.61-.374-1.208-1.122-.604-.374-1.208.748-.604 1.309-.402.935-1.006-.374-.604-1.122-.604-.374-1.007.748-.402 1.309 0 1.122-1.006-.187-1.007-.374-.604 0-1.007.374-.402 4.3-14.09 4.3-14.492 0-.403-2.991-13.084-2.991-13.084z" fill="#006D8F"/><path d="M196.964 164.044l-11.61.827 2.949 3.101 8.108.206.553-4.134zm3.505 15.034l-2.45 4.902s7.351 1.022 9.989 2.043c2.639 1.021 9.424 2.451 9.424 2.451l1.696-7.149-18.659-2.247zm21.474 2.509l2.111 6.512 8.444-1.776-.96-6.117-9.595 1.381z" fill="#3F3D56"/><path d="M225.456 116.305s-.567-.402-1.89.403c-1.324.805-5.671 1.207-7.751-1.208-2.079-2.415-3.592-4.427-4.159-4.025-.567.403-.945 5.032-.945 5.032l-1.89 1.609-11.154 4.226.946 27.168 1.701 6.238s-1.323 4.83.378 7.648c1.701 2.817-.945 3.823-.945 3.823s-.567.805-.189 2.817c.378 2.013-.378 9.459-.378 9.459s16.068 7.647 32.892 1.006l-1.89-7.647-.945-17.106s.945-2.817.756-4.024c-.189-1.208 5.671-18.112 5.671-18.112s-.945-8.452-5.86-10.263-5.671-3.623-5.671-3.623 2.268-2.616 1.323-3.421z" fill="#006D8F"/><path d="M209.945 104.7s-.949-1.495-.584-3.104a9.895 9.895 0 00.256-2.798s.766-2.607 1.532-4.063c.767-1.457.402-2.07 2.811-2.53 2.409-.46 1.423-3.756 7.774-.191.214.314.512.554.856.69.345.137.72.163 1.078.076 1.314-.268 1.788 1.648 1.788 1.648s.876-.536 1.205.23c.328.767 2.67-.46 2.67 4.715 0 5.174-2.665 9.796-2.665 9.796s.196-8.704-4.148-9.585c-4.343-.882-9.014-3.45-10.146-.154a25.681 25.681 0 01-2.427 5.27z" fill="#2F2E41"/><path d="M226.693 106.914c.485 0 .879-.589.879-1.316 0-.726-.394-1.315-.879-1.315-.486 0-.88.589-.88 1.315 0 .727.394 1.316.88 1.316z" fill="#FFB9B9"/><path d="M221.957 267.404l1.332 4.23s0 4.23 1.332 6.346c1.333 2.115 2.665 6.697-2.664 7.05-5.33.352-7.662-1.763-7.662-1.763s1-2.82 0-3.877c-.999-1.058 0-3.173 0-3.173l1-8.46 6.662-.353zm-25.824 0l-1.293 4.23s0 4.23-1.293 6.346c-1.293 2.115-2.587 6.697 2.586 7.05 5.173.352 7.436-1.763 7.436-1.763s-.97-2.82 0-3.877c.97-1.058 0-3.173 0-3.173l-.97-8.46-6.466-.353z" fill="#2F2E41"/><path d="M17.465 251.156l-.281 9.858h4.503l3.94-3.883-2.251-7.768-5.91 1.793zm16.255 8.355V276.8l9.147-1.49-.572-15.799h-8.576z" fill="#A0616A"/><path d="M11.906 184.473l2.244 35.092s-1.122 4.164-.28 5.353c.84 1.19.84 1.19.28 2.379-.561 1.19-1.683 1.487-.841 2.38.44.435.817.936 1.121 1.487l2.804 22.899s-1.682 4.758 7.851-2.379l.561-19.331s-1.122-3.866 0-4.461c1.122-.595 1.682-.595 1.402-1.784-.28-1.19 0-1.19 0-2.082 0-.892.56-1.189.56-2.082 0-.892-.56-2.974-.56-2.974l3.926-19.33 3.084 21.71s-1.402 4.758 0 6.542l-1.122 33.903s7.852 4.164 11.216 0l2.243-27.063s.842-5.055.561-6.84c-.28-1.784-1.121-1.487-.56-2.676.56-1.19.56-4.759.56-4.759L49.2 199.64l-.28-30.334H13.31l-1.402 15.167z" fill="#2F2E41"/><path d="M21.896 258.098l-5.004-1.787s-5.282 10.719-5.839 11.017c-.556.298-4.726 8.635 1.112 8.337 5.839-.298 10.565-8.337 10.565-8.337s6.116-7.444 5.282-9.826c-.834-2.382-3.29-4.005-3.29-4.005s-.88 6.387-2.826 4.601zm12.992 15.535s-1.114-3.649-1.67-3.041c-.557.608-3.898 10.643-1.392 10.947 2.505.304 11.135 2.129 12.248 3.345 1.114 1.216 12.249.608 11.413-3.345-.835-3.953-7.516-6.082-7.516-6.082l-5.504-6.55s-6.187.773-5.63 2.597c0 0 0 2.433-1.95 2.129z" fill="#2F2E41"/><path d="M37.062 114.055c4.954 0 8.97-4.207 8.97-9.397s-4.016-9.396-8.97-9.396c-4.955 0-8.972 4.207-8.972 9.396 0 5.19 4.017 9.397 8.972 9.397z" fill="#A0616A"/><path d="M30.64 109.169s-.282 9.529-2.827 11.912c-2.544 2.382 6.786 10.125 14.702 5.36 0 0-3.676-8.338 0-15.188l-11.874-2.084z" fill="#A0616A"/><path d="M42.878 123.416h-1.504s-9.216 3.348-12.614-3.723l-5.068.125-8.62 53.674s11.957-1.499 15.294 0c3.336 1.5 19.185-2.698 19.185-2.698l-6.673-47.378z" fill="#FAFAFA"/><path d="M26.507 159.909c.486 0 .88-.336.88-.752 0-.415-.394-.751-.88-.751s-.88.336-.88.751c0 .416.394.752.88.752zm-2.639 11.652c.389 0 .704-.421.704-.94 0-.519-.315-.939-.704-.939-.388 0-.703.42-.703.939 0 .519.315.94.703.94z" stroke="#3F3D56" stroke-miterlimit="10"/><path d="M30.637 95.564l-1.495-.627s3.127-3.605 7.478-3.292l-1.223-1.41s2.991-1.255 5.71 2.037c1.43 1.73 3.084 3.765 4.115 6.056h1.602l-.668 1.542 2.34 1.541-2.402-.276a8.917 8.917 0 01-.227 3.992l.064 1.218s-2.784-4.51-2.784-5.137v1.567s-1.495-1.41-1.495-2.351l-.816 1.097-.408-1.724-5.031 1.724.815-1.411-3.127.471 1.224-1.725s-3.536 2.038-3.672 3.763c-.136 1.724-1.903 3.919-1.903 3.919l-.816-1.568s-1.224-7.054 2.72-9.406z" fill="#2F2E41"/><path d="M29.895 115.934l-5.129 2.925-10.275 1.188s2.777 36.535-1.944 41.287c0 0-16.106 19.901-10.275 23.168 5.832 3.268 16.385 9.802 19.717 4.753 3.332-5.05 10.814-65.553 7.906-73.321zm10.895 4.134s12.692 6.845 12.97 7.44c.28.595-4.182 26.485-4.182 26.485s1.673 38.388-.558 38.983c-2.23.595-5.018-30.056-5.018-30.056s-3.636-40.768-3.212-42.852z" fill="#3F3D56"/><path d="M3.539 182.671s-2.442 16.421 4.34 15.541c6.782-.879 1.085-16.127 1.085-16.127l-5.425.586zm49.631-12.847s-5.815-3.357-7.923.844c-2.108 4.201 8.76 11.026 10.989 3.607 0 0-.836-5.045-3.065-4.451z" fill="#A0616A"/><path d="M51.54 127.21h2.26s.847.298 1.412 3.875 3.108 24.444 3.108 24.444 2.26 2.384 1.695 3.577c-.565 1.192-1.13.596-.848 1.788.167.683.262 1.382.283 2.087l-4.52 16.097s2.542-8.049-3.39-9.539c0 0-1.13-1.491-.566-2.087.565-.596.283-.894.283-1.192 0-.298-.283-.298 0-1.491.175-.781.27-1.581.282-2.384 0 0-1.13-.597-.847-1.193.282-.596 0-5.663 0-5.663l-3.955-7.453 4.802-20.866zm-35.494-6.248l-1.414-.894s-5.09 2.978-6.503 14.592c-1.414 11.614-4.808 23.228-4.808 23.228L1.704 184.34l7.838-.842 4.242-28.885 4.807-14.592-2.545-19.059z" fill="#3F3D56"/><path d="M95.624 132.313c-3.691-6.648-10.994-6.957-10.994-6.957s-7.115-.97-11.68 9.154c-4.255 9.436-10.127 18.548-.945 20.757l1.658-5.502 1.027 5.911c1.307.1 2.619.124 3.928.072 9.833-.339 19.197.099 18.895-3.662-.4-4.999 1.662-13.377-1.89-19.773z" fill="#2F2E41"/><path d="M76.543 195.015l-2.926-2.932-5.995-8.119-4.35 2.153 7.062 9.575 3.06 4.262.009.023s4.995 6.315 8.42 3.609c3.427-2.707-5.28-8.571-5.28-8.571zm24.967-10.034l-2.933-2.896-3.29 3.564 3.067 4.209.009.024s5.006 6.237 8.439 3.564c3.432-2.673-5.292-8.465-5.292-8.465z" fill="#FFB9B9"/><path d="M95.59 177.95l4.975 4.854-3.179 1.912-4.56-5.883 2.764-.883zm.05-23.414s1.846-1.821 2.637 4.097c.79 5.917-1.319 8.042-1.319 8.042l-1.318-12.139z" fill="#CFCCE0"/><path d="M84.03 148.258c4.08 0 7.388-3.618 7.388-8.081 0-4.463-3.308-8.081-7.388-8.081s-7.389 3.618-7.389 8.081c0 4.463 3.308 8.081 7.389 8.081z" fill="#FFB9B9"/><path d="M79.354 144.875s-.987 5.131-4.936 5.734c-3.95.604-10.155 2.717-9.309 6.791.847 4.075 24.54 3.622 24.54 3.622l4.231-6.942s-8.744-2.414-7.897-7.847l-6.629-1.358z" fill="#FFB9B9"/><path d="M91.017 152.826s-5.569 4.437-18.678 4.136c0 0-7.409 1.274-6.312-2.822 0 0-.877-1.389-1.723 2.973-.846 4.362-7.19 19.253-6.626 19.854l2.115 2.257 4.652 9.626 4.934-3.008-1.692-3.911s3.242 2.858 4.793-1.354c0 0 1.268 4.062 3.947 4.212 2.678.15 20.017-5.114 20.017-5.114s-.987-4.212 0-6.017c.986-1.805 2.537-5.415 1.832-8.122l-1.268-10.83s-5.287-2.331-5.991-1.88z" fill="#9E63FF"/><path d="M76.756 184.413l.492 4.283s-4.497 3.607-3.794 16.531l-14.052 62.667s2.67 3.757 9.696 3.457c7.026-.301 20.656-60.113 20.656-60.113s-3.794 58.61.843 60.113c4.637 1.503 11.241.751 11.241.751l4.356-78.447s-4.356-7.814-6.885-9.317c-2.53-1.503-3.513-5.26-3.513-5.26l-19.04 5.335z" fill="#2F2E41"/><path d="M59.926 267.028l-.691 5.644s-6.362 15.1-.553 14.642c5.808-.457 5.947-9.762 5.947-9.762l1.106-7.931-5.809-2.593zm36.949 0l.691 5.644s6.362 15.1.553 14.642c-5.808-.457-5.947-9.762-5.947-9.762l-1.106-7.931 5.809-2.593zm-2.982-135.066l-7.13-4.001-9.844 1.637-2.037 9.639 5.07-.209 1.417-3.541v3.483l2.34-.097 1.358-5.638.848 6.002 8.317-.182-.339-7.093zm193.552-6.563h-20.406v27.062h20.406v-27.062z" fill="#2F2E41"/><path d="M296.468 195.684s6.79 10.563 3.395 13.204c-3.395 2.64-6.789-11.553-6.789-11.553l3.394-1.651z" fill="#FFB8B8"/><path d="M297.648 197.145l-5.147 2.298-7.871-25.601.133-1.166 2.894-25.092s2.038-.2 3.07 1.283c.328.489.523 1.068.563 1.671.303 3.282-1.211 21.334-1.211 21.334s.303 1.97.606 2.626c.302.656.908.328.605 1.313-.303.985-.908.985-.605 1.313.239.299.442.63.605.984l6.358 19.037z" fill="#CFCCE0"/><path d="M253.533 208.839l-8.906 22.381s-5.221 11.849-7.985 26.989l-3.378 10.203 5.835 1.316 1.536-2.633 1.228-6.253s10.134-16.457 10.749-24.685l16.89-24.685-15.969-2.633zm23.3 2.308v24.392s-1.837 14.833-1.225 21.756v13.185h4.593s0-5.604.918-7.582c.919-1.977 6.124-22.414 4.593-29.666l4.899-24.393-13.778 2.308zm.233-73.72c4.566 0 8.268-4.039 8.268-9.021 0-4.982-3.702-9.02-8.268-9.02-4.566 0-8.268 4.038-8.268 9.02 0 4.982 3.702 9.021 8.268 9.021z" fill="#FFB8B8"/><path d="M270.881 131.413s.312 10.098-.625 11.401c-.938 1.303 11.56 3.257 11.56 3.257s-4.062-8.469-1.25-11.401l-9.685-3.257z" fill="#FFB8B8"/><path opacity=".1" d="M286.622 165.948s-.303 2.99.608 4.318c.911 1.329-1.063 2.491-1.063 2.491-.623-.113-.274-.003-1.537-.016l2.903-25.393s.635-.67 1.671.831c.018 2.461-1.367 8.801-1.367 8.801 2.126 5.979-1.215 8.968-1.215 8.968z" fill="#000"/><path d="M280.86 140.516s-9.933-2.639-10.554-2.309c-.621.33-.931 3.959-.931 3.959s-10.244-.99-9.312 2.639c.931 3.63 5.277 28.704 5.277 28.704s17.693-1.32 21.418-.66c.175-.429.238-.9.184-1.365a2.709 2.709 0 00-.494-1.274c-.931-1.32-.621-4.289-.621-4.289s3.415-2.97 1.242-8.908c0 0 4.035-8.248 2.483-9.238-1.552-.99-7.45-2.97-7.45-2.97s0-4.618-1.242-4.289z" fill="#CFCCE0"/><path d="M265.808 172.613l-5.241 20.662s-13.564 14.43-8.632 16.725c4.933 2.296 24.046 6.231 27.437 3.608 3.391-2.624 1.233-3.28 5.549-2.624 4.316.656 12.023 0 12.023-2.623 0-2.624-10.79-36.731-10.79-36.731l-20.346.983zm-27.731 93.96s-4.063-1.956-5.001-.652c-.937 1.304-10.001 17.278-5.001 18.256 5.001.978 10.002-1.63 10.627-4.564s4.376-8.15 4.376-8.15 4.05-4.911-1.413-9.628c0 0-1.088 4.738-3.588 4.738zm35.476 3.163s4.028-4.246 7.126 0c0 0 4.646 15.348-2.479 15.021-7.125-.326-6.196-3.265-6.196-3.265l1.549-11.756z" fill="#2F2E41"/><path d="M251.363 194.933s-5.503 13.202-1.529 13.524c3.974.322 4.891-12.236 4.891-12.236l-3.362-1.288z" fill="#FFB8B8"/><path d="M262.806 142.313s-4.422.494-4.726 3.131c-.305 2.637-2.44 22.741-2.44 22.741l-5.488 27.685 5.793 1.318s3.964-17.468 6.098-20.105l1.83-18.126-1.067-16.644z" fill="#CFCCE0"/><path d="M278.413 114.277s-7.996-.526-9.841 4.757c-1.845 5.283-5.074 8.057-5.074 8.057s-5.086 3.757-2.543 10.464c0 0-7.912 5.651-2.684 10.67 0 0-.308 5.019 2.767 8.454 0 0 2.46 1.32 1.538 2.113-.923.792 6.15.264 5.535-6.869-.615-7.132 3.537-12.157 3.537-12.157s-3.998-9.247-2.153-12.417c1.12-1.925 1.601-3.36 2.531-4.191.518-.452.998-.95 1.436-1.489a3.308 3.308 0 011.612-1.176 3.126 3.126 0 011.955-.006c2.768.792 3.383 3.17 3.383 3.17s1.999 5.68 5.381 8.321c3.383 2.642-2.614 7.265-2.614 7.265s1.043 5.443 3.75 8.666c2.708 3.222-.78 6.031-.982 6.392-.461.824-2.303 6.03 5.306 6.053 0 0 1.767-3.94 4.227-6.317 2.46-2.378.615-9.246.615-9.246s3.69-2.378-.308-8.19c0 0 1.23-5.283-2.152-8.717 0 0-4.767-15.456-15.222-13.607z" fill="#2F2E41"/><path d="M269.502 128.03c.389 0 .704-.589.704-1.315 0-.727-.315-1.316-.704-1.316-.389 0-.704.589-.704 1.316 0 .726.315 1.315.704 1.315z" fill="#FFB8B8"/></g><defs><linearGradient id="paint0_linear" x1="63685.2" y1="92190.3" x2="63685.2" y2="29926.4" gradientUnits="userSpaceOnUse"><stop stop-color="gray" stop-opacity=".25"/><stop offset=".54" stop-color="gray" stop-opacity=".12"/><stop offset="1" stop-color="gray" stop-opacity=".1"/></linearGradient><clipPath id="clip0"><path fill="#fff" d="M0 0h300v300H0z"/></clipPath></defs></svg>