<svg width="292" height="292" viewBox="0 0 292 292" fill="none" xmlns="http://www.w3.org/2000/svg">
<g clip-path="url(#clip0)">
<path opacity="0.1" d="M176.276 202.756C181.894 202.241 188.864 196.103 194.284 193.395C200.698 190.187 207.138 187.105 213.603 184.148C236.103 173.846 258.848 165.062 281.84 157.799C283.985 157.122 286.134 156.459 288.286 155.81C284.932 144.152 279.739 134.112 273.222 126.691C273.389 124.14 273.474 121.576 273.477 119.011C273.477 78.4481 253.336 45.5647 228.484 45.5647C220.832 45.5521 213.309 48.7293 206.648 54.787C189.057 36.1625 166.098 24.8904 140.978 24.8904C105.284 24.8904 73.9486 47.6555 56.1928 81.9259L139.656 104.617L190.837 118.528C132.491 121.331 73.9639 124.117 15.7854 117.538C8.1056 129.499 3.24479 145.381 2.03375 162.471C0.822698 179.56 3.33658 196.797 9.14577 211.234C9.14577 212.703 9.1839 214.155 9.25253 215.599C10.7345 216.287 12.1656 216.945 13.4494 217.383C34.0581 224.388 54.799 230.252 75.6721 234.977C60.2905 250.242 41.5586 252.398 23.8156 258.863C32.4075 270.278 44.0752 277.299 56.9325 277.299H248.367C269.097 277.299 285.899 254.068 285.899 225.411C289.01 217.156 291.083 207.997 292 198.456C253.642 204.401 214.805 199.225 176.276 202.756Z" fill="#9E63FF"/>
<path opacity="0.1" d="M297.864 186.039C297.885 174.228 296.103 162.583 292.668 152.086C289.232 141.588 284.245 132.546 278.126 125.723C278.296 123.171 278.382 120.608 278.386 118.043C278.386 77.4766 257.807 44.5978 232.419 44.5978C224.6 44.5808 216.913 47.7567 210.105 53.8158C192.136 35.1916 168.678 23.9197 143.014 23.9197C101.256 23.9197 65.3369 53.7626 49.4016 96.5631C48.516 96.4813 47.6252 96.4363 46.7267 96.4363C21.3434 96.4363 0.759372 129.315 0.759372 169.878C0.741131 184.205 3.36872 198.232 8.3219 210.248C8.3219 246.743 30.1862 276.328 57.1459 276.328H252.738C273.914 276.328 291.08 253.101 291.08 224.445C295.533 212.864 297.879 199.578 297.864 186.039Z" fill="#9E63FF"/>
<path d="M274.396 276.801C284.211 276.801 292.168 275.44 292.168 273.76C292.168 272.081 284.211 270.72 274.396 270.72C264.581 270.72 256.624 272.081 256.624 273.76C256.624 275.44 264.581 276.801 274.396 276.801Z" fill="#9E63FF"/>
<path d="M281.746 268.779C282.557 268.11 283.148 267.207 283.439 266.19C283.66 265.166 283.227 263.932 282.254 263.556C281.167 263.136 280.005 263.901 279.125 264.67C278.246 265.439 277.233 266.315 276.084 266.154C276.676 265.61 277.119 264.92 277.37 264.152C277.621 263.383 277.672 262.562 277.516 261.768C277.466 261.439 277.328 261.13 277.118 260.873C276.513 260.221 275.421 260.498 274.696 261.012C272.398 262.649 271.757 265.806 271.744 268.649C271.514 267.625 271.709 266.557 271.704 265.519C271.7 264.482 271.413 263.284 270.533 262.734C269.991 262.438 269.381 262.293 268.765 262.313C267.735 262.273 266.582 262.376 265.879 263.141C264.995 264.093 265.229 265.685 265.99 266.718C266.75 267.751 267.912 268.421 268.982 269.141C269.837 269.657 270.567 270.362 271.116 271.203C271.183 271.32 271.236 271.445 271.276 271.574H277.755C279.204 270.829 280.546 269.889 281.746 268.779Z" fill="#9E63FF"/>
<path d="M230.11 238.209C239.925 238.209 247.882 236.847 247.882 235.168C247.882 233.489 239.925 232.127 230.11 232.127C220.295 232.127 212.338 233.489 212.338 235.168C212.338 236.847 220.295 238.209 230.11 238.209Z" fill="#9E63FF"/>
<path d="M237.46 230.196C238.272 229.527 238.862 228.624 239.153 227.607C239.374 226.578 238.941 225.349 237.969 224.973C236.881 224.553 235.719 225.313 234.839 226.086C233.96 226.86 232.948 227.732 231.799 227.571C232.391 227.027 232.834 226.337 233.085 225.568C233.336 224.799 233.386 223.978 233.231 223.184C233.181 222.855 233.044 222.546 232.833 222.29C232.227 221.637 231.136 221.914 230.411 222.429C228.113 224.065 227.472 227.222 227.458 230.066C227.229 229.042 227.423 227.973 227.419 226.936C227.414 225.899 227.127 224.7 226.247 224.15C225.705 223.855 225.095 223.71 224.48 223.73C223.45 223.69 222.296 223.792 221.593 224.557C220.709 225.509 220.944 227.101 221.704 228.134C222.464 229.167 223.626 229.833 224.696 230.558C225.552 231.074 226.281 231.779 226.831 232.619C226.897 232.737 226.95 232.861 226.99 232.99H233.469C234.917 232.244 236.26 231.304 237.46 230.196Z" fill="#9E63FF"/>
<path d="M56.9435 282.878C66.7586 282.878 74.7154 281.517 74.7154 279.837C74.7154 278.158 66.7586 276.797 56.9435 276.797C47.1284 276.797 39.1716 278.158 39.1716 279.837C39.1716 281.517 47.1284 282.878 56.9435 282.878Z" fill="#9E63FF"/>
<path d="M64.2934 274.865C65.1048 274.196 65.6953 273.293 65.9861 272.276C66.2071 271.252 65.774 270.018 64.8016 269.642C63.7144 269.222 62.552 269.986 61.6724 270.755C60.7929 271.525 59.7808 272.405 58.6316 272.24C59.2238 271.696 59.6669 271.006 59.9178 270.237C60.1687 269.469 60.2189 268.647 60.0636 267.853C60.0134 267.524 59.8759 267.215 59.6659 266.959C59.0604 266.306 57.9687 266.584 57.2438 267.098C54.9456 268.734 54.3047 271.896 54.2914 274.735C54.0616 273.711 54.2561 272.642 54.2517 271.605C54.2472 270.568 53.9599 269.369 53.0804 268.819C52.538 268.524 51.9281 268.379 51.3125 268.399C50.2827 268.359 49.1291 268.466 48.4264 269.231C47.5424 270.179 47.7767 271.77 48.5369 272.808C49.2971 273.845 50.4595 274.511 51.5291 275.231C52.3847 275.748 53.1144 276.452 53.6638 277.293C53.73 277.41 53.7834 277.535 53.8229 277.664H60.3023C61.7514 276.917 63.094 275.976 64.2934 274.865Z" fill="#9E63FF"/>
<path d="M225.664 272.973C225.666 272.933 225.666 272.893 225.664 272.853C225.691 272.282 225.584 271.713 225.35 271.194C224.634 269.727 222.91 269.486 221.447 269.231C219.038 268.813 216.729 267.934 214.645 266.642C213.262 265.788 211.843 264.531 211.671 262.765C211.671 262.403 211.697 262.041 211.671 261.71C211.671 261.468 211.671 261.231 211.671 261.003C211.671 260.06 211.618 259.192 210.924 259.022C206.778 257.985 203.193 254.412 201.766 249.882C201.461 248.917 201.249 247.911 200.855 246.985C199.605 244.052 196.82 242.46 194.716 240.242C191.95 237.322 190.345 233.262 189.183 229.188C188.02 225.115 187.216 220.898 185.691 216.976C183.15 210.435 180.856 203.468 176.547 198.241C175.897 197.449 175.181 196.64 174.425 195.822C170.593 190.161 167.99 183.467 164.671 177.359C164.037 176.107 163.265 174.932 162.368 173.858C161.219 172.57 159.796 171.649 158.47 170.598C152.083 165.554 147.999 157.63 142.497 151.401C141.538 150.315 140.044 148.786 139.337 147.475C139.333 146.711 139.398 145.948 139.531 145.195C139.885 143.339 140.835 141.578 140.671 139.686C140.614 139.318 140.583 138.946 140.579 138.573C140.624 138.143 140.737 137.723 140.915 137.33C141.199 136.477 141.576 135.658 142.037 134.888C142.838 133.643 143.365 132.239 143.584 130.77C144.685 129.715 145.162 127.783 146.536 127.295C147.301 127.027 148.304 127.211 148.746 126.446C148.874 126.184 148.945 125.897 148.954 125.605C149.093 124.095 148.966 122.572 148.578 121.107C148.69 120.333 148.719 119.549 148.667 118.768C148.516 116.822 147.967 114.93 147.054 113.21C146.492 112.128 145.728 111.046 144.636 110.796C144.397 110.742 144.154 110.728 143.924 110.657C142.519 110.241 142.033 108.046 140.764 107.366C142.395 108.26 144.061 109.271 145.595 108.52C147.522 107.567 147.681 104.598 147.535 102.228L147.023 93.4505C146.749 88.979 146.404 84.2347 144.128 80.5501C142.077 77.2233 138.718 75.2245 135.288 73.977C132.972 73.1319 130.426 72.5908 128.133 73.4538C128.27 73.3554 128.402 73.2571 128.535 73.1676C128.253 73.2527 127.976 73.3573 127.708 73.4806C126.505 74.0992 125.388 74.8749 124.385 75.7879C124.941 74.3644 125.226 72.8472 125.224 71.3164C125.237 69.0261 124.596 66.7807 123.377 64.8506L125.967 62.6461L125.361 61.649L126.502 60.549C126.43 60.4315 126.33 60.3345 126.211 60.2671C126.092 60.1998 125.958 60.1645 125.821 60.1644C125.768 60.16 125.715 60.16 125.662 60.1644C125.703 59.8359 125.676 59.5025 125.582 59.1852L125.503 59.2612C125.434 58.9878 125.327 58.7258 125.185 58.4831H125.277C125.223 58.3827 125.162 58.2856 125.096 58.1925C125.096 58.2372 125.096 58.2864 125.096 58.3311C124.723 57.7755 124.267 57.2822 123.744 56.8689C121.764 55.2234 119.496 53.8596 117.043 53.6762C115.85 53.5868 114.652 53.7791 113.459 53.6762C111.85 53.5645 110.29 52.9474 108.677 52.8803C107.064 52.8132 105.247 53.4795 104.58 55.1161C104.292 55.8315 104.253 56.6364 104.036 57.3742C103.554 59.0197 102.268 60.16 101.176 61.3762C100.085 62.5925 99.0727 64.2246 99.3732 65.9238C99.4929 66.4642 99.6801 66.9871 99.9301 67.4798L105.53 79.7139C105.553 80.6091 105.526 81.5048 105.45 82.3969C105.415 82.7814 105.366 83.1704 105.305 83.5639C105.278 83.7294 105.247 83.8993 105.207 84.0692C104.546 84.1819 103.947 84.531 103.519 85.053C103.359 85.2566 103.258 85.5012 103.227 85.7595C103.259 86.1694 103.33 86.5752 103.439 86.9712C103.448 87.499 103.325 88.0204 103.081 88.4871C102.52 89.8062 101.923 91.1476 100.969 92.1358C100.58 92.5428 100.138 92.8826 99.7445 93.285C99.2958 93.7681 98.8864 94.287 98.5202 94.8367C97.7025 95.9993 96.8584 97.2155 96.5578 98.6643C96.0628 101.034 95.0639 103.288 94.3479 105.6C94.246 105.786 94.1196 105.957 93.9722 106.109C93.5303 106.53 92.9645 106.709 92.5314 107.12C91.5591 108.05 91.6475 109.749 91.8861 111.167C92.7436 116.434 94.2463 121.563 94.8429 126.875C95.0816 128.959 95.1788 131.078 95.6385 133.113C95.808 133.992 96.1297 134.833 96.5888 135.599C96.5225 137.598 96.7258 139.623 96.023 141.466C95.6959 142.297 95.2407 143.058 94.8429 143.854C94.2923 145 93.8039 146.177 93.38 147.377L90.9801 153.771C90.5381 154.983 90.0696 156.204 89.7248 157.465C88.7304 161.136 88.726 165.066 88.8674 168.89C88.8855 169.008 88.8603 169.129 88.7967 169.229C88.726 169.319 88.558 169.292 88.5536 169.171C88.5227 169.395 88.3989 169.775 88.3724 169.994C89.442 170.522 90.6442 170.352 91.8375 170.222C91.8375 170.338 91.8375 170.459 91.8375 170.575C91.8354 170.604 91.8354 170.632 91.8375 170.66C91.8483 171.025 91.8852 171.388 91.948 171.747C91.948 171.747 91.948 171.747 91.948 171.774C91.9789 171.957 92.0187 172.136 92.0585 172.315C92.0585 172.364 92.0585 172.409 92.0938 172.458C92.1336 172.619 92.1778 172.784 92.2264 172.941C92.253 173.026 92.2751 173.102 92.3016 173.182C92.3281 173.263 92.3679 173.379 92.4032 173.473C92.4386 173.567 92.443 173.594 92.4651 173.652C92.7568 174.421 93.106 175.163 93.4375 175.914C94.0068 177.076 94.3873 178.324 94.5645 179.608C94.591 179.903 94.5999 180.198 94.6131 180.502V180.811C94.6219 181.129 94.6484 181.447 94.6927 181.763C94.7722 182.273 94.9225 182.76 95.0418 183.261C95.1126 183.556 95.1656 183.86 95.2186 184.155C95.2717 184.451 95.3203 184.84 95.3645 185.179C95.6974 187.707 95.9435 190.241 96.1026 192.781C96.1424 193.394 96.1777 194.011 96.2086 194.623C96.4164 199.095 96.3633 203.566 96.3103 208.065C96.281 209.532 96.1331 210.995 95.8683 212.438C95.1302 216.672 93.6054 220.786 92.5977 224.989C92.4916 225.437 92.3944 225.884 92.3016 226.331C92.0773 227.279 91.9295 228.243 91.8596 229.215C91.8529 230.511 91.9683 231.805 92.2043 233.078C92.4224 234.626 92.5903 236.18 92.7082 237.742C91.8933 239.197 91.3622 240.797 91.1436 242.455C90.6088 247.432 86.441 251.166 85.8752 256.143C85.8376 256.459 85.8243 256.777 85.8355 257.095C85.8222 257.3 85.8222 257.507 85.8355 257.712C85.7764 258.24 85.8215 258.775 85.968 259.286C86.1776 259.821 86.5289 260.288 86.9835 260.634C87.4382 260.98 87.9784 261.193 88.5448 261.249C89.6276 261.388 90.7105 261.11 91.7889 260.927C92.2751 260.842 92.7612 260.789 93.2474 260.739C93.2607 260.909 93.2607 261.079 93.2474 261.249C93.0186 261.665 92.8235 262.098 92.664 262.546C92.3915 263.07 92.2218 263.642 92.1646 264.232C92.1455 264.927 92.3185 265.615 92.664 266.217C93.7513 268.225 95.9214 269.168 97.9986 269.347C100.076 269.526 102.14 269.065 104.217 268.954H104.571C104.642 269.151 104.73 269.343 104.832 269.526C105.914 271.534 108.089 272.477 110.162 272.656C112.235 272.835 114.308 272.379 116.385 272.267C117.004 272.236 117.627 272.236 118.246 272.191C119.516 272.094 120.772 271.861 121.994 271.498C122.873 272.763 123.882 273.93 125.003 274.981C128.645 278.111 133.679 277.932 138.232 277.32C142.784 276.707 147.915 275.571 152.066 277.767C155.248 277.414 157.144 282.525 160.339 282.654C161.807 282.712 163.124 281.671 164.185 280.526C164.549 280.046 165.018 279.657 165.555 279.39C165.999 279.257 166.469 279.241 166.92 279.345C169.396 279.799 171.621 281.158 173.17 283.164C173.974 284.184 174.796 285.467 176.003 285.494C177.086 285.494 178.045 284.461 179.119 284.599C179.848 284.698 180.445 285.328 181.077 285.717C183.057 286.902 185.497 285.807 187.397 284.501C189.298 283.195 191.331 281.617 193.558 281.854C195.004 282.006 196.29 282.918 197.638 283.513C201.792 285.346 206.888 283.96 209.867 280.222C210.34 279.623 210.826 278.929 211.525 278.773C211.991 278.715 212.465 278.786 212.895 278.979C215.392 279.819 218.017 280.593 220.572 280.021C223.127 279.448 225.557 277.11 225.61 274.167C225.614 273.988 225.607 273.809 225.588 273.631C225.588 273.519 225.61 273.403 225.61 273.286C225.635 273.183 225.652 273.079 225.664 272.973ZM125.335 104.969C125.157 105.44 124.851 105.849 124.451 106.15C124.416 105.957 124.38 105.765 124.34 105.568C124.181 104.737 124 103.909 123.806 103.087C124.395 103.469 125.025 103.784 125.684 104.026C125.556 104.339 125.45 104.674 125.322 104.969H125.335ZM118.856 84.7847C118.856 84.816 118.856 84.8473 118.856 84.8786C118.856 86.4525 119.395 87.3513 120.181 87.8655C119.304 89.5881 118.849 91.4991 118.856 93.4371C118.555 93.2001 118.232 92.9899 117.972 92.7261C117.487 92.2221 117.094 91.6365 116.809 90.9956C116.936 91.0175 117.066 90.9971 117.18 90.9375C117.406 90.781 117.397 90.4143 117.366 90.1192C117.067 87.3116 117.442 84.4725 118.458 81.8424C118.974 81.6583 119.473 81.4263 119.947 81.1493C119.29 82.2285 118.917 83.4601 118.864 84.7265C118.864 84.7265 118.842 84.7623 118.842 84.7847H118.856ZM140.486 107.227C140.257 108.094 140.131 108.986 140.11 109.883C139.309 108.641 138.128 107.698 136.747 107.2C136.584 107.151 136.419 107.111 136.252 107.08C136.355 106.976 136.466 106.88 136.583 106.794C137.852 105.899 139.279 106.525 140.738 107.308C140.651 107.275 140.563 107.248 140.473 107.227H140.486Z" fill="url(#paint0_linear)"/>
<path d="M87.9745 269.49C87.9566 270.207 88.1555 270.912 88.5447 271.511C89.7778 273.555 92.2528 274.512 94.6086 274.691C96.9643 274.87 99.3245 274.405 101.68 274.293C102.387 274.261 103.095 274.257 103.797 274.217C107.457 273.993 110.953 272.683 114.405 271.386C114.97 271.176 115.629 270.836 115.66 270.233C115.646 270.024 115.586 269.821 115.485 269.639C115.384 269.456 115.245 269.299 115.077 269.177C114.625 268.778 114.117 268.449 113.569 268.203C111.651 267.348 109.353 267.572 107.532 266.521C107.13 266.289 106.763 266.002 106.343 265.81C105.852 265.61 105.333 265.49 104.805 265.452C102.526 265.19 100.221 265.267 97.9632 265.681C96.2439 265.998 94.5511 266.512 92.8053 266.637C92.1441 266.695 91.478 266.651 90.8297 266.508C90.3877 266.405 89.8264 266.003 89.4065 266.271C88.9866 266.539 88.7524 267.393 88.5535 267.773C88.2439 268.298 88.0466 268.883 87.9745 269.49Z" fill="#3F3D56"/>
<path opacity="0.05" d="M87.9745 269.49C87.9566 270.207 88.1555 270.912 88.5447 271.511C89.7778 273.555 92.2528 274.512 94.6086 274.691C96.9643 274.87 99.3245 274.405 101.68 274.293C102.387 274.261 103.095 274.257 103.797 274.217C107.457 273.993 110.953 272.683 114.405 271.386C114.97 271.176 115.629 270.836 115.66 270.233C115.646 270.024 115.586 269.821 115.485 269.639C115.384 269.456 115.245 269.299 115.077 269.177C114.625 268.778 114.117 268.449 113.569 268.203C111.651 267.348 109.353 267.572 107.532 266.521C107.13 266.289 106.763 266.002 106.343 265.81C105.852 265.61 105.333 265.49 104.805 265.452C102.526 265.19 100.221 265.267 97.9632 265.681C96.2439 265.998 94.5511 266.512 92.8053 266.637C92.1441 266.695 91.478 266.651 90.8297 266.508C90.3877 266.405 89.8264 266.003 89.4065 266.271C88.9866 266.539 88.7524 267.393 88.5535 267.773C88.2439 268.298 88.0466 268.883 87.9745 269.49Z" fill="black"/>
<path d="M101.817 272.844C101.797 273.561 101.996 274.266 102.387 274.865C103.62 276.908 106.091 277.865 108.451 278.044C110.811 278.223 113.167 277.758 115.523 277.646C116.23 277.615 116.933 277.61 117.64 277.57C121.299 277.347 124.795 276.036 128.247 274.74C128.813 274.525 129.471 274.19 129.502 273.581C129.488 273.374 129.428 273.171 129.327 272.99C129.227 272.808 129.087 272.651 128.919 272.531C128.469 272.13 127.961 271.801 127.412 271.556C125.494 270.702 123.195 270.921 121.374 269.87C120.972 269.642 120.605 269.351 120.186 269.164C119.694 268.964 119.175 268.842 118.647 268.801C116.368 268.541 114.063 268.619 111.806 269.034C110.086 269.351 108.394 269.866 106.648 269.986C105.987 270.048 105.32 270.006 104.672 269.861C104.23 269.758 103.669 269.356 103.249 269.624C102.829 269.892 102.59 270.746 102.396 271.127C102.084 271.651 101.887 272.236 101.817 272.844Z" fill="#3F3D56"/>
<path d="M94.5865 105.457C94.4259 105.006 94.1329 104.616 93.7468 104.339C92.8231 103.82 91.7314 104.786 91.3292 105.756C90.927 106.727 90.7944 107.916 90.0033 108.618C89.5215 109.065 88.8585 109.226 88.3635 109.646C87.2586 110.59 87.3691 112.329 87.6299 113.76C88.6066 119.126 90.3171 124.34 90.9977 129.746C91.2673 131.87 91.3778 134.025 91.8817 136.096C92.191 137.321 92.6816 138.564 93.6496 139.36C94.6175 140.156 96.1644 140.348 97.0749 139.481C95.4284 134.965 94.6062 130.185 94.6484 125.373C94.675 122.243 95.0904 119.113 95.1744 115.947C95.2672 113.183 95.1302 110.416 94.9932 107.652C95.0058 106.942 94.8734 106.238 94.6042 105.582C94.4616 105.258 94.227 104.984 93.9304 104.796C93.6337 104.607 93.2883 104.512 92.938 104.522" fill="#FBBEBE"/>
<path d="M114.431 84.4092C120.575 84.4092 125.556 79.3702 125.556 73.1544C125.556 66.9385 120.575 61.8995 114.431 61.8995C108.287 61.8995 103.307 66.9385 103.307 73.1544C103.307 79.3702 108.287 84.4092 114.431 84.4092Z" fill="#CB8C8E"/>
<path d="M129.423 106.99C135.587 106.99 140.583 101.935 140.583 95.6997C140.583 89.464 135.587 84.4091 129.423 84.4091C123.26 84.4091 118.263 89.464 118.263 95.6997C118.263 101.935 123.26 106.99 129.423 106.99Z" fill="#FBBEBE"/>
<path d="M134.016 106.633C134.113 107.527 134.457 108.569 135.302 108.797C135.693 108.844 136.087 108.866 136.482 108.864C136.796 108.923 137.092 109.056 137.344 109.254C137.597 109.451 137.8 109.707 137.936 110C138.202 110.591 138.308 111.244 138.241 111.891C138.168 112.874 137.855 113.824 137.33 114.655C136.336 116.096 134.896 117.162 133.238 117.686C131.591 118.2 129.892 118.516 128.173 118.63C127.41 118.754 126.632 118.73 125.879 118.558C125.405 118.402 124.958 118.172 124.553 117.879C123.295 117.025 122.192 115.957 121.295 114.722C120.636 113.862 120.159 112.874 119.894 111.82C119.64 110.761 119.787 109.644 120.305 108.69C120.465 108.373 120.727 108.122 121.048 107.979C121.994 107.634 122.851 108.819 123.854 108.846C124.65 108.846 125.278 108.157 125.622 107.433C125.967 106.709 126.148 105.89 126.661 105.278C127.258 104.558 128.195 104.24 129.092 103.999C130.568 103.605 132.504 103.011 134.042 103.176C134.886 103.261 134.334 103.771 134.139 104.388C133.944 105.119 133.902 105.884 134.016 106.633Z" fill="#FBBEBE"/>
<path d="M123.496 118.415C124.853 117.798 125.605 116.309 126.816 115.428C127.832 114.69 129.101 114.426 130.263 113.957C131.443 113.481 132.522 112.783 133.445 111.9C134.285 111.1 135.032 110.111 136.097 109.718C136.911 109.456 137.785 109.456 138.599 109.718C140.893 110.362 142.656 112.294 143.681 114.462C144.707 116.631 145.1 119.046 145.485 121.42L146.059 124.997C146.486 127.182 146.692 129.406 146.674 131.633C146.581 133.869 146.006 136.104 144.667 137.893C144.149 138.668 143.72 139.501 143.39 140.375C143.192 140.772 143.065 141.202 143.014 141.645C143.017 142.024 143.051 142.402 143.116 142.776C143.301 144.699 142.232 146.492 141.816 148.379C141.601 149.644 141.536 150.93 141.622 152.211C141.611 152.378 141.645 152.544 141.719 152.694C141.814 152.828 141.944 152.934 142.095 152.998C142.386 153.154 142.687 153.302 142.979 153.445C140.54 153.993 138.047 154.26 135.549 154.241C131.169 154.138 126.895 152.899 122.542 152.385C122.378 150.364 122.926 148.415 123.05 146.393C123.075 145.074 122.994 143.755 122.807 142.45C122.443 138.88 122.477 135.28 122.909 131.718C123.059 130.466 123.262 129.218 123.32 127.957C123.386 126.464 123.253 124.966 123.359 123.486C123.461 122.068 123.801 120.664 123.837 119.242C123.878 119.086 123.867 118.92 123.806 118.77C123.744 118.62 123.635 118.495 123.496 118.415Z" fill="#F4F6FB"/>
<path d="M128.429 150.19C133.008 150.217 137.043 150.351 141.608 150.668C142.413 152.01 140.486 155.627 141.577 156.736C147.836 163.081 149.228 171.608 156.494 176.746C158.001 177.81 162.24 178.673 163.566 179.988C164.604 181.03 163.018 180.288 163.787 181.553C168.207 188.851 178.173 196.054 183.95 202.328C188.847 207.644 191.463 214.736 194.354 221.394C196.086 225.379 197.006 229.676 198.332 233.821C199.658 237.966 201.483 242.093 204.63 245.062C207.025 247.325 210.194 248.944 211.613 251.926C212.012 252.89 212.359 253.875 212.652 254.877C213.488 257.181 214.878 259.238 216.698 260.862C218.518 262.485 220.709 263.623 223.074 264.174C224.36 264.46 223.772 266.628 223.904 267.956C224.086 269.772 225.708 271.06 227.29 271.932C229.697 273.255 232.312 274.146 235.02 274.565C236.682 274.82 238.644 275.071 239.44 276.56C239.704 277.082 239.827 277.664 239.798 278.25C239.74 281.246 236.969 283.616 234.052 284.206C231.135 284.796 228.156 284 225.319 283.146C224.823 282.949 224.288 282.877 223.759 282.936C222.963 283.093 222.433 283.799 221.871 284.412C220.139 286.297 217.894 287.621 215.418 288.217C212.943 288.813 210.349 288.655 207.962 287.761C206.424 287.153 204.966 286.227 203.322 286.071C200.785 285.829 198.491 287.439 196.307 288.754C194.124 290.068 191.366 291.195 189.116 289.988C188.374 289.594 187.72 288.955 186.907 288.852C185.682 288.709 184.591 289.782 183.371 289.746C182.001 289.719 181.059 288.405 180.144 287.376C178.284 285.301 175.769 283.943 173.029 283.535C172.515 283.427 171.984 283.442 171.477 283.58C170.879 283.842 170.345 284.236 169.917 284.734C168.71 285.901 167.212 286.969 165.546 286.898C161.908 286.768 159.747 281.568 156.127 281.926C151.407 279.69 145.564 280.843 140.389 281.478C135.213 282.113 129.481 282.297 125.335 279.1C123.152 277.409 121.671 274.954 119.633 273.081C116.416 270.121 112.076 268.828 107.89 267.621C101.26 265.707 94.3744 263.776 87.5591 264.817C86.3304 265.005 85.0973 265.265 83.8642 265.144C82.6311 265.023 81.3671 264.321 80.9339 263.15C80.7448 262.549 80.7023 261.91 80.8102 261.289C81.451 256.228 86.1934 252.427 86.7989 247.361C87.1039 244.848 88.4387 242.648 89.8618 240.568C91.0729 238.709 92.1781 236.782 93.1722 234.796C95.528 230.324 97.8925 225.853 99.6693 221.131C101.539 216.163 102.737 210.967 103.93 205.789C105.079 200.794 105.627 195.679 106.454 190.617C107.055 186.937 107.996 183.324 108.938 179.715C111.722 169.055 114.524 158.332 119.103 148.334C122.082 149.184 125.366 150.172 128.429 150.19Z" fill="#E3E8F4"/>
<path d="M128.429 151.531C133.008 151.558 137.043 151.245 141.608 151.563C142.413 152.904 144.114 154.451 145.206 155.556C151.465 161.91 156.114 169.958 163.376 175.092C164.883 176.16 166.501 177.1 167.796 178.41C168.808 179.492 169.687 180.693 170.416 181.987C174.836 189.289 178.155 197.414 183.932 203.687C188.829 209.004 191.446 216.096 194.336 222.754C196.069 226.738 196.988 231.035 198.314 235.18C199.64 239.325 201.465 243.453 204.612 246.422C207.008 248.684 210.177 250.303 211.595 253.285C211.995 254.249 212.341 255.234 212.634 256.237C213.47 258.541 214.861 260.598 216.68 262.221C218.5 263.844 220.692 264.983 223.056 265.533C224.342 265.819 223.754 267.988 223.887 269.316C224.068 271.131 225.69 272.419 227.272 273.291C229.679 274.614 232.295 275.505 235.002 275.925C236.664 276.18 238.627 276.43 239.422 277.919C239.686 278.441 239.81 279.024 239.78 279.609C239.723 282.605 236.952 284.975 234.035 285.565C231.117 286.156 228.139 285.36 225.301 284.506C224.806 284.309 224.27 284.236 223.741 284.295C222.945 284.452 222.415 285.158 221.854 285.771C220.121 287.656 217.876 288.981 215.4 289.577C212.925 290.173 210.331 290.014 207.945 289.12C206.407 288.512 204.948 287.586 203.304 287.43C200.767 287.189 198.473 288.798 196.29 290.113C194.106 291.428 191.348 292.554 189.099 291.347C188.356 290.954 187.702 290.314 186.889 290.211C185.665 290.068 184.573 291.141 183.353 291.106C181.983 291.079 181.042 289.764 180.127 288.736C178.273 286.657 175.765 285.294 173.029 284.877C172.515 284.768 171.984 284.784 171.477 284.921C170.878 285.183 170.345 285.577 169.917 286.075C168.71 287.242 167.212 288.311 165.546 288.239C161.908 288.11 159.747 282.909 156.127 283.267C151.407 281.031 145.564 282.185 140.389 282.82C135.213 283.455 129.481 283.638 125.335 280.441C123.151 278.751 121.671 276.296 119.633 274.422C116.416 271.462 112.076 270.17 107.89 268.963C101.26 267.049 94.3744 265.117 87.5591 266.159C86.3304 266.347 85.0973 266.606 83.8642 266.485C82.6311 266.365 81.3671 265.663 80.9339 264.491C80.7448 263.89 80.7023 263.252 80.8102 262.631C81.451 257.569 86.1934 253.768 86.7989 248.702C87.1039 246.189 88.4387 243.989 89.8618 241.91C91.0729 240.051 92.1781 238.123 93.1722 236.137C95.528 231.666 97.8925 227.194 99.6693 222.472C101.539 217.504 102.737 212.308 103.93 207.13C105.079 202.136 105.627 197.02 106.454 191.958C107.055 188.278 107.996 184.665 108.938 181.057C111.722 170.397 114.524 159.674 119.103 149.676C122.082 150.525 125.366 151.513 128.429 151.531Z" fill="#E3E8F4"/>
<path d="M128.429 150.637C133.008 150.664 137.043 150.351 141.608 150.668C142.413 152.01 144.114 153.557 145.206 154.661C151.465 161.015 156.114 169.064 163.376 174.197C164.883 175.266 166.501 176.205 167.796 177.515C168.808 178.597 169.687 179.798 170.416 181.093C174.836 188.395 178.155 196.519 183.932 202.793C188.829 208.109 191.446 215.201 194.336 221.859C196.069 225.844 196.988 230.141 198.314 234.286C199.64 238.431 201.465 242.558 204.612 245.527C207.008 247.79 210.177 249.408 211.595 252.391C211.995 253.355 212.341 254.34 212.634 255.342C213.47 257.646 214.861 259.703 216.68 261.327C218.5 262.95 220.692 264.088 223.056 264.638C224.342 264.925 223.754 267.093 223.887 268.421C224.068 270.237 225.69 271.525 227.272 272.397C229.679 273.719 232.295 274.611 235.002 275.03C236.664 275.285 238.627 275.536 239.422 277.025C239.686 277.546 239.81 278.129 239.78 278.715C239.723 281.711 236.952 284.081 234.035 284.671C231.117 285.261 228.139 284.465 225.301 283.611C224.806 283.414 224.27 283.342 223.741 283.401C222.945 283.558 222.415 284.264 221.854 284.877C220.121 286.762 217.876 288.086 215.4 288.682C212.925 289.278 210.331 289.119 207.945 288.226C206.407 287.618 204.948 286.692 203.304 286.536C200.767 286.294 198.473 287.904 196.29 289.218C194.106 290.533 191.348 291.66 189.099 290.453C188.356 290.059 187.702 289.42 186.889 289.317C185.665 289.174 184.573 290.247 183.353 290.211C181.983 290.184 181.042 288.87 180.127 287.841C178.273 285.763 175.765 284.399 173.029 283.982C172.515 283.874 171.984 283.889 171.477 284.027C170.878 284.289 170.345 284.683 169.917 285.181C168.71 286.348 167.212 287.416 165.546 287.345C161.908 287.215 159.747 282.015 156.127 282.373C151.407 280.137 145.564 281.29 140.389 281.925C135.213 282.56 129.481 282.744 125.335 279.547C123.151 277.856 121.671 275.401 119.633 273.528C116.416 270.568 112.076 269.275 107.89 268.068C101.26 266.154 94.3744 264.223 87.5591 265.265C86.3304 265.452 85.0973 265.712 83.8642 265.591C82.6311 265.47 81.3671 264.768 80.9339 263.597C80.7448 262.996 80.7023 262.358 80.8102 261.736C81.451 256.675 86.1934 252.874 86.7989 247.808C87.1039 245.295 88.4387 243.095 89.8618 241.015C91.0729 239.156 92.1781 237.229 93.1722 235.243C95.528 230.771 97.8925 226.3 99.6693 221.578C101.539 216.61 102.737 211.414 103.93 206.236C105.079 201.241 105.627 196.126 106.454 191.064C107.055 187.384 107.996 183.771 108.938 180.162C111.722 169.502 114.524 158.78 119.103 148.781C122.082 149.631 125.366 150.619 128.429 150.637Z" fill="#F4F6FB"/>
<path d="M88.5669 171.157C87.1084 172.771 87.4399 175.338 88.2929 177.345C89.1459 179.353 90.4409 181.236 90.6796 183.409C90.7591 184.133 90.715 184.866 90.8387 185.586C90.9315 186.105 91.1039 186.601 91.2365 187.111C91.3976 187.756 91.5216 188.41 91.6077 189.07C92.0762 192.253 92.3945 195.464 92.5624 198.683C92.8055 203.235 92.7436 207.801 92.6817 212.362C92.5933 218.743 89.5879 224.717 88.125 230.923C87.8676 231.883 87.6989 232.865 87.6211 233.856C87.6146 235.177 87.7434 236.494 88.0056 237.787C89.2971 245.927 89.0346 254.242 87.2322 262.282C88.5581 263.337 89.4818 265.108 89.1636 266.78C92.0144 267.286 94.9977 267.782 97.7424 266.865C99.3998 266.315 100.889 265.269 102.604 264.943C103.93 264.697 105.464 264.822 106.401 263.847C106.782 263.392 107.059 262.857 107.214 262.282C110.449 252.758 109.543 242.388 109.362 232.323C109.265 226.912 109.362 221.497 109.159 216.091C108.759 206.452 107.264 196.892 104.703 187.599C103.466 183.127 102.273 178.655 99.8418 174.689C99.3523 173.772 98.6594 172.982 97.8175 172.382C96.8938 171.81 95.7756 171.671 94.6971 171.546C92.4431 171.3 90.821 171.416 88.5669 171.157Z" fill="#3F3D56"/>
<path opacity="0.05" d="M107.214 262.287C107.058 262.86 106.781 263.393 106.401 263.847C105.464 264.826 103.926 264.697 102.604 264.947C102.436 264.978 102.268 265.019 102.105 265.063C100.598 265.47 99.2363 266.369 97.7468 266.852C94.9977 267.746 92.0011 267.272 89.1636 266.767C89.4818 265.095 88.5581 263.32 87.2322 262.264C89.036 254.226 89.3001 245.912 88.0101 237.774C87.7442 236.481 87.6138 235.164 87.6211 233.843C87.7007 232.852 87.8693 231.87 88.125 230.91C89.5791 224.699 92.5934 218.725 92.6817 212.344C92.7436 207.783 92.8055 203.218 92.5668 198.666C92.393 195.446 92.0733 192.242 91.6077 189.052C91.5209 188.393 91.3984 187.739 91.2409 187.093C91.1039 186.588 90.9315 186.087 90.8431 185.569C90.715 184.853 90.7591 184.115 90.6796 183.391C90.4409 181.218 89.1504 179.34 88.2929 177.332C87.9349 176.505 87.7024 175.627 87.6034 174.73C87.5018 174.098 87.5352 173.452 87.7015 172.835C87.8677 172.218 88.1628 171.644 88.5669 171.152C90.0829 171.322 91.3072 171.318 92.6331 171.376C93.2828 171.403 93.9591 171.447 94.6972 171.532C95.7756 171.653 96.9071 171.792 97.8219 172.369C98.6631 172.969 99.3547 173.759 99.8418 174.676C100.08 175.065 100.306 175.458 100.522 175.856C102.507 179.51 103.59 183.534 104.704 187.581C107.264 196.874 108.759 206.434 109.159 216.073C109.384 221.479 109.265 226.894 109.362 232.309C109.548 242.397 110.449 252.758 107.214 262.287Z" fill="black"/>
<path d="M123.51 174.662C123.51 175.445 123.51 176.232 123.51 177.015C123.489 184.568 123.47 192.121 123.452 199.672C123.452 202.779 123.452 205.896 123.134 208.986C122.352 217.035 119.443 224.829 119.753 232.886C119.974 238.739 120.195 244.66 119.032 250.401C118.59 252.601 117.945 254.765 117.627 256.988C117.309 259.21 117.344 261.553 118.215 263.624C118.842 265.104 119.899 266.503 119.841 268.095C119.776 268.779 119.553 269.438 119.19 270.019C118.827 270.6 118.334 271.087 117.751 271.44C116.576 272.131 115.273 272.571 113.923 272.732C112.239 273.014 110.534 273.147 108.827 273.13C106.383 273.103 103.599 272.562 102.334 270.447C101.486 269.025 101.552 267.219 101.959 265.604C102.007 265.417 102.056 265.233 102.109 265.05C102.525 263.641 103.117 262.287 103.435 260.856C103.946 258.597 103.781 256.236 102.962 254.072C102.812 253.67 102.339 252.91 101.915 252.959C101.238 251.193 101.137 249.261 101.031 247.365L100.407 234.532C100.275 231.737 100.142 228.907 100.708 226.17C101.15 223.934 102.091 221.806 102.357 219.539C102.475 218.177 102.468 216.807 102.334 215.447C101.839 208.435 100.942 201.459 99.6472 194.552C99.6045 194.2 99.4885 193.862 99.3069 193.559C99.0152 193.148 98.507 192.956 98.149 192.598C97.3976 191.856 97.4683 190.644 97.2915 189.593C96.9733 187.697 95.7313 186.123 94.7722 184.469C93.2458 181.802 92.3913 178.797 92.2839 175.718C92.2296 174.262 92.3468 172.804 92.6331 171.376C92.6684 171.184 92.7126 170.991 92.7568 170.799C102.39 170.177 112.062 170.778 121.547 172.588C122.241 172.717 123.019 172.919 123.342 173.554C123.483 173.905 123.54 174.285 123.51 174.662Z" fill="#3F3D56"/>
<path d="M177.775 209.858C182.531 218.327 187.304 226.814 191.087 235.77C194.159 243.037 196.679 250.777 201.832 256.715C206.658 262.273 213.323 265.743 219.869 269.083L214.008 263.861C208.126 258.607 202.119 253.205 198.385 246.225C196.351 242.424 195.061 238.27 193.523 234.223C189.603 223.815 184.144 214.07 177.333 205.319C175.44 202.805 173.403 200.404 171.234 198.129C172.732 202.154 175.662 206.102 177.775 209.858Z" fill="#E3E8F4"/>
<path d="M153.515 267.885C154.947 270.863 156.406 273.886 158.589 276.354C158.775 274.878 157.776 273.555 156.985 272.303C155.553 270.027 154.682 267.465 153.811 264.929C153.007 262.582 152.26 259.344 150.55 257.489C149.674 260.672 152.189 265.148 153.515 267.885Z" fill="#E3E8F4"/>
<path d="M136.937 212.107C137.352 214.343 137.595 216.579 138.152 218.765C138.699 220.73 139.371 222.656 140.163 224.533L149.48 248.027C149.4 244.834 147.712 241.946 146.638 238.95C145.312 235.27 144.835 231.348 143.752 227.565C142.868 224.498 141.586 221.569 140.658 218.515C139.367 214.209 138.824 209.71 137.812 205.328C136.898 201.535 135.757 197.802 134.395 194.149C133.776 192.423 133.069 190.63 131.704 189.436C130.338 188.242 128.048 187.903 126.758 189.195C124.941 191.015 127.695 192.155 128.601 193.34C132.79 198.855 135.642 205.287 136.928 212.12L136.937 212.107Z" fill="#E3E8F4"/>
<path d="M149.44 163.573C149.935 164.078 150.365 164.642 150.722 165.254C151.222 166.184 151.42 167.271 152.048 168.134C150.943 166.565 149.681 165.114 148.282 163.806C147.434 163.068 146.514 162.433 145.661 161.695C145.012 161.132 142.165 158.69 142.731 157.859C145.224 159.142 147.544 161.503 149.44 163.573Z" fill="#E3E8F4"/>
<path d="M119.863 79.562C119.762 80.4877 119.2 81.2881 118.719 82.084C117.314 84.4456 116.53 87.1319 116.442 89.8868C116.416 90.6947 116.451 91.5035 116.548 92.3059C116.584 92.6055 116.593 92.9811 116.336 93.1376C116.198 93.2023 116.044 93.2226 115.894 93.1957C115.594 93.1689 115.302 93.1331 115.01 93.0839C110.286 92.3193 106.149 89.0596 101.393 88.2368C101.687 88.0965 101.947 87.8942 102.156 87.6435C102.366 87.3928 102.52 87.0996 102.609 86.7836C102.736 86.4231 102.832 86.0521 102.896 85.6746C102.966 85.2767 103.02 84.8787 103.059 84.4897C103.36 81.61 102.927 78.9629 102.768 76.0385C102.586 72.6312 106.745 73.7535 109.185 73.7088C111.143 73.6731 113.136 73.6417 115.028 74.1783C116.92 74.7149 118.719 75.8999 119.532 77.7064C119.804 78.2838 119.919 78.9246 119.863 79.562Z" fill="#CB8C8E"/>
<path d="M116.336 93.1377C116.198 93.2024 116.044 93.2227 115.894 93.1958C115.594 93.169 115.302 93.1332 115.01 93.084C114.604 92.6995 114.21 92.2971 113.835 91.8767C112.951 90.8841 112.155 89.793 111.13 88.9479C109.546 87.7031 107.61 87.0042 105.605 86.9536C104.603 86.9806 103.601 86.9238 102.608 86.7837C102.736 86.4232 102.832 86.0522 102.896 85.6747C102.966 85.2768 103.019 84.8788 103.059 84.4898C103.613 84.4177 104.171 84.3774 104.73 84.369C105.386 84.273 106.051 84.2595 106.71 84.3288C107.802 84.4942 108.765 85.1113 109.746 85.6255C111.103 86.3365 112.557 86.8731 113.817 87.754C114.206 88.0312 114.577 88.3353 114.948 88.6483C115.452 89.0641 115.952 89.4845 116.456 89.8958C116.429 90.7038 116.465 91.5125 116.562 92.3149C116.584 92.6011 116.593 92.9812 116.336 93.1377Z" fill="#E3E8F4"/>
<path opacity="0.1" d="M123.51 174.662C123.51 175.445 123.51 176.232 123.51 177.014C121.671 177.068 119.793 177.341 117.963 177.462C116.243 177.587 114.52 177.591 112.796 177.569C111.447 177.603 110.101 177.452 108.792 177.122C107.85 176.845 106.966 176.388 106.029 176.102C104.261 175.552 102.396 175.619 100.527 175.843C99.0063 176.022 97.4727 176.29 95.9567 176.429C94.9744 176.567 93.9734 176.463 93.0397 176.125C92.7786 176.005 92.5274 175.864 92.2883 175.704C91.9146 175.451 91.5248 175.222 91.1215 175.02C90.0342 174.528 88.8232 174.609 87.6078 174.725C87.5061 174.094 87.5396 173.448 87.7058 172.831C87.872 172.214 88.1671 171.64 88.5713 171.148C90.0873 171.318 91.3115 171.313 92.6375 171.371C92.6728 171.179 92.717 170.987 92.7612 170.795C102.394 170.172 112.066 170.773 121.552 172.583C122.245 172.713 123.023 172.914 123.346 173.549C123.486 173.902 123.542 174.283 123.51 174.662Z" fill="black"/>
<path d="M103.452 86.0815C102.493 86.1977 101.468 86.4437 100.849 87.1904C100.669 87.391 100.554 87.642 100.518 87.9103C100.554 88.329 100.634 88.7426 100.756 89.1445C100.766 89.6856 100.625 90.2187 100.35 90.6827C99.7088 92.0241 99.0237 93.3924 97.9453 94.3985C97.5033 94.8144 96.9995 95.1587 96.5531 95.5656C96.0454 96.0523 95.5797 96.5818 95.1609 97.1485C94.2283 98.329 93.2692 99.5676 92.9289 101.039C92.3322 103.592 91.0903 106.002 90.277 108.497C89.4638 110.992 88.9511 113.648 89.3931 116.233C89.6008 117.458 90.0207 118.634 90.3124 119.842C90.7809 121.778 90.9135 123.781 91.4085 125.708C91.7223 126.911 92.1731 128.074 92.5134 129.285C93.2556 131.882 93.4558 134.606 93.1013 137.285C92.7698 139.731 93.3267 142.333 92.3499 144.591C91.9486 145.424 91.5061 146.236 91.024 147.024C90.4003 148.183 89.844 149.377 89.3577 150.601L86.6307 157.112C86.0893 158.337 85.6128 159.591 85.2031 160.868C84.0673 164.606 84.0628 168.59 84.2219 172.494C84.241 172.615 84.2141 172.74 84.1468 172.843C84.0628 172.932 83.8728 172.905 83.8684 172.784C83.833 173.008 83.6916 173.397 83.6606 173.621C85.981 174.64 88.8362 173.097 91.1477 174.139C91.8195 174.443 92.3897 174.949 93.0659 175.244C93.9988 175.586 95.0003 175.692 95.9829 175.552C99.3552 175.271 102.816 174.211 106.051 175.221C106.993 175.512 107.872 175.968 108.814 176.245C110.124 176.576 111.472 176.726 112.822 176.692C114.546 176.719 116.27 176.715 117.989 176.585C121.688 176.312 125.573 175.494 128.981 176.979C130.081 176.16 130.165 174.89 130.21 173.513C130.292 170.92 130.375 168.328 130.457 165.737L131.372 137.142C131.501 135.172 131.429 133.194 131.155 131.239C130.532 127.698 128.618 124.532 126.736 121.496L117.945 107.187C117.361 106.239 117.945 105.179 118.347 104.137C118.909 102.642 119.288 101.084 119.478 99.4961C119.62 98.329 119.611 97.0143 118.829 96.1469C118.387 95.6595 117.764 95.3867 117.26 94.9664C116.526 94.3583 116.084 93.4953 115.642 92.6814C114.416 90.4435 112.635 88.5666 110.475 87.2351C108.305 85.9607 105.945 85.7819 103.452 86.0815Z" fill="#3F3D56"/>
<path opacity="0.1" d="M112.522 99.058C109.397 99.93 107.461 103.141 106.604 106.302C105.402 110.724 105.694 115.451 106.754 119.904C107.815 124.358 109.627 128.592 111.461 132.782C111.891 133.807 112.375 134.807 112.911 135.778C114.398 138.408 116.669 140.495 119.399 141.739C122.147 142.966 125.249 143.105 128.093 142.128C128.616 141.958 129.108 141.705 129.551 141.377C131.116 140.16 131.359 137.907 131.474 135.912L131.867 128.923C131.907 128.555 131.889 128.182 131.814 127.819C131.637 127.323 131.365 126.867 131.014 126.477C129.72 124.782 128.76 122.851 128.186 120.79C127.784 119.345 127.571 117.838 126.953 116.475C126.581 115.652 126.069 114.901 125.666 114.091C124.783 112.347 124.469 110.393 124.053 108.488C123.691 106.825 123.258 105.178 122.754 103.547C122.521 102.644 122.14 101.787 121.627 101.012C120.411 99.3487 118.255 98.7495 116.257 98.3292C115.312 98.0481 114.315 97.9991 113.349 98.1861C112.261 98.4857 111.417 99.3353 110.63 100.149" fill="black"/>
<path d="M112.964 98.6109C109.839 99.4828 107.903 102.693 107.046 105.855C105.844 110.277 106.135 115.004 107.196 119.457C108.257 123.911 110.069 128.145 111.903 132.335C112.333 133.359 112.817 134.36 113.353 135.331C114.839 137.961 117.111 140.048 119.841 141.292C122.589 142.519 125.691 142.657 128.535 141.681C129.058 141.511 129.55 141.258 129.993 140.929C131.558 139.713 131.801 137.46 131.916 135.465L132.309 128.476C132.349 128.108 132.331 127.735 132.256 127.372C132.079 126.876 131.807 126.42 131.456 126.03C130.162 124.335 129.202 122.404 128.628 120.343C128.225 118.898 128.013 117.391 127.395 116.027C127.023 115.205 126.511 114.454 126.108 113.644C125.224 111.9 124.911 109.946 124.495 108.041C124.133 106.378 123.7 104.731 123.196 103.1C122.963 102.197 122.582 101.34 122.069 100.565C120.853 98.9015 118.696 98.3024 116.699 97.882C115.754 97.601 114.757 97.5519 113.79 97.7389C112.703 98.0385 111.859 98.8881 111.072 99.7019" fill="#3F3D56"/>
<path d="M143.452 117.275C142.336 114.915 142.128 112.22 142.868 109.714C144.601 110.161 145.078 112.745 146.846 113.206C147.107 113.273 147.385 113.286 147.65 113.345C148.888 113.599 149.763 114.686 150.404 115.804C151.433 117.522 152.062 119.455 152.243 121.456C152.417 123.465 151.952 125.478 150.917 127.202C150.961 127.135 147.823 123.879 147.558 123.544C147.007 122.891 146.467 122.225 145.94 121.545C145.386 120.916 144.887 120.238 144.45 119.52C144.3 119.234 144.269 118.903 144.137 118.599C143.929 118.147 143.668 117.718 143.452 117.275Z" fill="#CB8C8E"/>
<path d="M135.394 143.576C134.855 147.869 132.923 151.859 129.901 154.921C129.224 155.596 128.38 156.262 127.434 156.168C126.413 156.061 125.711 155.122 124.981 154.38C123.655 153.038 121.888 152.238 120.416 151.066C119.655 150.432 118.934 149.749 118.259 149.023C116.093 146.787 113.914 144.551 112.186 141.944C111.209 140.478 110.374 138.904 109.216 137.58C108.301 136.529 107.201 135.662 106.237 134.66C105.274 133.659 104.425 132.46 104.195 131.083C103.952 129.625 102.427 128.677 101.468 127.559C100.286 126.143 99.4319 124.477 98.9692 122.684C98.5065 120.89 98.4467 119.014 98.7943 117.194C98.949 116.416 99.2716 115.544 100.014 115.276C100.309 115.185 100.621 115.165 100.925 115.218C102.79 115.482 104.173 117.047 105.38 118.514C106.207 119.473 106.967 120.489 107.656 121.554C109.128 123.973 109.804 126.79 110.458 129.554C110.843 131.168 112.434 132.362 113.578 133.551L116.451 136.534C117.136 137.245 117.821 137.96 118.573 138.6C120.628 140.361 123.094 141.542 125.556 142.624C125.773 141.819 126.1 141.048 126.528 140.335C126.747 139.984 127.037 139.683 127.378 139.452C127.719 139.221 128.104 139.064 128.508 138.993C129.649 138.846 130.692 139.61 131.602 140.335L134.983 143.018C135.173 143.174 135.421 143.344 135.394 143.576Z" fill="#FBBEBE"/>
<path opacity="0.1" d="M140.773 116.89C141.188 117.341 141.516 117.865 141.741 118.438C142.492 120.007 142.832 121.745 142.727 123.486C142.609 124.423 142.405 125.347 142.117 126.245L141.065 129.907C139.429 135.586 137.79 141.278 135.58 146.756C133.763 144.372 130.586 143.653 128.004 142.164C127.75 142.036 127.523 141.858 127.337 141.64C127.109 141.304 126.993 140.903 127.006 140.496C127.033 139.396 127.27 138.312 127.704 137.303C129.313 132.934 131.545 128.668 131.805 124.018C131.816 123.153 131.87 122.289 131.969 121.429C132.156 120.405 132.556 119.433 133.143 118.577C133.729 117.721 134.489 117.001 135.372 116.466C136.857 115.491 139.456 115.585 140.773 116.89Z" fill="black"/>
<path d="M140.331 115.853C140.745 116.304 141.073 116.828 141.299 117.4C142.05 118.969 142.39 120.708 142.285 122.448C142.17 123.398 141.965 124.333 141.675 125.243L140.623 128.905C138.987 134.584 137.348 140.276 135.138 145.754C133.321 143.375 130.143 142.651 127.562 141.162C127.308 141.036 127.081 140.859 126.895 140.643C126.669 140.306 126.553 139.906 126.563 139.498C126.591 138.397 126.828 137.312 127.262 136.301C128.871 131.933 131.103 127.671 131.363 123.016C131.373 122.152 131.428 121.29 131.527 120.432C131.713 119.407 132.113 118.433 132.699 117.577C133.286 116.72 134.047 116 134.93 115.464C136.415 114.467 139.014 114.561 140.331 115.853Z" fill="#F4F6FB"/>
<path d="M130.09 92.0867C130.974 93.0391 131.222 94.4164 131.368 95.7176C131.748 99.0802 131.757 102.55 130.722 105.77C129.688 108.989 127.496 111.936 124.424 113.273C128.703 113.975 133.785 114.413 136.685 111.149C137.25 110.514 137.71 109.749 138.431 109.289C141.502 107.33 145.401 112.495 148.733 111.028C150.943 110.062 151.102 107.039 150.943 104.625L150.337 95.6818C150.028 91.1164 149.635 86.2916 147.049 82.5534C144.715 79.1685 140.892 77.1339 137.007 75.8461C134.214 74.9518 131.103 74.3661 128.384 75.4974C124.915 76.9372 118.219 82.6876 118.259 86.94C118.334 93.2582 127.173 88.9656 130.09 92.0867Z" fill="#3F3D56"/>
<path d="M132.725 126.996C133.221 127.016 133.717 126.951 134.192 126.804C134.944 126.522 135.518 125.815 136.327 125.699C136.734 125.641 137.255 125.699 137.432 125.31C137.485 125.129 137.504 124.939 137.489 124.751C137.551 123.665 138.899 123.289 139.81 122.708C140.384 122.3 140.892 121.806 141.317 121.241L144.455 117.489C144.743 117.06 145.162 116.739 145.648 116.573C146.203 116.51 146.76 116.671 147.2 117.02C149.026 118.248 150.489 119.955 151.432 121.959C152.375 123.962 152.764 126.186 152.556 128.395C152.549 128.7 152.47 128.999 152.326 129.267C151.836 130.045 150.682 129.858 149.812 130.135C148.145 130.663 147.637 132.849 146.209 133.864C145.569 134.311 144.777 134.504 144.154 134.969C143.531 135.434 143.054 136.247 142.488 136.878C141.604 137.889 140.344 138.51 139.133 139.114L135.434 140.938C134.706 141.321 133.948 141.641 133.167 141.895C131.818 142.214 130.43 142.333 129.048 142.248L126.338 142.213C126.033 142.24 125.726 142.178 125.454 142.034C125.295 141.913 125.161 141.761 125.061 141.586C123.669 139.471 123.386 136.739 123.881 134.249C124.292 132.183 125.26 129.33 126.714 127.761C127.978 126.41 130.975 127.032 132.725 126.996Z" fill="#3F3D56"/>
<path d="M121.905 69.0584C121.825 68.6334 121.881 68.1935 122.064 67.8027C122.248 67.4119 122.55 67.0905 122.926 66.8852L126.285 64.332L125.596 63.3169L126.891 62.1946C126.784 62.0454 126.638 61.9306 126.468 61.8639C126.299 61.7973 126.114 61.7817 125.936 61.819C126.139 60.4373 124.973 59.2702 123.863 58.4475C121.605 56.7751 119.001 55.3845 116.235 55.1967C114.878 55.1072 113.517 55.304 112.16 55.1967C110.33 55.0804 108.553 54.4544 106.719 54.3828C104.885 54.3113 102.825 55.0402 102.056 56.708C101.729 57.4324 101.685 58.2507 101.437 59.0064C100.885 60.6787 99.4263 61.8369 98.1844 63.0755C96.9424 64.3141 95.7889 65.973 96.1336 67.699C96.2694 68.2556 96.4822 68.79 96.7656 69.2864L103.616 82.6697C103.845 82.2355 104.174 81.8631 104.575 81.5838C104.975 81.3045 105.436 81.1264 105.919 81.0644C107.046 80.9303 108.129 81.44 109.269 81.5831C110.115 81.6766 110.97 81.5628 111.763 81.2515C112.556 80.9402 113.264 80.4405 113.826 79.7945C115.337 78.0327 115.704 73.5344 118.33 73.0872C119.258 72.9262 120.743 74.1112 121.552 73.6417C122.502 73.1141 121.923 70.0511 121.905 69.0584Z" fill="#3F3D56"/>
<g opacity="0.1">
<path opacity="0.1" d="M127.076 111.905C130.148 110.563 132.336 107.612 133.374 104.397C134.413 101.182 134.4 97.6896 134.02 94.3449C133.874 93.0481 133.631 91.6619 132.742 90.714C129.825 87.5839 120.986 91.8855 120.906 85.5985C120.858 81.9721 125.733 77.2592 129.304 75.0547C128.984 75.141 128.67 75.247 128.362 75.3722C124.893 76.812 118.197 82.5668 118.237 86.8148C118.316 93.1018 127.156 88.8136 130.073 91.9347C130.957 92.8827 131.204 94.2644 131.35 95.5656C131.73 98.9237 131.739 102.398 130.705 105.613C129.671 108.828 127.478 111.784 124.407 113.121C128.181 113.738 132.579 114.149 135.553 111.998C132.941 112.692 129.843 112.356 127.076 111.905Z" fill="black"/>
<path opacity="0.1" d="M141.083 107.916C140.762 108.132 140.475 108.394 140.229 108.694C142.939 108.873 146.019 112.066 148.733 110.872C149.208 110.661 149.621 110.332 149.935 109.915C146.965 109.798 143.721 106.235 141.083 107.916Z" fill="black"/>
</g>
<g opacity="0.1">
<path opacity="0.1" d="M125.618 60.0889C125.551 59.9904 125.481 59.8919 125.41 59.7979C125.409 59.9012 125.401 60.0044 125.388 60.1068C125.463 60.0918 125.541 60.0858 125.618 60.0889Z" fill="black"/>
<path opacity="0.1" d="M127.005 62.1938C126.899 62.0447 126.752 61.9298 126.583 61.8632C126.413 61.7965 126.229 61.7809 126.051 61.8182C126.1 61.4805 126.07 61.1358 125.962 60.8121L125.047 61.6036L125.737 62.6142L122.378 65.1719C122.001 65.3772 121.699 65.6986 121.516 66.0894C121.332 66.4802 121.276 66.92 121.357 67.345C121.357 68.3377 121.954 71.4007 120.999 71.9507C120.194 72.4202 118.705 71.2353 117.781 71.3962C115.156 71.8434 114.789 76.3149 113.278 78.1035C112.715 78.7495 112.008 79.2493 111.215 79.5606C110.422 79.8719 109.566 79.9856 108.721 79.8921C107.594 79.7535 106.511 79.2438 105.371 79.3779C104.888 79.4407 104.426 79.619 104.025 79.8982C103.624 80.1774 103.294 80.5493 103.063 80.9832C100.786 76.5296 98.5081 72.0774 96.2305 67.6267V67.7251C96.3697 68.2813 96.5839 68.8154 96.8669 69.3125L103.709 82.669C103.939 82.2351 104.269 81.8632 104.67 81.584C105.072 81.3048 105.533 81.1265 106.016 81.0637C107.143 80.9296 108.226 81.4393 109.366 81.5824C110.212 81.6758 111.067 81.5621 111.86 81.2508C112.653 80.9395 113.361 80.4398 113.923 79.7938C115.434 78.032 115.801 73.5336 118.427 73.0865C119.35 72.9255 120.84 74.1105 121.644 73.641C122.599 73.091 122.02 70.028 122.002 69.0353C121.954 68.5787 122.021 68.1172 122.197 67.6938C122.406 67.3531 122.689 67.0643 123.023 66.8487L126.382 64.2955L125.693 63.2804L127.005 62.1938Z" fill="black"/>
</g>
<path opacity="0.1" d="M88.266 159.276C87.824 161.185 87.5456 163.135 86.9401 164.999C86.6749 165.84 86.3479 166.658 86.0871 167.499C85.8528 168.264 85.676 169.037 85.4948 169.815L84.7744 172.945C84.9926 172.934 85.2051 172.871 85.3954 172.763C85.5856 172.654 85.7482 172.502 85.8705 172.319C86.1125 171.951 86.2959 171.547 86.4141 171.121L87.6207 167.49L88.5047 164.807C89.7599 161.029 91.0195 157.241 91.9742 153.369C92.2129 152.412 92.4162 151.455 92.6239 150.489C92.7035 150.118 93.2825 148.048 92.6902 148.222C92.2703 148.343 91.5588 150.23 91.3643 150.641C90.9223 151.464 90.5599 152.305 90.2019 153.159C89.3837 155.138 88.736 157.184 88.266 159.276Z" fill="black"/>
<path d="M111.32 109.204C111.32 109.204 109.322 108.475 108.831 109.342C108.831 109.342 112.464 110.684 113.198 112.616C113.198 112.616 114.135 111.641 112.853 110.402L112.615 108.587L111.32 109.204Z" fill="#00A66C"/>
<path d="M114.635 106.463C114.635 106.463 114.745 105.542 114.285 105.443C113.826 105.345 110.714 105.528 111.214 109.02C111.713 112.513 115.311 111.203 115.311 111.203L116.889 109.342C116.889 109.342 117.225 106.879 115.015 106.284L114.635 106.463Z" fill="#9E63FF"/>
<path opacity="0.1" d="M112.128 104.567C112.128 104.567 109.415 105.953 110.732 109.436L111.753 108.837C111.753 108.837 113.03 105.814 112.128 104.567Z" fill="black"/>
<path d="M112.031 104.495C112.031 104.495 109.322 105.882 110.639 109.365L111.43 109.834C111.43 109.834 112.937 105.743 112.031 104.495Z" fill="#9E63FF"/>
<path opacity="0.1" d="M116.46 108.072C116.602 108.557 116.893 108.983 117.291 109.289C117.927 109.736 116.659 110.769 116.659 110.769C116.659 110.769 114.944 112.741 113.322 111.779C112.354 110.129 113.083 109.901 113.083 109.901C113.083 109.901 115.108 107.652 116.46 108.072Z" fill="black"/>
<path d="M116.526 108.166C116.669 108.651 116.96 109.077 117.357 109.383C117.989 109.83 116.721 110.863 116.721 110.863C116.721 110.863 115.01 112.835 113.384 111.873C111.757 110.912 113.145 110 113.145 110C113.145 110 115.152 107.746 116.526 108.166Z" fill="#9E63FF"/>
<path d="M110.374 104.54C110.374 104.54 108.367 105.246 108.526 106.235C108.526 106.235 112.186 104.965 113.958 105.998C113.958 105.998 114.078 104.656 112.314 104.495L110.988 103.234L110.374 104.54Z" fill="#5F3839"/>
<path d="M111.222 100.288C111.222 100.288 110.736 99.5006 110.338 99.7153C109.941 99.9299 107.62 102.054 110.17 104.442C112.721 106.829 114.714 103.547 114.714 103.547L114.758 101.097C114.758 101.097 113.485 98.9685 111.399 99.9165L111.222 100.288Z" fill="#9E63FF"/>
<path opacity="0.1" d="M108.129 100.422C108.129 100.422 106.882 103.225 110.078 105.094L110.498 103.981C110.498 103.981 109.596 100.82 108.129 100.422Z" fill="black"/>
<path d="M107.996 100.426C107.996 100.426 106.754 103.23 109.945 105.099L110.851 104.96C110.851 104.96 109.477 100.82 107.996 100.426Z" fill="#9E63FF"/>
<path opacity="0.1" d="M113.662 100.386C114.075 100.673 114.567 100.82 115.068 100.806C115.846 100.757 115.51 102.358 115.51 102.358C115.51 102.358 115.404 104.983 113.543 105.269C111.775 104.603 112.19 103.963 112.19 103.963C112.19 103.963 112.35 100.923 113.662 100.386Z" fill="black"/>
<path d="M113.76 100.431C114.172 100.718 114.664 100.866 115.165 100.851C115.943 100.802 115.607 102.403 115.607 102.403C115.607 102.403 115.505 105.027 113.645 105.314C111.784 105.6 112.292 104.008 112.292 104.008C112.292 104.008 112.447 100.967 113.76 100.431Z" fill="#9E63FF"/>
<path d="M103.554 105.376C103.554 105.376 104.191 104.813 104.54 105.555L104.244 107.218L102.418 123.692L101.251 125.851L103.554 105.376Z" fill="#00A66C"/>
<path d="M108.964 101.544L101.318 126.674L102.012 127.063L109.596 101.71L108.964 101.544Z" fill="#00A66C"/>
<path d="M106.873 112.938C106.873 112.938 105.159 119.497 103.267 122.113C101.375 124.729 101.733 126.898 101.733 126.898L102.352 127.09L107.435 113.394L106.873 112.938Z" fill="#00A66C"/>
<path d="M113.123 107.165L102.215 126.383L102.737 126.67L113.985 107.303L113.123 107.165Z" fill="#00A66C"/>
<path d="M115.532 112.24L101.945 126.567L102.352 127.099L116.111 112.562L115.532 112.24Z" fill="#00A66C"/>
<path d="M116.403 113.304C116.403 113.304 116.222 112.499 115.612 112.651C115.002 112.803 102.993 126.294 102.993 126.294L103.501 126.696L116.403 113.304Z" fill="#00A66C"/>
<path d="M102.966 104.509C102.966 104.509 100.915 105.072 101.013 106.069C101.013 106.069 104.747 105.059 106.445 106.212C106.445 106.212 106.657 104.871 104.906 104.598L103.678 103.257L102.966 104.509Z" fill="#00A66C"/>
<path d="M104.115 100.323C104.115 100.323 103.673 99.5051 103.254 99.6929C102.834 99.8807 100.381 101.835 102.759 104.393C105.136 106.95 107.355 103.802 107.355 103.802L107.589 101.361C107.589 101.361 106.467 99.1519 104.319 99.9478L104.115 100.323Z" fill="#9E63FF"/>
<path opacity="0.1" d="M101 100.243C101 100.243 99.5632 102.953 102.622 105.041L103.117 103.959C103.117 103.959 102.445 100.739 101 100.243Z" fill="black"/>
<path d="M100.88 100.238C100.88 100.238 99.4438 102.948 102.502 105.036L103.417 104.965C103.417 104.965 102.33 100.735 100.88 100.238Z" fill="#9E63FF"/>
<path opacity="0.1" d="M106.533 100.596C106.927 100.906 107.408 101.081 107.907 101.097C108.685 101.097 108.226 102.675 108.226 102.675C108.226 102.675 107.943 105.287 106.069 105.443C104.341 104.656 104.809 104.044 104.809 104.044C104.809 104.044 105.189 101.039 106.533 100.596Z" fill="black"/>
<path d="M106.626 100.65C107.019 100.964 107.5 101.146 108.001 101.168C108.778 101.168 108.319 102.747 108.319 102.747C108.319 102.747 108.036 105.354 106.162 105.51C104.288 105.667 104.902 104.115 104.902 104.115C104.902 104.115 105.282 101.097 106.626 100.65Z" fill="#9E63FF"/>
<path d="M108.195 100.65C108.195 100.65 106.144 101.213 106.237 102.21C106.237 102.21 109.972 101.2 111.669 102.349C111.669 102.349 111.885 101.008 110.131 100.739L108.902 99.3978L108.195 100.65Z" fill="#00A66C"/>
<path d="M109.34 96.4733C109.34 96.4733 108.898 95.655 108.478 95.8428C108.058 96.0306 105.605 97.9847 107.983 100.542C110.361 103.1 112.579 99.9522 112.579 99.9522L112.814 97.5107C112.814 97.5107 111.691 95.3018 109.543 96.0977L109.34 96.4733Z" fill="#9E63FF"/>
<path opacity="0.1" d="M106.224 96.3928C106.224 96.3928 104.788 99.1026 107.846 101.191L108.341 100.109C108.341 100.109 107.687 96.8892 106.224 96.3928Z" fill="black"/>
<path d="M106.104 96.3884C106.104 96.3884 104.672 99.0982 107.726 101.186L108.641 101.11C108.641 101.11 107.554 96.8848 106.104 96.3884Z" fill="#9E63FF"/>
<path opacity="0.1" d="M111.762 96.7462C112.153 97.0608 112.633 97.2409 113.132 97.2605C113.91 97.2605 113.45 98.8389 113.45 98.8389C113.45 98.8389 113.167 101.45 111.293 101.607C109.57 100.815 110.034 100.207 110.034 100.207C110.034 100.207 110.414 97.1889 111.762 96.7462Z" fill="black"/>
<path d="M111.855 96.7954C112.246 97.11 112.726 97.2901 113.225 97.3096C114.003 97.3096 113.543 98.8881 113.543 98.8881C113.543 98.8881 113.26 101.499 111.386 101.656C109.512 101.812 110.127 100.256 110.127 100.256C110.127 100.256 110.507 97.2381 111.855 96.7954Z" fill="#9E63FF"/>
<path d="M112.61 106.016C112.61 106.016 110.613 105.287 110.122 106.154C110.122 106.154 113.755 107.496 114.493 109.427C114.493 109.427 115.43 108.453 114.148 107.214L113.91 105.399L112.61 106.016Z" fill="#00A66C"/>
<path d="M115.925 103.261C115.925 103.261 116.035 102.34 115.576 102.242C115.116 102.143 112.009 102.327 112.482 105.819C112.955 109.311 116.583 108.001 116.583 108.001L118.161 106.141C118.161 106.141 118.493 103.677 116.283 103.082L115.925 103.261Z" fill="#9E63FF"/>
<path opacity="0.1" d="M113.432 101.383C113.432 101.383 110.719 102.769 112.04 106.253L113.057 105.653C113.057 105.653 114.316 102.631 113.432 101.383Z" fill="black"/>
<path d="M113.326 101.312C113.326 101.312 110.612 102.698 111.93 106.181L112.721 106.651C112.721 106.651 114.228 102.559 113.326 101.312Z" fill="#9E63FF"/>
<path opacity="0.1" d="M117.751 104.889C117.895 105.372 118.186 105.797 118.581 106.105C119.218 106.552 117.949 107.585 117.949 107.585C117.949 107.585 116.235 109.557 114.613 108.596C113.649 106.95 114.374 106.718 114.374 106.718C114.374 106.718 116.398 104.468 117.751 104.889Z" fill="black"/>
<path d="M117.799 104.983C117.942 105.468 118.233 105.895 118.63 106.203C119.266 106.651 117.998 107.679 117.998 107.679C117.998 107.679 116.283 109.651 114.661 108.694C113.039 107.737 114.422 106.816 114.422 106.816C114.422 106.816 116.447 104.562 117.799 104.983Z" fill="#9E63FF"/>
<path d="M115.815 111.493C115.815 111.493 113.817 110.764 113.331 111.636C113.331 111.636 116.959 112.978 117.698 114.909C117.698 114.909 118.635 113.93 117.353 112.696L117.114 110.876L115.815 111.493Z" fill="#00A66C"/>
<path d="M119.13 108.734C119.13 108.734 119.24 107.813 118.78 107.719C118.321 107.625 115.214 107.8 115.713 111.297C116.213 114.793 119.81 113.483 119.81 113.483L121.388 111.618C121.388 111.618 121.72 109.159 119.51 108.564L119.13 108.734Z" fill="#9E63FF"/>
<path opacity="0.1" d="M116.623 106.856C116.623 106.856 113.91 108.242 115.231 111.73L116.248 111.131C116.248 111.131 117.529 108.104 116.623 106.856Z" fill="black"/>
<path d="M116.526 106.785C116.526 106.785 113.812 108.171 115.129 111.654L115.921 112.124C115.921 112.124 117.432 108.032 116.526 106.785Z" fill="#9E63FF"/>
<path opacity="0.1" d="M120.946 110.362C121.088 110.846 121.377 111.274 121.772 111.583C122.409 112.03 121.14 113.058 121.14 113.058C121.14 113.058 119.426 115.03 117.803 114.073C116.84 112.423 117.565 112.195 117.565 112.195C117.565 112.195 119.62 109.942 120.946 110.362Z" fill="black"/>
<path d="M121.004 110.46C121.146 110.945 121.437 111.371 121.835 111.677C122.471 112.124 121.203 113.157 121.203 113.157C121.203 113.157 119.488 115.129 117.866 114.167C116.244 113.206 117.627 112.289 117.627 112.289C117.627 112.289 119.651 110.04 121.004 110.46Z" fill="#9E63FF"/>
<path d="M116.221 113.331C116.221 113.331 114.224 112.602 113.733 113.474C113.733 113.474 117.366 114.816 118.1 116.747C118.1 116.747 119.041 115.768 117.76 114.534L117.516 112.714L116.221 113.331Z" fill="#00A66C"/>
<path d="M119.536 110.572C119.536 110.572 119.647 109.655 119.187 109.557C118.727 109.459 115.62 109.637 116.115 113.134C116.61 116.631 120.212 115.321 120.212 115.321L121.79 113.461C121.79 113.461 122.126 110.997 119.916 110.402L119.536 110.572Z" fill="#9E63FF"/>
<path opacity="0.1" d="M117.03 108.698C117.03 108.698 114.316 110.08 115.642 113.568L116.663 112.969C116.663 112.969 117.932 109.942 117.03 108.698Z" fill="black"/>
<path d="M116.933 108.623C116.933 108.623 114.223 110.009 115.541 113.492L116.332 113.966C116.332 113.966 117.852 109.87 116.933 108.623Z" fill="#9E63FF"/>
<path opacity="0.1" d="M121.362 112.2C121.504 112.685 121.795 113.112 122.193 113.42C122.829 113.868 121.561 114.896 121.561 114.896C121.561 114.896 119.846 116.872 118.224 115.911C117.256 114.261 117.985 114.033 117.985 114.033C117.985 114.033 120.009 111.779 121.362 112.2Z" fill="black"/>
<path d="M121.41 112.298C121.552 112.782 121.843 113.208 122.241 113.514C122.877 113.961 121.604 114.994 121.604 114.994C121.604 114.994 119.894 116.966 118.272 116.005C116.65 115.044 118.029 114.127 118.029 114.127C118.029 114.127 120.062 111.878 121.41 112.298Z" fill="#9E63FF"/>
<path d="M106.489 112.133C106.489 112.133 104.491 111.399 104.001 112.271C104.001 112.271 107.634 113.613 108.367 115.544C108.367 115.544 109.304 114.57 108.023 113.331L107.784 111.511L106.489 112.133Z" fill="#00A66C"/>
<path d="M109.804 109.369C109.804 109.369 109.914 108.453 109.455 108.354C108.995 108.256 105.884 108.439 106.383 111.931C106.882 115.424 110.48 114.118 110.48 114.118L112.058 112.258C112.058 112.258 112.394 109.794 110.184 109.199L109.804 109.369Z" fill="#9E63FF"/>
<path opacity="0.1" d="M107.298 107.496C107.298 107.496 104.593 108.882 105.919 112.365L106.94 111.766C106.94 111.766 108.199 108.743 107.298 107.496Z" fill="black"/>
<path d="M107.201 107.424C107.201 107.424 104.491 108.806 105.808 112.294L106.6 112.741C106.6 112.741 108.129 108.672 107.201 107.424Z" fill="#9E63FF"/>
<path opacity="0.1" d="M111.629 110.997C111.771 111.483 112.062 111.91 112.46 112.218C113.097 112.665 111.828 113.698 111.828 113.698C111.828 113.698 110.113 115.67 108.491 114.708C107.523 113.058 108.253 112.83 108.253 112.83C108.253 112.83 110.277 110.577 111.629 110.997Z" fill="black"/>
<path d="M111.664 111.095C111.807 111.58 112.098 112.006 112.495 112.311C113.127 112.759 111.859 113.792 111.859 113.792C111.859 113.792 110.148 115.764 108.522 114.802C106.895 113.841 108.283 112.924 108.283 112.924C108.283 112.924 110.338 110.675 111.664 111.095Z" fill="#9E63FF"/>
<path d="M107.581 106.109C107.581 106.109 105.578 105.376 105.092 106.248C105.092 106.248 108.725 107.59 109.459 109.521C109.459 109.521 110.396 108.546 109.114 107.308L108.876 105.488L107.581 106.109Z" fill="#00A66C"/>
<path d="M110.895 103.333C110.895 103.333 111.006 102.438 110.546 102.318C110.087 102.197 106.975 102.403 107.452 105.895C107.93 109.387 111.55 108.081 111.55 108.081L113.127 106.221C113.127 106.221 113.459 103.757 111.249 103.163L110.895 103.333Z" fill="#9E63FF"/>
<path opacity="0.1" d="M108.385 101.472C108.385 101.472 105.676 102.854 106.993 106.342L108.014 105.743C108.014 105.743 109.291 102.72 108.385 101.472Z" fill="black"/>
<path d="M108.292 101.401C108.292 101.401 105.578 102.783 106.9 106.271L107.687 106.74C107.687 106.74 109.198 102.649 108.292 101.401Z" fill="#9E63FF"/>
<path opacity="0.1" d="M112.721 104.974C112.864 105.459 113.154 105.886 113.552 106.194C114.188 106.642 112.92 107.675 112.92 107.675C112.92 107.675 111.205 109.647 109.583 108.685C108.615 107.035 109.344 106.807 109.344 106.807C109.344 106.807 111.364 104.553 112.721 104.974Z" fill="black"/>
<path d="M112.765 105.072C112.907 105.556 113.198 105.982 113.596 106.288C114.232 106.735 112.964 107.768 112.964 107.768C112.964 107.768 111.249 109.74 109.627 108.779C108.005 107.818 109.388 106.901 109.388 106.901C109.388 106.901 111.412 104.674 112.765 105.072Z" fill="#9E63FF"/>
<path d="M100.924 115.218C100.924 115.218 106.4 115.83 109.375 125.467C112.349 135.103 102.993 127.895 102.993 127.895C102.993 127.895 100.526 128.395 100.142 123.365C99.7574 118.335 100.924 115.218 100.924 115.218Z" fill="#FBBEBE"/>
<path d="M101.532 122.291L100.223 122.879C100.069 122.948 99.9991 123.129 100.067 123.284C100.135 123.438 100.314 123.508 100.468 123.439L101.777 122.851C101.931 122.782 102.001 122.601 101.933 122.446C101.866 122.291 101.686 122.222 101.532 122.291Z" fill="#E3E8F4"/>
<path opacity="0.1" d="M78.3794 86.5733L77.4955 85.7595C74.3221 82.8083 72.2227 80.8945 72.2227 78.5067C72.2149 78.0527 72.2973 77.6018 72.465 77.1806C72.6326 76.7595 72.8821 76.3766 73.1986 76.0547C73.5151 75.7328 73.8922 75.4785 74.3076 75.3067C74.723 75.1349 75.1683 75.0492 75.617 75.0547C76.1466 75.0574 76.6693 75.1769 77.1486 75.4047C77.6279 75.6325 78.0525 75.9632 78.3927 76.3738C78.7323 75.9625 79.1567 75.6313 79.6362 75.4034C80.1156 75.1756 80.6385 75.0565 81.1683 75.0547C81.6167 75.0498 82.0614 75.136 82.4763 75.308C82.8913 75.4801 83.2678 75.7345 83.5839 76.0563C83.8999 76.3782 84.149 76.7608 84.3163 77.1817C84.4837 77.6026 84.5659 78.0531 84.5582 78.5067C84.5582 80.8945 82.4633 82.8083 79.2855 85.7595L78.3794 86.5733Z" fill="#9E63FF"/>
<path opacity="0.1" d="M66.0437 35.8395L65.1598 35.0212C61.982 32.0744 59.8826 30.1561 59.8826 27.7728C59.8749 27.3189 59.9573 26.8679 60.1249 26.4468C60.2925 26.0256 60.542 25.6427 60.8585 25.3208C61.175 24.999 61.5521 24.7446 61.9675 24.5728C62.3829 24.401 62.8282 24.3154 63.277 24.3208C63.8065 24.3236 64.3292 24.443 64.8085 24.6708C65.2878 24.8986 65.7124 25.2293 66.0526 25.6399C66.3926 25.2291 66.8171 24.8982 67.2964 24.6704C67.7758 24.4426 68.2985 24.3233 68.8282 24.3208C69.2766 24.316 69.7213 24.4021 70.1362 24.5741C70.5511 24.7462 70.9277 25.0006 71.2438 25.3225C71.5598 25.6443 71.8089 26.0269 71.9762 26.4478C72.1436 26.8687 72.2258 27.3192 72.2181 27.7728C72.2181 30.1561 70.1232 32.0744 66.9454 35.0212L66.0437 35.8395Z" fill="#9E63FF"/>
<path opacity="0.1" d="M158.611 60.16L157.727 59.3417C154.55 56.395 152.455 54.4767 152.455 52.0934C152.447 51.6398 152.529 51.1892 152.696 50.7684C152.864 50.3475 153.113 49.9648 153.429 49.643C153.745 49.3212 154.122 49.0667 154.536 48.8947C154.951 48.7227 155.396 48.6365 155.845 48.6414C156.374 48.6438 156.897 48.7631 157.376 48.9909C157.856 49.2188 158.28 49.5496 158.62 49.9605C158.96 49.5499 159.385 49.2192 159.864 48.9914C160.344 48.7635 160.866 48.6441 161.396 48.6414C161.845 48.6359 162.29 48.7216 162.705 48.8934C163.121 49.0652 163.498 49.3195 163.814 49.6414C164.131 49.9633 164.38 50.3461 164.548 50.7673C164.716 51.1885 164.798 51.6394 164.79 52.0934C164.79 54.4767 162.691 56.395 159.517 59.3417L158.611 60.16Z" fill="#9E63FF"/>
<g opacity="0.6">
<path opacity="0.5" d="M189.22 39.9501C189.009 39.6855 188.706 39.5125 188.373 39.4664C188.041 39.4203 187.703 39.5046 187.43 39.7021C187.157 39.8995 186.968 40.1952 186.903 40.5286C186.838 40.862 186.901 41.208 187.08 41.4957C187.324 41.8688 187.594 42.2352 187.85 42.5817C190.938 46.7988 192.538 51.9087 193.92 56.992C194.256 58.2378 194.579 59.5636 194.197 60.7961C194.674 57.4773 194.449 54.094 193.539 50.8694C192.635 47.6569 191.475 44.5242 190.069 41.5024C189.843 40.9552 189.558 40.4347 189.22 39.9501Z" fill="#9E63FF"/>
<path opacity="0.6" d="M169.166 48.8307C167.079 48.7641 166.816 51.962 168.89 52.1618C169.436 52.2018 169.982 52.2151 170.509 52.2285C176.895 52.4083 182.926 54.7534 188.726 57.2651C190.155 57.8847 191.649 58.5975 192.479 59.9299C189.785 56.913 186.467 54.5338 182.761 52.9613C179.05 51.3878 175.213 50.1352 171.293 49.2171C170.601 49.0063 169.887 48.8767 169.166 48.8307Z" fill="#9E63FF"/>
<path opacity="0.2" d="M169.745 56.6921C168.429 56.7454 168.725 58.6375 170.055 58.6508C170.397 58.6508 170.713 58.6508 171.075 58.6508C175.105 58.4843 179.226 59.6102 183.229 60.8427C184.238 61.0737 185.176 61.5518 185.961 62.2351C183.835 60.5777 181.427 59.3269 178.857 58.5442C176.33 57.7762 173.751 57.1929 171.141 56.7987C170.68 56.7189 170.213 56.6832 169.745 56.6921Z" fill="#9E63FF"/>
<path opacity="0.5" d="M196.685 91.8885C197.061 93.1676 198.799 92.4082 198.483 91.109C198.397 90.7626 198.298 90.4428 198.2 90.1097C197.048 86.2057 197.1 81.8819 197.291 77.6514C197.259 76.6056 197.485 75.5682 197.95 74.6334C196.882 77.1254 196.275 79.7945 196.159 82.5081C196.058 85.1761 196.148 87.848 196.429 90.5028C196.47 90.9719 196.556 91.4359 196.685 91.8885Z" fill="#9E63FF"/>
<path opacity="0.2" d="M172.148 38.1779C171.352 38.038 171.292 39.2039 172.083 39.3837C172.293 39.4304 172.497 39.4637 172.695 39.497C175.124 39.9167 177.442 41.1159 179.68 42.3684C180.256 42.633 180.757 43.041 181.135 43.5543C180.075 42.289 178.794 41.2321 177.356 40.4364C175.941 39.661 174.471 38.993 172.958 38.4377C172.698 38.3219 172.427 38.2348 172.148 38.1779Z" fill="#9E63FF"/>
<path opacity="0.6" d="M159.91 69.1371C157.902 70.1831 159.6 73.0545 161.667 72.1018C162.207 71.8553 162.734 71.5755 163.234 71.309C169.383 68.0845 176.52 66.8986 183.538 65.9793C185.263 65.7594 187.1 65.5595 188.693 66.2524C184.307 65.095 179.741 64.8166 175.249 65.433C170.81 66.0456 166.423 67.0011 162.128 68.291C161.361 68.4935 160.618 68.7771 159.91 69.1371Z" fill="#9E63FF"/>
<path opacity="0.5" d="M165.657 80.3229C164.209 81.6887 166.467 83.3009 167.981 81.9885C168.376 81.6487 168.758 81.2823 169.113 80.9425C173.518 76.7586 179.338 73.7806 185.131 71.0358C186.553 70.3696 192.373 69.7034 193.973 69.7034C189.891 70.0698 181.55 71.3623 177.843 73.0678C174.202 74.8237 170.683 76.8269 167.31 79.0638C166.722 79.4309 166.168 79.8525 165.657 80.3229Z" fill="#9E63FF"/>
<path opacity="0.6" d="M175.96 98.1843C175.539 100.136 178.298 100.183 178.811 98.1843C178.943 97.6713 179.055 97.1583 179.16 96.6653C180.431 90.6693 183.545 84.8932 186.771 79.3036C187.561 77.9378 191.991 73.9738 193.302 73.1344C190.148 75.7993 184.012 81.642 181.925 85.1797C179.927 88.7082 178.167 92.3697 176.658 96.139C176.366 96.7983 176.132 97.4828 175.96 98.1843Z" fill="#9E63FF"/>
<path opacity="0.6" d="M196.712 29.6103C195.724 27.6116 192.913 29.2505 193.809 31.3358C194.039 31.8821 194.302 32.4151 194.553 32.9214C197.581 39.1239 198.628 46.2991 199.405 53.3544C199.596 55.0865 199.76 56.9253 199.062 58.5176C200.249 54.1343 200.589 49.5602 200.063 45.0466C199.53 40.5855 198.665 36.1715 197.476 31.8421C197.295 31.0744 197.039 30.3267 196.712 29.6103Z" fill="#9E63FF"/>
<path opacity="0.6" d="M181.017 33.068C181.067 33.0985 181.123 33.1167 181.181 33.1213C181.235 33.1103 181.285 33.0846 181.326 33.0471C181.366 33.0095 181.396 32.9615 181.412 32.9081C181.662 32.3685 181.517 31.6689 181.899 31.2092C182.282 31.6776 182.591 32.2036 182.814 32.7682L184.309 32.3152C184.375 32.5995 184.385 32.8945 184.338 33.1829C184.29 33.4712 184.186 33.747 184.032 33.994C184.279 34.1057 184.502 34.264 184.69 34.4604C184.786 34.5608 184.853 34.6861 184.883 34.8224C184.914 34.9588 184.906 35.1009 184.862 35.2332C184.528 35.3135 184.184 35.3471 183.841 35.3331C183.898 35.9745 183.863 36.6209 183.736 37.2518C183.732 37.2993 183.719 37.3455 183.698 37.3878C183.676 37.4301 183.647 37.4677 183.611 37.4983C183.553 37.5215 183.489 37.5281 183.428 37.5175C183.366 37.507 183.309 37.4796 183.262 37.4384C182.759 37.1295 182.348 36.6901 182.07 36.1659L181.537 37.4983C181.499 37.6325 181.412 37.7469 181.293 37.8181C181.213 37.8484 181.124 37.8497 181.043 37.8218C180.961 37.7939 180.892 37.7385 180.846 37.6649C180.756 37.5151 180.702 37.3464 180.688 37.1719L180.483 35.9327C180.482 35.8691 180.458 35.808 180.418 35.7595C180.358 35.713 180.282 35.6916 180.207 35.6996C179.693 35.6996 179.187 35.6996 178.68 35.6996C178.587 35.4264 178.857 35.1666 179.121 35.0333C179.384 34.9001 179.687 34.8335 179.819 34.5736C180.088 34.054 179.397 33.3278 179.693 32.8748C179.99 32.4217 180.589 32.8481 181.017 33.068Z" fill="#9E63FF"/>
<path opacity="0.5" d="M208.905 39.9499C209.107 39.6619 209.415 39.4671 209.759 39.4084C210.104 39.3497 210.457 39.4319 210.742 39.6368C211.026 39.8418 211.219 40.1528 211.277 40.5013C211.335 40.8499 211.254 41.2076 211.051 41.4956C210.801 41.8687 210.538 42.2351 210.281 42.5815C207.193 46.7987 205.587 51.9086 204.211 56.9918C203.868 58.2377 203.552 59.5635 203.928 60.796C203.451 57.4772 203.676 54.0939 204.586 50.8693C205.486 47.6558 206.647 44.5228 208.056 41.5022C208.282 40.9549 208.567 40.4344 208.905 39.9499Z" fill="#9E63FF"/>
<path opacity="0.6" d="M228.959 48.8307C231.039 48.7641 231.309 51.962 229.228 52.1618C228.689 52.2018 228.136 52.2151 227.616 52.2285C221.229 52.4083 215.192 54.7534 209.392 57.2651C207.97 57.8847 206.476 58.5975 205.646 59.9299C208.34 56.913 211.658 54.5338 215.363 52.9613C219.073 51.3888 222.907 50.1363 226.825 49.2171C227.52 49.0068 228.235 48.8772 228.959 48.8307Z" fill="#9E63FF"/>
<path opacity="0.5" d="M228.419 56.6921C229.735 56.7454 229.432 58.6375 228.109 58.6508C227.76 58.6508 227.418 58.6508 227.089 58.6508C223.059 58.4843 218.938 59.6102 214.935 60.8427C213.925 61.0721 212.987 61.5504 212.203 62.2351C214.329 60.5764 216.736 59.3255 219.307 58.5442C221.839 57.7846 224.422 57.2102 227.036 56.8254C227.492 56.7374 227.955 56.6928 228.419 56.6921Z" fill="#9E63FF"/>
<path opacity="0.2" d="M225.983 38.1779C226.779 38.038 226.839 39.2039 226.049 39.3837C225.838 39.4304 225.634 39.4637 225.43 39.497C223.007 39.9167 220.683 41.1159 218.451 42.3684C217.875 42.633 217.374 43.041 216.996 43.5543C218.054 42.2893 219.332 41.2323 220.768 40.4364C222.186 39.6622 223.659 38.9942 225.173 38.4377C225.432 38.3208 225.704 38.2337 225.983 38.1779Z" fill="#9E63FF"/>
<path opacity="0.2" d="M205.376 94.3136C205.198 95.1064 204.112 94.7133 204.257 93.9072C204.257 93.694 204.342 93.4875 204.388 93.2876C204.941 90.8626 204.737 88.231 204.461 85.6594C204.439 85.0211 204.26 84.3983 203.941 83.8473C204.685 85.3245 205.154 86.9281 205.323 88.5774C205.489 90.1995 205.539 91.8315 205.475 93.4608C205.471 93.7478 205.438 94.0336 205.376 94.3136Z" fill="#9E63FF"/>
<path opacity="0.5" d="M225.476 89.0372C226.095 90.0964 224.574 90.0232 223.909 88.9639C223.731 88.6841 223.573 88.4042 223.415 88.1378C221.532 84.8933 218.662 81.6821 215.771 78.5842C215.089 77.7788 214.293 77.0806 213.408 76.5122C215.665 78.0701 217.747 79.8729 219.616 81.8886C221.473 83.8473 223.106 85.8859 224.712 87.9379C224.989 88.2876 225.244 88.6548 225.476 89.0372Z" fill="#9E63FF"/>
<path opacity="0.2" d="M170.41 89.0372C169.792 90.0964 171.312 90.0232 171.984 88.9639C172.155 88.6841 172.32 88.4042 172.471 88.1378C174.354 84.8933 177.224 81.6821 180.115 78.5842C180.799 77.7787 181.598 77.0804 182.485 76.5122C180.226 78.0699 178.142 79.8728 176.27 81.8886C174.42 83.8473 172.78 85.8859 171.174 87.9379C170.897 88.2876 170.642 88.6548 170.41 89.0372Z" fill="#9E63FF"/>
<path opacity="0.2" d="M190.55 94.3136C190.727 95.1064 191.814 94.7133 191.675 93.9072C191.636 93.694 191.59 93.4875 191.544 93.2876C190.991 90.8626 191.188 88.231 191.471 85.6594C191.488 85.0211 191.665 84.3976 191.985 83.8473C191.24 85.3245 190.772 86.9281 190.602 88.5774C190.436 90.1995 190.388 91.8316 190.458 93.4608C190.462 93.7474 190.493 94.0329 190.55 94.3136Z" fill="#9E63FF"/>
<path opacity="0.2" d="M219.643 46.1458C220.433 46.0059 220.492 47.1785 219.702 47.3517C219.498 47.3983 219.287 47.4316 219.09 47.4716C216.66 47.8847 214.343 49.0905 212.104 50.343C211.531 50.6091 211.031 51.0142 210.649 51.5223C211.71 50.2591 212.991 49.2044 214.428 48.411C215.844 47.6358 217.314 46.9677 218.826 46.4123C219.089 46.2962 219.362 46.2069 219.643 46.1458Z" fill="#9E63FF"/>
<path opacity="0.2" d="M212.236 30.4964C212.894 30.07 213.408 31.1626 212.743 31.589L212.216 31.9288C210.123 33.2612 208.411 35.2599 206.798 37.2585C206.363 37.7209 206.051 38.2869 205.889 38.9041C206.403 37.3306 207.2 35.8669 208.24 34.587C209.263 33.3266 210.376 32.1442 211.571 31.0493C211.774 30.8427 211.996 30.6575 212.236 30.4964Z" fill="#9E63FF"/>
<path opacity="0.6" d="M238.222 69.1371C240.23 70.1831 238.531 73.0545 236.464 72.1018C235.924 71.8553 235.397 71.5755 234.89 71.309C228.748 68.0845 221.611 66.8986 214.593 65.9793C212.868 65.7594 211.031 65.5595 209.438 66.2524C213.821 65.0952 218.386 64.8168 222.875 65.433C227.317 66.0449 231.706 67.0004 236.003 68.291C236.769 68.4957 237.512 68.7792 238.222 69.1371Z" fill="#9E63FF"/>
<path opacity="0.5" d="M232.474 80.3229C233.922 81.6887 231.664 83.3009 230.15 81.9885C229.755 81.6487 229.373 81.2823 229.011 80.9425C224.607 76.7586 218.793 73.7806 212.993 71.0358C211.578 70.3696 205.718 69.7034 204.158 69.7034C208.24 70.0698 216.575 71.3623 220.281 73.0678C223.923 74.8225 227.442 76.8258 230.815 79.0638C231.405 79.4306 231.961 79.8521 232.474 80.3229Z" fill="#9E63FF"/>
<path opacity="0.6" d="M215.449 100.416C215.627 102.415 212.881 102.082 212.618 100.083C212.552 99.5634 212.506 99.0371 212.46 98.5374C211.94 92.4482 209.563 86.299 207.055 80.3496C206.442 78.8839 202.532 74.4203 201.347 73.3943C204.145 76.4256 209.504 83.0145 211.143 86.7853C212.697 90.5433 213.999 94.4027 215.041 98.3376C215.242 99.0156 215.379 99.7117 215.449 100.416Z" fill="#9E63FF"/>
<path opacity="0.6" d="M217.095 33.068C217.042 33.0986 216.984 33.1168 216.923 33.1213C216.818 33.1213 216.739 33.008 216.693 32.9081C216.449 32.3685 216.588 31.6689 216.212 31.2092C215.827 31.6773 215.516 32.2033 215.291 32.7682L213.849 32.3152C213.78 32.5994 213.769 32.8947 213.817 33.1833C213.864 33.4719 213.969 33.7478 214.125 33.994C213.879 34.1057 213.655 34.264 213.467 34.4604C213.37 34.5601 213.302 34.685 213.271 34.8214C213.239 34.9578 213.246 35.1003 213.289 35.2332C213.623 35.3129 213.967 35.3465 214.31 35.3331C214.258 35.9748 214.296 36.6208 214.422 37.2518C214.425 37.2993 214.438 37.3455 214.46 37.3878C214.481 37.4301 214.511 37.4677 214.547 37.4983C214.605 37.5215 214.668 37.5281 214.729 37.5175C214.791 37.507 214.848 37.4796 214.896 37.4384C215.398 37.1295 215.81 36.6901 216.087 36.1659L216.621 37.4983C216.659 37.6305 216.743 37.7442 216.858 37.8181C216.939 37.8488 217.029 37.8504 217.111 37.8225C217.194 37.7946 217.265 37.739 217.312 37.6649C217.402 37.5151 217.456 37.3464 217.47 37.1719L217.674 35.9327C217.676 35.8691 217.699 35.808 217.74 35.7595C217.8 35.713 217.875 35.6916 217.95 35.6995C218.457 35.6995 218.971 35.6995 219.478 35.6995C219.57 35.4264 219.294 35.1666 219.037 35.0333C218.78 34.9001 218.464 34.8335 218.332 34.5736C218.069 34.054 218.76 33.3278 218.464 32.8748C218.168 32.4217 217.542 32.8481 217.095 33.068Z" fill="#9E63FF"/>
<path opacity="0.2" d="M221.453 93.2477C221.401 93.2782 221.342 93.2965 221.282 93.301C221.17 93.301 221.098 93.1877 221.051 93.0878C220.808 92.5481 220.946 91.8486 220.571 91.3889C220.185 91.8564 219.874 92.3825 219.649 92.9479L218.207 92.4948C218.139 92.7787 218.128 93.0736 218.174 93.3619C218.221 93.6503 218.324 93.9263 218.477 94.1737C218.232 94.2887 218.009 94.4466 217.819 94.6401C217.722 94.7398 217.654 94.8647 217.622 95.0011C217.591 95.1375 217.597 95.28 217.641 95.4129C217.975 95.4925 218.319 95.5262 218.662 95.5128C218.608 96.1564 218.643 96.8045 218.767 97.4382C218.771 97.4845 218.784 97.5296 218.806 97.5707C218.827 97.6119 218.857 97.6484 218.892 97.678C218.997 97.7446 219.136 97.678 219.248 97.6181C219.746 97.3063 220.155 96.8675 220.433 96.3456L220.972 97.6447C221.01 97.7791 221.094 97.8952 221.209 97.9712C221.291 97.9996 221.38 97.9992 221.461 97.9702C221.542 97.9411 221.611 97.8851 221.657 97.8113C221.749 97.662 221.805 97.4933 221.822 97.3183L222.019 96.0858C222.026 96.0212 222.049 95.9593 222.085 95.9059C222.147 95.8584 222.225 95.8369 222.302 95.8459C222.809 95.8459 223.323 95.8459 223.83 95.8459C223.915 95.5728 223.645 95.3129 223.389 95.1797C223.132 95.0465 222.816 94.9798 222.684 94.72C222.421 94.2004 223.106 93.4742 222.816 93.0211C222.526 92.5681 221.901 93.0278 221.453 93.2477Z" fill="#9E63FF"/>
<path opacity="0.6" d="M233.685 52.9079C233.633 52.9377 233.574 52.9559 233.514 52.9612C233.402 52.9612 233.33 52.848 233.284 52.7481C233.034 52.2084 233.179 51.5089 232.797 51.0492C232.415 51.5185 232.106 52.0443 231.882 52.6081L230.433 52.1551C230.366 52.4395 230.356 52.7345 230.404 53.0228C230.451 53.3111 230.555 53.5869 230.71 53.834C230.463 53.9451 230.239 54.1035 230.051 54.3003C229.954 54.4001 229.886 54.525 229.855 54.6614C229.823 54.7978 229.83 54.9403 229.874 55.0732C230.208 55.1531 230.551 55.1868 230.894 55.1731C230.84 55.8167 230.875 56.4648 230.999 57.0985C231.004 57.1448 231.017 57.1899 231.038 57.231C231.06 57.2722 231.089 57.3086 231.124 57.3383C231.182 57.3614 231.246 57.3681 231.307 57.3575C231.369 57.3469 231.426 57.3196 231.473 57.2783C231.976 56.9695 232.387 56.5301 232.665 56.0059L233.205 57.3383C233.242 57.4727 233.326 57.5888 233.442 57.6648C233.523 57.6931 233.612 57.6928 233.693 57.6638C233.775 57.6347 233.844 57.5787 233.89 57.5049C233.982 57.3564 234.036 57.1869 234.048 57.0119L234.252 55.7793C234.252 55.7135 234.276 55.65 234.317 55.5995C234.378 55.553 234.453 55.5316 234.528 55.5395C235.042 55.5395 235.549 55.5395 236.062 55.5395C236.148 55.2664 235.878 55.0065 235.614 54.8733C235.351 54.74 235.048 54.6734 234.917 54.4136C234.647 53.8939 235.338 53.1678 235.048 52.7147C234.759 52.2617 234.133 52.6881 233.685 52.9079Z" fill="#9E63FF"/>
<path opacity="0.6" d="M184.763 99.2835C184.692 99.3307 184.61 99.3562 184.526 99.3568C184.374 99.3568 184.269 99.2036 184.203 99.0637C183.861 98.3042 184.058 97.3315 183.545 96.6986C183.009 97.35 182.578 98.083 182.268 98.8705L180.253 98.2043C180.159 98.599 180.144 99.0088 180.21 99.4095C180.275 99.8101 180.42 100.193 180.635 100.536C180.281 100.697 179.959 100.923 179.687 101.202C179.552 101.342 179.457 101.516 179.413 101.707C179.369 101.897 179.377 102.096 179.437 102.282C179.902 102.394 180.381 102.441 180.859 102.421C180.788 103.313 180.839 104.209 181.01 105.086C181.023 105.219 181.087 105.341 181.188 105.426C181.333 105.519 181.524 105.426 181.675 105.346C182.362 104.916 182.929 104.315 183.321 103.601L184.065 105.406C184.118 105.594 184.237 105.755 184.401 105.859C184.518 105.909 184.65 105.915 184.771 105.874C184.892 105.834 184.994 105.75 185.059 105.639C185.184 105.438 185.261 105.21 185.283 104.973L185.559 103.254C185.568 103.164 185.603 103.079 185.658 103.008C185.744 102.945 185.849 102.914 185.954 102.921C186.665 102.921 187.37 102.921 188.081 102.921C188.206 102.541 187.824 102.188 187.462 102.022C187.1 101.855 186.672 101.742 186.488 101.389C186.119 100.656 187.074 99.6433 186.665 99.017C186.159 98.2709 185.388 98.9704 184.763 99.2835Z" fill="#9E63FF"/>
<path opacity="0.6" d="M164.406 54.1138C164.334 54.158 164.253 54.1832 164.169 54.1871C164.018 54.1871 163.912 54.0272 163.847 53.8873C163.504 53.1345 163.702 52.1618 163.188 51.5222C162.654 52.1746 162.223 52.9074 161.911 53.6941L159.896 53.0678C159.802 53.4625 159.787 53.8724 159.853 54.273C159.919 54.6736 160.063 55.0568 160.278 55.3996C159.923 55.5581 159.601 55.7843 159.33 56.0658C159.195 56.204 159.101 56.3776 159.058 56.5671C159.015 56.7566 159.025 56.9544 159.087 57.1384C159.549 57.2569 160.026 57.3063 160.502 57.285C160.431 58.1761 160.482 59.0729 160.654 59.9499C160.659 60.0167 160.678 60.0817 160.708 60.1411C160.739 60.2006 160.78 60.2534 160.831 60.2963C160.976 60.3896 161.167 60.2963 161.318 60.2097C162.013 59.773 162.584 59.1626 162.978 58.4376L163.721 60.243C163.777 60.4296 163.896 60.5902 164.057 60.6961C164.171 60.7373 164.295 60.738 164.408 60.698C164.522 60.658 164.619 60.5797 164.683 60.4762C164.808 60.2748 164.884 60.0467 164.907 59.81L165.183 58.0911C165.192 58.0011 165.226 57.9156 165.282 57.8446C165.368 57.7817 165.472 57.7511 165.578 57.758C166.289 57.758 166.994 57.758 167.705 57.758C167.83 57.3783 167.454 57.0185 167.086 56.8586C166.717 56.6987 166.296 56.5788 166.111 56.1924C165.743 55.4662 166.697 54.4536 166.296 53.8273C165.802 53.0745 165.032 53.8007 164.406 54.1138Z" fill="#9E63FF"/>
<path opacity="0.2" d="M226.174 82.0884C226.133 82.1012 226.089 82.1012 226.049 82.0884C225.97 82.0884 225.91 82.0085 225.877 81.9352C225.7 81.5354 225.805 81.0158 225.522 80.676C225.246 81.0242 225.024 81.4128 224.863 81.8286L223.79 81.4955C223.741 81.7054 223.734 81.9231 223.769 82.1359C223.804 82.3487 223.881 82.5523 223.994 82.7346C223.807 82.8162 223.637 82.9339 223.494 83.0811C223.422 83.1548 223.371 83.2474 223.348 83.3486C223.325 83.4498 223.33 83.5556 223.362 83.654C223.608 83.7138 223.86 83.7407 224.113 83.734C224.072 84.2087 224.101 84.6868 224.199 85.153C224.205 85.2229 224.238 85.2875 224.291 85.3329C224.363 85.3862 224.468 85.3329 224.547 85.2862C224.919 85.0584 225.224 84.734 225.43 84.3469L225.825 85.3062C225.852 85.4059 225.916 85.4915 226.003 85.5461C226.063 85.5663 226.128 85.5662 226.189 85.5458C226.249 85.5254 226.302 85.4857 226.338 85.4328C226.401 85.3197 226.441 85.1952 226.457 85.0664L226.602 84.1537C226.605 84.1049 226.624 84.0584 226.654 84.0204C226.7 83.9873 226.756 83.9709 226.812 83.9738C227.188 83.9738 227.563 83.9738 227.938 83.9738C228.004 83.7673 227.806 83.5807 227.616 83.4941C227.425 83.4075 227.188 83.3476 227.095 83.1544C226.898 82.7679 227.405 82.2283 227.188 81.8952C226.97 81.5621 226.509 81.9219 226.174 82.0884Z" fill="#9E63FF"/>
<path opacity="0.2" d="M198.522 98.2709C198.482 98.2837 198.438 98.2837 198.397 98.2709C198.318 98.2709 198.259 98.191 198.226 98.1177C198.048 97.7179 198.154 97.1983 197.87 96.8585C197.594 97.2067 197.372 97.5953 197.212 98.0111L196.139 97.678C196.09 97.8879 196.082 98.1056 196.117 98.3184C196.152 98.5312 196.229 98.7348 196.343 98.9171C196.156 98.9987 195.986 99.1164 195.843 99.2636C195.77 99.3373 195.72 99.4299 195.697 99.5311C195.673 99.6323 195.678 99.7381 195.711 99.8365C195.956 99.8973 196.209 99.9219 196.462 99.9098C196.421 100.387 196.45 100.867 196.547 101.336C196.553 101.404 196.584 101.468 196.633 101.515C196.677 101.532 196.724 101.537 196.771 101.528C196.817 101.52 196.86 101.5 196.896 101.469C197.268 101.241 197.572 100.917 197.778 100.529L198.173 101.489C198.203 101.587 198.266 101.672 198.351 101.729C198.412 101.748 198.477 101.747 198.537 101.727C198.597 101.706 198.65 101.667 198.687 101.615C198.751 101.503 198.789 101.378 198.799 101.249L198.95 100.336C198.954 100.287 198.972 100.241 199.003 100.203C199.047 100.167 199.104 100.15 199.161 100.156C199.536 100.156 199.911 100.156 200.287 100.156C200.353 99.9498 200.155 99.7632 199.964 99.6766C199.773 99.59 199.536 99.5234 199.444 99.3369C199.246 98.9505 199.753 98.4108 199.536 98.0777C199.319 97.7446 198.851 98.0777 198.522 98.2709Z" fill="#9E63FF"/>
<path opacity="0.5" d="M171.8 41.6955C171.761 41.7178 171.719 41.7314 171.675 41.7355C171.634 41.7281 171.596 41.7091 171.566 41.6807C171.536 41.6524 171.514 41.616 171.503 41.5756C171.319 41.1759 171.424 40.6562 171.141 40.3231C170.864 40.6704 170.642 41.0592 170.483 41.4757L169.416 41.1426C169.365 41.3519 169.356 41.5696 169.39 41.7826C169.424 41.9956 169.5 42.1994 169.614 42.3817C169.426 42.4625 169.256 42.5803 169.113 42.7282C169.041 42.8019 168.991 42.8945 168.967 42.9957C168.944 43.0969 168.949 43.2027 168.982 43.3011C169.229 43.3625 169.484 43.3872 169.739 43.3744C169.699 43.8488 169.726 44.3265 169.818 44.7935C169.82 44.8292 169.829 44.8642 169.845 44.8962C169.861 44.9283 169.883 44.9568 169.91 44.98C169.989 45.0266 170.088 44.98 170.167 44.9334C170.539 44.7029 170.843 44.3763 171.049 43.9873L171.444 44.9467C171.472 45.048 171.535 45.1356 171.622 45.1932C171.683 45.2139 171.749 45.2133 171.81 45.1916C171.871 45.1699 171.923 45.1282 171.958 45.0733C172.024 44.9619 172.065 44.8365 172.076 44.7069L172.221 43.7941C172.221 43.768 172.228 43.7423 172.239 43.7188C172.25 43.6953 172.267 43.6746 172.287 43.6581C172.307 43.6416 172.33 43.6297 172.355 43.6233C172.38 43.6169 172.406 43.6161 172.432 43.6209C172.807 43.6209 173.182 43.6209 173.564 43.6209C173.623 43.421 173.426 43.2278 173.235 43.1479C173.044 43.068 172.814 42.9947 172.715 42.8081C172.517 42.4217 173.024 41.8821 172.813 41.549C172.603 41.2159 172.096 41.529 171.8 41.6955Z" fill="#9E63FF"/>
<path opacity="0.5" d="M186.007 73.5608C185.969 73.584 185.926 73.5978 185.882 73.6007C185.803 73.6007 185.744 73.5141 185.711 73.4408C185.526 73.0411 185.632 72.5215 185.355 72.1884C185.076 72.5342 184.854 72.9234 184.697 73.3409L183.63 73.0078C183.58 73.2176 183.572 73.4355 183.607 73.6485C183.642 73.8615 183.72 74.0651 183.834 74.247C183.645 74.3276 183.472 74.4453 183.328 74.5934C183.257 74.6669 183.207 74.7584 183.184 74.8581C183.161 74.9579 183.165 75.0621 183.196 75.1597C183.443 75.2227 183.698 75.2497 183.953 75.2396C183.913 75.714 183.94 76.1918 184.032 76.6587C184.034 76.6935 184.044 76.7274 184.059 76.7583C184.075 76.7893 184.097 76.8166 184.124 76.8386C184.203 76.8919 184.308 76.8386 184.387 76.7986C184.756 76.566 185.058 76.2398 185.263 75.8526L185.665 76.8119C185.69 76.9125 185.754 76.9987 185.842 77.0517C185.902 77.0751 185.967 77.0766 186.027 77.0559C186.088 77.0352 186.139 76.9936 186.172 76.9385C186.24 76.8281 186.281 76.7022 186.29 76.5721L186.442 75.6593C186.443 75.6132 186.459 75.5688 186.488 75.5328C186.533 75.4975 186.589 75.4808 186.646 75.4861C187.021 75.4861 187.403 75.4861 187.778 75.4861C187.844 75.2863 187.64 75.0931 187.449 75.0065C187.258 74.9198 187.027 74.8599 186.929 74.6667C186.738 74.2803 187.245 73.7473 187.028 73.4142C186.81 73.0811 186.336 73.3942 186.007 73.5608Z" fill="#9E63FF"/>
<path opacity="0.5" d="M175.671 61.1425C175.63 61.1553 175.586 61.1553 175.546 61.1425C175.466 61.1425 175.407 61.0625 175.374 60.9893C175.19 60.5895 175.295 60.0699 175.019 59.7301C174.741 60.0769 174.519 60.4659 174.36 60.8827L173.294 60.5495C173.243 60.7593 173.235 60.9773 173.27 61.1904C173.305 61.4034 173.383 61.607 173.498 61.7887C173.309 61.8718 173.138 61.9892 172.991 62.1352C172.92 62.2097 172.87 62.3023 172.847 62.4032C172.824 62.5041 172.828 62.6095 172.859 62.7081C173.107 62.7695 173.362 62.7942 173.617 62.7814C173.577 63.258 173.603 63.738 173.696 64.2071C173.693 64.2502 173.703 64.2931 173.727 64.3294C173.75 64.3657 173.784 64.3935 173.824 64.4085C173.864 64.4235 173.908 64.425 173.949 64.4127C173.99 64.4004 174.026 64.375 174.051 64.3403C174.419 64.1103 174.721 63.7863 174.927 63.401L175.328 64.3603C175.358 64.4589 175.421 64.5438 175.506 64.6002C175.566 64.6204 175.631 64.6196 175.691 64.5978C175.751 64.5761 175.802 64.5347 175.835 64.4802C175.902 64.3712 175.942 64.2481 175.954 64.1205L176.105 63.2011C176.103 63.1749 176.108 63.1486 176.118 63.1244C176.128 63.1002 176.144 63.0788 176.164 63.0619C176.183 63.045 176.207 63.0331 176.232 63.0272C176.258 63.0213 176.284 63.0215 176.309 63.0279H177.442C177.507 62.828 177.303 62.6415 177.112 62.5549C176.921 62.4683 176.691 62.4016 176.592 62.2151C176.395 61.8287 176.908 61.2891 176.691 60.9559C176.474 60.6228 176 60.9626 175.671 61.1425Z" fill="#9E63FF"/>
<path opacity="0.5" d="M220.071 64.0672C220.033 64.0905 219.99 64.1021 219.946 64.1005C219.86 64.1005 219.807 64.0205 219.774 63.9473C219.59 63.5475 219.695 63.0279 219.412 62.6881C219.136 63.0363 218.914 63.4249 218.754 63.8407L217.687 63.5076C217.635 63.7168 217.626 63.9347 217.66 64.1478C217.694 64.3608 217.77 64.5646 217.885 64.7467C217.698 64.83 217.529 64.9474 217.384 65.0932C217.312 65.1669 217.262 65.2595 217.238 65.3607C217.215 65.4619 217.22 65.5676 217.253 65.6661C217.5 65.7275 217.755 65.7522 218.01 65.7394C217.97 66.216 217.997 66.696 218.089 67.1651C218.095 67.235 218.128 67.2996 218.181 67.345C218.224 67.3619 218.271 67.3664 218.316 67.3582C218.361 67.35 218.403 67.3293 218.438 67.2983C218.808 67.0685 219.112 66.7446 219.32 66.359L219.715 67.3183C219.745 67.4169 219.808 67.5018 219.893 67.5582C219.954 67.5788 220.02 67.5783 220.081 67.5566C220.142 67.5349 220.194 67.4932 220.229 67.4382C220.295 67.3292 220.336 67.2061 220.347 67.0785L220.492 66.1591C220.497 66.1126 220.515 66.0686 220.545 66.0325C220.589 65.9966 220.646 65.9799 220.703 65.9859H221.835C221.894 65.786 221.697 65.5995 221.506 65.5129C221.315 65.4263 221.084 65.3596 220.986 65.1731C220.788 64.7867 221.295 64.2471 221.084 63.9139C220.874 63.5808 220.4 63.9006 220.071 64.0672Z" fill="#9E63FF"/>
<path opacity="0.2" d="M198.522 61.6288C198.482 61.6416 198.438 61.6416 198.397 61.6288C198.318 61.6288 198.259 61.5489 198.226 61.4756C198.048 61.0759 198.154 60.5562 197.87 60.2164C197.594 60.5646 197.372 60.9532 197.212 61.369L196.139 61.0359C196.09 61.2458 196.082 61.4635 196.117 61.6763C196.152 61.8891 196.229 62.0927 196.343 62.275C196.156 62.3566 195.986 62.4743 195.843 62.6215C195.77 62.6952 195.72 62.7878 195.697 62.889C195.673 62.9902 195.678 63.096 195.711 63.1944C195.957 63.2542 196.209 63.2811 196.462 63.2744C196.421 63.7491 196.45 64.2273 196.547 64.6934C196.553 64.7618 196.584 64.8257 196.633 64.8733C196.712 64.9266 196.817 64.8733 196.896 64.8267C197.268 64.5988 197.572 64.2744 197.778 63.8873L198.173 64.8467C198.201 64.9463 198.264 65.0319 198.351 65.0865C198.412 65.1056 198.477 65.105 198.537 65.0847C198.597 65.0643 198.65 65.0254 198.687 64.9732C198.751 64.861 198.789 64.7358 198.799 64.6068L198.95 63.6941C198.954 63.6453 198.972 63.5988 199.003 63.5608C199.049 63.5277 199.105 63.5113 199.161 63.5142C199.536 63.5142 199.911 63.5142 200.287 63.5142C200.353 63.3077 200.155 63.1211 199.964 63.0345C199.773 62.9479 199.536 62.888 199.444 62.6948C199.246 62.3084 199.753 61.7687 199.536 61.4356C199.319 61.1025 198.851 61.4556 198.522 61.6288Z" fill="#9E63FF"/>
<path opacity="0.3" d="M191.768 64.5935C191.728 64.6187 191.683 64.6325 191.636 64.6335C191.557 64.6335 191.504 64.5535 191.465 64.4802C191.287 64.0805 191.392 63.5608 191.109 63.2211C190.833 63.5692 190.611 63.9579 190.451 64.3736L189.378 64.0405C189.328 64.2504 189.321 64.4682 189.356 64.681C189.391 64.8938 189.468 65.0973 189.582 65.2797C189.395 65.363 189.226 65.4804 189.082 65.6261C189.009 65.6998 188.959 65.7925 188.935 65.8937C188.912 65.9949 188.917 66.1006 188.95 66.1991C189.195 66.2598 189.448 66.2845 189.7 66.2724C189.663 66.7493 189.692 67.2292 189.786 67.6981C189.792 67.768 189.825 67.8326 189.878 67.878C189.921 67.8948 189.968 67.8994 190.013 67.8912C190.058 67.883 190.1 67.8622 190.135 67.8313C190.505 67.6014 190.809 67.2776 191.017 66.8919L191.412 67.8513C191.442 67.9498 191.505 68.0347 191.59 68.0911C191.651 68.1118 191.717 68.1113 191.778 68.0895C191.839 68.0678 191.891 68.0262 191.926 67.9712C191.989 67.8609 192.03 67.7384 192.044 67.6115L192.189 66.6921C192.189 66.6659 192.196 66.6402 192.207 66.6167C192.218 66.5932 192.235 66.5725 192.255 66.556C192.275 66.5395 192.298 66.5277 192.323 66.5212C192.348 66.5148 192.374 66.514 192.4 66.5189C192.775 66.5189 193.15 66.5189 193.532 66.5189C193.591 66.319 193.394 66.1325 193.203 66.0458C193.012 65.9592 192.781 65.8926 192.683 65.7061C192.485 65.3197 192.992 64.78 192.775 64.4469C192.558 64.1138 192.097 64.4336 191.768 64.5935Z" fill="#9E63FF"/>
<path opacity="0.2" d="M185.461 46.5855C185.423 46.6088 185.38 46.6225 185.335 46.6255C185.256 46.6255 185.197 46.5389 185.164 46.4656C184.986 46.0659 185.092 45.5462 184.809 45.2131C184.53 45.5594 184.308 45.9485 184.15 46.3657L183.077 46.0259C183.028 46.2358 183.021 46.4536 183.056 46.6664C183.091 46.8792 183.167 47.0827 183.281 47.2651C183.095 47.349 182.926 47.4664 182.781 47.6115C182.709 47.6857 182.659 47.7783 182.636 47.8793C182.613 47.9804 182.617 48.0859 182.649 48.1845C182.895 48.2443 183.147 48.2712 183.4 48.2644C183.359 48.7391 183.388 49.2173 183.485 49.6835C183.491 49.7522 183.521 49.8165 183.571 49.8633C183.65 49.9166 183.755 49.8633 183.834 49.8234C184.205 49.5912 184.509 49.265 184.717 48.8773L185.112 49.8367C185.139 49.9363 185.202 50.0219 185.289 50.0765C185.35 50.0991 185.416 50.1001 185.477 50.0795C185.538 50.059 185.59 50.0179 185.625 49.9633C185.689 49.851 185.727 49.7259 185.737 49.5969L185.888 48.6841C185.892 48.6353 185.911 48.5888 185.941 48.5509C185.964 48.5339 185.989 48.5217 186.016 48.5148C186.043 48.508 186.071 48.5066 186.099 48.5109C186.474 48.5109 186.85 48.5109 187.225 48.5109C187.291 48.3044 187.093 48.1178 186.902 48.0312C186.711 47.9446 186.474 47.8847 186.382 47.6915C186.185 47.3051 186.692 46.7721 186.474 46.439C186.257 46.1059 185.79 46.419 185.461 46.5855Z" fill="#9E63FF"/>
<path opacity="0.3" d="M197.877 70.0898C197.84 70.1131 197.796 70.1247 197.752 70.1231C197.667 70.1231 197.614 70.0431 197.581 69.9699C197.397 69.5701 197.502 69.0505 197.219 68.7107C196.941 69.0603 196.719 69.4513 196.561 69.8699L195.494 69.5301C195.443 69.7396 195.435 69.9571 195.469 70.17C195.503 70.3828 195.578 70.5866 195.691 70.7693C195.506 70.8541 195.336 70.9714 195.191 71.1158C195.119 71.1895 195.068 71.2821 195.045 71.3833C195.022 71.4845 195.027 71.5902 195.059 71.6887C195.307 71.7486 195.562 71.7754 195.817 71.7686C195.777 72.2431 195.804 72.7208 195.896 73.1877C195.902 73.2576 195.935 73.3222 195.988 73.3676C196.067 73.4209 196.165 73.3676 196.245 73.3276C196.615 73.0954 196.919 72.7693 197.127 72.3816L197.522 73.3409C197.549 73.4406 197.613 73.5262 197.699 73.5808C197.76 73.601 197.825 73.6009 197.886 73.5805C197.946 73.5601 197.999 73.5204 198.035 73.4675C198.101 73.3557 198.142 73.2306 198.154 73.1011L198.299 72.1884C198.305 72.1402 198.323 72.0944 198.351 72.0551C198.397 72.022 198.453 72.0056 198.509 72.0085C198.885 72.0085 199.266 72.0085 199.642 72.0085C199.707 71.802 199.503 71.6154 199.312 71.5288C199.122 71.4422 198.891 71.3822 198.792 71.189C198.595 70.8026 199.108 70.263 198.891 69.9299C198.674 69.5968 198.206 69.9232 197.877 70.0898Z" fill="#9E63FF"/>
</g>
</g>
<defs>
<linearGradient id="paint0_linear" x1="155.778" y1="286.227" x2="155.778" y2="52.8714" gradientUnits="userSpaceOnUse">
<stop stop-color="#808080" stop-opacity="0.25"/>
<stop offset="0.54" stop-color="#808080" stop-opacity="0.12"/>
<stop offset="1" stop-color="#808080" stop-opacity="0.1"/>
</linearGradient>
<clipPath id="clip0">
<rect x="0.759277" y="0.620361" width="291.241" height="291.241" fill="white"/>
</clipPath>
</defs>
</svg>
