<svg width="292" height="292" fill="none" xmlns="http://www.w3.org/2000/svg"><g clip-path="url(#clip0)"><path opacity=".1" d="M151.973 287.992c73.121-4.005 132.093-12.679 131.718-19.374-.375-6.694-59.955-8.875-133.076-4.87-73.12 4.006-132.092 12.68-131.717 19.374.375 6.695 59.954 8.876 133.075 4.87zM2.912 191.869c4.471 23.44 13.932 43.698 28.887 53.515 31.076 20.411 101.161 9.884 153.469-2.201 27.05-6.239 50.835-23.482 68.111-47.766L2.912 191.869zM276.57 83.136h-28.576a1.932 1.932 0 01-.933-.2 2.396 2.396 0 01-.797-.647 3.134 3.134 0 01-.535-.99 3.731 3.731 0 01-.188-1.175c0-.404.064-.804.188-1.176.124-.372.306-.709.535-.99.229-.28.5-.5.797-.646a1.93 1.93 0 01.933-.2h4.937a1.93 1.93 0 01-.932-.2 2.376 2.376 0 01-.797-.647 3.132 3.132 0 01-.535-.99 3.704 3.704 0 01-.189-1.175c0-.404.064-.804.189-1.176.124-.372.306-.709.535-.99.228-.28.499-.5.797-.646a1.93 1.93 0 01.932-.2h-3.527a1.936 1.936 0 01-.933-.2 2.382 2.382 0 01-.796-.647 3.134 3.134 0 01-.535-.989 3.704 3.704 0 01-.189-1.176c0-.404.064-.804.189-1.176.124-.372.306-.708.535-.99.228-.28.499-.5.796-.645a1.92 1.92 0 01.933-.2h14.914c-3.312-1.877-7.169-3.214-11.648-3.91-40.647-6.375-55.165-2.16-60.287 2.178-6.331 5.346-13.37 9.278-20.9 11.173-25.092 6.313-72.013 13.908-114.539-2.432-21.135-8.121-36.849 5.603-46.265 28.539h270.854c-.355-6.666-1.413-12.825-3.358-18.21-.452.473-1.019.731-1.605.733z" fill="#A763FF"/><path opacity=".1" d="M174.832 156.649l-.374-.029-3.901-.278-37.38-2.648-4.039-.288-59.524-4.214-16.683-1.188-2.639-.186-2.344-.166-47.33-3.353a184.765 184.765 0 001.113 40.345l39.826 1.764 3.157.144.559.023 18.906.829 1.016.042 2.18.096 19.05.845 2.61.119 9.1.403h.172l1.339.061 4.559.202 4.001.176 7.62.336h.16l.678.032.722.032h.157l12.147.538 3.403.154h.143l1.638.07.305.016h.122l1.44.064 4.397.195 1.651.074 2.121.093h.078l2.911.131 8.418.375 2.317.099h.254l11.222.496 6.518.289 8.11.361 1.301.058 2.1.093 7.636.336 57.596 2.562c6.974-9.711 12.857-20.584 17.483-32.315l-96.022-6.788zM66.538 179.063c-.605.002-1.191-.271-1.65-.768a2.985 2.985 0 01-.524-.798 3.52 3.52 0 01-.302-1.434c0-.587.142-1.159.409-1.64.082-.146.174-.285.274-.413.235-.298.514-.534.822-.694.308-.161.638-.242.971-.241h4.954a1.945 1.945 0 01-.946-.187 2.391 2.391 0 01-.812-.642 3.11 3.11 0 01-.545-.992 3.689 3.689 0 01-.193-1.182c0-.407.066-.809.193-1.183a3.13 3.13 0 01.545-.992c.234-.28.51-.499.812-.641.302-.143.623-.206.945-.188h-3.538a1.782 1.782 0 01-.23 0c-.63-.038-1.223-.391-1.646-.979-.424-.589-.645-1.366-.614-2.16.03-.794.31-1.54.777-2.074.467-.535 1.083-.813 1.713-.774h28.662a1.94 1.94 0 01.945.187c.302.142.578.36.81.641.234.28.42.617.546.991.127.373.192.775.192 1.181s-.065.808-.192 1.181a3.107 3.107 0 01-.545.991 2.374 2.374 0 01-.81.641 1.942 1.942 0 01-.946.187h3.539c.322-.019.644.045.946.188.302.142.578.36.811.641.233.281.419.618.546.992a3.717 3.717 0 010 2.365 3.128 3.128 0 01-.546.992 2.388 2.388 0 01-.811.642 1.946 1.946 0 01-.946.187h-4.953c.321-.019.643.045.945.187.301.143.577.361.81.641.233.281.418.618.545.991.127.373.192.775.192 1.181 0 .407-.065.808-.192 1.182-.127.373-.312.71-.545.991-.233.28-.509.498-.81.64a1.942 1.942 0 01-.945.188l-28.663-.026zm215.838-78.45l-197.76 5.856-21.735.644-55.33 1.639c-3.346 10.469-5.561 22.304-6.58 34.576h276.59a170.572 170.572 0 003.992-22.037c.823-7.214 1.156-14.184.823-20.678zM56.76 127.292h-4.954c.643-.013 1.265.296 1.73.861.463.566.732 1.341.747 2.156v.184c-.026.47-.14.925-.33 1.33a2.797 2.797 0 01-.77.997 2.17 2.17 0 01-1.372.509H23.14a1.939 1.939 0 01-.935-.201 2.409 2.409 0 01-.8-.647 3.152 3.152 0 01-.537-.992 3.73 3.73 0 01-.189-1.178c0-.405.064-.806.19-1.179.124-.373.306-.71.536-.991a2.4 2.4 0 01.8-.648c.298-.146.616-.214.935-.201h4.957a1.938 1.938 0 01-.935-.2 2.399 2.399 0 01-.8-.648 3.147 3.147 0 01-.537-.991 3.734 3.734 0 01-.189-1.179c0-.405.064-.805.189-1.178a3.15 3.15 0 01.537-.992c.23-.281.501-.501.8-.647.298-.146.616-.214.935-.201h-3.54a1.938 1.938 0 01-.935-.201 2.41 2.41 0 01-.8-.647 3.152 3.152 0 01-.536-.992 3.725 3.725 0 01-.19-1.178c0-.405.065-.806.19-1.179.125-.372.307-.71.537-.991a2.4 2.4 0 01.8-.648c.297-.145.616-.214.935-.2h28.67c.319-.014.637.055.935.2a2.4 2.4 0 01.8.648c.23.281.412.619.536.991.125.373.19.774.19 1.179s-.065.805-.19 1.178a3.15 3.15 0 01-.536.992c-.23.281-.502.501-.8.647a1.939 1.939 0 01-.936.201h3.54c.41-.001.813.125 1.176.367.387.248.714.627.943 1.094.23.467.353 1.005.358 1.556-.015.815-.284 1.591-.748 2.156-.464.566-1.086.876-1.73.863h-.007z" fill="#A763FF"/><path d="M169.773 63.188c-1.633-.896-3.597-1.81-5.275-1.009a4.135 4.135 0 00-1.543 1.412 6.795 6.795 0 00-1.045 5.168c.456 2.199 2.002 4.123 2.145 6.356a5.326 5.326 0 01-1.259 3.767c-.375.437-.826.82-1.107 1.322-.755 1.345-.058 3.045.874 4.28.446.598.97 1.222.963 1.964-.019.31-.086.616-.198.906-.707 2.142-1.486 4.398-3.232 5.853-1.374 1.132-3.165 1.634-4.922 1.942-2.293.403-4.728.581-6.674 1.843-2.296 1.492-3.445 4.194-5.434 6.06a9.663 9.663 0 01-3.738 2.149 9.768 9.768 0 01-4.315.318" stroke="#444053" stroke-miterlimit="10"/><path d="M183.647 42.722c-6.612 7.17-16.15 14.738-22.67 8.852-6.521-5.885-7.552-22.994-.947-30.17 6.605-7.176 17.257-8.211 23.777-2.326 6.521 5.886 6.45 16.474-.16 23.644z" fill="#A763FF"/><path d="M161.53 57.511s-1.412-.677-.484-1.721c.084-.092.175-.177.271-.256a3.7 3.7 0 00.816-.978 4.49 4.49 0 00.206-.403 5.879 5.879 0 00.507-1.969l4.125.933s-1.969.86-1.989 1.604a.43.43 0 00.11.293.847.847 0 00.235.191c.105.063.196.123.278.18.95.681.339 1.074.339 1.074-.631 1.676-4.414 1.052-4.414 1.052z" fill="#A763FF"/><path d="M165.102 55.006l-2.961-.45a4.49 4.49 0 00.206-.403c.731.18 1.898.417 2.64.564 0 .107.042.21.115.29z" fill="#444053"/><path d="M161.529 57.511s-1.413-.677-.484-1.72a4.746 4.746 0 001.728.584c.85.071 2.274-.356 2.837-1 .951.68.34 1.073.34 1.073-.639 1.687-4.421 1.063-4.421 1.063z" fill="#A763FF"/><path opacity=".1" d="M161.529 57.511s-1.413-.677-.484-1.72a4.746 4.746 0 001.728.584c.85.071 2.274-.356 2.837-1 .951.68.34 1.073.34 1.073-.639 1.687-4.421 1.063-4.421 1.063z" fill="#000"/><path opacity=".1" d="M175.828 17.671s-4.358-1.867-6.525.728c0 0 .995.117 1.598.579.287.245.629.42.998.51 0 0 1.186-1.447 3.929-1.817z" fill="#fff"/><path d="M148.644 75.827a12.179 12.179 0 01-3.169 1.34c-.308.088-.627.17-.949.24-8.361 1.794-21.096-1.875-25.502-8.821-4.115-6.486-3.859-14.324.078-19.623.192-.258.39-.51.601-.765a14.48 14.48 0 013.377-2.897c6.04-3.737 13.921-2.54 19.479 2.423.492.436.961.899 1.402 1.386.216.233.427.477.632.727a19.325 19.325 0 011.459 2.002c.243.387.492.783.728 1.19.026.03.039.067.061.1a52.058 52.058 0 013.866 7.595c.324.816.616 1.622.855 2.432.173.558.324 1.116.451 1.67.576 2.478.661 4.825-.008 6.835-.066.2-.144.39-.224.59l-.039.09a7.256 7.256 0 01-1.393 2.103 8.415 8.415 0 01-1.705 1.383z" fill="#A763FF"/><path opacity=".1" d="M148.644 75.827a12.179 12.179 0 01-3.169 1.34c-.308.088-.627.17-.949.24-8.361 1.794-21.096-1.875-25.502-8.821-4.115-6.486-3.859-14.324.078-19.623.192-.258.39-.51.601-.765a14.48 14.48 0 013.377-2.897c6.04-3.737 13.921-2.54 19.479 2.423.492.436.961.899 1.402 1.386.216.233.427.477.632.727a19.325 19.325 0 011.459 2.002c.243.387.492.783.728 1.19.026.03.039.067.061.1a52.058 52.058 0 013.866 7.595c.324.816.616 1.622.855 2.432.173.558.324 1.116.451 1.67.576 2.478.661 4.825-.008 6.835-.066.2-.144.39-.224.59l-.039.09a7.256 7.256 0 01-1.393 2.103 8.415 8.415 0 01-1.705 1.383z" fill="#000"/><path d="M152.769 76.853a1.864 1.864 0 01-.18-.326 3.633 3.633 0 00-.738-1.042 3.643 3.643 0 00-.344-.317 5.676 5.676 0 00-1.161-.749c-.2-.1-.405-.189-.616-.264l1.379-2.535.021-.037.598-1.099c.062.39.154.775.274 1.152.17.526.413 1.064.758 1.172a.464.464 0 00.316-.027.795.795 0 00.25-.174c.093-.077.171-.154.25-.219.915-.716 1.142-.029 1.142-.029.646.472.69 1.41.543 2.302-.024.133-.05.263-.078.386a10.166 10.166 0 01-.609 1.812s-1.039 1.165-1.805-.006z" fill="#A763FF"/><path d="M151.856 75.492a3.538 3.538 0 00-.345-.317c.322-.536.752-1.378 1.081-2.028.027-.047.047-.09.072-.135.025-.045.07-.139.105-.2a.466.466 0 00.316-.028l-.186.408-.075.162-.968 2.138z" fill="#444053"/><path d="M152.768 76.852a4.66 4.66 0 001.027-1.49 3.65 3.65 0 00.186-1.077 2.993 2.993 0 00-.003-.328 3.182 3.182 0 00-.399-1.566c.915-.716 1.142-.029 1.142-.029.646.472.691 1.41.544 2.302-.024.134-.051.264-.078.387a10.24 10.24 0 01-.609 1.812s-1.044 1.16-1.81-.01z" fill="#A763FF"/><path opacity=".1" d="M152.768 76.852a4.66 4.66 0 001.027-1.49 3.65 3.65 0 00.186-1.077 2.993 2.993 0 00-.003-.328 3.182 3.182 0 00-.399-1.566c.915-.716 1.142-.029 1.142-.029.646.472.691 1.41.544 2.302-.024.134-.051.264-.078.387a10.24 10.24 0 01-.609 1.812s-1.044 1.16-1.81-.01z" fill="#000"/><path opacity=".1" d="M119.58 52.557s-2.98 3.649-1.028 6.412c0 0 .379-.915.987-1.354a2.37 2.37 0 00.765-.814s-1.095-1.53-.724-4.244z" fill="#fff"/><path d="M188.065 59.083c-4.089 1.168-8.684 2.116-12.784 2.13-3.152.017-6.009-.526-8.115-1.942a7.496 7.496 0 01-2.245-2.34 8.055 8.055 0 01-.879-2.015c-1.453-4.95.789-12.242 4.819-17.949 2.797-3.953 6.438-7.138 10.3-8.241 9.421-2.685 19.058 1.926 21.527 10.314 2.468 8.389-3.194 17.348-12.623 20.043z" fill="#A763FF"/><path opacity=".1" d="M188.065 59.083c-4.089 1.168-8.684 2.116-12.784 2.13-3.152.017-6.009-.526-8.115-1.942a7.496 7.496 0 01-2.245-2.34 8.055 8.055 0 01-.879-2.015c-1.453-4.95.789-12.242 4.819-17.949 2.797-3.953 6.438-7.138 10.3-8.241 9.421-2.685 19.058 1.926 21.527 10.314 2.468 8.389-3.194 17.348-12.623 20.043z" fill="#000"/><path d="M165.716 61.671c-1.433 1.1-4.337-1.382-4.337-1.382s-.846-1.309.499-1.713c.119-.036.24-.063.363-.08a3.785 3.785 0 001.224-.413 4.97 4.97 0 00.394-.236c.383-.26.735-.563 1.049-.902.152-.162.293-.333.422-.513l3.032 2.916a8.977 8.977 0 00-1.209-.063c-.561.016-1.142.108-1.339.402a.417.417 0 00-.054.316c.014.1.047.197.098.284.053.096.101.194.142.295.448 1.063-.284 1.09-.284 1.09z" fill="#A763FF"/><path d="M165.755 59.995l-2.283-1.905a5.47 5.47 0 00.394-.236 67.854 67.854 0 001.954 1.84.405.405 0 00-.065.301z" fill="#444053"/><path d="M165.715 61.672c-1.433 1.1-4.336-1.382-4.336-1.382s-.846-1.309.498-1.713a4.674 4.674 0 001.17 1.388c.689.493 2.125.871 2.946.611.453 1.07-.278 1.096-.278 1.096z" fill="#A763FF"/><path opacity=".1" d="M165.715 61.672c-1.433 1.1-4.336-1.382-4.336-1.382s-.846-1.309.498-1.713a4.674 4.674 0 001.17 1.388c.689.493 2.125.871 2.946.611.453 1.07-.278 1.096-.278 1.096z" fill="#000"/><path opacity=".1" d="M194.608 33.69s-2.732-3.84-5.952-2.748c0 0 .788.612 1.059 1.309.114.358.314.684.583.95 0 0 1.78-.62 4.31.488z" fill="#fff"/><g opacity=".1" fill="#000"><path opacity=".1" d="M117.276 35.221c-.6.446-.975 1.362-.975 1.362-1.953-2.76 1.023-6.41 1.023-6.41-.368 2.714.717 4.234.717 4.234a2.367 2.367 0 01-.765.815zm30.208 16.559l2-3.67c.062.39.153.775.274 1.152a7.364 7.364 0 01-1.658 2.782 5.56 5.56 0 00-.616-.263zm-.627 1.342c-.153.107-.315.217-.48.32a12.153 12.153 0 01-3.17 1.334c-.307.089-.628.169-.951.242-7.17 1.54-17.553-.935-23.141-6.064a14.4 14.4 0 013.981-3.66c6.039-3.737 13.921-2.54 19.479 2.424a19.428 19.428 0 013.493 4.116c.258.426.528.853.789 1.288z"/><path opacity=".1" d="M150.517 54.47a1.879 1.879 0 01-.181-.328 3.626 3.626 0 00-.738-1.04 3.477 3.477 0 00-.343-.318 6.117 6.117 0 00-1.778-1.014l1.999-3.67c.062.39.153.776.274 1.152.169.525.412 1.063.757 1.171a.477.477 0 00.317-.026.856.856 0 00.249-.175l.254-.21c.915-.716 1.142-.032 1.142-.032 1.462 1.067-.143 4.5-.143 4.5s-1.043 1.158-1.809-.01z"/><path opacity=".1" d="M149.598 53.102a3.38 3.38 0 00-.344-.317c.372-.642.91-1.692 1.253-2.362a.477.477 0 00.317-.026l-1.226 2.706zm.918 1.367a4.717 4.717 0 001.026-1.493c.297-.786.258-2.261-.221-2.971.916-.717 1.143-.032 1.143-.032 1.461 1.066-.144 4.5-.144 4.5s-1.038 1.165-1.804-.004z"/><path opacity=".1" d="M150.516 54.469a4.717 4.717 0 001.026-1.493c.297-.786.258-2.261-.221-2.971.916-.717 1.143-.032 1.143-.032 1.461 1.066-.144 4.5-.144 4.5s-1.038 1.165-1.804-.004zm-34.215-17.886c-1.953-2.76 1.023-6.41 1.023-6.41-.368 2.714.717 4.234.717 4.234a2.367 2.367 0 01-.765.815c-.6.445-.975 1.361-.975 1.361z"/></g><path d="M147.144 52.821c-.111.067-.223.132-.336.201-.895.49-1.848.87-2.837 1.133-.093.026-.19.054-.286.076-.22.063-.447.117-.669.159-7.236 1.552-17.74-.983-23.297-6.2a13.419 13.419 0 01-2.208-2.619c-5.221-8.234-3.402-18.657 4.059-23.281 6.04-3.738 13.921-2.541 19.48 2.424a19.493 19.493 0 013.492 4.114c1.75 2.75 3.452 5.83 4.661 8.88.255.643.487 1.283.697 1.92.057.17.107.343.156.51.097.313.183.63.267.94.068.246.125.489.184.733.575 2.478.659 4.824-.009 6.836a7.34 7.34 0 01-1.656 2.78 8.418 8.418 0 01-1.698 1.394z" fill="#A763FF"/><path d="M151.27 53.848a1.874 1.874 0 01-.18-.327 3.705 3.705 0 00-.736-1.042 5.768 5.768 0 00-1.506-1.068 5.89 5.89 0 00-.618-.262l1.999-3.67c.063.39.155.776.275 1.152.168.525.411 1.063.757 1.17a.478.478 0 00.317-.025.851.851 0 00.248-.175l.256-.211c.916-.716 1.141-.03 1.141-.03 1.462 1.066-.143 4.5-.143 4.5s-1.042 1.155-1.81-.012z" fill="#A763FF"/><path d="M150.353 52.48a3.679 3.679 0 00-.346-.316c.374-.644.911-1.693 1.253-2.362a.48.48 0 00.318-.026l-1.225 2.704z" fill="#444053"/><path d="M151.269 53.848a4.68 4.68 0 001.026-1.493c.297-.786.258-2.261-.219-2.973.916-.716 1.141-.03 1.141-.03 1.462 1.066-.143 4.5-.143 4.5s-1.037 1.163-1.805-.004z" fill="#A763FF"/><path opacity=".1" d="M151.269 53.848a4.68 4.68 0 001.026-1.493c.297-.786.258-2.261-.219-2.973.916-.716 1.141-.03 1.141-.03 1.462 1.066-.143 4.5-.143 4.5s-1.037 1.163-1.805-.004z" fill="#000"/><path opacity=".1" d="M118.078 29.55s-2.976 3.649-1.026 6.413c0 0 .378-.917.98-1.362a2.37 2.37 0 00.765-.815s-1.089-1.52-.719-4.237z" fill="#fff"/><g opacity=".1" fill="#000"><path opacity=".1" d="M152.518 9.133a2.44 2.44 0 01-1.115-.164c-.714-.24-1.692-.036-1.692-.036 1.199-3.154 5.938-2.768 5.938-2.768-2.478 1.227-3.131 2.968-3.131 2.968zm-2.443 30.992c.173.562.323 1.119.451 1.672a14.781 14.781 0 01-1.536-1.262c-3.878-3.63-6.954-9.835-7.914-15.818a19.425 19.425 0 013.49 4.112c1.749 2.75 3.45 5.827 4.659 8.875.317.807.61 1.615.85 2.421zm7.94 3.28a7.612 7.612 0 01-3.259.216 4.675 4.675 0 00-.128-.652l4.201-.439a8.171 8.171 0 00-.814.875z"/><path opacity=".1" d="M155.108 48.44s-1.558-.189-1.02-1.474c.049-.114.107-.226.173-.332a3.66 3.66 0 00.455-1.188c.031-.152.05-.31.07-.455a5.528 5.528 0 00-.033-1.372 4.825 4.825 0 00-.129-.652l4.202-.438a8.09 8.09 0 00-.812.877c-.35.435-.654.937-.556 1.287.037.1.108.183.201.238.087.053.184.09.285.108.119.027.227.052.323.081 1.112.347.673.912.673.912-.057 1.79-3.832 2.408-3.832 2.408z"/><path opacity=".1" d="M157.664 44.924l-2.949.521c.03-.152.049-.311.07-.455a65.31 65.31 0 002.674-.309.47.47 0 00.205.243zm-2.558 3.516s-1.558-.189-1.02-1.474a4.815 4.815 0 001.827 0c.824-.203 2.035-1.063 2.357-1.854 1.113.348.674.913.674.913-.062 1.797-3.838 2.415-3.838 2.415z"/><path opacity=".1" d="M155.106 48.44s-1.558-.189-1.02-1.474a4.815 4.815 0 001.827 0c.824-.203 2.035-1.063 2.357-1.854 1.113.348.674.913.674.913-.062 1.797-3.838 2.415-3.838 2.415zm-2.588-39.307a2.44 2.44 0 01-1.115-.164c-.714-.24-1.692-.036-1.692-.036 1.199-3.154 5.938-2.768 5.938-2.768-2.478 1.227-3.131 2.968-3.131 2.968z"/></g><path d="M158.412 43.095a7.589 7.589 0 01-3.257.216 8.382 8.382 0 01-2.129-.617 11.696 11.696 0 01-2.666-1.633 17.275 17.275 0 01-.986-.845.217.217 0 00-.062-.057c-3.687-3.474-6.633-9.28-7.716-14.99-.742-3.885-.621-7.72.712-10.748 3.921-8.897 13.648-13.278 21.73-9.787 8.081 3.491 11.462 13.541 7.532 22.442-1.314 2.979-2.912 6.1-4.773 8.807a31.67 31.67 0 01-.509.722c-2.282 3.163-4.93 5.655-7.876 6.49z" fill="#A763FF"/><path opacity=".1" d="M158.412 43.095a7.589 7.589 0 01-3.257.216 8.382 8.382 0 01-2.129-.617 11.696 11.696 0 01-2.666-1.633 17.275 17.275 0 01-.986-.845.217.217 0 00-.062-.057c-3.687-3.474-6.633-9.28-7.716-14.99-.742-3.885-.621-7.72.712-10.748 3.921-8.897 13.648-13.278 21.73-9.787 8.081 3.491 11.462 13.541 7.532 22.442-1.314 2.979-2.912 6.1-4.773 8.807a31.67 31.67 0 01-.509.722c-2.282 3.163-4.93 5.655-7.876 6.49z" fill="#000"/><path d="M155.484 48.13s-1.556-.19-1.019-1.475c.049-.115.107-.226.174-.332a3.71 3.71 0 00.455-1.188 5.49 5.49 0 00.036-1.828 4.995 4.995 0 00-.128-.651l4.2-.437a8.087 8.087 0 00-.811.876c-.35.434-.653.937-.555 1.286a.45.45 0 00.2.238c.087.054.184.09.284.11.119.027.228.05.324.08 1.113.347.673.912.673.912-.053 1.788-3.833 2.41-3.833 2.41z" fill="#A763FF"/><path d="M158.042 44.613l-2.949.521c.03-.15.053-.302.068-.454.747-.06 1.929-.211 2.676-.31a.45.45 0 00.205.243z" fill="#444053"/><path d="M155.482 48.13s-1.556-.19-1.019-1.475a4.806 4.806 0 001.826 0c.826-.203 2.035-1.062 2.359-1.854 1.113.347.673.913.673.913-.058 1.794-3.839 2.416-3.839 2.416z" fill="#A763FF"/><path opacity=".1" d="M155.482 48.13s-1.556-.19-1.019-1.475a4.806 4.806 0 001.826 0c.826-.203 2.035-1.062 2.359-1.854 1.113.347.673.913.673.913-.058 1.794-3.839 2.416-3.839 2.416z" fill="#000"/><path opacity=".1" d="M156.025 5.852s-4.733-.378-5.937 2.773c0 0 .98-.21 1.693.034.353.142.734.199 1.113.166 0 0 .653-1.746 3.131-2.973z" fill="#fff"/><path d="M193.896 94.553c-7.42 4.7-17.727 1.869-23.04-6.311-2.577-3.972-5.07-8.63-6.101-12.909-.599-2.483-.706-4.83-.052-6.848a7.418 7.418 0 011.619-2.801 8.475 8.475 0 011.703-1.403c1.793-1.137 4.148-1.795 6.76-2.026 8.188-.72 18.916 2.773 22.935 8.977 5.304 8.18 3.596 18.625-3.824 23.321z" fill="#A763FF"/><path d="M164.995 69.66a8.088 8.088 0 00-.284-1.157c-.173-.53-.424-1.06-.77-1.163a.422.422 0 00-.32.031.892.892 0 00-.245.17c-.094.077-.172.16-.247.222-.909.73-1.144.044-1.144.044-1.471-1.05.103-4.504.103-4.504s1.023-1.171 1.804-.012c.069.104.129.212.182.324.185.387.438.74.748 1.04.109.11.224.214.346.31a5.991 5.991 0 001.793.993l-1.966 3.702z" fill="#A763FF"/><path d="M163.943 67.339a.425.425 0 00-.321.031l1.202-2.718c.109.11.225.214.346.31-.367.65-.896 1.706-1.227 2.377z" fill="#444053"/><path d="M163.129 67.765c-.909.73-1.143.043-1.143.043-1.472-1.05.102-4.504.102-4.504s1.024-1.172 1.804-.012a4.63 4.63 0 00-1.009 1.5c-.289.791-.24 2.266.246 2.973z" fill="#A763FF"/><path opacity=".1" d="M163.129 67.765c-.909.73-1.143.043-1.143.043-1.472-1.05.102-4.504.102-4.504s1.024-1.172 1.804-.012a4.63 4.63 0 00-1.009 1.5c-.289.791-.24 2.266.246 2.973z" fill="#000"/><path opacity=".1" d="M197.324 87.266s2.94-3.68.962-6.424c0 0-.37.919-.969 1.372a2.375 2.375 0 00-.755.822s1.103 1.51.762 4.23z" fill="#fff"/><path opacity=".1" d="M164.763 75.35c-.6-2.484-.707-4.832-.052-6.85-.173-.529-.424-1.06-.77-1.163a.427.427 0 00-.321.031.923.923 0 00-.245.17c-.093.077-.171.16-.247.222-.909.73-1.143.044-1.143.044-1.473-1.05.102-4.505.102-4.505s1.024-1.172 1.804-.012c.069.103.13.211.183.323.185.388.438.74.748 1.04.109.111.225.215.346.311.359.288.75.535 1.166.734a8.445 8.445 0 011.703-1.403c1.793-1.137 4.149-1.795 6.762-2.026-2.534 5.315-5.951 10.698-10.036 13.084zm-9.48-.69a11.539 11.539 0 01-1.283-.703c-.376-.238-.74-.495-1.089-.77l-.231-.183a16.476 16.476 0 01-.881-.78 14.013 14.013 0 01-.648-.643c-4.02-4.186-7.033-11.107-7.471-17.367a18.976 18.976 0 01.291-5.13c.181-.89.455-1.76.818-2.595a19.177 19.177 0 014.493-6.34c.205-.188.406-.367.618-.541 4.623-3.916 10.857-5.271 16.367-3.01-2.291 3.166-4.942 5.654-7.883 6.497-.349.434-.653.936-.555 1.286.036.1.107.184.201.238.087.053.183.09.283.11.119.027.229.05.324.08 1.113.347.674.912.674.912-.062 1.797-3.838 2.415-3.838 2.415s-1.557-.19-1.019-1.475c.049-.114.107-.226.173-.332a3.71 3.71 0 00.455-1.187c.031-.15.054-.302.069-.454a5.586 5.586 0 00-.032-1.374 8.406 8.406 0 01-2.129-.617 11.693 11.693 0 01-2.666-1.633c.068.247.125.49.183.734.576 2.479.66 4.825-.008 6.837.169.524.412 1.062.757 1.17a.476.476 0 00.317-.026.845.845 0 00.249-.175l.256-.21c.916-.717 1.141-.032 1.141-.032 1.462 1.067-.143 4.502-.143 4.502s-1.037 1.162-1.805-.005a1.874 1.874 0 01-.18-.328 3.705 3.705 0 00-.736-1.042 5.771 5.771 0 00-1.507-1.068 8.405 8.405 0 01-1.712 1.392c-.11.067-.222.132-.336.202.026.03.039.068.061.101a51.87 51.87 0 013.866 7.596c.325.816.617 1.622.856 2.432.173.559.324 1.117.451 1.67.576 2.479.661 4.826-.008 6.836.17.526.413 1.065.758 1.173a.465.465 0 00.316-.028.794.794 0 00.25-.173c.094-.077.171-.154.25-.22.915-.716 1.142-.028 1.142-.028.643.455.689 1.391.541 2.285z" fill="#000"/><g opacity=".1" fill="#000"><path opacity=".1" d="M157.453 41.075a2.435 2.435 0 01-1.112-.168c-.714-.24-1.695-.033-1.695-.033 1.198-3.154 5.937-2.766 5.937-2.766-2.478 1.227-3.13 2.967-3.13 2.967zm18.69 18.249c-.276.625-.571 1.266-.862 1.893-3.152.018-6.008-.525-8.113-1.94-.561.015-1.142.107-1.339.401a.4.4 0 00-.054.316c.013.1.047.197.098.284.053.096.1.194.142.295.453 1.07-.279 1.096-.279 1.096-1.433 1.1-4.337-1.383-4.337-1.383s-.846-1.308.499-1.713c.119-.036.24-.063.364-.08a3.782 3.782 0 001.223-.413 4.97 4.97 0 00.394-.235c.383-.26.735-.563 1.049-.902a8.056 8.056 0 01-.879-2.015c-1.454-4.95.788-12.241 4.818-17.946 7.882 3.598 11.154 13.532 7.276 22.342zM162.951 75.34a7.624 7.624 0 01-3.262.222 5.008 5.008 0 00-.127-.653l4.2-.438c-.29.271-.561.562-.811.87z"/><path opacity=".1" d="M160.038 80.378s-1.556-.19-1.019-1.475c.049-.115.107-.227.174-.332.22-.366.374-.768.454-1.186a3.5 3.5 0 00.069-.456 5.626 5.626 0 00-.033-1.372 5.008 5.008 0 00-.127-.653l4.2-.437a8.57 8.57 0 00-.812.868c-.347.438-.652.944-.551 1.291a.431.431 0 00.201.239c.086.053.182.09.282.108.109.022.217.05.324.082 1.122.34.673.913.673.913-.054 1.799-3.835 2.41-3.835 2.41z"/><path opacity=".1" d="M162.602 76.868l-2.949.517c.03-.149.053-.3.067-.45a64.398 64.398 0 002.678-.312.432.432 0 00.204.245zm-2.566 3.51s-1.556-.19-1.019-1.475c.601.118 1.219.12 1.82.003.827-.203 2.035-1.062 2.36-1.853 1.113.347.675.914.675.914-.053 1.798-3.836 2.41-3.836 2.41z"/><path opacity=".1" d="M160.036 80.378s-1.556-.19-1.019-1.475c.601.118 1.219.12 1.82.003.827-.203 2.035-1.062 2.36-1.853 1.113.347.675.914.675.914-.053 1.798-3.836 2.41-3.836 2.41zm-2.583-39.303a2.435 2.435 0 01-1.112-.168c-.714-.24-1.695-.033-1.695-.033 1.198-3.154 5.937-2.766 5.937-2.766-2.478 1.227-3.13 2.967-3.13 2.967z"/></g><path d="M175.073 59.58c-3.917 8.898-10.474 19.11-18.558 15.615-8.084-3.495-14.638-19.372-10.716-28.275 3.922-8.903 13.647-13.28 21.73-9.787 8.083 3.493 11.461 13.547 7.544 22.446z" fill="#A763FF"/><path d="M158.972 80.632s-1.555-.192-1.017-1.476c.05-.114.108-.224.173-.33a3.64 3.64 0 00.457-1.189c.031-.15.054-.301.068-.454a5.911 5.911 0 00-.164-2.03l4.199-.434s-1.58 1.44-1.357 2.153a.427.427 0 00.203.241.888.888 0 00.284.107c.12.026.228.053.323.08 1.12.342.676.913.676.913-.064 1.802-3.845 2.419-3.845 2.419z" fill="#A763FF"/><path d="M161.532 77.118l-2.948.518a4.09 4.09 0 00.068-.454c.742-.07 1.932-.211 2.678-.312a.43.43 0 00.202.248z" fill="#444053"/><path d="M158.971 80.632s-1.556-.192-1.018-1.477c.603.118 1.224.12 1.827.002.826-.203 2.035-1.062 2.357-1.853 1.121.341.677.913.677.913-.062 1.798-3.843 2.415-3.843 2.415z" fill="#A763FF"/><path opacity=".1" d="M158.971 80.632s-1.556-.192-1.018-1.477c.603.118 1.224.12 1.827.002.826-.203 2.035-1.062 2.357-1.853 1.121.341.677.913.677.913-.062 1.798-3.843 2.415-3.843 2.415z" fill="#000"/><path opacity=".1" d="M159.513 38.351s-4.733-.378-5.937 2.772c0 0 .98-.206 1.694.035a2.43 2.43 0 001.113.166s.653-1.744 3.13-2.973z" fill="#fff"/><path d="M156.464 75.108c-.725.295-1.852 1.534-2.119 2.328-.328.978.523.924.81 1.385.287.46-.014 1.489-.538 2.578-.502 1.034-1.189 2.144-2.015 3.254a27.68 27.68 0 01-2.766 3.171c-1.018.996-2.068 1.86-3.084 2.863-1.218 1.2-2.342 2.555-3.431 3.894-.812.998-1.635 2.028-2.221 3.02-.929 1.575-1.118 2.814-1.061 3.771.057.957.318 1.744.142 2.895-.127.792-.455 1.731-.963 2.76-.509 1.029-1.187 2.127-1.995 3.227a2.935 2.935 0 01-.425.488c-.158.133-.319.172-.28.035" stroke="#444053" stroke-miterlimit="10"/><path d="M160.462 78.001c-.513-.367-1.315.046-1.782.784a4.37 4.37 0 00-.484 1.244 3.929 3.929 0 00-.077 1.283c.088 1 .466 1.994.091 3.029-.268.752-.858 1.267-1.425 1.604-.568.337-1.158.563-1.681 1.044a5.814 5.814 0 00-1.118 1.546 7.519 7.519 0 00-.835 2.24c-.298 1.687.288 3.19.07 4.875-.29 2.227-1.862 4.11-3.377 5.471-1.813 1.631-3.813 2.978-5.786 3.253-1.306.184-2.535-.104-3.779-.275-1.244-.17-2.573-.181-3.869.505-1.297.685-2.564 2.231-2.869 3.998" stroke="#444053" stroke-miterlimit="10"/><path d="M138.962 111.876s-2.292-9.687-9.283-9.203c-6.99.484 2.327 12.067 3.261 13.104.547.602.345 2.449.089 3.884a28.512 28.512 0 00-.407 3.122 7.097 7.097 0 01-1.216 3.687 17.67 17.67 0 00-2.333 4.923s-2.043.29-2.843-.136c-.8-.427-5.759-1.679-5.936-1.381-.04.062-.167.1-.348.114a5.842 5.842 0 01-.847-.021 9.455 9.455 0 00-.21-.69s-.616-.194-1.317-.484l-.002-.021-.003-.02c.116-.405.174-.833.299-1.23l-.004-.033c.082-.3.239-.574.456-.798.589-.573 1.532-.49 2.281-.82.083-.037.165-.079.245-.124l.086-.063.135-.093.093-.08.105-.094.091-.097c.027-.036.056-.069.087-.101l.078-.112.078-.108.068-.12c.021-.04.047-.076.064-.115.018-.039.043-.084.059-.127l.055-.127.05-.13.042-.134a1.29 1.29 0 00.041-.138c-.004-.041.02-.09.032-.137.013-.047.016-.093.028-.141.013-.047-.008-.087.02-.14.009-.047.015-.095.019-.144l.012-.139a.352.352 0 01.005-.151c.016-.052-.008-.087-.013-.128l-.016-.162a1.111 1.111 0 01-.012-.116l-.017-.173-.01-.092-.02-.202-.004-.038a4.084 4.084 0 00-.131-.497c-.276-.809-.747-1.661-.559-2.428a1.386 1.386 0 01.127-.335c.152-.264.372-.484.637-.636.231-.148.489-.27.73-.398a5.87 5.87 0 002.251-1.896 3.825 3.825 0 00.648-1.954 2.98 2.98 0 00-.096-.94l-.008-.087a8.75 8.75 0 01-.545-1.618 2.088 2.088 0 01.03-.66c.024-.103.051-.206.083-.309l.027-.074a5.518 5.518 0 01.142-.349l.137-.272.032-.058c.05-.097.107-.195.161-.292.133-.235.274-.466.402-.705a4.84 4.84 0 00.311-.687l-.006-.054a3.42 3.42 0 00.102-.369l.026-.124c.024-.141.044-.276.054-.424a1.106 1.106 0 01-.01-.099c-.012-.124.008-.252.004-.377a.684.684 0 01-.009-.091l-.044-.439a1.25 1.25 0 00-.011-.107c-.015-.145-.03-.294-.074-.436a11.26 11.26 0 00-.433-1.517c-.255-.723-.659-1.54-1.408-1.667a3.029 3.029 0 00-1.133.163 5.543 5.543 0 01-3.468-.514 27.33 27.33 0 01-3.082-1.835c-.687-.43-1.523-.84-2.26-.52a5.943 5.943 0 00-.735.466.95.95 0 01-.162.066c-.26.075-.528.124-.797.146l-.076.007a36.283 36.283 0 00-.972-2.086c-.883-1.74-1.958-3.469-3.59-4.511a12.644 12.644 0 00-3.02-1.26c-3.202-1.021-6.713-2.032-9.802-.768-1.369.554-2.536 1.506-3.679 2.455l-4.792 3.984-.397-.078c-.775-.14-1.567-.192-2.034-.296l-.082-.017c-1.502-.39-3.07-1.418-3.263-2.988a3.501 3.501 0 01-.002-.732c.074-.512.182-1.018.324-1.516.076-.292.135-.587.194-.881l.053-.315c.032-.187.06-.374.087-.56l.046-.423c.018-.152.029-.3.043-.452.014-.151.027-.32.032-.48a.511.511 0 01.01-.222c.018-.458.018-.913-.003-1.367-.024-.24-.048-.48-.048-.727l-.01-.104-.075-.732a16.99 16.99 0 00-3.798-8.698 5.355 5.355 0 00-.342 2.263.822.822 0 01-.041.422.546.546 0 01-.584.207.549.549 0 01-.196-.096 7.652 7.652 0 01-.654-.612 1.457 1.457 0 00-1.766-.034 1.557 1.557 0 00-.47 1.74 6.687 6.687 0 00-3.412-.334 6.651 6.651 0 00-3.123 1.4 2.42 2.42 0 00-.99 1.536 1.65 1.65 0 00.314 1.136c.425.652 1.179 1.204 1.702 1.863-1.66 2.552-2.145 6.117-2.145 6.117l-.322.492a12.936 12.936 0 00-2.173 2.085c-.459.605-.813 1.41-.577 2.147l-5.584 8.561s-5.901 9.898-6.389 12.053c-.1.428-2.563 3.909 2.055 7.386 4.619 3.477 5.494 3.812 6.244 5.076.438.739 3.335 1.877 5.672 2.695l.815.283c.052 2.311 1.403 4.879 4.976 7.635.106.358.176.725.208 1.096.275 2.712 1.961 7.081 1.961 7.081s2.016 2.539-.056 4.539c-2.072 1.999-2.474 3.072-.943 4.375l.046.037.208 4.094-.603.06s-5.06 4.294-5.969 6.6c-.907 2.307-2.357 8.363-2.357 8.363s.153 5.676-.37 6.572c-.522.896.434 4.281.434 4.281s.435 5.334 1.894 6.456c1.458 1.123 1.369 4.293 1.369 4.293.1.676.247 1.345.44 2.001-1.47-.273-4.021-.296-4.127 3.006a34.573 34.573 0 00.45 7.482s-.675 5.599-1.438 7.251c-.763 1.652-1.309 15.701 7.112 12.474 0 0 1.264-.497 1.877-2.335a9.73 9.73 0 00.787-1.199c.24 2.707 1.226 4.917 3.836 4.094 0 0 1.498-.487 1.865-3.743a32.991 32.991 0 003.327-4.725l1.855-6.347.14-.486 2.055-2.671a63.127 63.127 0 0011.968 1.272c1.18.007 2.36-.056 3.531-.191a27.508 27.508 0 006.012-1.169c3.786.143 10.342-.08 15.605-2.714 7.879-3.942 1.546-10.276-.038-11.595-1.583-1.319-6.552-5.205-6.95-5.508l-.003-.025s-1.702-25.137-3.538-25.691c-1.836-.554-8.279-6.141-8.279-6.141l.213-4.027s2.899.03 2.749-2.489c-.149-2.519-.634-6.264-.634-6.264l3.09-7.055s4.291-3.131 6.271-4.243c.116.06.24.123.377.18 2.382 1.052 7.345 1.973 8.996 1.492 2.214-.638 6.821-.112 9.712-.127 2.89-.015 3.925-2.986 3.599-3.284-.326-.298.806-3.638.806-3.638s1.407-13.357.58-15.383c-.826-2.025-.195-5.847-.195-5.847zm-65.093 91.262c.25.092.509.179.775.266 1.399.42 2.82.765 4.257 1.033l2.657.686s-3.85.473-5.766.759a5.75 5.75 0 01-2.602-.892 4.214 4.214 0 01.679-1.852zm31.296-76.947a5.635 5.635 0 01-.165-.377c.343-.122.676-.255 1.008-.401-.204.284-.453.622-.745.99-.033-.072-.069-.14-.098-.212zm-44.163-6.075s1.377-4.64 2.474-7.835c.08.24.168.478.263.714-.059.006-.057-.061.249.54l.003.033a9.267 9.267 0 004.313 4.172 8.663 8.663 0 001.909.647l-.006-.062a.596.596 0 00-.013-.12.454.454 0 00-.007-.075.525.525 0 00-.012-.116l-.031-.055a.631.631 0 00-.075-.11l-.041-.037a.284.284 0 00-.066-.061c.303.15.609.291.915.436.067.027.13.063.196.094.314.14.628.272.946.404l.23.102c.375.151.757.297 1.139.435l.057.02.473.162.744.248c.24.101.505.125.76.071a1.19 1.19 0 00.427-.285l.128-.117c.802-.724 1.89-.999 2.837-1.507.946-.507 1.842-1.466 1.67-2.548a2.506 2.506 0 00-1.275-1.647c-.608-.358-1.292-.6-1.907-.957-1.137-.665-2.02-2.037-1.807-3.27a2.11 2.11 0 01.066-.27l.018-.065c.027-.072.057-.146.092-.222-.002-.021.02-.048.035-.075.115-.208.258-.401.424-.573.217-.22.447-.427.69-.62l4.706-3.866c.355-.295.71-.585 1.08-.86.317-.239.645-.461.985-.666.1-.056.2-.116.305-.168l.2-.108c.181-.089.363-.174.554-.252.102-.035.242-.074.41-.116a26.966 26.966 0 01-1.669 5.012c-.14.285-.243.586-.306.896a1.07 1.07 0 00-.02.261c.036.372.153.731.343 1.054.372.749.556 1.316 1.269 1.714.188.106.363.206.518.312.013.124-.013.252-.017.378-.01.621.017 1.243.079 1.861a15.267 15.267 0 003.84 8.689l-.148.203a15.317 15.317 0 01-2.81 3.017 4.899 4.899 0 01-.395.278 4.686 4.686 0 01-.597-1.007 1.335 1.335 0 01-.99.069 1.318 1.318 0 01-.758-.632c-.711-1.092-2.44.242-2.44.242s-4.43-1.986-4.542-.921a1.037 1.037 0 01-.194.462l-.27-.207s-.931.41-2.22 1.157a2.62 2.62 0 01-1.602-.778c-.473-.497-.284.287.125 1.693l-.031.025-.508-.13c-2.999-.765-10.157-2.815-10.713-5.085l-.002.022zm48.322 5.729c-.247-.565-1.206-.93-1.916-1.131a15.003 15.003 0 006.803-8.682c.047-.159.089-.322.132-.486.119-.041.238-.073.351-.122.246-.076.473-.203.665-.374.191-.17.343-.38.444-.614.057-.219.076-.446.055-.671a36.126 36.126 0 00-.085-1.509l-.007-.07a37.095 37.095 0 00-1.852-9.045l.49.323c.19.128.381.255.568.387.186.132.324.24.46.373l.074.059c.147.12.291.243.427.376a.442.442 0 01.047.05c.123.122.239.25.348.384l.121.151c.093.119.183.249.268.391l.05.079c.079.139.15.283.213.43l.048.1c.051.129.094.258.138.405.006.062.042.117.06.178.04.138.071.281.103.428l.016.158c.014.136.049.275.071.411.022.136.018.178.027.265a18.49 18.49 0 01-.897 8.255 31.6 31.6 0 01-3.742 7.417 9.294 9.294 0 00-1.253 2.282 4.11 4.11 0 00-.116.475c-.73-.023-1.864-.116-2.109-.694l-.002.021z" fill="url(#paint0_linear)"/><path d="M141.18 118.447c.838 2.008-.64 15.255-.64 15.255s-1.141 3.337-.83 3.611c.311.274-.73 3.234-3.688 3.247-2.958.013-7.66-.495-9.92.147-1.689.481-6.752-.418-9.183-1.452-.824-.337-1.341-.724-1.333-1.06.047-1.326 3.841-7.698 3.841-7.698a12.5 12.5 0 002.045.157c.184-.018.316-.052.356-.115.181-.298 5.241.944 6.056 1.352.816.409 2.899.11 2.899.11a17.466 17.466 0 012.397-4.887 6.97 6.97 0 001.256-3.662c.081-1.04.222-2.075.422-3.099.278-1.424.478-3.254-.078-3.851-.949-1.023-10.427-12.485-3.29-12.984 7.137-.498 9.45 9.099 9.45 9.099s-.598 3.822.24 5.83zm-30.915 14.807l-5.608 3.064-6.592 2.745s-16.862-10.977-12.98-12.303a6.854 6.854 0 001.876-1.022 15.438 15.438 0 002.88-3 27.503 27.503 0 002.381-3.777s15.31-2.25 13.27 1.611c-.795 1.505-.244 3.767.723 5.966.056.133.116.265.176.401a38.466 38.466 0 003.874 6.315z" fill="#FBBEBE"/><path d="M78.787 206.773s-2.952-2.216-3.548 1.707a39.093 39.093 0 00-.528 6.387s-1.033 4.656-1.695 5.972c-.661 1.315-2.52 13.128 3.143 11.396 0 0 2.08-.658 2.003-5.555-.078-4.897 2.029-19.737 2.029-19.737l-1.404-.17z" fill="#3F3D56"/><path d="M123.585 211.485c-5.64 2.75-12.704 2.886-16.462 2.719a33.337 33.337 0 01-2.625-.2l-18.502-.047-.33.417-2.107 2.655-2.06 6.782s-6.319 10.662-7.754 4.846a24.153 24.153 0 01-.549-3.876c-.47-6.305.346-14.816.346-14.816l16.418-3.823 9.92-6.419-.456-5.625-.115-1.381-.28-3.468 14.368-.066 3.078 5.34.028.022c.403.303 5.532 4.19 7.079 5.441 1.548 1.252 8.06 7.564.003 11.499z" fill="#FBBEBE"/><path d="M83.414 217.512s-7.44 1.052-8.056-.225l-1.761 5.689s7.064 1.913 7.906.835l1.91-6.299z" fill="#A763FF"/><path d="M68.611 201.986s-5.105-1.898-5.271 2.718a33.382 33.382 0 00.436 7.433s-.705 5.556-1.49 7.202c-.784 1.646-1.38 15.575 7.222 12.351 0 0 3.155-1.199 2.06-6.79-1.095-5.59-.711-23.032-.711-23.032l-2.246.118z" fill="#3F3D56"/><path opacity=".1" d="M94.414 188.557l16.517 11.743s9.262 3.785-.395 12.792c0 0-4.51 2.433-11.804 2.425a65.084 65.084 0 01-13.468-1.487s-5.526-.289-7.116 2.796a1804.55 1804.55 0 01-5.136 9.813s-4.11 10.547-8.717-1.54l3.063-12.535s-.2-4.057-.504-4.968c-.303-.91 2.312-5.351 4.018-4.161 1.706 1.19 3.988 2.845 5.756 2.565 1.769-.28 6.258-.829 6.258-.829l-2.71-.672s-7.745-1.323-7.379-2.928c.366-1.604 3.263-9.522 3.263-9.522l18.354-3.492z" fill="#000"/><path d="M109.699 213.175a16.75 16.75 0 01-2.576 1.029 29.83 29.83 0 01-9.228 1.396c-4.106-.03-8.2-.44-12.229-1.226-.793-.155-1.24-.261-1.24-.261s-5.525-.289-7.115 2.796c-1.062 2.033-2.942 5.64-4.115 7.872l-1.02 1.941s-4.11 10.547-8.718-1.54l3.063-12.535s-.2-4.057-.504-4.968c-.206-.619.932-2.86 2.217-3.861.607-.479 1.25-.685 1.8-.3a20.766 20.766 0 003.605 2.189 4.07 4.07 0 002.152.376c1.769-.28 6.258-.829 6.258-.829l-2.71-.672a41.676 41.676 0 01-4.331-1.014c-1.697-.517-3.203-1.187-3.036-1.915.366-1.604 3.263-9.522 3.263-9.522l18.355-3.493 5.731 4.078 2.456 1.742 8.329 5.923s9.25 3.788-.407 12.794z" fill="#FBBEBE"/><path opacity=".1" d="M95.832 207.755s-4.512-4.884-13.783-2.501" stroke="#000" stroke-miterlimit="10"/><path opacity=".1" d="M66.013 211.811l-2.337 7.181s4.12 7.277 10.492 5.496l3.265-7.545s-9.102-.035-11.42-5.132z" fill="#000"/><path d="M65.636 212.267l-2.337 7.181s4.12 7.277 10.493 5.495l3.264-7.545s-9.102-.034-11.42-5.131z" fill="#A763FF"/><path opacity=".1" d="M118.105 138.644a7.51 7.51 0 00-1.206.613c-.825-.336-1.342-.724-1.334-1.06.048-1.326 3.841-7.698 3.841-7.698a12.5 12.5 0 002.045.157c1.172 4.513-2.091 7.567-3.346 7.988zm-7.798-4.976l-5.608 3.064-6.592 2.745s-16.862-10.977-12.98-12.303a6.854 6.854 0 001.875-1.022c2.653 2.814 8.507 5.428 8.507 5.428 4.798 1.197 8.698-2.242 10.746-4.644a37.556 37.556 0 004.052 6.732z" fill="#000"/><path d="M117.268 138.727c-1.329.445-7.147 4.576-7.147 4.576l-3.2 7.008s.482 3.715.629 6.21c.147 2.494-2.814 2.474-2.814 2.474l-.137.072c-.718.385-4.085 2.195-4.082 2.228.003.033-7.282-.01-7.282-.01l-14.358-.876s-4.52.239-6.132-1.065l-.046-.037c-1.56-1.288-1.129-2.372.976-4.341 2.105-1.969.072-4.502.072-4.502s-1.707-4.326-1.98-7.017c-.272-2.691-1.622-2.453-1.622-2.453s-.942.094 2.971-3.012c3.913-3.106-2.065-15.162-.422-13.548 1.644 1.614 4.27.413 4.375-.643.104-1.055 4.636.9 4.636.9s1.768-1.325 2.511-.249c.17.29.443.508.766.611.322.103.672.084.982-.053 1.393 3.312 9.588 6.994 9.588 6.994 7.158 1.8 12.315-6.761 12.315-6.761s2.365.393 2.774 1.301c.409.909 3.021.604 3.021.604s3.174.028 3.373.949c.199.921 3.36 1.863 3.36 1.863 1.769 4.946-1.798 8.332-3.127 8.777z" fill="#fff"/><path opacity=".1" d="M104.652 158.167l-.053.9c-.718.385-4.086 2.195-4.082 2.228.003.033-7.282-.01-7.282-.01l-14.358-.876s-4.52.239-6.132-1.065l-.046-.037-.038-.791 2.26-.642s22.73-.999 26.016.138l3.715.155zm11.851 36.378c.052.514.056.806.056.806s-5.077-6.291-10.496-2.409a7.474 7.474 0 01-4.299 1.518 7.098 7.098 0 01-2.34-.362 9.063 9.063 0 01-3.387-2.044s-9.836 3.066-13.006 6.203c-3.17 3.137-6.363-.205-6.363-.205s-.553 4.349-1.673 5.518c-1.697-.518-3.203-1.188-3.035-1.916.366-1.604 3.263-9.522 3.263-9.522l18.354-3.493 5.732 4.078-.28-3.468 14.368-.066 3.078 5.34.028.022z" fill="#000"/><path d="M75.005 158.702s22.73-.999 26.016.139l3.715.154-.23 3.995s6.584 5.515 8.437 6.063c1.852.548 3.532 25.47 3.532 25.47s-5.077-6.291-10.496-2.409c-5.42 3.883-10.026-.888-10.026-.888s-9.836 3.066-13.006 6.203c-3.17 3.137-6.363-.205-6.363-.205s-.647 5.082-1.955 5.734c-1.308.652-1.287 3.995-1.287 3.995s-3.84-.351-3.956-1.489c-.115-1.139-.262-1.542-1.078-2.298-.817-.755-1.194-3.435-1.194-3.435s.104-3.147-1.382-4.254c-1.487-1.107-1.917-6.396-1.917-6.396s-.978-3.352-.43-4.243c.548-.891.396-6.52.396-6.52s1.506-6.004 2.436-8.291c.931-2.288 6.1-6.564 6.1-6.564l.615-.061-.2-4.057 2.273-.643z" fill="#A763FF"/><path d="M100.933 164.945a.66.66 0 00.595-.719.663.663 0 00-.728-.588.658.658 0 00-.594.719.662.662 0 00.727.588zm-2.021 15.186a.659.659 0 00.595-.719.662.662 0 00-.727-.588.659.659 0 00-.595.719.662.662 0 00.727.588zm4.132-5.498a.658.658 0 00.594-.719.662.662 0 00-.727-.588.66.66 0 00-.595.719.663.663 0 00.728.588z" fill="#3F3D56"/><path opacity=".1" d="M74.192 163.905l.837-.083s-3.869 11.882-4.467 8.734c-.598-3.148 3.63-8.651 3.63-8.651zm6.086.233s-4.84 9.261-1.922 10.226c2.917.965 4.334-10.047 4.334-10.047l-2.412-.179zm8.11 4.263s3.502 12.984 6.202 15.296c2.699 2.312.022 4.388.022 4.388s8.657-.093 11.434.188c2.776.281 6.844-1.306 5.058-2.241-1.786-.935-1.577-12.806-1.496-13.374.082-.569-4.339 10.708-21.22-4.257zm-10.847-14.584c.465-.255 7.18-11.884 9.152-11.197 1.972.686-9.152 11.197-9.152 11.197zm.003-9.688s-2.656 5.072-1.664 5.81c.992.738 1.664-5.81 1.664-5.81zm2.39-18.426s3.818 5.964 3.029 7.226c-.79 1.262-3.029-7.226-3.029-7.226zm36.563 5.085s-.257 3.721-1.081 3.941c-.823.22 1.081-3.941 1.081-3.941zm-14.95 2.669s9.079 1.266 9.826 1.677c.748.411-7.628 1.241-9.826-1.677zm33.279 2.973s-1.547-4.17-3.005-3.955c-1.458.216 3.005 3.955 3.005 3.955z" fill="#000"/><path d="M128.138 108.952c-.431 1.168-1.525 2.175-1.383 3.411.059.588.412 1.101.592 1.669a3.435 3.435 0 01-.555 2.865 6.025 6.025 0 01-2.315 1.902c-.527.265-1.113.528-1.401 1.029-.469.837.114 1.833.434 2.738.512 1.458.107 3.384-1.324 3.995-.766.326-1.729.251-2.331.816-.603.566-.568 1.574-.898 2.36a2.606 2.606 0 01-1.384 1.319c-.613.25-1.3.26-1.921.029a2.586 2.586 0 01.032-1.141 2.168 2.168 0 01-2.488-.728 2.816 2.816 0 01-.231-2.485 9.318 9.318 0 011.284-2.269 31.257 31.257 0 003.845-7.364 17.903 17.903 0 00.942-8.188 6.117 6.117 0 00-.716-2.346 5.993 5.993 0 00-1.85-1.816c-.377-.263-.774-.508-1.163-.758-.271-.174-.544-.364-.802-.531-.356-.254-1.76-1.172-1.706-1.688.029-.295.912-.341 1.678-.425a4.25 4.25 0 00.83-.149.896.896 0 00.167-.067c.24-.171.491-.326.752-.464.754-.317 1.607.088 2.305.512a27.806 27.806 0 003.143 1.808 5.811 5.811 0 003.537.486 3.185 3.185 0 011.159-.165c.76.121 1.172.929 1.435 1.647.439 1.286.804 2.714.333 3.998zm-42.131-6.473a4.463 4.463 0 00-.47.13 7.8 7.8 0 00-1.24.612c-.686.441-1.343.925-1.966 1.45l-4.819 3.848a4.24 4.24 0 00-1.147 1.192c-.746 1.358.258 3.094 1.617 3.862.628.356 1.327.58 1.943.945a2.487 2.487 0 011.298 1.628c.173 1.074-.746 2.022-1.713 2.532-.967.51-2.081.783-2.9 1.504a1.74 1.74 0 01-.569.399c-.26.055-.53.03-.776-.069a31.914 31.914 0 01-4.79-1.871.614.614 0 01.255.631 9.178 9.178 0 01-3.713-1.653 9.06 9.06 0 01-2.618-3.085 8.955 8.955 0 01-.192-7.849c.447-.969 1.08-1.863 1.4-2.869.321-1.006.359-2.219-.308-3.043-.481-.576-1.256-.917-1.545-1.603-.29-.686.077-1.58.566-2.21 1.084-1.362 2.679-2.272 3.9-3.54 1.22-1.266 2.038-3.245 1.121-4.74-.728-1.181-2.442-1.944-2.307-3.325a2.408 2.408 0 011.015-1.543 6.967 6.967 0 013.186-1.394 7 7 0 013.469.316 1.519 1.519 0 01.49-1.721 1.522 1.522 0 011.803.026c.209.215.43.418.662.608a.581.581 0 00.796-.113.775.775 0 00.046-.422 5.173 5.173 0 01.356-2.248 16.661 16.661 0 013.558 7c.61 2.58.59 5.265-.055 7.836a5.902 5.902 0 00-.336 2.228c.204 1.557 1.8 2.57 3.335 2.952l.082.017c.48.103 1.284.153 2.075.288 1.041.177 2.06.502 2.244 1.283.357 1.265-2.449 1.702-3.753 2.011z" fill="#3F3D56"/><path d="M65.034 110.383c-.682.904-3.714 10.613-3.714 10.613.562 2.248 7.864 4.263 10.947 5.015.832.206 1.36.317 1.36.317l3.11 2.2s-1.307 16.3-1.94 12.39c-.634-3.91-6.019-5.4-6.019-5.4s-1.411-.412-3.11-.992c-2.382-.805-5.337-1.925-5.766-2.656-.76-1.25-1.64-1.581-6.36-5.014-4.72-3.434-2.178-6.893-2.078-7.321.485-2.139 6.537-11.967 6.537-11.967l8.866-13.185s1.64-11.59 9.095-7.872c7.454 3.718-6.465 15.765-6.465 15.765s-3.78 7.203-4.463 8.107z" fill="#FBBEBE"/><path opacity=".1" d="M76.737 128.528s-1.308 16.3-1.94 12.39c-.634-3.91-6.019-5.4-6.019-5.4s-1.411-.412-3.11-.992c.15-3.719 3.745-6.714 6.598-8.515.833.206 1.36.317 1.36.317l3.11 2.2z" fill="#000"/><path d="M79.944 126.508l-3.348-2.461s-19.22 8.178-4.633 18.615l5.647-.559 4.484-7.311-2.15-8.284z" fill="#fff"/><path opacity=".1" d="M106.201 126.523c.056.132.115.264.176.401a15.338 15.338 0 01-8.929.428 15.192 15.192 0 01-7.621-4.621 27.453 27.453 0 002.382-3.778s15.309-2.249 13.27 1.612c-.783 1.495-.233 3.757.722 5.958z" fill="#000"/><path d="M116.242 110.926a14.842 14.842 0 01-1.7 8.532 15.058 15.058 0 01-6.206 6.159 15.28 15.28 0 01-8.62 1.711 15.235 15.235 0 01-8.13-3.313 14.975 14.975 0 01-4.897-7.222 14.82 14.82 0 01-.015-8.696 14.965 14.965 0 014.872-7.239 15.234 15.234 0 018.117-3.342 15.245 15.245 0 015.889.547 15.148 15.148 0 015.224 2.743 14.95 14.95 0 013.756 4.52 14.783 14.783 0 011.71 5.6z" fill="#FBBEBE"/><path opacity=".1" d="M116.242 110.926c.203 1.98.004 3.98-.587 5.883a6.899 6.899 0 01-2.562.296 1.54 1.54 0 01-.95-.324 1.663 1.663 0 01-.39-.798c-.252-.903-.501-1.804-.747-2.702-1.303.66-2.916.427-4.243-.152-1.327-.58-2.532-1.451-3.835-2.129-1.303-.678-2.822-1.1-4.231-.701a7.027 7.027 0 00-2.11 1.133 15.389 15.389 0 00-3.484 3.16c-.678.903-1.243 1.963-2.26 2.444a2.67 2.67 0 01-1.997.03 2.629 2.629 0 01-1.448-1.361c-.3-.744-.232-1.579-.404-2.36a1.843 1.843 0 00-.939-1.295 14.9 14.9 0 014.349-10.17 15.225 15.225 0 0110.213-4.459 15.25 15.25 0 0110.528 3.675 14.927 14.927 0 015.121 9.811l-.024.019z" fill="#000"/><path d="M86.928 112.95c.173.781.105 1.616.404 2.36a2.629 2.629 0 001.448 1.361 2.67 2.67 0 001.998-.03c1.016-.481 1.58-1.549 2.26-2.444a15.39 15.39 0 013.484-3.16 7.028 7.028 0 012.11-1.133c1.409-.399 2.925.04 4.23.701 1.306.661 2.49 1.538 3.835 2.129 1.345.59 2.945.811 4.244.152l.747 2.702c.055.296.189.572.389.798.271.211.606.325.951.324a6.887 6.887 0 003.1-.488 1.786 1.786 0 001.135-.982c.059-.217.079-.442.059-.666a35.757 35.757 0 00-3.992-15.277c-.898-1.725-1.993-3.436-3.653-4.463a12.918 12.918 0 00-3.085-1.241c-3.264-1.002-6.849-1.997-10.022-.733-1.398.556-2.591 1.51-3.763 2.463l-5.47 4.427a3.672 3.672 0 00-.768.766 3.944 3.944 0 00-.494 1.429 26.443 26.443 0 01-1.862 5.571c-.2.352-.317.746-.34 1.15.039.367.158.722.35 1.04.38.744.556 1.308 1.288 1.695.733.387 1.218.665 1.417 1.549z" fill="#3F3D56"/><path opacity=".1" d="M79.385 117.432c-.966.513-2.08.782-2.897 1.503a1.74 1.74 0 01-.568.4 1.34 1.34 0 01-.776-.071 31.626 31.626 0 01-4.844-1.915.604.604 0 01.322.668 9.35 9.35 0 01-3.713-1.668 9.249 9.249 0 01-2.638-3.082c-.422-.818.156.902 0 0 .043 1.332-.485.047.127 1.244a9.25 9.25 0 002.63 3.08 9.344 9.344 0 003.704 1.671.6.6 0 00-.322-.668 31.626 31.626 0 004.844 1.916c.246.1.517.124.777.07.214-.094.407-.229.567-.399.818-.721 1.93-.998 2.898-1.504.966-.505 1.885-1.442 1.71-2.534a1.734 1.734 0 00-.176-.515 3.24 3.24 0 01-1.645 1.804zm2.527-22.742c.024.177.067.35.129.518.074-.509.184-1.012.33-1.505a16.09 16.09 0 00.338-6.223 15.976 15.976 0 01-.464 4.981 5.917 5.917 0 00-.333 2.229zm36.282 10.616c-.681-1.134-1.823-1.821-2.929-2.524.168.482.323.968.47 1.46.993.63 1.976 1.291 2.586 2.306.378.691.616 1.448.701 2.228l-.115-1.122a6.127 6.127 0 00-.713-2.348zm-49.079-16.94c.063-.62.425-.389.09-.937-.551-.892-1.656-1.544-2.111-2.404a1.543 1.543 0 00-.07.317c-.133 1.381 1.362 1.837 2.091 3.024-.462-.85.106.17 0 0zm16.695 12.886a3.08 3.08 0 00-.41.115 12.125 12.125 0 00-3.204 2.048l-4.811 3.848a4.23 4.23 0 00-1.146 1.192 2.254 2.254 0 00-.09 1.881c.035-.223.108-.439.217-.637a4.223 4.223 0 011.146-1.193l4.811-3.847a12.37 12.37 0 013.115-2.01c.134-.466.26-.934.373-1.397zm41.493 12.691a3.783 3.783 0 01-.636 1.712 5.998 5.998 0 01-2.31 1.901c-.526.265-1.112.528-1.398 1.029a1.907 1.907 0 00-.004 1.578 1.29 1.29 0 01.131-.335c.285-.514.872-.764 1.398-1.029a5.998 5.998 0 002.31-1.901 3.44 3.44 0 00.551-2.867c-.011-.032-.014-.061-.042-.088zm.707-6.233c-.429 1.168-1.52 2.174-1.377 3.411.026.207.08.41.159.604.193-.961.992-1.813 1.345-2.772a4.544 4.544 0 00.084-2.519c.002.435-.069.866-.211 1.276zm-15.908 8.678c.271.212.606.327.951.326a6.851 6.851 0 003.099-.485 1.8 1.8 0 001.134-.983 1.93 1.93 0 00.058-.668 34.22 34.22 0 00-.242-3.07c.062.606.095 1.215.115 1.825.019.224 0 .45-.059.668a1.796 1.796 0 01-1.133.983 6.853 6.853 0 01-3.099.485 1.536 1.536 0 01-.951-.326 1.67 1.67 0 01-.39-.8 558.56 558.56 0 01-.75-2.709c-1.302.66-2.915.425-4.243-.157-1.327-.582-2.532-1.457-3.836-2.137-1.303-.681-2.822-1.106-4.23-.708a6.996 6.996 0 00-2.108 1.134 15.374 15.374 0 00-3.48 3.163c-.677.905-1.24 1.966-2.256 2.447a2.659 2.659 0 01-1.997.029 2.64 2.64 0 01-1.45-1.366c-.3-.746-.233-1.583-.406-2.366-.201-.894-.692-1.189-1.428-1.57-.736-.38-.91-.954-1.29-1.7-.047-.096-.1-.2-.145-.3a1.548 1.548 0 00-.08.502c.04.369.16.724.353 1.043.38.746.556 1.311 1.289 1.7.733.389 1.21.678 1.428 1.57.173.783.107 1.62.407 2.366a2.64 2.64 0 001.449 1.366c.644.25 1.361.24 1.997-.029 1.016-.481 1.578-1.551 2.256-2.447a15.374 15.374 0 013.48-3.163 6.996 6.996 0 012.108-1.134c1.408-.398 2.924.044 4.231.707 1.306.664 2.49 1.545 3.836 2.138 1.345.593 2.944.817 4.242.157l.75 2.709c.055.297.19.573.39.8zm9.958 8.932c-.765.326-1.728.249-2.329.815-.601.566-.566 1.575-.895 2.361a2.595 2.595 0 01-1.381 1.32 2.64 2.64 0 01-1.92.027 2.59 2.59 0 01.031-1.142 2.175 2.175 0 01-1.367.046 2.157 2.157 0 01-1.12-.778 2.152 2.152 0 01-.269-.522 2.546 2.546 0 00.396 1.766 2.165 2.165 0 002.487.731 2.59 2.59 0 00-.031 1.142 2.635 2.635 0 001.92-.027 2.593 2.593 0 001.381-1.319c.342-.787.271-1.773.895-2.362.624-.588 1.564-.488 2.329-.815 1.348-.576 1.783-2.319 1.396-3.742-.059 1.069-.555 2.085-1.523 2.499z" fill="#000"/><path d="M87.525 99.188a14.865 14.865 0 01-1.518 3.291 4.45 4.45 0 00-.47.13 7.806 7.806 0 00-1.24.612c.26-1.47.647-2.916 1.157-4.32.475.103 1.28.153 2.07.287zm28.948 5.543c-.378-.263-.775-.508-1.164-.758a32.016 32.016 0 01-.83-2.644c.281-.022.56-.072.831-.15a11.386 11.386 0 011.163 3.552z" fill="#A763FF"/><path d="M274.99 138.186a6.9 6.9 0 00.383-.196c-.257-.05-.513-.108-.766-.17-.181.05-.366.087-.551.129a20.782 20.782 0 01-9.255-5.521c-2.566-2.676-4.362-6.179-4.324-9.819.029-2.655 1.013-5.243.984-7.906-.03-2.662-1.594-5.662-4.337-5.962-.955-.104-1.91.142-2.874.175-.963.033-2.036-.216-2.524-1.003-.42-.678-.311-1.56-.042-2.313.732-2.034 2.377-3.678 3.084-5.72a6.804 6.804 0 00.189-3.77c-.244-1.04-.803-2.08-1.783-2.584-1.624-.832-3.555.133-5.36.47-3.088.583-6.222-.745-8.881-2.367-2.658-1.623-5.149-3.595-8.14-4.548a19.794 19.794 0 00-6.041-.773c-1.262 0-2.629.1-3.559.91-.046.042-.08.088-.126.13a3.17 3.17 0 01.366-.728 2.62 2.62 0 00-.391.287c-1.931 1.685-.581 4.9-1.717 7.156-.127.25-.282.484-.462.699a5.55 5.55 0 00.749-.683c-.043.1-.08.2-.131.3-.652 1.298-2.032 2.08-3.365 2.721-1.334.64-2.785 1.227-3.749 2.33-.025.025-.042.05-.067.079.164-.399.392-.77.673-1.098-.275.21-.53.445-.761.703-1.056 1.211-1.136 2.217-.665 2.991.337.886 1.363 1.515 2.562 1.843-.059.262-.114.525-.16.791a13.095 13.095 0 00-.16 1.997c0 6.141 4.468 11.279 10.45 12.582 0 .266-.034.536-.067.832-.202 1.889-.791 3.936-2.335 4.435-1.443-.487-4.333 1.664-4.981 2.288-.648.624-2.945.067-5.048.137-2.103.071-2.814-.553-2.814-.553a11.708 11.708 0 00-.076 3.395c.219 2.08-1.515 2.151-1.515 2.151s.362 2.983-.42 4.506a5.011 5.011 0 00-.577 2.85s2.453-.208 2.234.624a.732.732 0 00.143.554l-.025.794-.332 10.992-.648 6.553a1.111 1.111 0 00-.724.658c-.585 1.315-1.527 3.066-2.267 4.406-3.008 1.801-7.526 5.142-6.247 8.354 1.876 4.718 4.547 4.094 6.133 3.537 1.586-.558 4.422-4.922 4.422-4.922s.938-1.735 1.657-1.735a9.386 9.386 0 001.148-.121v.121s-1.514 5.895-1.009 7.352c.505 1.456.071 3.328.071 3.328s-.42 4.298.143 5.688c.564 1.389-.782 5.121-.782 5.121s.387.117 1.056.279l-.173.791c-.883 4.131-2.469 13.563-.664 21.327 0 0 1.009 4.16 1.152 5.275.143 1.115 1.01 2.081.421 4.577s1.153 7.077 1.153 7.077.866 4.369.361 6.378c-.504 2.01 5.267 24.548 5.267 24.548l.943-.133.21.803.938 3.578.101.391a3.117 3.117 0 00-1.683 1.048s-2.524 5.688-5.7 7.281c-.841.416-1.872.974-2.865 1.577-2.835 1.714-5.267 3.778-1.135 3.832 4.526.058 11.964.295 14.631.383.568.303 1.523.478 3.008.449 7.429-.137 17.967-.903 18.186-1.593.105-.337-.337-1.053-.816-1.698-.48-.645-1.065-1.286-1.065-1.286l-.214-6.311s-.606-.541-1.544-1.286l-.034-.441-.471-6.087-.063-.832c.317-.066.617-.195.883-.378l.509-6.304s3.101-10.538-.866-20.873c0 0-3.462-7.14-2.524-9.707l.147-5.48s1.657-6.453 2.452-8.183a43.95 43.95 0 002.474-8.272c2.848-4.468 2.381-10.401 2.381-10.401l2.019-6.241 2.815-7.972s.795-4.855 1.085-5.824c.29-.97 0-6.241 0-6.241s2.44-19.222.4-26.732v-.287h.021v-.416c.033-.038 2.221-2.293 1.22-2.913-.842-.516-2.352-2.82-3.504-4.198-.156-.179-.299-.341-.421-.486a14.312 14.312 0 003.47-3.812c.354-.57.787-1.248 1.477-1.277.37.009.729.126 1.031.337 5.288 3.133 6.137 10.967 11.711 13.601a8.394 8.394 0 007.442-.212l-.555-.133zm-42.304 125.292l-.046.416c-.186.063-.363.15-.526.258 0 0-.723 3.673-1.157 3.952a3.443 3.443 0 00-.534.932l-.105-.187c-.034.075-.072.15-.105.229l-.194-.35-.054-.416-1.204-9.199c-.101-1.344-.395-5.796.034-8.134.505-2.775.421-12.482-2.814-16.363 0 0-1.515-3.537-.143-5.825l.214-14.429.505-.487.072 13.314a13.35 13.35 0 003.247 7.631l.509 7.002s.421 7.626 1.729 11.857v6.52s.349.058.909.137l-.088.832-.249 2.31z" fill="url(#paint1_linear)"/><path d="M241.243 124.381l-3.016 6.657-1.115.645-7.509 4.348s-9.466-.903-9.743-1.04c-.278-.138-.724-8.089 1.725-9.761a1.6 1.6 0 01.441-.221c1.502-.499 2.074-2.546 2.272-4.435.029-.279.05-.549.063-.832.06-.884.06-1.771 0-2.654 0 0 2.297-2.272 5.048-4.623 4.876-4.16 11.182-8.55 8.763-1.065a24.711 24.711 0 00-.984 4.136c-.051.328-.085.649-.11.953-.294 3.686.871 5.675 2.045 6.731a4.6 4.6 0 00.383.312 4.641 4.641 0 001.737.849zm-11.22 144.789l-1.051.482-7.081-1.593-.631-2.48-.912-3.578-.631-2.472h9.082l1.17 9.208.054.433z" fill="#CF6F80"/><path opacity=".1" d="M228.972 269.652l-7.08-1.594-.632-2.496c2.684-.795 6.593 1.44 6.593 1.44-.257.882 1.758 1.597 2.103 1.718l.055.416-1.039.516zm3.365 3.399l-5.078 4.922-1.792 1.735-.971-.033c-1.83-1.015.542-3.483 2.128-4.851.312-.271.593-.496.808-.662 1.136-.878 2.2-3.378 2.882-4.872l2.023 3.761z" fill="#000"/><path opacity=".1" d="M230.314 269.29l2.023 3.745-5.078 4.922-1.792 1.751-.971-.033c-1.83-1.015.542-3.483 2.128-4.851.312-.271.593-.496.808-.662 1.136-.878 2.2-3.378 2.882-4.872zm11.35.362l-9.327-3.121.278-2.633c2.431-.832 6.659 2.192 8.918 4.027l.131 1.727z" fill="#000"/><path d="M232.337 273.467l-5.078 4.922-1.792 1.735s-9.747-.345-15.174-.416c-4.013-.054-1.653-2.118 1.103-3.832a41.567 41.567 0 012.784-1.577c3.084-1.593 5.537-7.281 5.537-7.281 2.313-2.912 8.136.416 8.136.416-.282.97 2.17 1.735 2.17 1.735l2.314 4.298z" fill="#3F3D56"/><path opacity=".1" d="M227.259 278.389l-1.792 1.735s-9.747-.345-15.174-.416c-4.013-.054-1.653-2.118 1.103-3.832 1.485.333 2.978 1.04 3.483 2.497l12.38.016z" fill="#000"/><path d="M241.664 269.652l-9.327-3.12.278-2.634.24-2.301.324-3.108h7.643l.253 3.349.458 6.087.131 1.727z" fill="#CF6F80"/><path d="M245.101 278.947c-.211.69-10.45 1.456-17.669 1.593-6.268.121-2.873-3.52-.808-5.3.312-.271.593-.495.808-.662 1.611-1.248 3.084-5.758 3.504-6.033.421-.274 1.123-3.952 1.123-3.952 3.156-2.222 11.005 5.059 11.005 5.059l.211 6.312s.538.603 1.035 1.285c.496.683.892 1.361.791 1.698z" fill="#3F3D56"/><path opacity=".1" d="M245.101 278.947c-.211.69-10.45 1.456-17.669 1.593-6.268.121-2.873-3.52-.808-5.3a9.278 9.278 0 013.963 3.149h8.06s3.887-.557 5.663-1.14c.462.645.892 1.361.791 1.698zm-16.357-19.418c.047.762.089 1.249.089 1.249l-8.485 1.223-.631-2.472h9.027zm12.331 2.309c-2.074.57-6.428.021-8.221-.241l.324-3.108h7.644l.253 3.349z" fill="#000"/><path d="M241.525 233.455c3.853 10.335.841 20.874.841 20.874l-.492 6.311c-1.754 1.386-9.815 0-9.815 0v-6.519c-1.262-4.232-1.682-11.858-1.682-11.858l-.493-7.002a13.578 13.578 0 01-3.155-7.631l-.071-13.314-.488.487-.21 14.425c-1.334 2.288.138 5.825.138 5.825 3.155 3.881 3.227 13.588 2.735 16.363-.492 2.775 0 8.529 0 8.529l-9.604 1.386s-5.612-22.534-5.12-24.548c.492-2.013-.349-6.378-.349-6.378s-1.683-4.576-1.123-7.073c.559-2.496-.282-3.465-.421-4.576-.139-1.111-1.123-5.272-1.123-5.272-1.75-7.763-.211-17.196.647-21.327.274-1.327.476-2.109.476-2.109s26.082-7.489 30.499-1.249a8.923 8.923 0 011.195 2.459c2.158 6.745-1.636 17.3-2.318 18.831-.77 1.731-2.381 8.18-2.381 8.18l-.143 5.479c-.909 2.567 2.457 9.707 2.457 9.707z" fill="#3F3D56"/><path d="M234.789 244.068a.28.28 0 00.282-.278.28.28 0 00-.282-.279.28.28 0 00-.281.279.28.28 0 00.281.278zm-13.958 6.957a.28.28 0 00.282-.279.28.28 0 00-.282-.278.28.28 0 00-.281.278.28.28 0 00.281.279zm-.976-4.39a.28.28 0 00.282-.278.28.28 0 00-.282-.279.28.28 0 00-.281.279.28.28 0 00.281.278zm1.927.346a.28.28 0 00.281-.279.28.28 0 00-.281-.279.28.28 0 00-.282.279.28.28 0 00.282.279zm-.825 2.35a.28.28 0 00.282-.278.28.28 0 00-.282-.279.28.28 0 00-.281.279.28.28 0 00.281.278zm12.642-.686a.281.281 0 00.282-.279.28.28 0 00-.282-.278.28.28 0 00-.282.278.28.28 0 00.282.279zm5.889 1.593a.28.28 0 00.282-.278.28.28 0 00-.282-.279.28.28 0 00-.281.279.28.28 0 00.281.278zm1.893-1.872a.28.28 0 00.282-.278.28.28 0 00-.282-.279.28.28 0 00-.281.279.28.28 0 00.281.278zm-6.028-1.107a.28.28 0 00.282-.278.28.28 0 00-.282-.279.28.28 0 00-.281.279.28.28 0 00.281.278zm-11.438-1.901a.28.28 0 00.281-.278.28.28 0 00-.281-.279.28.28 0 00-.282.279.28.28 0 00.282.278zm2.339 1.623a.28.28 0 00.281-.279.28.28 0 00-.281-.279.28.28 0 00-.282.279.28.28 0 00.282.279zm-4.022 7.039a.28.28 0 00.282-.278.28.28 0 00-.282-.279.281.281 0 00-.282.279.28.28 0 00.282.278zm.968 3.362a.28.28 0 00.281-.278.28.28 0 00-.281-.279.28.28 0 00-.282.279.28.28 0 00.282.278zm3.176 1.173a.28.28 0 00.281-.278.28.28 0 00-.281-.279.28.28 0 00-.282.279.28.28 0 00.282.278zm-1.902.213a.28.28 0 00.282-.279.28.28 0 00-.282-.279.28.28 0 00-.281.279.28.28 0 00.281.279zm-1.682 1.585a.28.28 0 00.281-.279.28.28 0 00-.281-.278.28.28 0 00-.282.278.28.28 0 00.282.279zm1.405-11.301a.28.28 0 00.281-.278.28.28 0 00-.281-.279.28.28 0 00-.282.279.28.28 0 00.282.278zm0 3.408a.28.28 0 00.281-.279.28.28 0 00-.281-.278.28.28 0 00-.282.278.28.28 0 00.282.279zm1.779 2.243a.28.28 0 00.282-.279.28.28 0 00-.282-.278.28.28 0 00-.281.278.28.28 0 00.281.279zm-1.615 1.011a.28.28 0 00.281-.279.28.28 0 00-.281-.279.28.28 0 00-.282.279.28.28 0 00.282.279zm-3.252 4.639a.28.28 0 00.281-.279.28.28 0 00-.281-.278.28.28 0 00-.282.278.28.28 0 00.282.279zm4.989-4.053a.28.28 0 00.282-.278.28.28 0 00-.282-.279.28.28 0 00-.281.279.28.28 0 00.281.278zm13.39-9.944a.28.28 0 00.282-.278.28.28 0 00-.282-.279.28.28 0 00-.281.279.28.28 0 00.281.278zm-2.768 3.882a.28.28 0 00.282-.278.28.28 0 00-.282-.279.28.28 0 00-.281.279.28.28 0 00.281.278zm-1.931 5.754a.28.28 0 00.282-.278.28.28 0 00-.282-.279.28.28 0 00-.281.279.28.28 0 00.281.278zm-.631 3.816a.28.28 0 00.282-.279.28.28 0 00-.282-.278.28.28 0 00-.281.278.28.28 0 00.281.279zm3.299-11.995a.28.28 0 00.281-.279.28.28 0 00-.281-.278.28.28 0 00-.282.278.28.28 0 00.282.279zm-1.019 4.09a.28.28 0 00.282-.279.28.28 0 00-.282-.279.28.28 0 00-.281.279.28.28 0 00.281.279zm.842 3.079a.281.281 0 00.282-.279.281.281 0 00-.282-.279.28.28 0 00-.282.279.28.28 0 00.282.279zm-4.417 3.132a.28.28 0 00.281-.278.28.28 0 00-.281-.279.28.28 0 00-.282.279.28.28 0 00.282.278zm2.49-1.011a.28.28 0 00.282-.278.28.28 0 00-.282-.279.28.28 0 00-.281.279.28.28 0 00.281.278zm-.841.833a.28.28 0 00.281-.279.28.28 0 00-.281-.279.28.28 0 00-.282.279.28.28 0 00.282.279zm4.976-1.211a.28.28 0 00.282-.279.28.28 0 00-.282-.278.28.28 0 00-.281.278.28.28 0 00.281.279zm0 .936a.28.28 0 00.282-.279.28.28 0 00-.282-.278.28.28 0 00-.281.278.28.28 0 00.281.279zm-2.768 2.147a.28.28 0 00.282-.279.28.28 0 00-.282-.278.28.28 0 00-.281.278.28.28 0 00.281.279zm-.807.824a.28.28 0 00.281-.279.28.28 0 00-.281-.279.28.28 0 00-.282.279.28.28 0 00.282.279zm1.926-2.518a.28.28 0 00.282-.278.28.28 0 00-.282-.279.28.28 0 00-.281.279.28.28 0 00.281.278zm-2.208 1.419a.28.28 0 00.281-.279.28.28 0 00-.281-.278.28.28 0 00-.282.278.28.28 0 00.282.279zm4.901-3.541a.28.28 0 00.281-.278.28.28 0 00-.281-.279.28.28 0 00-.282.279.28.28 0 00.282.278zm.568 1.669a.28.28 0 00.281-.279.28.28 0 00-.281-.278.28.28 0 00-.282.278.28.28 0 00.282.279zm-4.102-.558a.28.28 0 00.282-.278.281.281 0 00-.282-.279.28.28 0 00-.282.279.28.28 0 00.282.278zm.841 2.834a.28.28 0 00.282-.279.28.28 0 00-.282-.278.28.28 0 00-.281.278.28.28 0 00.281.279zm1.649-.404a.28.28 0 00.282-.279.28.28 0 00-.282-.278.28.28 0 00-.281.278.28.28 0 00.281.279zm-.281 1.099a.28.28 0 00.281-.279.28.28 0 00-.281-.279.28.28 0 00-.282.279.28.28 0 00.282.279zm-1.368.278a.28.28 0 00.282-.278.28.28 0 00-.282-.279.28.28 0 00-.281.279.28.28 0 00.281.278zm1.368-7.056a.28.28 0 00.281-.279.28.28 0 00-.281-.278.28.28 0 00-.282.278.28.28 0 00.282.279zm-19.322 2.167a.28.28 0 00.281-.278.28.28 0 00-.281-.279.28.28 0 00-.282.279.28.28 0 00.282.278zm0 .937a.28.28 0 00.281-.279.28.28 0 00-.281-.278.28.28 0 00-.282.278.28.28 0 00.282.279zm1.043-1.665a.28.28 0 00.282-.278.28.28 0 00-.282-.279.28.28 0 00-.282.279.28.28 0 00.282.278zm.85 3.262a.28.28 0 00.281-.278.28.28 0 00-.281-.279.28.28 0 00-.282.279.28.28 0 00.282.278zm-.282-1.597a.28.28 0 00.281-.279.28.28 0 00-.281-.278.28.28 0 00-.282.278.28.28 0 00.282.279zm-1.611 1.872a.28.28 0 00.281-.279.28.28 0 00-.281-.278.28.28 0 00-.282.278.28.28 0 00.282.279zm-.282-5.675a.28.28 0 00.281-.279.28.28 0 00-.281-.278.28.28 0 00-.282.278.28.28 0 00.282.279z" fill="#A763FF"/><path opacity=".1" d="M225.396 190.605l.702 21.219.77-.557.564-21.844-2.036 1.182z" fill="#000"/><path d="M213.55 162.034s-4.838-4.51-5.89-2.08c-1.052 2.43-3.298 6.378-3.298 6.378l5.33 4.993s.913-1.735 1.611-1.735a23.177 23.177 0 002.735-.416l-.488-7.14z" fill="#CF6F80"/><path d="M216.843 143.312l-3.226 23.99-1.212-1.835-4.047-6.137.631-6.59.324-10.993.097-3.291 7.433 4.856z" fill="#CF6F80"/><path opacity=".1" d="M238.159 111.413a22.826 22.826 0 00-1.093 5.088 13.004 13.004 0 01-4.423 3.252 13.116 13.116 0 01-5.388 1.15 13.31 13.31 0 01-2.944-.333c.115-1.153.129-2.314.042-3.47 0 0 17.592-17.408 13.806-5.687z" fill="#000"/><path d="M240.296 107.173a12.764 12.764 0 01-3.121 8.375 13.123 13.123 0 01-4.388 3.308 13.167 13.167 0 01-12.53-.797 12.956 12.956 0 01-4.434-4.676 12.795 12.795 0 01-1.453-8.207 12.869 12.869 0 014.795-8.13 13.142 13.142 0 019.103-2.742 13.1 13.1 0 018.564 4.103 12.817 12.817 0 013.464 8.766z" fill="#CF6F80"/><path opacity=".1" d="M213.057 145.042c-1.544-1.298-3.273-2.458-3.744-3.295l.097-3.291 7.433 4.856-3.226 23.99-1.191-1.835c.067-1.248.219-2.43.513-3.017.842-1.664.211-4.231.211-5.063 0-.832 1.19-2.151 1.119-2.704a32.556 32.556 0 00-.421-3.466c-.299-1.319 1.102-4.577-.791-6.175zm30.853 46.216v.038s-9.188-1.456-16.339 1.04c-5.865 2.047-13.336.458-15.831-.179.274-1.327.476-2.109.476-2.109s26.082-7.489 30.499-1.249a8.923 8.923 0 011.195 2.459zm-2.667-66.877l-3.016 6.657-8.624 4.993s-9.466-.903-9.743-1.04c-.278-.138-.724-8.089 1.725-9.761-.69 1.922-1.443 5.825 3.672 6.153a21.267 21.267 0 0013.853-8.15 4.853 4.853 0 002.133 1.148z" fill="#000"/><path d="M252.462 137.695l-.143 3.12-8.413 49.649s-9.184-1.457-16.335 1.04c-7.152 2.496-16.689-.416-16.689-.416s1.334-3.745.774-5.13c-.559-1.386-.143-5.688-.143-5.688s.421-1.872-.067-3.328c-.488-1.456.98-7.352.98-7.352s-.349-6.307.492-7.972c.842-1.664.211-4.231.211-5.063 0-.832 1.19-2.151 1.119-2.704a32.556 32.556 0 00-.421-3.466c-.278-1.319 1.123-4.577-.77-6.175-1.893-1.597-4.068-2.978-3.857-3.811.21-.832-2.171-.624-2.171-.624a5.104 5.104 0 01.559-2.846c.77-1.522.421-4.505.421-4.505s1.683-.071 1.472-2.151a12.076 12.076 0 01.072-3.396s.698.625 2.734.554c2.036-.071 4.275.487 4.906-.137.631-.625 3.437-2.776 4.837-2.289-.109.212-3.462 6.799 3.231 7.206a21.368 21.368 0 008.018-2.89 21.143 21.143 0 006.218-5.78s.77-.832 3.294 1.876c2.524 2.709 4.695 1.664 4.695 1.664l2.806.208s-1.822 1.523-.703 2.563c.237.228.457.471.661.728 1.123 1.378 2.599 3.683 3.407 4.198.976.629-1.195 2.917-1.195 2.917z" fill="#A763FF"/><path d="M207.87 163.004s-10.306 4.992-8.485 9.706c1.822 4.714 4.417 4.094 5.961 3.537 1.544-.558 4.346-4.922 4.346-4.922l-1.822-8.321z" fill="#CF6F80"/><path opacity=".1" d="M236.931 135.099c0 .445-2.629 6.062 0 7.518 2.629 1.456 0-7.518 0-7.518zm-20.719-1.948s-3.714 3.953-2.175 4.369c1.54.416 2.175-4.369 2.175-4.369z" fill="#000"/><path d="M241.243 140.882s1.611 9.848 1.683 12.76c.071 2.913.492 7.627.492 7.627s1.19 11.233-.631 15.81c-1.822 4.577-1.544 9.569-1.544 9.569s-5.33 10.265-6.1 11.305c-.77 1.04.631 10.888 6.239 6.727 5.607-4.16 4.909-13.247 4.909-13.247l1.965-6.241 2.734-7.971s.77-4.856 1.052-5.825c.282-.97 0-6.241 0-6.241s3.294-26.699-1.123-29.474c-4.418-2.775-9.676 5.201-9.676 5.201z" fill="#CF6F80"/><path opacity=".1" d="M241.243 144.281s6.592-7.144 8.624-6.519c2.032.624 2.595.349 2.595.349s.278-3.953-2.734-5.409-6.31-5.895-8.834-.624c-2.524 5.272.349 12.203.349 12.203z" fill="#000"/><path d="M241.243 143.865s6.592-7.144 8.624-6.519c2.032.624 2.595.349 2.595.349s.278-3.953-2.734-5.409-6.31-5.895-8.834-.624c-2.524 5.272.349 12.203.349 12.203z" fill="#A763FF"/><path opacity=".1" d="M250.245 130.584c-.481.412-.991.789-1.527 1.128a11.437 11.437 0 01-4.413 1.664 9.98 9.98 0 01-3.979-.22 9.703 9.703 0 01-3.214-1.477 8.116 8.116 0 01-2.436-2.676 7.074 7.074 0 01-.231-.449c-1.414-2.946-1.035-6.453-1.658-9.702a21.338 21.338 0 00-.151-.691 11.282 11.282 0 00-3.239-5.688c-2.251-2.151-5.284-3.457-8.414-5.08-1.822-.948-3.366-1.701-5.435-1.968a7.11 7.11 0 01-1.191-.253 12.83 12.83 0 012.249-5.465 13.002 13.002 0 014.474-3.901 13.167 13.167 0 0111.609-.35 13.025 13.025 0 014.706 3.625 12.839 12.839 0 012.581 5.319 12.768 12.768 0 01-.083 5.899 12.844 12.844 0 01-2.731 5.245c-.05.329-.084.649-.109.953-.295 3.686.871 5.675 2.044 6.732.127.116.257.216.383.312 0 0 .77-.833 3.294 1.876 2.524 2.709 4.695 1.664 4.695 1.664l2.806.208s-1.822 1.523-.703 2.563c.241.229.466.473.673.732z" fill="#000"/><path d="M212.847 99.867c.938-1.103 2.335-1.693 3.643-2.33 1.308-.637 2.65-1.423 3.281-2.72 1.103-2.256-.21-5.472 1.683-7.161.905-.812 2.234-.912 3.454-.912a18.854 18.854 0 015.889.774c2.903.953 5.326 2.913 7.909 4.548 2.583 1.635 5.625 2.95 8.628 2.367 1.755-.337 3.627-1.298 5.208-.47.951.5 1.494 1.544 1.734 2.584a7.001 7.001 0 01-.186 3.769c-.685 2.043-2.288 3.687-2.995 5.721-.261.753-.383 1.635.038 2.313.492.787 1.54 1.036 2.474 1.003.934-.033 1.859-.279 2.789-.175 2.667.3 4.207 3.308 4.207 5.963 0 2.654-.93 5.242-.96 7.905-.037 3.64 1.713 7.139 4.207 9.814a19.968 19.968 0 0010.433 5.879 7.942 7.942 0 01-7.231.213c-5.415-2.634-6.243-10.464-11.359-13.597-.29-.212-.64-.33-1.001-.337-.669.041-1.09.707-1.434 1.273-1.931 3.191-5.171 5.712-8.889 6.266-3.719.553-7.817-1.111-9.63-4.373-1.813-3.262-1.161-7.244-2.04-10.843-1.527-6.24-6.466-8.071-11.64-10.767-1.822-.949-3.366-1.702-5.436-1.968-2.637-.337-5.094-2.026-2.776-4.739z" fill="#512E4E"/><path opacity=".1" d="M220.449 93.668c.992-2.03.033-4.84 1.203-6.612a2.76 2.76 0 00-.383.288c-1.872 1.684-.56 4.9-1.662 7.156a3.885 3.885 0 01-.45.686 4.441 4.441 0 001.292-1.518zm47.255 44.131c-5.419-2.634-6.247-10.464-11.384-13.601a1.772 1.772 0 00-1.001-.337c-.538.033-.913.47-1.22.936.119-.058.247-.093.379-.104.36.008.71.126 1.001.337 5.136 3.137 5.965 10.967 11.384 13.601a7.947 7.947 0 007.227-.212 22.504 22.504 0 01-.749-.175 7.974 7.974 0 01-5.637-.445zm-22.709-6.395c-3.714.553-7.816-1.115-9.625-4.373-1.809-3.257-1.161-7.247-2.04-10.842-1.531-6.241-6.47-8.072-11.645-10.768-1.817-.953-3.365-1.701-5.431-1.968-2.524-.328-4.951-1.968-2.835-4.606-.269.21-.515.446-.736.704-2.306 2.712.151 4.402 2.73 4.734 2.066.267 3.614 1.016 5.431 1.968 5.174 2.696 10.096 4.51 11.645 10.768.879 3.595.235 7.601 2.04 10.842 1.805 3.242 5.91 4.927 9.625 4.373a12.399 12.399 0 007.118-3.919 12.126 12.126 0 01-6.277 3.087z" fill="#000"/><path opacity=".5" d="M197.44 135.912c-.873-.866-2.146-1.21-3.584-.971-1.346.225-2.693.949-3.792 2.033-.318.317-.586.68-.793 1.076a4.39 4.39 0 00-.787-1.115c-1.08-1.105-2.414-1.849-3.761-2.093-1.433-.271-2.712.059-3.601.91-.889.851-1.254 2.104-1.032 3.53.208 1.334.918 2.677 1.999 3.778 2.272 2.319 6.806 1.414 6.998 1.373l.056-.012.174.039c.192.044 4.71 1.026 7.022-1.253 1.096-1.084 1.832-2.414 2.065-3.745.253-1.424-.091-2.683-.964-3.55zm-9.115 7.182c-1.096.147-3.827.344-5.182-1.039-.872-.891-1.442-1.953-1.605-2.995-.148-.949.066-1.762.606-2.274.211-.2.463-.353.739-.447a3.074 3.074 0 011.578-.079c1.047.194 2.105.79 2.976 1.68 1.356 1.375 1.071 4.074.888 5.153v.001zm8.648-3.877c-.181 1.038-.769 2.092-1.657 2.967-1.38 1.355-4.11 1.115-5.2.948-.163-1.084-.401-3.779.979-5.14.887-.874 1.955-1.453 3.005-1.626a3.083 3.083 0 011.577.105c.274.1.524.257.731.461.529.525.729 1.335.565 2.284v.001z" fill="url(#paint2_linear)"/><path d="M189.532 144.138l-.431.089c-.184.038-4.522.904-6.697-1.314-1.033-1.055-1.712-2.339-1.918-3.616-.214-1.365.137-2.564.987-3.379.849-.814 2.073-1.123 3.444-.87 1.284.238 2.561.949 3.595 2.005 2.173 2.218 1.162 6.48 1.118 6.661l-.098.424zm-6.375-7.656a1.949 1.949 0 00-.707.428c-.516.495-.721 1.268-.58 2.177.156.996.702 2.014 1.536 2.866 1.298 1.324 3.911 1.134 4.959.995.174-1.031.448-3.609-.85-4.933-.834-.851-1.845-1.423-2.848-1.607a2.953 2.953 0 00-1.51.074z" fill="#A763FF"/><path d="M188.891 144.157l-.096-.426c-.041-.181-.978-4.46 1.234-6.64 1.052-1.037 2.34-1.727 3.628-1.942 1.37-.231 2.594.099 3.426.928.831.829 1.164 2.033.927 3.388-.222 1.273-.923 2.545-1.976 3.582-2.211 2.18-6.534 1.24-6.714 1.199l-.429-.089zm6.509-7.553a2.945 2.945 0 00-1.507-.101c-1.006.168-2.027.722-2.878 1.558-1.321 1.302-1.096 3.883-.936 4.918 1.046.157 3.656.392 4.976-.909.849-.838 1.411-1.846 1.585-2.846.158-.907-.034-1.683-.541-2.186a1.945 1.945 0 00-.699-.434z" fill="#A763FF"/><path opacity=".5" d="M210.049 143.017h-42.068v8.325h2.186v24.094h37.697v-24.094h2.185v-8.325z" fill="url(#paint3_linear)"/><path d="M207.387 145.534h-36.743v29.493h36.743v-29.493z" fill="#006D8F"/><path d="M192.476 150.8h-6.923v24.225h6.923V150.8z" fill="#A763FF"/><path opacity=".1" d="M207.387 143.953h-36.743v7.374h36.743v-7.374z" fill="#4C4981"/><path d="M209.518 143.426h-41.004v7.374h41.004v-7.374z" fill="#006D8F"/><path d="M192.476 143.426h-6.923v7.374h6.923v-7.374z" fill="#A763FF"/></g><defs><linearGradient id="paint0_linear" x1="106.192" y1="229.383" x2="91.023" y2="76.379" gradientUnits="userSpaceOnUse"><stop stop-color="gray" stop-opacity=".25"/><stop offset=".54" stop-color="gray" stop-opacity=".12"/><stop offset="1" stop-color="gray" stop-opacity=".1"/></linearGradient><linearGradient id="paint1_linear" x1="72265.5" y1="150787" x2="72265.5" y2="60498.3" gradientUnits="userSpaceOnUse"><stop stop-color="gray" stop-opacity=".25"/><stop offset=".54" stop-color="gray" stop-opacity=".12"/><stop offset="1" stop-color="gray" stop-opacity=".1"/></linearGradient><linearGradient id="paint2_linear" x1="11940" y1="5977.72" x2="11940" y2="5246.12" gradientUnits="userSpaceOnUse"><stop stop-color="gray" stop-opacity=".25"/><stop offset=".54" stop-color="gray" stop-opacity=".12"/><stop offset="1" stop-color="gray" stop-opacity=".1"/></linearGradient><linearGradient id="paint3_linear" x1="19305.6" y1="23714.2" x2="19305.6" y2="15958.9" gradientUnits="userSpaceOnUse"><stop stop-color="gray" stop-opacity=".25"/><stop offset=".54" stop-color="gray" stop-opacity=".12"/><stop offset="1" stop-color="gray" stop-opacity=".1"/></linearGradient><clipPath id="clip0"><path fill="#fff" d="M0 .62h291.241v291.241H0z"/></clipPath></defs></svg>