<svg width="300" height="298" fill="none" xmlns="http://www.w3.org/2000/svg"><g clip-path="url(#clip0)"><path opacity=".1" d="M163.249 64.928c-18.015-.871-35.171-8.95-51.546-17.788C95.328 38.3 79.07 28.509 61.498 23.826c-11.309-3.013-24.242-3.436-33.353 4.986-8.768 8.104-11.604 22.096-13.126 35.078-1.146 9.764-1.823 20.045 1.32 29.19 2.181 6.347 6.052 11.685 8.728 17.764 9.315 21.158 2.731 47.25-7.364 67.91-4.733 9.691-10.224 18.934-13.868 29.252-3.645 10.317-5.345 22.135-2.148 32.658 3.168 10.433 10.72 18.266 18.9 23.777 16.614 11.192 36.186 14.396 55.284 16.208 42.26 4.018 84.743 2.278 127.114.539 15.683-.647 31.433-1.298 46.86-4.669 8.568-1.869 17.411-4.838 23.63-12.006 7.896-9.098 9.851-24.504 4.561-35.909-8.887-19.119-33.424-23.889-39.625-44.433-3.402-11.297.091-23.868 5.053-34.355 10.643-22.489 28.483-42.22 29.418-67.924.645-17.655-7.933-35.338-21.191-43.692-13.899-8.755-33.174-7.652-43.429 6.842-10.553 14.91-29.107 20.653-45.013 19.886z" fill="#9E63FF"/><path d="M22.6 222.43c-1.447-.323-3.23.289-3.65 1.672-.282.917-.157 2.269-1.124 2.464a2.157 2.157 0 01-.708-.036 4.589 4.589 0 00-2.533.377 2.21 2.21 0 00-1.14 1.005c-.361.791.073 1.723.672 2.355.598.633 1.377 1.141 1.88 1.843.841 1.157.848 2.784.167 4.036a5.323 5.323 0 01-1.424 1.586 5.48 5.48 0 01-1.949.917c-1.217.337-2.724.423-3.384 1.482-.325.524-.342 1.172-.546 1.75-.527 1.608-2.193 2.529-3.54 3.593a12.614 12.614 0 00-3.075 3.528 2.7 2.7 0 00-.414 1.093c-.096 1.123 1.015 1.951 2 2.55 1.384-.198 2.015-2.188 3.424-2.171.465.014.874.253 1.308.442 1.604.694 3.496.513 5.112-.141s3.004-1.742 4.317-2.869c.812-.7 1.631-1.435 2.65-1.836 1.02-.4 2.278-.353 3.067.379 1.063.992.792 2.733.069 3.975-.533.914-1.268 1.799-1.294 2.849-.03 1.12.801 2.13 1.822 2.663 1.02.533 2.183.698 3.323.851l2.784.367c.362.069.733.071 1.095.006.376-.113.72-.307 1.006-.57a10.128 10.128 0 001.784-2.032c.742-1.116 1.36-2.465 2.628-2.959 1.804-.702 3.777.742 5.717.608 1.337-.088 2.517-.941 3.302-1.997.784-1.056 1.234-2.307 1.674-3.537.885-2.485 1.79-5.04 1.866-7.685l-18.524-10.887c-1.522-.893-3.31-1.743-4.544-2.992-1.142-1.153-2.089-2.292-3.817-2.679z" fill="#006D8F"/><path d="M35.084 234.039l-.036-.4c-2.002.16-3.784 1.135-5.507 2.077-.692.377-1.407.77-2.123 1.1a33.789 33.789 0 01-3.27 1.238c-.428.153-.882.301-1.322.46-7.548 2.739-14.142 7.494-19.028 13.722l.329.242c4.838-6.169 11.368-10.879 18.842-13.59.433-.16.885-.31 1.319-.459a34.309 34.309 0 003.308-1.253c.727-.337 1.448-.734 2.153-1.12 1.678-.914 3.422-1.864 5.335-2.017zm5.976 4.034l-.174-.364a14.86 14.86 0 00-5.975 4.842 28.83 28.83 0 00-1.612 2.6c-.752 1.292-1.51 2.637-2.554 3.727a18.08 18.08 0 01-1.437 1.3 14.416 14.416 0 00-1.919 1.864c-.331.427-.638.872-.918 1.332-.581.917-1.132 1.782-2.025 2.312l.217.338c.965-.582 1.57-1.526 2.148-2.445.273-.447.571-.88.892-1.297a14.095 14.095 0 011.868-1.807c.509-.42.995-.865 1.457-1.334 1.075-1.129 1.856-2.488 2.61-3.806a28.787 28.787 0 011.59-2.562 14.434 14.434 0 015.831-4.7z" fill="#001F28"/><path d="M33.975 235.289l-.04-.399a20.114 20.114 0 01-11.039-2.244c-2.886-1.531-5.334-3.751-7.703-5.894l-.279.292c2.386 2.162 4.855 4.397 7.78 5.966a20.541 20.541 0 0011.281 2.279zm-16.15 7.421a33.13 33.13 0 001.084-2.08l-.372-.173c-.75 1.521-1.595 3.244-2.94 4.468-.11.101-.228.204-.343.302-.487.421-.994.861-1.234 1.478l.387.142c.2-.527.65-.913 1.11-1.325.119-.103.236-.2.352-.311a10.495 10.495 0 001.956-2.501zm10.197 13.818c-.141-.617.25-1.253.594-1.816.782-1.279 1.852-3.223 2.105-5.371l-.407-.05c-.256 2.066-1.289 3.969-2.062 5.21-.35.602-.817 1.335-.643 2.106l.413-.079zm11.381-5.044c.205-1.486.758-2.922 1.292-4.308a20.949 20.949 0 011.749-3.77 7.087 7.087 0 012.993-2.747l-.173-.363a7.48 7.48 0 00-3.17 2.899 21.342 21.342 0 00-1.782 3.838c-.543 1.408-1.106 2.865-1.317 4.397l.408.054z" fill="#001F28"/><path d="M.232 201.064c0 4.956 4.71 23.071 10.627 28.197 5.915 5.126 13.068 4.442 13.068 4.442 5.315 4.621 9.334 4.909 11.218 4.702a4.792 4.792 0 001.178-.26s1.32.467 2.895.93c1.993.577 4.417 1.155 5.085.779 1.22-.681 2.789 0 2.789 0a11.04 11.04 0 003.194 4.21 11.33 11.33 0 004.818 2.285c3.139 4.101 8.015 3.931 8.015 3.931 5.924 3.416 8.192.866 8.192.866 3.828 1.366 10.453-.684 10.453-.684 8.887-2.565 17.423-20.164 17.423-20.164s2.265-4.955 3.66-6.324c1.396-1.369 3.484-5.126 4.182-7.177.697-2.05 1.743-9.227 1.743-9.227 3.483-6.495 2.612-17.087 2.612-17.087-5.569-26.326-27.87-31.1-27.87-31.1-.045-.488-.495-.933-1.135-1.323-1.807-1.1-5.138-1.753-5.138-1.753-.52-.866-4.711-3.075-4.711-3.075s-22.129 1.025-25.09 0c-2.963-1.026-8.54 2.22-8.54 2.22-2.65-.826-8.157 1.543-11.284 3.076-1.387.682-2.308 1.198-2.308 1.198-.59.193-1.162.401-1.717.624C-2.946 170.542.231 196.212.231 201.064z" fill="#9E63FF"/><path opacity=".1" d="M99.85 206.872c.11 1.172.215 2.374-.091 3.511-.245.898-.742 1.791-.554 2.701-.862-2.626-.589-5.456-.733-8.208-.294-5.692-2.603-11.358-2.037-17.085 1.507 2.38 1.852 6.383 2.293 9.21.504 3.272.81 6.567 1.122 9.871zM16 191.395c-.524-9.582 13.937-26.043 16.028-27.923 2.09-1.88 5.75 1.623 5.75 1.623s-7.49 15.884-7.655 18.454c-.165 2.57 1.048 1.88 1.048 1.88 1.652-14.012 8.012-19.906 8.012-19.906 4.181-.867 8.799.083 8.799.083l-1.74 2.565 1.566-.344-.61 4.531h.436s.883-.427 1.472-3.846c.59-3.42 4.968-1.71 4.968-1.71l1.728 1.796c1.473-2.992 4.37-1.282 4.37-1.282s.26.511 2.003 2.928c1.743 2.418 2.438 10.573 2.438 10.573.61.682 1.472 0 1.472 0s-2.438-11.552-3.221-13.16c-.784-1.609 5.924-1.025 5.924-1.025s3.395 6.494 3.828 6.151c.433-.344-1.917-5.891-1.917-5.891.957-3.163 4.876 1.111 4.876 1.111s4.712 8.8 5.053 8.629c.342-.17-3.572-7.777-3.572-7.777l-.61-1.279s-3.66-1.71.96-3.419c4.62-1.71 11.917 7.303 12.02 7.433-1.569-4.358-8.1-7.69-8.1-7.69s-.61-.341 0-1.366c.61-1.026 2.188-3.151 2.188-3.151-.044-.488-.495-.933-1.134-1.323-.29.317-.524.678-.695 1.069-.47 1.195-2.264 3.075-2.264 3.075l-1.134-1.025-.695.428.086 1.444c-1.393-.344-3.92 1.444-3.92 1.444l-3.135-1.794-.35.598 1.392 1.444c-.047-.041-.719-.563-1.393.344-.674.906-3.4-1.95-3.4-1.95l-.525.257 1.219 1.537c-1.13-.084-5.925 1.198-5.925 1.198l-.783-1.369h-1.13v1.369l-9.423-1.369-.436-1.366-1.655 1.537-6.36-1.366s.524-2.392-2.786-.598c-3.31 1.793-4.443-2.051-4.967-1.88-.524.17-2.002.768-2.002.768s-.525-1.109-1.22-1.022c-.694.086-2.44-.942-2.44-.942l-.81-1.374c-1.387.681-2.309 1.198-2.309 1.198a28.11 28.11 0 00-1.717.624.959.959 0 00.672.401c1.472.087 5.924.867 5.924.867l.436 1.195C18.527 169.638 15.03 191.41 15.03 191.41l.971-.015zm13.59 22.084a25.94 25.94 0 00.965 6.871c.33 1.097.757 2.166 1.096 3.26 1.063 3.437 1.26 7.176 3.03 10.321.48.867 1.09 1.733 1.069 2.692a3.942 3.942 0 01-.604 1.782 4.792 4.792 0 001.178-.26s1.319.468 2.894.93a19.08 19.08 0 00-2.196-4.162 14.214 14.214 0 01-1.296-2.004 9.981 9.981 0 01-.545-1.611c-1.44-5.199-2.881-10.39-4.322-15.575a13.142 13.142 0 01-.59-5.161c.024-.846.413-2.599-.152-3.257-.684.485-.45 2.021-.48 2.772a54.628 54.628 0 00-.047 3.402z" fill="#000"/><path d="M44.863 149.807c.126 1.032.343 2.051.65 3.046.654 2.435.366 6.518 3.393 7.238 4.122.981 8.604 1.241 12.844 1.276 1.143 0 2.312-.014 3.38-.404a7.76 7.76 0 01-2.295-2.145 7.586 7.586 0 01-1.238-2.863c-.15-.771-.18-1.557-.294-2.331-.2-1.285-.66-2.512-.981-3.774a31.693 31.693 0 01-.721-4.369c-.48-4.371-.707-8.765-.68-13.161 0-1.605.067-3.269.762-4.724l.109-.22a3.16 3.16 0 00.365-.953 2.037 2.037 0 00-.151-.951 2.066 2.066 0 00-.573-.781 5.298 5.298 0 00-1.729-.959c-1.549-.592-3.295-1.103-4.196-2.478-.294-.436-.52-.985-1.025-1.141a1.036 1.036 0 00-.883.153 3.049 3.049 0 00-.816.835 24.329 24.329 0 00-3.969 9.481c-.224 1.219-.353 2.449-.486 3.679l-1.342 12.707c-.131.94-.173 1.891-.124 2.839z" fill="#322C35"/><path opacity=".1" d="M51.597 120.255c.047 1.444.59 3.202.698 4.043.024.371.13.733.312 1.06.654.99 2.23.641 3.307 1.155.342.167.633.424.98.577.444.163.915.238 1.388.223l1.504.043a3.17 3.17 0 00.365-.953 2.037 2.037 0 00-.151-.951 2.077 2.077 0 00-.573-.782 5.316 5.316 0 00-1.728-.959c-1.55-.592-3.295-1.103-4.197-2.477-.294-.436-.52-.985-1.024-1.141a1.033 1.033 0 00-.88.162zm5.224 9.221l-.65 2.203c-.713 2.412-1.429 4.834-1.738 7.309a1.673 1.673 0 01-.458-.738 1.652 1.652 0 01-.025-.864c.094-.578.345-1.109.439-1.675.136-.789-.03-1.589.035-2.383.08-.979.504-1.909.925-2.821.233-.509.98-2.984 1.534-3.111 1.08-.242.03 1.768-.062 2.08zm-3.348-.5c-.082.407-.106.823-.147 1.236a15.162 15.162 0 01-1.27 4.702c.005-1.027.097-2.052.275-3.064l.332-2.256c.083-.577.127-2.824 1.002-2.888 1.045-.06-.103 1.825-.192 2.27zm-4.879 8.956a28.816 28.816 0 00-.48 3.817c-.103 1.791-.023 3.593-.232 5.378-.54-2.859-1.078-5.776-.59-8.644.152-.823.348-1.638.59-2.44a224.829 224.829 0 012.667-8.906c.239-.74.613-1.797 1.57-2.022.868.898.159 1.77-.242 2.752-.45 1.106-.883 2.218-1.307 3.336a43.565 43.565 0 00-1.976 6.729zm6.454 18.488c-.003 1.012.132 2.02.4 2.997.296.805.691 1.57 1.179 2.279a12.606 12.606 0 01-2.023-.364.816.816 0 01-.395-.216.79.79 0 01-.147-.382 199.682 199.682 0 01-1.437-8.213 10.34 10.34 0 01-.168-2.408c.077-.884.412-2.135 1.09-2.773 1.036-.976 1.154.491 1.195 1.366.106 2.591.2 5.146.306 7.714zm-4.988 2.489c-.194-.245-.518-.363-.718-.603-.295-.347-.25-.843-.274-1.291-.018-.355-1.075-3.899.15-3.44.612.229.774 4.653.842 5.334z" fill="#000"/><path d="M74.975 134.948l-8.186 2.654c-.695.2-1.368.47-2.006.806a8.599 8.599 0 00-1.448 1.103c-2.742 2.481-4.883 5.718-5.513 9.322-.7 4.006.483 8.072 1.652 11.971.047.23.158.443.321.615.295.248.716.202 1.09.136a49.591 49.591 0 004.34-.959 12.13 12.13 0 002.235-.78c.712-.37 1.376-.822 1.979-1.346 4.47-3.737 7.023-9.169 9.372-14.439.408-.847.734-1.728.975-2.634.412-1.788.147-3.65-.118-5.467-.144-.97-.08-2.504-.589-3.327a11.024 11.024 0 01-4.104 2.345z" fill="#006D8F"/><path d="M59.156 161.156l3.575-3.073c2.441-2.096 4.965-4.265 7.102-6.743 3.416-3.953 5.778-8.574 7.818-12.978.851-1.834 1.617-3.639 1.617-5.536h-.31c0 1.839-.75 3.61-1.587 5.412-2.031 4.383-4.381 8.981-7.77 12.909-2.123 2.457-4.641 4.62-7.067 6.711l-3.575 3.07.197.228z" fill="#001F28"/><path d="M68.82 152.253l1.137-3.974c.141-.491.294-1.002.388-1.516.14-.779.21-1.569.207-2.36a23.768 23.768 0 00-1.146-7.508l-.294.092a23.42 23.42 0 011.13 7.419c.005.775-.062 1.548-.2 2.311-.097.499-.241 1.002-.38 1.49l-1.14 3.956.298.09z" fill="#001F28"/><path d="M90.778 174.689c1.334 2.102 2.87 4.089 3.957 6.324 1.087 2.235 1.7 4.806 1.049 7.197-.492 1.808-1.658 3.359-2.836 4.831a41.487 41.487 0 01-2.862 3.293c-1.95 1.969-4.246 3.635-5.854 5.882-1.608 2.247-2.403 5.36-.992 7.728-3.012-.577-5.548-2.665-7.288-5.149-1.74-2.483-2.783-5.357-3.79-8.204-.836-2.354-1.67-4.803-1.425-7.287.318-3.24 2.459-6.082 5.056-8.109s5.654-3.387 8.595-4.909c1.107-.578 2.226-1.187 3.039-2.117.654-.748.698-2.143 1.431-2.68.798.774 1.302 2.226 1.92 3.2z" fill="#006D8F"/><path d="M82.713 209.693l.182-.243c-1.62-1.181-2.094-3.318-2.438-5.406a434.004 434.004 0 01-1.057-6.7 11.648 11.648 0 01.589-6.965c.883-2.781 1.752-5.259 3.239-7.425a29.548 29.548 0 012.126-2.637c.671-.771 1.369-1.571 1.976-2.42 1.077-1.51 2.258-3.806 1.746-6.171l-.295.06c.489 2.262-.653 4.477-1.699 5.938-.589.837-1.29 1.632-1.958 2.4a30.299 30.299 0 00-2.146 2.662c-1.508 2.201-2.377 4.699-3.275 7.509a11.91 11.91 0 00-.589 7.098c.333 2.227.69 4.482 1.057 6.703.339 2.146.834 4.349 2.541 5.597z" fill="#001F28"/><path d="M78.926 195.262a19.284 19.284 0 015.024-5.539c.786-.577 1.634-1.117 2.455-1.634 1.384-.867 2.818-1.776 4.005-2.943a11.604 11.604 0 003.275-6.125l-.295-.052a11.304 11.304 0 01-3.18 5.957c-1.178 1.141-2.583 2.022-3.955 2.888-.824.52-1.678 1.057-2.473 1.646a19.655 19.655 0 00-5.133 5.649l.277.153zm2.747-9.487h.295c-.032-.811-.548-1.458-1.048-2.085-.41-.514-.834-1.045-.97-1.654a4.138 4.138 0 01.095-1.667c.12-.632.244-1.282.056-1.914l-.294.083c.167.578.055 1.156-.062 1.776a4.4 4.4 0 00-.095 1.785c.15.679.59 1.236 1.028 1.779.504.601.966 1.184.995 1.897zm-1.663 15.237l.226-.202a13.327 13.327 0 00-2.5-2.131c-.22-.145-.45-.289-.67-.425-.787-.485-1.603-.991-2.145-1.733a7.183 7.183 0 01-.883-1.825c-.035-.095-.074-.19-.109-.289a24.393 24.393 0 00-2.759-5.247l-.256.168a24.02 24.02 0 012.727 5.198c.038.095.073.187.108.289.214.672.523 1.312.92 1.9.588.774 1.416 1.296 2.225 1.799.221.136.448.289.666.419.9.592 1.723 1.29 2.45 2.079z" fill="#001F28"/><path d="M89.812 216.815c-.736-.231-1.178-.953-1.649-1.548-1.007-1.245-2.432-2.071-3.769-2.969-1.337-.898-2.65-1.958-3.262-3.428l2.282-.947a7.3 7.3 0 002.997 4.236c1.216.867 2.65.965 3.884 1.646.883.503.713.177.295 1.176-.068.176-.898 1.796-.778 1.834z" fill="#8F7345"/><path d="M74.445 144.842a6.818 6.818 0 003.763-2.553c.25-.343.47-.719.683-1.08.42-.71.815-1.383 1.43-1.874l-.194-.234c-.66.526-1.086 1.253-1.501 1.958-.205.362-.428.714-.669 1.054a6.51 6.51 0 01-3.59 2.438l.078.291zm-7.439 11.295c.494.012.986-.059 1.455-.211a5.82 5.82 0 001.13-.578l3.64-2.249c.566-.35 1.149-.711 1.75-1.011l-.14-.269c-.615.309-1.203.673-1.766 1.026l-3.64 2.246a5.74 5.74 0 01-1.071.564 4.205 4.205 0 01-1.449.19 8.536 8.536 0 01-1.994-.263l-.076.289a8.788 8.788 0 002.061.272l.1-.006z" fill="#001F28"/><path d="M43.411 231.364c1.997 5.337 4.918 10.587 9.653 13.862.919.635 1.899 1.19 2.741 1.92 1.043.91 1.902 2.106 3.21 2.6 1.307.493 2.782.167 4.025.739.925.424 1.57 1.273 2.423 1.822a4.387 4.387 0 004.847-.153c.377-.289.73-.632 1.196-.713.465-.081.969.15 1.437.32 1.525.546 3.21.364 4.82.174 3.024-.353 6.16-.746 8.748-2.311 2.156-1.314 3.749-3.344 5.183-5.397a72.896 72.896 0 005.097-8.473c1.808-3.529 3.333-7.697 1.767-11.335-.324-.754-.772-1.444-1.064-2.221-.3-.897-.497-1.824-.588-2.764-.666-4.788-1.767-9.622-4.32-13.752-2.553-4.13-6.793-7.486-11.687-8.031-3.49-.387-7.05.646-10.51.063h-.029c-1.663-.289-3.257-.938-4.94-1.094-2.521-.234-4.359 1.461-6.597 2.267-2.237.805-4.416 1.917-5.612 3.996-.239.413-.427.867-.65 1.277a4.796 4.796 0 01-.507.791c-.55.682-1.343 1.129-2.011 1.704-3.066 2.643-2.907 7.286-4.34 11.038-1.075 2.798-3.14 5.296-3.381 8.276-.141 1.828.439 3.656 1.09 5.395z" fill="#9E63FF"/><path opacity=".1" d="M43.573 231.364c1.997 5.337 4.915 10.587 9.653 13.862.918.635 1.899 1.19 2.738 1.92 1.046.91 1.905 2.106 3.213 2.6 1.307.493 2.782.167 4.025.739.925.424 1.57 1.273 2.42 1.822a4.383 4.383 0 002.45.653 4.38 4.38 0 002.4-.806c.374-.289.73-.632 1.178-.713.448-.081.972.15 1.44.32 1.525.546 3.206.364 4.82.174 3.024-.353 6.16-.746 8.746-2.311 2.158-1.314 3.751-3.344 5.185-5.397a73.372 73.372 0 005.097-8.473c1.808-3.529 3.333-7.697 1.767-11.335-.324-.754-.772-1.444-1.063-2.221a12.392 12.392 0 01-.59-2.764c-.665-4.788-1.766-9.622-4.319-13.752-2.553-4.13-6.793-7.486-11.69-8.031-3.486-.387-7.046.646-10.506.063h-.03c-1.663-.289-3.256-.938-4.94-1.094-2.521-.234-4.358 1.461-6.596 2.267-2.238.805-4.417 1.917-5.613 3.996-.238.413-.427.867-.65 1.277a4.79 4.79 0 01-.507.791c-.55.682-1.343 1.129-2.011 1.704-3.065 2.643-2.906 7.286-4.343 11.038-1.072 2.798-3.136 5.296-3.38 8.276-.124 1.828.456 3.656 1.106 5.395z" fill="#000"/><path opacity=".1" d="M52.572 204.145a5.985 5.985 0 001.572.893 6.868 6.868 0 003.96.468c1.933-.408 3.437-1.834 5.083-2.906a15.065 15.065 0 012.668-1.371c1.472-.578 4.473-1.294 4.552-3.31a1.73 1.73 0 000-.216h-.03c-1.663-.289-3.256-.939-4.94-1.095-2.52-.234-4.358 1.461-6.596 2.267-2.238.806-4.417 1.918-5.612 3.997-.245.407-.433.846-.657 1.273z" fill="#000"/><path d="M57.91 193.015a10.69 10.69 0 00-3.74-2.595c-1.423-.59-2.96-.87-4.504-.821a19.536 19.536 0 00-.221 4.725c1.852.375 3.733.759 5.403 1.625 1.67.867 3.136 2.311 3.578 4.104.703 2.888 2.238 1.669 2.14-.702a10.218 10.218 0 00-2.656-6.336z" fill="#322C35"/><path opacity=".1" d="M88.42 208.922c2.264 3.803 3.427 8.135 4.31 12.456.347 1.562.583 3.147.707 4.742.294 4.909-1.231 9.743-2.739 14.439h-1.557l.38-9.53c.144-3.604.294-7.237-.333-10.792-1.162-6.498-4.772-12.329-10.115-16.337-.539-.401-1.122-.814-1.372-1.444-1.354-3.379 4.588-.049 5.327.482a19.77 19.77 0 015.391 5.984z" fill="#000"/><path d="M79.857 213.823l6.154 8.432-4.179.951-1.975-2.987-1.502.618-1.278-1.464s2.894-4.297 2.78-5.55zm-6.39 8.204l3.6 6.036-4.646 1.253s.118-6.607 1.046-7.289zm-10.221-6.145l3.599 4.956-1.046.618-1.74 3.843-2.57.373-1.611-.907 3.368-8.883z" fill="#322C35"/><path d="M88.684 226.697l-.465 4.785h-1.625l-4.3 10.997H80.32l-1.626-4.444-3.948 1.04-1.278 4.594-7.783-.681-2.323-7.803-5.924-.743v-5.126l7.32 2.279 1.16 5.242 5.807.681 3.02-5.923 5.925 4.785 2.789-8.089 5.226-1.594zm42.102-112.432c.212 1.9 1.996 3.428 3.307 5.042 1.31 1.615 2.117 3.876.506 5.317-.539.482-1.278.797-1.902 1.21a4.707 4.707 0 00-1.992 2.66 4.616 4.616 0 00.284 3.289c1.307 2.718 4.976 4.777 4.932 7.673 0 1.028-.518 2.007-1.016 2.96l-2.959 5.704c-.819 1.568-1.646 3.177-1.749 4.857-.071.896.12 1.793.553 2.585a4.744 4.744 0 001.885 1.886c-4.387-.069-9.128-1.23-11.448-4.124-1.272-1.591-1.646-3.506-2.026-5.357-.524-2.553-1.178-5.218-3.272-7.22-.824-.791-1.846-1.444-2.65-2.258a5.863 5.863 0 01-1.743-3.734c-.218-3.827 3.751-7.206 3.663-11.035-.056-2.57-1.938-4.889-2.65-7.402-.851-3.044.076-6.24 1.684-9.091.234-.46.545-.879.919-1.239 2.282-2.062 9.508-3.67 12.712-2.157 1.66.788 3.239 2.579 3.736 4 .807 2.2-1.021 4.231-.774 6.434z" fill="#322C35"/><path opacity=".1" d="M132.627 157.442a25.553 25.553 0 01-2.695-.185 4.747 4.747 0 01-1.644-1.863 4.636 4.636 0 01-.464-2.422c.103-1.69.93-3.292 1.746-4.858l2.965-5.697c.498-.953 1.001-1.932 1.016-2.961.044-2.887-3.628-4.958-4.932-7.673a4.614 4.614 0 01-.284-3.288 4.71 4.71 0 011.992-2.661c.624-.413 1.363-.728 1.902-1.21 1.611-1.444.804-3.702-.506-5.317-1.311-1.614-3.104-3.142-3.31-5.042-.247-2.203 1.581-4.233.789-6.451-.509-1.418-2.079-3.212-3.74-3.997a6.786 6.786 0 00-2.223-.546c1.767-.139 3.451 0 4.606.546 1.66.785 3.239 2.579 3.736 3.997.792 2.218-1.036 4.248-.789 6.451.212 1.9 1.997 3.428 3.307 5.042 1.31 1.615 2.117 3.876.506 5.317-.539.482-1.278.797-1.902 1.21a4.708 4.708 0 00-1.991 2.661 4.614 4.614 0 00.283 3.288c1.308 2.715 4.977 4.777 4.932 7.673 0 1.029-.518 2.008-1.015 2.961l-2.966 5.703c-.818 1.565-1.646 3.177-1.749 4.858-.071.893.12 1.789.551 2.58a4.743 4.743 0 001.879 1.884z" fill="#000"/><path d="M93.425 145.876a178.79 178.79 0 009.623 37.832c.23.609.459 1.218.698 1.828.356-.185.712-.367 1.066-.555 10.429-5.567 18.9-14.094 24.304-24.463.354-.682.701-1.409.666-2.175-.038-.866-.563-1.631-1.066-2.345-.242-.343-.483-.69-.727-1.031l-2.253-3.194-5.356-7.592c-1.316-1.863-2.665-3.824-3.119-6.018a7.03 7.03 0 01-.126-.852c-.189-2.068.724-3.836 2.297-5.132.332-.272.907-.266.948-.725.029-.352-1.131-1.092-1.381-1.297a20.426 20.426 0 00-3.207-2.252c-1.873-1.014-4.066-1.6-6.169-1.21a4.008 4.008 0 00-1.864.8c-.913.768-1.21 2.001-1.657 3.095a10.427 10.427 0 01-5.595 5.6c-2.061.867-4.5 1.138-5.98 2.773-1.629 1.813-1.45 4.536-1.102 6.913zm156.864 75.866l1.82 2.599 3.006 1.987c.024 0 .571.101 1.387.228 2.541.392 7.688 1.155 7.688 1.155l4.043-.393 1.696-.164 2.356-1.632 3.033-3.775-3.333-4.511a13 13 0 01-3.557-.075 9.195 9.195 0 01-3.613-1.328c-3.063-2.022-9.311-3.653-9.311-3.653l-.883.257-4.164 8.975-.168.33zm-69.413-12.11c-.076 1.733.48 3.443 1.034 5.103 2.703.685 5.524-.338 8.298-.791 1.428-.234 2.844-.321 4.231.055 2.061.563 3.71 2.071 5.339 3.445 5.809 4.927 12.632 8.834 20.094 10.602 8.583 2.021 18.023 1.114 25.983 4.869a84.51 84.51 0 012.991-11.073 19.014 19.014 0 01-2.252-.626 27.422 27.422 0 01-2.539-1.017c-3.368-1.527-6.54-3.587-10.011-4.952-2.15-.85-4.396-1.421-6.62-2.06A123.564 123.564 0 01206 204.833c-1.664-.838-3.354-1.733-5.209-1.97-1.62-.216-3.26.072-4.865.358l-3.133.578c-2.414.43-4.829.866-7.246 1.288l-.445.084-.165.034c-2.406.503-3.931 1.479-4.061 4.427z" fill="#F8BDC5"/><path opacity=".1" d="M184.949 205.191c.21.919.595 1.791 1.136 2.57.174.286.437.509.751.635.401.075.817.014 1.178-.173l5.633-2.183a4.25 4.25 0 011.649-.39c.925.038 1.699.67 2.382 1.282 3.378 3.015 6.608 6.354 10.754 8.237a34.664 34.664 0 005.503 1.807c6.257 1.658 12.603 3.177 19.078 3.466 4.526.211 9.217-.145 13.586.768-4.349-1.481-8.227-4.265-12.535-5.969-2.149-.849-4.396-1.421-6.619-2.059a123.578 123.578 0 01-21.425-8.355c-1.664-.838-3.354-1.733-5.209-1.97-1.619-.216-3.259.073-4.864.359-3.46.618-6.917 1.247-10.38 1.851-.209.043-.412.081-.618.124z" fill="#000"/><path d="M184.554 200.723c.035 1.485.124 3.03.568 4.433.216.708.544 1.379.972 1.987.173.286.437.509.751.635.401.076.816.014 1.178-.173l4.16-1.611c.492-.191.984-.379 1.473-.578a4.185 4.185 0 011.648-.387c.925.035 1.7.67 2.383 1.279 3.377 3.015 6.607 6.354 10.753 8.237a34.747 34.747 0 005.504 1.808c6.257 1.66 12.602 3.176 19.078 3.465 3.66.171 7.429-.029 11.048.37 2.143.201 4.243.721 6.227 1.542a186.93 186.93 0 005.212-9.568c-3.96-1.239-7.762-2.917-11.548-4.591l-8.66-3.818c-9.558-4.228-19.246-8.525-27.208-15.202-1.646-1.375-3.222-2.856-5.077-3.951-4.122-2.431-9.284-2.512-13.612-.653-.688.295-1.352.639-1.988 1.029-4.461 2.752-2.983 11.205-2.862 15.747z" fill="#F8BDC5"/><path d="M256.502 226.561c-.016.416.007.833.068 1.245l9.405 2.645c3.171.893 6.931 1.678 9.472-.381.115-.095.224-.19.324-.289 1.275-1.215 1.882-2.983 2.427-4.658.561-1.733 1.125-3.465 1.69-5.198.618-1.906 1.245-3.87 1.098-5.865a1.853 1.853 0 00-.436-1.222c-.371-.361-.945-.404-1.472-.398-3.239.057-5.745 2.365-8.678 3.719-.682.291-1.345.627-1.981 1.005-.972.647.315.69 2.084 1.828 1.108.714 3.083 2.77 2.624 3.991-.609 1.632-2.771 1.984-4.543 2.054-2.495.096-4.993.144-7.494.144-1.475 0-2.947-.015-4.417-.046a6.846 6.846 0 00-.171 1.426z" fill="#322C35"/><path opacity=".1" d="M250.289 221.741l1.82 2.6 3.006 1.986c.024 0 .571.102 1.387.229-.016.416.007.832.068 1.244l9.405 2.646c3.171.892 6.931 1.677 9.472-.382.115-.095.224-.19.324-.288-.7-.289-1.407-.558-2.114-.815-1.767-.641-3.598-1.155-5.424-1.652-2.4-.655-4.808-1.285-7.137-2.14l-.112-.04c-3.239-1.199-6.334-2.839-9.735-3.558l-.804-.167-.156.337z" fill="#000"/><path d="M260.987 225.75c4.122 1.533 8.518 2.336 12.661 3.829 3.593 1.297 7.041 3.116 10.825 3.682 1.819.272 3.669.246 5.506.312a3.9 3.9 0 011.558.289c.244.103.453.275.599.493.147.218.225.473.225.734a1.776 1.776 0 01-.377.849 10.696 10.696 0 01-5.447 4.018c-1.685.545-3.478.667-5.247.782-5.692.378-11.449.754-17.079-.216a20.364 20.364 0 01-2.791-.662c-4.311-1.395-7.765-4.802-12.156-5.932-.933-.239-1.896-.375-2.794-.724-.898-.35-1.743-.962-2.082-1.846-.5-1.317.239-2.738.819-4.023.38-.842.696-1.711.948-2.599.171-.609.162-2.047.524-2.518.674-.866 3.516-.225 4.552 0 3.419.699 6.523 2.333 9.756 3.532z" fill="#F8BDC5"/><path d="M270.318 238.852c1.472-.037 2.98-.072 4.461-.242 1.675-.194 3.339-.558 5.026-.592 1.961-.041 3.949.364 5.872 0s3.845-1.927 3.675-3.841c-.781.254-1.961.289-2.088-.503-.08-.514.409-.924.842-1.218l8.804-5.984c.589-.399 1.284-.82 1.976-.638.633.167 1.037.811 1.113 1.444.03.644-.07 1.288-.294 1.894l-1.128 3.887c-.736 2.53-1.472 5.089-2.85 7.35a8.59 8.59 0 01-2.123 2.478c-1.72 1.282-4.02 1.556-6.184 1.444-2.164-.113-4.284-.607-6.446-.65-3-.061-5.945.725-8.833 1.504-.819.22-1.838.74-1.667 1.554.063.217.17.42.315.595.742 1.037 1.516 2.102 2.615 2.772 1.098.67 2.476.887 3.734 1.291a11.588 11.588 0 013.651 1.958c.292.201.523.477.665.797a.72.72 0 01.022.505.735.735 0 01-.316.399l-19.579-7.416a3.173 3.173 0 01-1.31-.751 3.112 3.112 0 01-.589-1.305l-1.039-3.899c-.195-.727-.41-1.49-.934-2.039-1.39-1.443-4.402-.898-5.244-2.714 1.714-.901 3.828-.849 5.671-.269 1.752.552 3.425 2.238 5.206 2.403 2.253.188 4.717-.162 6.976-.214z" fill="#322C35"/><path opacity=".1" d="M117.65 134.143c8.806 0 15.945-7.002 15.945-15.638 0-8.637-7.139-15.638-15.945-15.638-8.806 0-15.945 7.001-15.945 15.638 0 8.636 7.139 15.638 15.945 15.638z" fill="#000"/><path d="M117.65 133.525c8.806 0 15.945-7.002 15.945-15.638 0-8.637-7.139-15.638-15.945-15.638-8.806 0-15.945 7.001-15.945 15.638 0 8.636 7.139 15.638 15.945 15.638z" fill="#F8BDC5"/><path opacity=".1" d="M103.048 183.705c.23.609.459 1.218.698 1.828 10.91-5.54 19.781-14.287 25.37-25.018.354-.682.701-1.409.666-2.175-.039-.866-.563-1.631-1.066-2.345-.242-.343-.483-.69-.728-1.031-2.75 1.641-5.847 4.113-7.332 6.978-.636 1.227-.859 2.584-1.601 3.786-.966 1.568-2.306 2.887-3.631 4.173a8857.216 8857.216 0 00-8.96 8.681c-1.178 1.129-2.356 2.31-3.001 3.791a7.611 7.611 0 00-.415 1.332z" fill="#000"/><path d="M102.05 202.427c0 .095.017.191.029.289a1.26 1.26 0 00.471.938c.273.137.58.191.884.156.359 0 .721-.02 1.08-.034a85.448 85.448 0 0026.796-5.383c1.826-.691 3.649-1.444 5.209-2.599a1.326 1.326 0 01-.377-.191c-.609-.422-.857-1.294-1.007-2.053a198.192 198.192 0 01-1.531-8.826 17.563 17.563 0 01-.277-3.864c.089-1.178.404-2.356.23-3.526-.1-.69-.371-1.343-.501-2.021-.589-3.122 1.714-5.987 2.603-9.04.477-1.688.525-3.466.141-5.177a10.67 10.67 0 00-2.343-4.641c-.816-.927-1.917-1.753-3.163-1.733-.812.023-1.563.41-2.258.823a26.671 26.671 0 00-2.483 1.658c-1.969 1.484-3.842 3.335-4.896 5.357-.636 1.227-.86 2.584-1.602 3.786-.966 1.568-2.306 2.888-3.631 4.173l-8.834 8.559-.126.122c-1.178 1.129-2.356 2.31-3.001 3.792a11.334 11.334 0 00-.686 2.936c-.757 5.464-1.136 10.998-.727 16.499z" fill="#322C35"/><path opacity=".1" d="M180.876 209.633c-.076 1.732.48 3.442 1.034 5.102 2.703.685 5.524-.337 8.298-.791.389-2.688 1.178-5.311 1.967-7.936.218-.733.436-1.473.639-2.209.58-1.984.985-4.013 1.21-6.065a23.038 23.038 0 00-1.793-11.225c-.324-.751-.71-1.51-1.372-1.993a3.031 3.031 0 00-1.455-.551c-.687.295-1.351.638-1.988 1.028-4.461 2.743-2.982 11.196-2.862 15.739.036 1.484.124 3.029.569 4.433l-.165.035c-2.427.508-3.952 1.484-4.082 4.433z" fill="#000"/><path d="M141.528 197.737c.356.618.651 1.395 1.346 1.6 1.419.419 2.141-1.903 3.583-2.241.663-.153 1.334.15 2 .306 5.3 1.233 8.948-6.867 14.375-6.394.963.087 1.882.448 2.845.529 1.922.159 3.73-.812 5.444-1.69a73.604 73.604 0 0114.367-5.533c1.472-.398 3.201-.71 4.417.191.662.488 1.051 1.247 1.375 1.995a23.054 23.054 0 011.79 11.226c-.548 5.879-3.345 11.384-3.949 17.261-.335 3.289.024 6.642-.618 9.891a16.681 16.681 0 01-2.745 6.331 17.063 17.063 0 01-5.096 4.727c-2.592 1.545-5.595 2.394-8.071 4.1-2.477 1.707-4.453 4.739-3.534 7.575.477 1.473 1.534 3.402.221 4.263-.406.266-.934.289-1.355.54-1.007.578-.96 2.021-1.528 3.026-1.028 1.826-3.692 1.794-5.777 1.366-2.085-.427-4.564-.903-6.084.555-1.083 1.037-1.395 2.859-2.803 3.402-1.767.687-3.457-1.265-5.341-1.574-.898-.147-1.811.089-2.665.399-3.734 1.357-7.27 4.17-11.19 3.508-3.48-.577-5.933-3.754-9.278-4.863-2.903-.964-6.157-.245-8.86 1.175-1.234.647-2.48 1.462-3.878 1.444-1.399-.017-2.692-.912-3.952-1.602-4.122-2.25-9.075-2.47-13.769-2.057-3.68.324-8.365.506-9.985-2.749-.294-.577-.445-1.227-.86-1.733-.907-1.088-2.597-1.007-3.925-1.536-2.803-1.118-3.507-4.956-2.235-7.647 1.272-2.692 3.872-4.499 6.325-6.235 6.14-4.332 12.494-9.698 13.619-17.039.813-5.308-1.019-11.655 2.844-15.459 1.588-1.565 3.828-2.278 5.993-2.888a150.092 150.092 0 0124.949-4.834c1.31-.142 2.833-.066 4.102-.39.869-.219 1.502-.811 2.376-1.048 2.026-.549 4.485.274 5.527 2.102z" fill="#322C35"/><path opacity=".1" d="M84.954 251.187c.188.531.754.823 1.278 1.048a23.288 23.288 0 0016.033.782c2.674-.846 5.241-2.235 6.996-4.383 3.478-4.269 3.018-10.299 3.384-15.751.692-10.396 4.988-20.426 5.529-30.727.056-1.138.068-2.282.027-3.428 0-.327-.027-.65-.05-.979-.15-2.345-.548-4.684-.436-7.029.118-1.653.367-3.295.745-4.91a400.697 400.697 0 017.102-28.613c-1.978 1.49-3.851 3.341-4.905 5.363-.636 1.227-.86 2.584-1.602 3.786-.966 1.568-2.306 2.888-3.631 4.173l-8.833 8.559a26292.58 26292.58 0 00-1.906 22.815l-.159 1.891c-.076.922-.156 1.846-.229 2.764-.551 6.593-1.105 13.198-.984 19.811.097 5.227.386 11.11-3.262 14.925-1.446 1.513-3.366 2.501-5.242 3.465l-8.192 4.159c-.921.479-2.008 1.311-1.663 2.279z" fill="#000"/><path opacity=".1" d="M104.812 184.978a58.532 58.532 0 0015.117-11.551 391.006 391.006 0 014.823-18.087c.348-1.187.701-2.371.984-3.573l-5.356-7.592c-1.316-1.863-2.665-3.823-3.119-6.018-3.66.996-6.849 5.839-8.079 8.9-1.508 3.755-1.861 7.847-2.194 11.87a5794.63 5794.63 0 01-1.196 14.318c-.329 3.912-.656 7.823-.98 11.733z" fill="#000"/><path d="M126.993 147.346c-.047 2.726-.845 5.377-1.607 7.997a398.77 398.77 0 00-7.553 30.17 30.624 30.624 0 00-.748 4.909c-.112 2.348.294 4.684.439 7.029.768 11.861-4.712 23.274-5.51 35.134-.365 5.45.094 11.483-3.383 15.748-1.767 2.152-4.323 3.541-6.996 4.387a23.283 23.283 0 01-16.034-.78c-.524-.225-1.09-.523-1.278-1.051-.344-.965.742-1.799 1.667-2.27l8.189-4.182c1.879-.958 3.795-1.946 5.244-3.465 3.646-3.815 3.357-9.695 3.263-14.922-.124-6.616.43-13.221.98-19.814l2.753-32.991 1.196-14.321c.336-4.02.689-8.112 2.197-11.867 1.316-3.269 4.876-8.585 8.851-9.045 5.421-.635 8.404 4.771 8.33 9.334z" fill="#F8BDC5"/><path opacity=".1" d="M148.091 211.342c.704 1.825 1.04 3.769 1.702 5.605 1.55 4.216 4.739 7.659 8.869 9.577-4.142-1.085-7.785-3.52-10.329-6.905a18.275 18.275 0 01-3.669-11.719c.038-.927.106-2.461.836-3.088.657.63.719 2.175 1.06 3.044.465 1.182 1.075 2.302 1.531 3.486zm-10.73 4.967c2.235 1.825 3.955 4.191 5.362 6.686a37.855 37.855 0 014.617 22.927c-2.611-5.068-3.239-10.922-5.727-16.054-1.993-4.13-5.097-7.633-7.585-11.497-.456-.713-3.778-4.476-2.889-5.019 1.258-.771 5.333 2.23 6.222 2.957z" fill="#000"/><path d="M90.098 114.591c-.854.867-1.847 1.629-2.491 2.623-.946 1.464-1.025 3.231-1.081 4.909-.07 2.154-.12 4.401.919 6.353.565 1.052 1.422 1.967 1.964 3.027.541 1.06.712 2.4-.083 3.33-.61.713-1.646 1.028-2.355 1.657-1.708 1.508-.996 4.043-.086 6.03 1.455 3.177 3.148 6.302 3.725 9.684.577 3.381-.156 7.153-2.945 9.515-.426.364-.927.731-1.039 1.248a1.73 1.73 0 00.236 1.123c1.219 2.484 4.084 4.257 7.129 4.413a3.81 3.81 0 001.73-.234 3.878 3.878 0 001.258-1.002c1.272-1.363 2.444-2.917 2.65-4.679.324-2.856-1.91-5.368-3.153-8.019a12.312 12.312 0 01-1.102-3.85c-.188-1.658.065-3.52 1.455-4.644 1.896-1.53 4.838-.99 7.361-.638 2.042.285 4.106.382 6.166.289 1.14-.052 2.406-.225 3.107-1.025 1.122-1.28.032-3.151-1.257-4.297-1.29-1.147-2.918-2.331-2.921-3.957 0-1.328 1.107-2.414 1.834-3.575a6.902 6.902 0 001.048-3.49 6.896 6.896 0 00-.88-3.534c-.439-.773-1.048-1.562-.919-2.422.174-1.141 1.517-1.779 2.65-2.343a18.369 18.369 0 007.044-6.107c1.787-2.669 2.603-6.354.33-8.708-1.593-1.654-4.211-2.145-6.64-2.431a86.472 86.472 0 00-12.368-.578c-2.564.067-7.031.217-7.582 2.949-.65 3.165-1.187 5.856-3.704 8.383z" fill="#322C35"/><path opacity=".1" d="M90.192 166.915a3.879 3.879 0 001.734-.234 4.035 4.035 0 001.258-1.003c1.269-1.365 2.44-2.916 2.65-4.681.32-2.856-1.914-5.368-3.157-8.017a12.322 12.322 0 01-1.095-3.867c-.186-1.66.065-3.523 1.454-4.643 1.897-1.534 4.841-.991 7.362-.639 2.042.284 4.106.381 6.166.289 1.139-.052 2.406-.222 3.106-1.022 1.122-1.282.036-3.151-1.257-4.3-1.293-1.15-2.918-2.331-2.921-3.954 0-1.328 1.107-2.417 1.837-3.578a6.901 6.901 0 001.053-3.491 6.897 6.897 0 00-.876-3.538c-.442-.777-1.051-1.565-.922-2.426.174-1.138 1.517-1.776 2.651-2.342a18.344 18.344 0 007.04-6.105c1.787-2.668 2.606-6.353.333-8.707a5.147 5.147 0 00-.569-.505c1.726.346 3.366.932 4.494 2.102 2.273 2.357 1.457 6.039-.33 8.707a18.384 18.384 0 01-7.043 6.108c-1.128.563-2.468 1.201-2.65 2.342-.13.866.48 1.649.918 2.423a6.882 6.882 0 01-.168 7.023c-.727 1.156-1.84 2.247-1.837 3.576 0 1.626 1.631 2.807 2.924 3.956s2.379 3.018 1.257 4.297c-.701.8-1.967.974-3.106 1.025a33.54 33.54 0 01-6.166-.288c-2.533-.353-5.477-.893-7.362.638-1.39 1.123-1.643 2.986-1.457 4.644.152 1.34.523 2.648 1.098 3.872 1.243 2.651 3.478 5.164 3.154 8.02-.2 1.762-1.37 3.315-2.65 4.679a3.917 3.917 0 01-1.258 1.002 3.823 3.823 0 01-1.734.234 9.012 9.012 0 01-4.77-1.687c.274.04.553.066.839.09z" fill="#000"/><path d="M101.213 103.069l.036.031c.91.893 2.143 1.398 3.365 1.797 3.56 1.155 7.362 1.678 10.798 3.113a14.8 14.8 0 011.178.54c1.676.835 3.198 1.929 4.711 3.015 2.009 1.444 4.023 2.888 5.81 4.586.754.716 1.472 1.473 2.261 2.143 1.555 1.305 3.401 2.232 5.227 3.145l4.976 2.489c1.305.656 2.624 1.314 4.04 1.681 1.359.352 2.777.428 4.166.222a10.397 10.397 0 003.912-1.421 10.176 10.176 0 003.015-2.828 9.967 9.967 0 001.619-3.771c.171-.79.206-1.603.106-2.405a10.468 10.468 0 00-.857-2.651c-1.125-2.617-2.429-5.239-4.531-7.183a23.675 23.675 0 00-3.069-2.287l-5.889-3.916c-.883-.577-1.787-1.187-2.806-1.501-1.899-.578-3.828-.081-5.727-.223-.133 0-.262-.02-.392-.037-1.672-.205-2.868-1.609-4.555-2.022-1.561-.378-3.189-.367-4.797-.352l-15.638.138a10.587 10.587 0 00-2.636.249c-1.304.352-2.409 1.187-3.472 2.007-.129.098-.259.2-.388.306a4.306 4.306 0 00-1.384 1.62c-.492 1.204.009 2.599.921 3.515z" fill="#9E63FF"/><path opacity=".1" d="M101.299 106.352c.191.399.663.578 1.095.696 4.196 1.155 8.737.303 13.018.965.623.097 1.239.229 1.847.395 1.707.483 3.306 1.291 5.005 1.811 2.945.893 6.066.89 9.129.771a2.48 2.48 0 001.139-.228.808.808 0 00.365-.419.786.786 0 00.003-.551c.515-3.275.738-6.587.666-9.9 0-.745-.041-1.507 0-2.261-.133 0-.262-.02-.392-.038-1.672-.205-2.868-1.608-4.555-2.021-1.561-.379-3.189-.367-4.797-.353l-15.639.139a10.583 10.583 0 00-2.635.248c-1.304.353-2.409 1.187-3.472 2.007-.129.099-.259.2-.388.307a8.737 8.737 0 00-.377 2.628c-.021.843-.036 1.695-.053 2.538-.018.843-.036 1.672-.05 2.51a1.65 1.65 0 00.091.756z" fill="#000"/><path d="M132.279 109.177c.51-3.274.73-6.584.657-9.894-.045-1.976-.154-4.104.957-5.75.294-.425.656-.939.406-1.38a1.743 1.743 0 00-.495-.457c-.842-.67-.96-1.865-1.016-2.928-.07-1.378-.126-2.819.474-4.066.259-.532.639-1.049.61-1.635-.035-.635-.545-1.155-.642-1.785-.168-1.054.81-1.894 1.605-2.622a12.547 12.547 0 003.325-5.177c.657-1.968.808-4.064.441-6.103-.368-1.93 1.587-3.847 2.04-5.761.058-.378.162-.747.31-1.1.606-1.156 2.335-1.075 3.389-1.858.677-.502 1.178-1.409 2.026-1.403.326.032.642.124.933.271a6.205 6.205 0 003.157.39c.091 2.337.194 4.728 1.077 6.9.919 2.26 2.615 4.118 4.055 6.099 1.44 1.98 2.694 4.291 2.5 6.72.739.214 1.399-.656 1.328-1.407-.071-.75-.589-1.38-.951-2.038-.721-1.26-.986-2.715-1.272-4.133-.883-4.39-2.082-8.756-4.105-12.767-.733-1.444-1.578-2.874-1.984-4.448-.215-.837-.533-1.926-1.414-1.97a2.513 2.513 0 00-.698.119c-1.961.48-3.945-.508-5.939-.817-2.624-.404-5.268.372-7.803 1.155-.992.289-2.008.615-2.812 1.26-1.257 1.01-1.767 2.656-2.836 3.866-.913 1.045-2.193 1.733-3.077 2.804-.924 1.115-1.351 2.556-2.232 3.705-1.767 2.31-5.138 3.148-6.658 5.632-1.519 2.483-3.009 4.932-4.302 7.508-1.292 2.576-3.574 4.682-3.969 7.492-.162 1.155-.112 2.575-1.136 3.162-.41.234-.928.288-1.281.577-.474.42-.463 1.132-.477 1.76a9.494 9.494 0 01-1.614 5.056 2.877 2.877 0 01-.869.91c-.456.27-1.013.323-1.495.542-1.529.696-1.767 2.686-1.808 4.332l-.104 5.051c-.025.251.01.504.101.739.191.399.662.578 1.095.696 4.806 1.332 10.065 0 14.861 1.364 1.711.482 3.31 1.29 5.006 1.807 2.945.893 6.066.89 9.128.771.394.016.786-.062 1.143-.228a.8.8 0 00.36-.416.78.78 0 00.005-.545z" fill="#9E63FF"/><path opacity=".1" d="M117.812 81.796c-.683.26-1.29.705-1.994.901-.453.127-.933.148-1.392.26a4.624 4.624 0 00-2.515 1.826 13.312 13.312 0 00-1.434 2.792 11.192 11.192 0 013.722-.814c.7.01 1.399-.038 2.091-.142a7.096 7.096 0 002.355-1.112c.784-.51 3.286-1.802 3.098-2.867-.215-1.37-3.048-1.181-3.931-.844zm-4.85 9.767a6.368 6.368 0 00-1.949.578c-1.243.67-1.946 1.984-2.582 3.229a19.785 19.785 0 017.832-2.747c1.935-.245 4.417 0 6.184-.898-.757-1.56-7.933-.436-9.485-.162zm19.279-35.313c1.236.159 2.096 1.297 2.576 2.426.48 1.129.751 2.377 1.531 3.332a4.47 4.47 0 00-.02-2.965.902.902 0 01-.089-.474.732.732 0 01.242-.367c.683-.652 4.535-2.004 2.038-2.145-2.073-.122-4.12.467-6.278.193z" fill="#000"/><path d="M85.165 104.83c1.264-2.599 3.649-4.534 6.27-5.827 2.62-1.294 5.491-1.999 8.336-2.7a9.083 9.083 0 012.29-.359c1.284.02 2.495.578 3.593 1.233a41.204 41.204 0 013.937 2.776l3.533 2.697c3.463 2.645 6.997 5.369 9.323 9.019-2.68.159-5.174-1.222-7.78-1.866-2.606-.644-5.256-.551-7.906-.462l-6.478.217a25.356 25.356 0 00-4.208.375c-.957.216-1.901.486-2.827.809l-4.785 1.568c-1.964.644-3.533 1.155-4.063-1.178a9.727 9.727 0 01.765-6.302z" fill="#9E63FF"/><path opacity=".1" d="M85.165 104.83c1.264-2.599 3.649-4.534 6.27-5.827 2.62-1.294 5.491-1.999 8.336-2.7a9.083 9.083 0 012.29-.359c1.284.02 2.495.578 3.593 1.233a41.204 41.204 0 013.937 2.776l3.533 2.697c3.463 2.645 6.997 5.369 9.323 9.019-2.68.159-5.174-1.222-7.78-1.866-2.606-.644-5.256-.551-7.906-.462l-6.478.217a25.356 25.356 0 00-4.208.375c-.957.216-1.901.486-2.827.809l-4.785 1.568c-1.964.644-3.533 1.155-4.063-1.178a9.727 9.727 0 01.765-6.302z" fill="#000"/></g><defs><clipPath id="clip0"><path fill="#fff" d="M0 0h300v298H0z"/></clipPath></defs></svg>