<svg width="245" height="297" viewBox="0 0 245 297" fill="none" xmlns="http://www.w3.org/2000/svg">
<g id="3">
<path id="Vector" d="M219.585 189.724C219.585 237.657 187.206 278.224 142.588 291.799C136 293.816 129.237 295.209 122.388 295.958C118.206 296.427 114.001 296.662 109.793 296.661C108.227 296.661 106.672 296.631 105.126 296.552H105.106C89.4087 295.941 74.0186 292.013 59.9487 285.026C50.0651 280.117 40.9765 273.748 32.9885 266.134C22.5831 256.31 14.2909 244.467 8.61877 231.329C2.94669 218.191 0.0139716 204.034 0 189.724C0 144.405 28.9425 105.67 69.8097 90.1049C74.6996 88.2354 79.7176 86.7198 84.8248 85.5699C103.644 81.3176 123.238 81.9482 141.744 87.4017C143.147 87.7978 144.54 88.2434 145.912 88.7186C145.922 88.7186 145.933 88.7285 145.943 88.7285C149.244 89.8385 152.488 91.1141 155.661 92.5505C156.749 93.0258 157.837 93.5308 158.904 94.0655C161.039 95.0953 163.133 96.2009 165.187 97.3825C165.98 97.8281 166.763 98.2835 167.535 98.7589C180.147 106.349 191.092 116.413 199.711 128.345C207.55 139.193 213.243 151.44 216.484 164.426C218.552 172.699 219.594 181.196 219.585 189.724Z" fill="#006D8F"/>
<path id="hair" d="M214.934 61.0565L230.518 63.0236L236.963 51.7826C236.963 51.7826 209.079 24.5846 188.701 41.5334C181.505 47.5178 174.698 50.0006 168.903 50.7085C164.935 51.1227 160.926 50.654 157.161 49.3362C153.396 48.0183 149.969 45.8839 147.126 43.0859C127.675 24.5185 111.768 45.4803 111.768 45.4803C111.768 45.4803 112.279 49.7047 126.17 56.8974C133.083 60.4769 136.564 68.2729 138.317 75.2021C142.07 90.0399 161.268 94.8189 171.519 83.6065C171.684 83.4257 171.849 83.2418 172.015 83.0547C188.563 64.3427 211.868 95.5495 211.868 95.5495L222.661 76.7257L214.934 61.0565Z" fill="#2F2E41"/>
<path id="Vector_2" d="M125.843 74.5917C136.01 74.5917 144.252 66.5643 144.252 56.662C144.252 46.7596 136.01 38.7322 125.843 38.7322C115.676 38.7322 107.435 46.7596 107.435 56.662C107.435 66.5643 115.676 74.5917 125.843 74.5917Z" fill="#2F2E41"/>
<path id="Vector_3" d="M116.639 152.287C143.75 152.287 165.729 130.881 165.729 104.475C165.729 78.0684 143.75 56.6619 116.639 56.6619C89.5273 56.6619 67.5491 78.0684 67.5491 104.475C67.5491 130.881 89.5273 152.287 116.639 152.287Z" fill="#2F2E41"/>
<path id="Vector_4" d="M115.105 154.778C133.744 154.778 148.854 140.061 148.854 121.906C148.854 103.752 133.744 89.0352 115.105 89.0352C96.4655 89.0352 81.3555 103.752 81.3555 121.906C81.3555 140.061 96.4655 154.778 115.105 154.778Z" fill="#A0616A"/>
<path id="Vector_5" d="M101.81 146.809L107.946 178.684L138.627 174.7C138.627 174.7 133.513 149.797 136.581 142.824L101.81 146.809Z" fill="#A0616A"/>
<path id="Vector_6" d="M185.671 212.547C185.675 212.712 185.668 212.878 185.651 213.042V213.052C185.021 227.291 158.111 270.867 142.588 291.799C136 293.816 129.237 295.209 122.388 295.958C118.206 296.427 114.001 296.662 109.793 296.661C108.227 296.661 106.672 296.631 105.126 296.552H105.106C90.8127 292.056 73.8355 286.155 61.4533 281.501C55.618 279.293 50.7993 277.372 47.7699 276.006C46.642 275.543 45.5598 274.977 44.5372 274.313C39.4237 270.323 50.6773 267.332 55.7908 266.342C60.9042 265.342 53.7475 254.391 53.7475 254.391C35.3369 235.459 57.8342 219.528 57.8342 219.528C57.8342 219.528 67.0344 200.596 67.0344 195.616C67.0592 195.246 67.1977 194.893 67.431 194.606C71.2838 189.298 101.812 179.684 101.812 179.684V163.743L104.974 163.228L136.082 158.178L138.623 157.762L143.737 165.733L166.244 168.723C166.244 168.723 185.671 194.625 185.671 212.547Z" fill="#D0CDE1"/>
<path id="Vector_7" d="M88.5152 212.547C88.5152 212.547 75.0351 248.945 62.724 278.442C62.2971 279.472 61.8701 280.492 61.4532 281.501C60.9449 282.69 60.4468 283.868 59.9487 285.026C50.0651 280.117 40.9765 273.749 32.9885 266.134C38.5189 248.618 47.2921 220.785 50.6774 209.567C54.4084 197.2 63.0392 194.932 67.431 194.606C68.3206 194.523 69.2162 194.53 70.1045 194.625L88.5152 212.547Z" fill="#D0CDE1"/>
<g id="r-hand">
<path id="Vector_8" d="M162.149 77.0822C162.149 77.0822 137.604 59.1524 127.377 66.1251C117.15 73.0978 154.99 96.0081 159.081 94.0159C163.172 92.0237 162.149 77.0822 162.149 77.0822Z" fill="#A0616A"/>
<path id="Vector_9" d="M163.172 171.712L166.24 168.723C166.24 168.723 205.103 127.883 204.08 117.922C204.08 117.922 183.626 93.0198 158.058 99.9925C158.058 99.9925 146.809 73.0978 164.195 74.0939C181.58 75.09 246.011 71.1056 244.988 99.9925C243.965 128.879 182.603 217.532 182.603 217.532L163.172 171.712Z" fill="#D0CDE1"/>
</g>
<path id="Vector_10" d="M122.388 295.958C118.206 296.427 114.001 296.662 109.793 296.661C108.227 296.661 106.672 296.631 105.126 296.552H105.106C89.4088 295.941 74.0187 292.013 59.9488 285.026C55.4747 282.806 51.1576 280.281 47.0278 277.472L47.77 276.006V275.996L48.6342 274.313L62.7241 278.442L122.388 295.958Z" fill="#2F2E41"/>
<path id="Vector_11" d="M148.698 106.769C152.229 95.7377 140.739 82.2002 123.033 76.5321C105.327 70.864 88.1109 75.2116 84.5795 86.2428C81.0481 97.274 92.5387 110.811 110.245 116.48C127.95 122.148 145.167 117.8 148.698 106.769Z" fill="#2F2E41"/>
</g>
</svg>
